<?xml version="1.0" encoding="UTF-8" standalone="no"?>
<svg
   xmlns:dc="http://purl.org/dc/elements/1.1/"
   xmlns:cc="http://creativecommons.org/ns#"
   xmlns:rdf="http://www.w3.org/1999/02/22-rdf-syntax-ns#"
   xmlns:svg="http://www.w3.org/2000/svg"
   xmlns="http://www.w3.org/2000/svg"
   xmlns:sodipodi="http://sodipodi.sourceforge.net/DTD/sodipodi-0.dtd"
   xmlns:inkscape="http://www.inkscape.org/namespaces/inkscape"
   preserveAspectRatio="xMidYMid"
   width="1024"
   height="1024"
   viewBox="0 0 1024 1024"
   id="svg2"
   version="1.1"
   inkscape:version="0.91 r"
   sodipodi:docname="C1S1Background.svg"
   inkscape:export-filename="/home/eba/Documents/FTB_Grafik/Cutscenes/1st_scene/svg/1st_slide.png"
   inkscape:export-xdpi="90"
   inkscape:export-ydpi="90"
   frustum="Frame:C1S1Frustum">
  <metadata
     id="metadata474">
    <rdf:RDF>
      <cc:Work
         rdf:about="">
        <dc:format>image/svg+xml</dc:format>
        <dc:type
           rdf:resource="http://purl.org/dc/dcmitype/StillImage" />
      </cc:Work>
    </rdf:RDF>
  </metadata>
  <sodipodi:namedview
     pagecolor="#ffffff"
     bordercolor="#666666"
     borderopacity="1"
     objecttolerance="10"
     gridtolerance="10"
     guidetolerance="10"
     inkscape:pageopacity="0"
     inkscape:pageshadow="2"
     inkscape:window-width="1920"
     inkscape:window-height="1030"
     id="namedview472"
     showgrid="false"
     inkscape:zoom="1.4890854"
     inkscape:cx="293.98326"
     inkscape:cy="686.85521"
     inkscape:window-x="0"
     inkscape:window-y="113"
     inkscape:window-maximized="1"
     inkscape:current-layer="layer2"
     inkscape:snap-midpoints="true"
     inkscape:object-nodes="true" />
  <defs
     id="defs4">
    <style
       id="style6">
      .cls-1 {
        fill: #6dd0f7;
      }

      .cls-2 {
        fill: #93dcf9;
      }

      .cls-10, .cls-11, .cls-12, .cls-13, .cls-14, .cls-15, .cls-16, .cls-17, .cls-18, .cls-19, .cls-2, .cls-20, .cls-21, .cls-22, .cls-23, .cls-24, .cls-25, .cls-26, .cls-27, .cls-28, .cls-3, .cls-30, .cls-31, .cls-32, .cls-33, .cls-34, .cls-35, .cls-36, .cls-37, .cls-38, .cls-39, .cls-4, .cls-40, .cls-41, .cls-42, .cls-43, .cls-44, .cls-45, .cls-46, .cls-47, .cls-48, .cls-49, .cls-5, .cls-50, .cls-51, .cls-52, .cls-53, .cls-54, .cls-55, .cls-56, .cls-57, .cls-58, .cls-6, .cls-7, .cls-8, .cls-9 {
        fill-rule: evenodd;
      }

      .cls-3 {
        fill: #fff;
      }

      .cls-4 {
        fill: #dcf4fd;
      }

      .cls-5 {
        fill: #6da128;
      }

      .cls-6 {
        fill: #85c231;
      }

      .cls-7 {
        fill: #a1e546;
      }

      .cls-8 {
        fill: #476321;
      }

      .cls-9 {
        fill: #8c6239;
      }

      .cls-10 {
        fill: #a67c52;
      }

      .cls-11 {
        fill: #476b17;
      }

      .cls-12 {
        fill: #bf8d60;
      }

      .cls-13 {
        fill: #946943;
      }

      .cls-14 {
        fill: #e3b07c;
      }

      .cls-15 {
        fill: #5d422a;
      }

      .cls-16 {
        fill: #795638;
      }

      .cls-17 {
        fill: #754c24;
      }

      .cls-18 {
        fill: #d29151;
      }

      .cls-19 {
        fill: #4e2f11;
      }

      .cls-20 {
        fill: #603913;
      }

      .cls-21 {
        fill: #005826;
      }

      .cls-22 {
        fill: #119a4c;
      }

      .cls-23 {
        fill: #f9b014;
      }

      .cls-24 {
        fill: #a57612;
      }

      .cls-25 {
        fill: #fee09f;
      }

      .cls-26 {
        fill: #986431;
      }

      .cls-27 {
        fill: #fff568;
      }

      .cls-28, .cls-29 {
        fill: #f7941d;
      }

      .cls-30 {
        fill: #b78116;
      }

      .cls-31 {
        fill: #5b2a0c;
      }

      .cls-32 {
        fill: #bc7547;
      }

      .cls-33 {
        fill: #a95727;
      }

      .cls-34 {
        fill: #794422;
      }

      .cls-35 {
        fill: #f18e3b;
      }

      .cls-36 {
        fill: #ffc92a;
      }

      .cls-37 {
        fill: #d05f26;
      }

      .cls-38 {
        fill: #f9ad81;
      }

      .cls-39 {
        fill: #c4733b;
      }

      .cls-40 {
        fill: #ced7d4;
      }

      .cls-41 {
        fill: #fefeff;
      }

      .cls-42 {
        fill: #343233;
      }

      .cls-43 {
        fill: #fba66f;
      }

      .cls-44 {
        fill: #fcbe95;
      }

      .cls-45 {
        fill: #b46a1e;
      }

      .cls-46 {
        fill: #754311;
      }

      .cls-47 {
        fill: #cc7924;
      }

      .cls-48 {
        fill: #dfc498;
      }

      .cls-49 {
        fill: #fcb831;
      }

      .cls-50 {
        fill: #ffcb3b;
      }

      .cls-51 {
        fill: #fb962e;
      }

      .cls-52 {
        fill: #be6536;
      }

      .cls-53 {
        fill: #f39d26;
      }

      .cls-54 {
        fill: #00682c;
      }

      .cls-55 {
        fill: #16b159;
      }

      .cls-56 {
        fill: #348046;
      }

      .cls-57 {
        fill: #20cf4a;
      }

      .cls-58 {
        fill: #3aee64;
      }
    </style>
  </defs>
  <g
     inkscape:groupmode="layer"
     id="objects"
     inkscape:label="objects">
    <g
       id="g8">
      <rect
         width="1024"
         height="1024"
         class="cls-1"
         id="rect10"
         x="0"
         y="0"
         style="fill:#6dd0f7" />
      <path
         d="m 0,120 c 0,0 58.911,-14.39 92,34 36.689,53.654 -4,97 -4,97 0,0 15.012,9.042 29,19 15.44,10.991 30,28 30,28 0,0 16.282,-15.673 35,-22 16.663,-5.632 34,-5 34,-5 0,0 1.607,-29.033 23,-49 23.524,-21.956 54,-13 54,-13 0,0 -24.682,-56.005 15,-87 70.094,-54.75 151.795,-16.035 175,55 0,0 36.467,-13.156 66,0 25.106,11.184 42,45 42,45 0,0 21.331,-11.334 48,-6 25.817,5.163 59,31 59,31 0,0 25.493,-25.684 65,-18 35.774,6.958 40,33 40,33 0,0 35.168,-8.952 70,9 29.769,15.343 60,58 60,58 0,0 -2.672,-11.429 2.723,-23.258 3.44,-7.541 11.448,-16.37 11.277,-16.742 0,0 -85.493,-60.886 -38,-157 27.437,-55.526 115,-53 115,-53 l 0,945 -1024,0 0,-904 z"
         class="cls-2"
         id="path12"
         inkscape:connector-curvature="0"
         style="fill:#93dcf9;fill-rule:evenodd" />
      <path
         d="m 0,382 c 0,0 40.469,-23.898 86,3 34.311,20.27 49.286,73.404 49.286,73.404 -1.446,-1.206 8.275,-10.906 21.714,-14.404 13.41,-3.49 29,0 29,0 0,0 -33.585,-60.308 6,-98 20.102,-19.141 57,-6 57,-6 0,0 -0.952,-27.762 12,-43 12.541,-14.755 39,-17 39,-17 0,0 -10.62,-67.837 65,-86 50.415,-12.109 75,40 75,40 0,0 12.079,-4.73 23,-2 11.077,2.769 20,15 20,15 0,0 24.764,-65.615 79,-45 96.862,36.816 50,134 50,134 0,0 13.128,-0.671 24,6 11.125,6.827 20,21 20,21 0,0 26.98,-100.103 121,-91 123.809,11.987 94,155 94,155 0,0 33.195,13.491 44,38 9.627,21.837 -3,55 -3,55 0,0 11.459,5.225 19,15 5.697,7.385 8,20 8,20 0,0 15.788,-14.71 36,-18 22.649,-3.687 49,4 49,4 l 0,483 -1024,0 0,-642 z"
         class="cls-3"
         id="path14"
         inkscape:connector-curvature="0"
         style="fill:#ffffff;fill-rule:evenodd" />
      <path
         d="m 0,425 c 0,0 37.934,-26.999 84,7 31.38,23.16 18,66 18,66 0,0 11.039,0.485 20,6 10.427,6.417 19,18 19,18 0,0 1.936,-17.1 17,-25 32.431,-17.008 48,-2 48,-2 0,0 3.554,-8.268 9,-14 3.715,-3.911 10,-6 10,-6 0,0 -33.896,-46.048 9,-78 18.649,-13.891 49,3 49,3 0,0 1.693,-7.616 6,-13 3.636,-4.545 10,-7 10,-7 0,0 -21.026,-19.552 -19,-41 5.341,-56.556 56,-38 56,-38 0,0 -21.765,-53.711 33,-67 53.559,-12.997 75,51 75,51 0,0 15.468,-2.432 27,5 10.953,7.058 18,24 18,24 0.027,0.038 -6.193,-65.172 47.648,-63.658 22.868,0.644 35.612,18.238 46.352,36.658 10.292,17.651 19.103,35.806 17,52 -3.024,23.277 -29,29 -29,29 0,0 34.701,0.897 52,12 16.162,10.373 15,31 15,31 0,0 9.632,-5.535 19,-5 8.028,0.459 16,7 16,7 0,0 9.288,-95.691 90,-92 39.958,1.827 49,58 49,58 0,0 19.971,7.997 25,24 5.901,18.775 -3,46 -3,46 0,0 23.093,8.21 33,35 8.797,23.789 -5,38 -5,38 0,0 21.671,10.248 29,27 6.637,15.17 -1,37 -1,37 0,0 9.379,5.435 15,14 4.817,7.34 6,18 6,18 0,0 9.747,-2.751 18,-1 8.247,1.749 15,8 15,8 0,0 13.367,-24.423 33,-34 21.299,-10.39 47,-6 47,-6 l 0,439 -1024,0 0,-599 z"
         class="cls-4"
         id="path16"
         inkscape:connector-curvature="0"
         style="fill:#dcf4fd;fill-rule:evenodd" />
    </g>
    <g
       id="g18">
      <path
         d="m 0,751 80,-31 c 0,0 2.899,-9.435 10,-18 12.3,-14.837 31.651,-26.486 14,14 0,0 51.841,-30.266 33,2 0,0 135.264,-42.416 284,-48 144.194,-5.413 302,26 302,26 0,0 5.048,-49.044 34,0 0,0 14.844,-32.646 85,28 0,0 26.093,-4.227 48,1 5.145,1.228 -10,4 -10,4 0,0 46.727,14.951 60,17 16.947,2.617 38,-1 38,-1 0,0 -0.407,3.876 -2,6 -1.394,1.858 -4,2 -4,2 l 52,21 0,250 -1024,0 0,-273 z"
         class="cls-5"
         id="path20"
         inkscape:connector-curvature="0"
         style="fill:#6da128;fill-rule:evenodd" />
      <path
         d="m 1009,790 c -4.953,0.499 -11,-10 -11,-10 -30.622,19.435 -18,-7 -18,-7 -31.743,3.794 -4,-27 -4,-27 -11.228,7.94 -43,13 -43,13 27.556,8.482 -6,28 -6,28 6.686,-0.893 4,15 4,15 30.177,4.06 -12,36 -12,36 -6.338,7.507 2,5 2,5 58.959,-42.35 40,3 40,3 36.868,1.441 10,23 10,23 21.148,39.311 -21,17 -21,17 -3.67,1.655 -9,-1 -9,-1 -21.311,23.361 -21,-11 -21,-11 -32.867,29.24 -16,-15 -16,-15 -3.856,4.193 -10,1 -10,1 -10.44,30.11 -34,11 -34,11 -7.265,-2.695 -4,2 -4,2 19.996,2.23 5,22 5,22 52.037,21.011 -18,27 -18,27 -27.126,29.018 -29,-12 -29,-12 -17.819,33.435 -26,0 -26,0 -17.422,19.915 -21,-2 -21,-2 -8.484,3.107 -7,-15 -7,-15 -13.553,37.682 -37,13 -37,13 -7.417,7.224 -19,-4 -19,-4 -6.136,11.593 -18,5 -18,5 -13.513,47.175 -51,9 -51,9 -8.501,19.477 -30,9 -30,9 -20.474,35.559 -42,-3 -42,-3 0.943,12.279 -10,7 -10,7 -10.667,25.717 -23,9 -23,9 -5.982,56.285 -30,15 -30,15 -18.277,18.813 -25,-4 -25,-4 -8.189,0.971 -7,-11 -7,-11 -41.264,18.943 -31,-11 -31,-11 -10.779,1.183 -12,-19 -12,-19 -6.683,9.545 -23,4 -23,4 -21.635,35.435 -28,-5 -28,-5 -25.17,21.1 -23,-8 -23,-8 -20.808,17.607 -25,-4 -25,-4 -8.144,5.559 -11,-4 -11,-4 -10.13,36.003 -28,15 -28,15 -26.22,23.963 -19.712,-18 -21,-18 -23.72,8.86 -10,-25 -10,-25 -3.139,-1.332 0,-8 0,-8 -52.069,10.305 -6,-24 -6,-24 -6.885,-2.429 -6,-16 -6,-16 -7.413,8.934 -18,0 -18,0 -34.748,28.249 -16,-15 -16,-15 -8.578,4.879 -13,0 -13,0 -7.414,19.687 -31,9 -31,9 -12.017,9.694 -14,-10 -14,-10 -16.36,5.81 -9,-15 -9,-15 -16.99,0.79 -10,-18 -10,-18 -4.456,0.173 -8,-7 -8,-7 -21.47,16.35 -30,-3 -30,-3 -31.511,23.33 -24,-12 -24,-12 -7.546,22.275 -28,17 -28,17 -32.005,45.069 -25,-2 -25,-2 -6.787,6.371 -18,7 -18,7 l 0,-15 80,-31 c 0,0 2.899,-9.435 10,-18 12.3,-14.837 31.651,-26.486 14,14 0,0 51.841,-30.266 33,2 0,0 135.264,-42.416 284,-48 144.194,-5.413 302,26 302,26 0,0 5.048,-49.044 34,0 0,0 14.844,-32.646 85,28 0,0 26.093,-4.227 48,1 5.145,1.228 -10,4 -10,4 0,0 46.727,14.951 60,17 16.947,2.617 38,-1 38,-1 0,0 -0.407,3.876 -2,6 -1.394,1.858 -4,2 -4,2 l 52,21 0,38 c -17.903,1.4 -15,-22 -15,-22 z M 168,911 c -4.312,4.738 -6,-7 -6,-7 -0.036,-0.022 -49.065,12.416 8,-23 0,0 26.021,-0.791 -2,30 z m -42,-57 c -5.042,-16.806 14,-16 14,-16 0.304,-0.608 6.965,5.285 -4,14 -4.396,3.494 -10,2 -10,2 z m 5,20 c -15.954,-7.102 9,-17 9,-17 l 3,1 c 4.158,9.971 -12,16 -12,16 z m 25,135 c 0,0 -0.137,-4.473 2,-5 0,0 -7.835,-16.992 12,-14 0,0 7.843,-4.732 11,-4 0,0 15.689,-19.082 25,4 0,0 15.594,-3.986 15,7 0,0 38.656,-16.615 25,14 0,0 20.631,3.683 8,13 l -123,0 c 0,0 5.723,-15.879 25,-15 z m 242,-41 c 9.547,-15.046 20,11 20,11 0,0 25.756,-7.097 -4,14 0,0 -6.375,1.625 -8,0 -1.349,-1.349 2,-6 2,-6 0,0 -20.988,-1.683 -10,-19 z m 277,9 c -16.023,22.291 -19,4 -19,4 11.802,-29.52 21,-16 21,-16 0,0 5.519,-6.987 10,-4 4.519,3.013 8,16 8,16 -10.449,30.332 -20,0 -20,0 z m 98.657,5.397 c -2.879,-2.144 -1.872,-8.371 2.251,-13.908 4.122,-5.538 9.798,-8.289 12.678,-6.145 2.88,2.143 1.872,8.37 -2.25,13.908 -4.123,5.537 -9.799,8.289 -12.679,6.145 z m 26.176,-13.84 c 2.058,1.593 1.338,6.22 -1.609,10.336 -2.946,4.115 -7.003,6.159 -9.062,4.566 -2.058,-1.593 -1.338,-6.22 1.609,-10.335 2.946,-4.115 7.004,-6.16 9.062,-4.567 z m 104.794,-17.603 c -3.549,2.542 -8.632,-1.293 -11.354,-8.565 -2.722,-7.273 -2.052,-15.228 1.497,-17.77 2.752,-1.972 6.424,-0.095 9.205,4.235 1.609,-1.696 4.026,-3.272 7.06,-4.437 7.248,-2.785 15.21,-2.184 17.782,1.343 2.572,3.526 -1.218,8.642 -8.467,11.427 -4.487,1.724 -9.244,2.147 -12.83,1.385 0.82,5.463 -0.216,10.464 -2.893,12.382 z m 55.941,-1.11 c -2.572,-3.526 1.218,-8.642 8.467,-11.427 7.248,-2.785 15.21,-2.184 17.782,1.343 2.572,3.526 -1.218,8.642 -8.467,11.427 -7.248,2.784 -15.209,2.183 -17.782,-1.343 z m 37.727,-61.469 c -5.111,-5.845 -7.289,-13.526 -4.865,-17.156 2.425,-3.63 8.533,-1.833 13.644,4.012 5.112,5.846 7.29,13.527 4.865,17.157 -2.424,3.629 -8.533,1.833 -13.644,-4.013 z"
         class="cls-6"
         id="path22"
         inkscape:connector-curvature="0"
         style="fill:#85c231;fill-rule:evenodd" />
      <path
         d="m 936,858 -4,-4 c 0,0 -12.047,-17.1 16,-19 0,0 9.228,2.048 -2,11 0,0 29.165,12.924 -10,12 z m -39.189,-74.226 c -2.255,-1.075 -2.432,-5.423 -0.396,-9.712 2.037,-4.289 5.516,-6.895 7.771,-5.821 2.255,1.075 2.432,5.423 0.396,9.712 -2.037,4.29 -5.516,6.895 -7.771,5.821 z m -17.547,-9.519 c -3.412,-1.782 -2.907,-6.652 1.128,-10.878 4.034,-4.226 10.071,-6.207 13.483,-4.426 3.411,1.782 2.907,6.652 -1.128,10.878 -4.035,4.226 -10.071,6.207 -13.483,4.426 z m -17.622,-6.066 c -1.503,-1.995 0.35,-5.933 4.139,-8.794 3.789,-2.862 8.079,-3.564 9.581,-1.569 1.503,1.996 -0.35,5.933 -4.139,8.795 -3.788,2.862 -8.078,3.564 -9.581,1.568 z M 836,812 c 0,0 -13.371,-3.257 -11,-8 2.114,-4.228 20,-10 20,-10 0,0 22.298,-11.843 10,5 0,0 4.755,22.827 -19,13 z m -37,-49 c -5.811,11.427 -10,2 -10,2 -6.459,6.712 -12,0 -12,0 -2.631,0.957 -10,-1 -10,-1 -12.871,-19.468 9,-10 9,-10 0,0 3.37,-13.425 11,-7 4.556,3.837 6,12 6,12 16.726,-16.314 16,-1 16,-1 -7.562,16.499 -10,5 -10,5 z M 680.739,880.239 c -1.668,-1.68 -0.436,-5.614 2.753,-8.786 3.189,-3.173 7.126,-4.383 8.794,-2.703 1.668,1.679 0.435,5.613 -2.753,8.786 -3.189,3.172 -7.126,4.383 -8.794,2.703 z m -9.616,-1.18 c -2.838,-1.352 -3.061,-6.821 -0.498,-12.216 2.563,-5.395 6.941,-8.672 9.779,-7.321 2.839,1.352 3.062,6.821 0.499,12.216 -2.563,5.395 -6.942,8.673 -9.78,7.321 z m -10.384,-77.82 c -1.668,-1.68 -0.436,-5.614 2.753,-8.786 3.189,-3.173 7.126,-4.383 8.794,-2.703 1.668,1.679 0.435,5.613 -2.753,8.786 -3.189,3.172 -7.126,4.383 -8.794,2.703 z m -32.926,17.852 c -2.102,-1.791 -1.484,-5.969 1.38,-9.333 2.865,-3.364 6.892,-4.639 8.994,-2.849 2.102,1.791 1.484,5.969 -1.38,9.333 -2.865,3.364 -6.892,4.639 -8.994,2.849 z m -37.735,107.842 c -3.762,-2.002 -3.736,-9.422 0.06,-16.575 3.795,-7.153 9.922,-11.329 13.685,-9.327 3.763,2.001 3.736,9.422 -0.06,16.575 -3.795,7.152 -9.922,11.328 -13.685,9.327 z M 587,889 c -3.314,0 -6,-3.582 -6,-8 0,-4.418 2.686,-8 6,-8 3.314,0 6,3.582 6,8 0,4.418 -2.686,8 -6,8 z m -4.635,43.242 c -4.146,0.989 -9.035,-4.593 -10.921,-12.468 -1.887,-7.875 -0.055,-15.06 4.091,-16.048 4.145,-0.989 9.035,4.594 10.921,12.468 1.886,7.875 0.054,15.06 -4.091,16.048 z M 518.5,940 c -0.635,0 -1.254,-0.082 -1.854,-0.232 -1.87,3.713 -5.488,6.232 -9.646,6.232 -6.075,0 -11,-5.373 -11,-12 0,-6.627 4.925,-12 11,-12 1.066,0 2.094,0.174 3.069,0.483 1.582,-3.849 4.76,-6.483 8.431,-6.483 5.247,0 9.5,5.373 9.5,12 0,6.627 -4.253,12 -9.5,12 z M 476,723 c 0,0 -12.185,6.478 -18,5 -4.424,-1.124 -3.204,-9.8 -3.016,-10.008 0.003,0.001 0.016,0.008 0.016,0.008 -0.004,-0.015 -0.009,-0.016 -0.016,-0.008 -0.349,-0.181 -19.36,-10.078 6.016,-12.992 0,0 10.474,-16.37 21,-3 0,0 20.13,-5.78 12,7 0,0 5.162,15.22 -18,14 z m -9,53 c 0,0 31.171,-11.318 0,10 0,0 -5.289,11.333 -8,4 0,0 -5.238,5.663 -11,2 0,0 -5.609,3.487 -11,4 -5.1,0.486 -10,-2 -10,-2 0,0 0.232,8.923 -11,2 0,0 -22.568,-15.16 -1,-14 0,0 8.516,-17.267 18,-3 0,0 5.832,-5.202 10,-2 0,0 7.842,-19.746 24,-1 z m -91,-25 c 0,0 -10.178,9.5 -14,0 0,0 -9.629,2.09 -13,-1 -2.495,-2.287 1,-10 1,-10 0,0 -12.773,-18.733 12,-8 0,0 14.65,-16.263 17,5 0,0 18.748,-12.333 14,2 0,0 25.966,10.16 -17,12 z m -31.467,136.536 c -3.189,3.172 -7.126,4.383 -8.794,2.703 -1.668,-1.68 -0.436,-5.614 2.753,-8.786 3.189,-3.173 7.126,-4.383 8.794,-2.703 1.668,1.679 0.435,5.613 -2.753,8.786 z M 299.8,823.581 c -1.947,-1.958 -0.508,-6.544 3.213,-10.243 3.721,-3.699 8.316,-5.11 10.262,-3.152 1.947,1.959 0.509,6.545 -3.212,10.244 -3.721,3.699 -8.316,5.11 -10.263,3.151 z m 4.66,53.247 c 4.069,1.011 5.812,8.097 3.892,15.829 -1.919,7.732 -6.774,13.18 -10.844,12.17 -4.069,-1.01 -5.812,-8.097 -3.892,-15.829 1.92,-7.731 6.775,-13.18 10.844,-12.17 z M 270.8,785.581 c -1.947,-1.958 -0.508,-6.544 3.213,-10.243 3.721,-3.699 8.316,-5.11 10.262,-3.152 1.947,1.959 0.509,6.545 -3.212,10.244 -3.721,3.699 -8.316,5.11 -10.263,3.151 z m 1.621,84.996 c 1.279,1.292 0.334,4.318 -2.111,6.758 -2.445,2.441 -5.464,3.372 -6.743,2.079 -1.279,-1.292 -0.334,-4.318 2.111,-6.758 2.445,-2.441 5.464,-3.372 6.743,-2.079 z M 252.8,788.581 c -1.947,-1.958 -0.508,-6.544 3.213,-10.243 3.721,-3.699 8.316,-5.11 10.262,-3.152 1.947,1.959 0.509,6.545 -3.212,10.244 -3.721,3.699 -8.316,5.11 -10.263,3.151 z m -11,-73 c -1.947,-1.958 -0.508,-6.544 3.213,-10.243 3.721,-3.699 8.316,-5.11 10.262,-3.152 1.947,1.959 0.509,6.545 -3.212,10.244 -3.721,3.699 -8.316,5.11 -10.263,3.151 z M 231,734 c -11.639,0.609 -9,-4 -9,-4 1.79,-6.61 10,-5 10,-5 l 3,0 c 16.936,5.56 -4,9 -4,9 z m -27.98,1.946 c -2.302,-2.326 -0.601,-7.773 3.8,-12.166 4.401,-4.392 9.836,-6.068 12.138,-3.742 2.303,2.326 0.601,7.772 -3.8,12.165 -4.401,4.393 -9.835,6.069 -12.138,3.743 z M 190,732 c -11.639,0.609 -9,-4 -9,-4 1.79,-6.61 10,-5 10,-5 l 3,0 c 16.936,5.56 -4,9 -4,9 z m -0.725,36.186 c 1.947,1.959 0.509,6.545 -3.212,10.244 -3.721,3.699 -8.316,5.11 -10.263,3.151 -0.108,-0.109 -0.202,-0.229 -0.29,-0.353 -1.186,1.671 -2.411,3.172 -3.447,4.202 -3.721,3.699 -8.316,5.11 -10.263,3.151 -1.947,-1.958 -0.508,-6.544 3.213,-10.243 3.721,-3.699 13.04,-10.296 14.987,-8.338 0.077,0.078 0.137,0.172 0.19,0.274 3.465,-2.884 7.339,-3.844 9.085,-2.088 z m -41.67,2.627 c -1.248,-2.008 0.825,-5.57 4.63,-7.956 3.804,-2.386 7.9,-2.692 9.148,-0.685 1.247,2.008 -0.826,5.57 -4.63,7.956 -3.805,2.386 -7.901,2.692 -9.148,0.685 z m 49.066,8.513 c 2.937,2.972 0.767,9.932 -4.847,15.545 -5.614,5.613 -12.546,7.754 -15.483,4.782 -2.937,-2.972 -0.767,-9.932 4.847,-15.545 5.614,-5.613 12.546,-7.754 15.483,-4.782 z m 58.604,59.86 c 1.947,1.959 0.509,6.545 -3.212,10.244 -3.721,3.699 -8.316,5.11 -10.263,3.151 -1.947,-1.958 -0.508,-6.544 3.213,-10.243 3.721,-3.699 8.316,-5.11 10.262,-3.152 z M 377.5,805 c 5.247,0 9.5,2.91 9.5,6.5 0,3.59 -4.253,6.5 -9.5,6.5 -5.247,0 -9.5,-2.91 -9.5,-6.5 0,-3.59 4.253,-6.5 9.5,-6.5 z m 19.786,96.75 c 1.668,1.679 0.435,5.613 -2.753,8.786 -3.189,3.172 -7.126,4.383 -8.794,2.703 -1.668,-1.68 -0.436,-5.614 2.753,-8.786 3.189,-3.173 7.126,-4.383 8.794,-2.703 z M 436,883 c 5.523,0 10,4.477 10,10 0,5.523 -4.477,10 -10,10 -5.523,0 -10,-4.477 -10,-10 0,-5.523 4.477,-10 10,-10 z m 25.286,-12.25 c 1.668,1.679 0.435,5.613 -2.753,8.786 -3.189,3.172 -7.126,4.383 -8.794,2.703 -1.668,-1.68 -0.436,-5.614 2.753,-8.786 3.189,-3.173 7.126,-4.383 8.794,-2.703 z m 4.537,34.281 c 3.763,2.001 3.736,9.422 -0.06,16.575 -3.795,7.152 -9.922,11.328 -13.685,9.327 -3.762,-2.002 -3.736,-9.422 0.06,-16.575 3.795,-7.153 9.922,-11.329 13.685,-9.327 z m -4.084,-92.792 c -1.668,-1.68 -0.436,-5.614 2.753,-8.786 3.189,-3.173 7.126,-4.383 8.794,-2.703 1.668,1.679 0.435,5.613 -2.753,8.786 -3.189,3.172 -7.126,4.383 -8.794,2.703 z m 23.547,99.511 c 1.668,1.679 0.435,5.613 -2.753,8.786 -3.189,3.172 -7.126,4.383 -8.794,2.703 -1.668,-1.68 -0.436,-5.614 2.753,-8.786 3.189,-3.173 7.126,-4.383 8.794,-2.703 z"
         class="cls-7"
         id="path24"
         inkscape:connector-curvature="0"
         style="fill:#a1e546;fill-rule:evenodd" />
    </g>
    <g
       id="g26">
      <path
         d="m 721,911 c 0,0 -47.569,-3.557 -69,-1 -13.834,1.651 -15.299,8.216 9,12 0,0 9.611,7.214 33,1 6.485,-1.723 23.026,0.402 27,-3 11.144,-9.54 0,-9 0,-9 z m -165,47 c 0,0 -19.488,15.913 23,12 0,0 2.663,-3.239 5,-3 0,0 24.68,-3.511 4,-11 l -32,2 z m -268,0 c 0,0 -12.718,10.201 12,9 0,0 7.282,2.947 16,-1 0,0 9.244,-2.492 11,-5 1.744,-2.492 -4,-5 -4,-5 l -35,2 z M 29,914 c 0,0 -27.032,19.336 8,19 l 12,-1 c 0,0 6.799,7.065 17,4 4.347,-1.306 13.28,-1.574 19,-5 7.701,-4.612 10.834,-12.572 1,-14 l -57,-3 z m 182,-79 c 0,0 -12.44,11.831 7,10 0,0 22.158,-3.465 9,-11 l -16,1 z"
         class="cls-8"
         id="path28"
         inkscape:connector-curvature="0"
         style="fill:#476321;fill-rule:evenodd" />
      <path
         d="m 51,928 c 0,0 -46.085,11.872 -21,-20 0,0 15.14,-28.606 42,-5 0,0 39.318,22.037 -11,29 l -10,-4 z m 166,-87 c 0,0 -18.097,-2.577 1,-12 0,0 22.456,-3.157 8,9 l -9,3 z m 85,124 -13,-3 c 0,0 -10.222,-6.713 8,-11 l 7,1 c 0,0 10.4,-5.017 15,-4 0,0 12.406,-0.8 4,11 0,0 -2.758,3.788 -7,5 -5.96,1.703 -14,1 -14,1 z m 263.623,1.226 C 554.243,966.164 544.361,954.761 562,952 c 0,0 10.302,-0.671 14,-2 0,0 23.852,-0.175 11,13 0,0 -8.637,3.96 -9,4 -2.938,0.326 -1.114,-0.712 -12.377,-0.774 z M 653,914 c 0,0 -24.646,-8.382 2,-11 l 50,-2 c 0,0 14.815,1.643 17,6 0,0 3.295,10.413 -12,13 0,0 -21.521,1.629 -37,0 -12.756,-1.343 -20,-6 -20,-6 z"
         class="cls-9"
         id="path30"
         inkscape:connector-curvature="0"
         style="fill:#8c6239;fill-rule:evenodd" />
      <path
         d="m 75.838,905.453 c 3.509,2.451 8.407,6.455 10.141,10.704 -32.205,16.828 -16.412,-3.38 -10.141,-10.704 z m -2.03,-1.355 C 72.332,906.314 71,908 71,908 c -16.611,15.617 -28,9 -28,9 -14.509,2.329 -17.408,-0.868 -15.432,-5.725 0.725,-1.039 1.527,-2.125 2.432,-3.275 0,0 1.101,-2.078 3.233,-4.651 1.409,-1.521 2.935,-3.023 4.441,-4.429 7.018,-5.706 18.683,-9.667 34.326,4.08 0,0 0.708,0.398 1.808,1.098 z m 156.43,-72.495 c 0,0 -17.383,6.079 -20.921,4.322 0.413,-1.734 2.753,-3.999 8.683,-6.925 0,0 12.076,-1.692 12.802,2.206 -0.334,0.245 -0.564,0.397 -0.564,0.397 z m 95.659,121.037 c -0.026,0.338 -0.082,0.698 -0.18,1.087 C 323.835,957.71 317,958 317,958 c -8.097,5.886 -10.191,1.533 -11,0 -0.809,-1.533 -3,-3 -3,-3 -12.205,6.221 -16,1 -16,1 -0.016,-0.151 -0.014,-0.291 -0.017,-0.434 1.27,-1.571 4.18,-3.193 10.017,-4.566 l 7,1 c 0,0 10.4,-5.017 15,-4 0,0 4.29,-0.274 6.114,1.9 l 0.783,2.74 z M 586,954 c 0,0 3.058,1.766 -5,6 -0.118,0.062 -0.234,0.122 -0.348,0.179 -7.166,3.597 -6.669,-2.01 -6.647,-2.22 10e-4,-0.009 10e-4,-0.008 0,0 -10e-4,0.008 -0.002,0.021 -0.005,0.041 -0.094,0.689 -6.819,0.694 -14,1 -3.947,0.168 -6.267,-0.9 -7.397,-2.149 0.756,-2.079 3.566,-3.938 9.397,-4.851 0,0 10.302,-0.671 14,-2 0,0 9.174,-0.064 13.075,3.03 C 587.55,953.521 586,954 586,954 Z m 125,-46 c 8.91,8.01 -8,8 -8,8 -16.883,1.884 -12,-5 -12,-5 l -23,1 c -20.801,-0.43 -23.469,-4.233 -21.886,-7.444 1.947,-0.619 4.811,-1.156 8.886,-1.556 l 50,-2 c 0,0 12.411,1.387 16.175,4.969 C 718.636,907.495 711,908 711,908 Z"
         class="cls-10"
         id="path32"
         inkscape:connector-curvature="0"
         style="fill:#a67c52;fill-rule:evenodd" />
    </g>
    <path
       style="fill:#476b17;fill-rule:evenodd"
       d="m 876,749 c -22.467,3.809 -87.985,-2 -147,-2 -46.834,0 -88.593,-1.893 -114.927,-6.347 -19.987,10.65 -46.399,21.009 -69.073,24.347 -5.361,0.789 10.915,6.917 -8,9 -6.015,0.662 -15.414,-2.181 -20,0 -6.907,3.286 -6.92,10.62 -13,12 -12.179,2.765 -18.096,3.446 -31.492,-0.275 C 452.535,780.178 458.293,755.888 436,756 c -22.543,0.114 -36.615,15 -60,15 -64.036,0 -89.289,-8.071 -135,-24 -47.33,-16.493 -132,-18.093 -132,-32 0,-27.338 159.661,-20 290,-20 103.81,0 198.306,-4.02 232.474,8.155 11.462,-1.98 25.218,-3.444 41.526,-4.155 10.993,-0.479 40.176,1 52,1 79.253,0 149,25.917 149,40 0,3.596 9.705,7.694 2,9 z"
       class="cls-11"
       id="path34"
       inkscape:connector-curvature="0" />
    <g
       id="g36">
      <path
         d="m 515.472,493.162 c 0.744,0.958 2.581,3.066 12.833,-10.21 l 39.227,14.365 -3.641,22.062 c 0,0 2.299,5.895 -11.914,5.194 0,0 -13.908,-2.974 -3.706,18.063 0,0 8.216,-1.191 10.012,0.837 4.885,5.516 8.377,18.802 20.366,22.673 0,0 24.048,-12.587 35.684,42.426 0,0 1.507,19.491 16.496,30.736 0,0 15.544,15.818 0.504,30.996 0,0 18.483,20.731 23.38,23.624 4.897,2.892 -4.602,19.42 -40.756,14.663 0,0 -21.065,4.329 -45.933,3.746 -24.868,-0.582 -59.279,8.639 -99.959,1.624 0,0 -54.83,3.981 -26.233,-14.576 0,0 -13.878,-23.075 -1.909,-55.977 4.237,-11.648 4.833,-26.961 12.912,-36.763 9.43,-11.443 4.848,-21.472 4.025,-28.52 -0.155,-1.332 5.718,-3.479 5.432,-4.506 -0.454,-1.631 -1.025,-2.848 -1.563,-3.558 -1.185,-1.564 -8.153,-2.893 -9.078,-4.854 -2.599,-5.51 1.805,-12.03 1.805,-12.03 l -11.288,-17.82 15.685,-19.257 12.06,3.805 -0.584,-35.995 37.919,-4.617 c 0,0 6.754,0.973 8.078,4.87 1.127,3.317 -0.196,8.558 0.146,8.999 z"
         class="cls-12"
         id="path38"
         inkscape:connector-curvature="0"
         style="fill:#bf8d60;fill-rule:evenodd" />
      <path
         d="m 458.306,566.14 c 0.737,1.416 1.546,2.763 2.423,3.921 0.705,0.93 1.462,2.735 1.943,5.193 12.413,3.085 21.1,1.498 32.124,-0.746 12.828,-2.611 27.719,-6.577 35.445,-13.655 0.231,-0.211 7.829,9.101 14.681,21.842 6.341,11.791 11.916,26.999 13.466,28.786 0.554,0.638 0.774,-9.229 -3.324,-19.949 -4.995,-13.067 -14.468,-27.469 -13.213,-26.501 2.6,2.005 5.468,4.844 8.423,8.816 10.845,14.579 24.121,39.12 25.123,38.358 1.009,-0.768 -6.721,-18.673 -16.562,-34.736 -7.801,-12.734 -18.218,-24.377 -17.551,-24.943 3.968,-3.367 6.859,-6.273 8.481,-8.062 -0.964,-1.14 -1.494,-1.828 -1.494,-1.828 -3.793,-7.821 -4.25,-12.319 -3.332,-14.889 -0.602,0.403 -14.839,4.182 -14.839,4.182 l -2.129,-7.966 c 0,0 -2.036,5.342 -4.011,10.522 -1.858,4.874 -3.661,9.605 -3.661,9.605 l -4.437,-26.931 -0.308,-18.998 c 0,0 -1.462,7.595 -1.74,16.03 -0.188,5.718 0.881,13.095 0.571,13.852 -0.27,0.659 -17.68,-8.16 -25.496,-9.446 -11.564,-1.904 -14.945,3.243 -14.945,3.243 l 39.147,9.365 -1.088,16.608 c 0,0 -18.31,9.763 -25.431,12.827 -10.723,4.614 -22.992,5.392 -28.266,5.5 z m 9.759,147.821 c 40.68,7.015 75.091,-2.206 99.959,-1.624 24.868,0.583 45.933,-3.746 45.933,-3.746 36.154,4.757 45.653,-11.771 40.756,-14.663 -4.897,-2.893 -23.38,-23.624 -23.38,-23.624 2.148,-2.168 3.655,-4.348 4.69,-6.494 -2.099,2.101 -4.221,4.009 -5.722,4.511 -14.216,4.748 31.306,30.412 11.531,32.817 -49.406,6.007 -148.444,16.926 -196.872,6.197 -3.062,-0.679 -0.281,-4.162 -1.161,-9.983 -0.717,-4.736 -4.354,-6.161 -5.193,-11.917 -1.243,-8.524 -1.818,-18.409 -3.04,-23.835 -2.672,22.898 6.266,37.784 6.266,37.784 -28.597,18.558 26.233,14.577 26.233,14.577 z"
         class="cls-13"
         id="path40"
         inkscape:connector-curvature="0"
         style="fill:#946943;fill-rule:evenodd" />
      <path
         d="m 576.494,618.188 c 6.53,-2.052 3.497,-27.846 -26.931,-57.571 0,0 -7.364,-10.248 5.965,-2.097 0,0 9.051,5.95 19.155,9.69 7.086,2.624 13.618,-0.95 19.057,3.691 0,0 17.351,12.598 16.789,48.734 0,0 41.816,45.651 0.925,56.993 0,0 24.864,16.563 -2.641,22.046 -24.234,4.83 -72.702,5.147 -117.92,3.915 -28.65,-0.781 -42.076,-16.027 -24.266,-16.609 17.809,-0.581 -26.796,-4.652 -22.506,-32.305 1.614,-10.405 1.859,-22.941 5.762,-34.128 3.038,-8.707 9.447,-16.236 13.284,-23.522 7.154,-13.588 12.632,-16.126 12.734,-16.209 0,0 11.625,-2.269 20.041,2.675 5.166,3.034 3.928,38.892 8.614,37.865 2.493,-0.546 0.881,-45.366 3.251,-46.059 11.08,-3.237 18.846,-9.307 18.846,-9.307 0,0 5.654,2.269 11.191,11.82 8.021,13.837 17.041,36.981 18.658,40.702 2.734,6.29 6.819,-11.112 6.819,-11.112 0,0 6.643,12.839 13.173,10.788 z m -46.141,-132.269 33.214,13.463 c 0,0 -7.03,5.826 -10.834,10.177 -3.803,4.351 -5.883,9.788 -16.83,10.275 -10.948,0.487 -10.073,12.045 -13.751,15.225 -3.678,3.18 -1.227,-13.982 -1.227,-13.982 l -4.128,-7.934 0.739,-16.014 12.817,-11.21 z m -23.056,-3.626 c 0,0 6.624,7.076 4.388,23.932 -2.236,16.856 2.291,17.965 2.291,17.965 l -12.222,-13.803 c 0,0 -15.254,-9.493 -24.153,-9.609 -8.898,-0.117 -6.224,-13.901 -6.224,-13.901 l 35.92,-4.584 z m 5.794,48.912 c 0,0 -39.141,-7.155 -52.174,-11.154 l -14.767,14.242 c 0,0 7.056,7.213 9.224,13.852 2.168,6.639 3.759,7.761 11.125,7.82 7.367,0.059 11.625,5.668 23.958,-2.389 12.333,-8.057 22.634,-22.371 22.634,-22.371 z"
         class="cls-14"
         id="path42"
         inkscape:connector-curvature="0"
         style="fill:#e3b07c;fill-rule:evenodd" />
      <path
         d="m 539.161,535.783 c 0,0 1.738,-2.11 2.95,-3.049 5.033,-3.895 12.324,1.342 0.26,15.998 -15.782,19.174 -55.021,27.654 -77.579,25.263 0,0 -5.682,0.711 -4.096,-5.934 0,0 24.916,-1.93 43.837,-9.713 20.265,-8.337 34.628,-22.565 34.628,-22.565 z"
         class="cls-15"
         id="path44"
         inkscape:connector-curvature="0"
         style="fill:#5d422a;fill-rule:evenodd" />
      <path
         d="m 542.176,536.734 c 0,0 -15.384,15.871 -36.595,24.597 -17.702,7.282 -42.853,8.697 -42.853,8.697 0,0 38.637,6.523 64.763,-14.053 21.941,-17.281 14.685,-19.241 14.685,-19.241 z"
         class="cls-16"
         id="path46"
         inkscape:connector-curvature="0"
         style="fill:#795638;fill-rule:evenodd" />
      <path
         d="m 558.979,709.484 c -33.123,0.538 -119.712,-44.88 -120.429,-89.057 -0.717,-44.177 26.261,-98.439 59.384,-98.977 11.136,-0.181 22.062,-0.089 21.154,9.658 -0.351,3.767 -2.774,10.04 -4.36,17.273 -1.194,0.215 -2.628,0.867 -4.359,2.098 -4.748,3.375 -14.724,7.413 -14.768,12.015 -0.042,4.418 5.241,8.916 12.141,8.804 2.542,-0.042 4.962,-0.706 7.004,-1.746 0.705,2.245 1.699,4.453 3.073,6.583 5.338,8.271 5.643,24.456 14.498,30.768 11.889,8.475 28.142,9.007 28.297,18.543 0.188,11.585 -1.047,25.471 1.584,35.979 1.914,7.646 6.109,21.952 12.45,27.802 10.686,9.858 39.228,14.365 39.228,14.365 0,0 -47.432,5.771 -54.897,5.892 z"
         class="cls-12"
         id="path48"
         inkscape:connector-curvature="0"
         style="fill:#bf8d60;fill-rule:evenodd" />
    </g>
    <g
       id="g50">
      <g
         id="g52">
        <path
           d="m 331.269,384 44.953,114 c 0,0 -30.619,11.358 -50.946,-37 0,0 -6.609,-22.266 -4.995,-43 1.361,-17.489 10.988,-34 10.988,-34 z"
           class="cls-17"
           id="path54"
           inkscape:connector-curvature="0"
           style="fill:#754c24;fill-rule:evenodd" />
        <g
           id="g56">
          <path
             d="m 330.27,384 42.955,112 123.869,-18 -39.958,-95 -126.866,1 z"
             class="cls-18"
             id="path58"
             inkscape:connector-curvature="0"
             style="fill:#d29151;fill-rule:evenodd" />
          <path
             d="m 339.261,389 38.959,104 110.882,-19 -32.965,-88 -116.876,3 z"
             class="cls-19"
             id="path60"
             inkscape:connector-curvature="0"
             style="fill:#4e2f11;fill-rule:evenodd" />
          <path
             d="m 378.22,491 -8.131,-20.756 87.756,-11.188 0.533,-0.318 c 5.889,7.215 13.475,11.747 21.81,12.211 L 378.22,491 Z M 346.006,408.767 338.262,389 c 0,0 116.632,-1.462 116.876,-3 0.018,-0.108 0.21,0.222 0.544,0.905 -3.442,5.201 -6.1,11.44 -7.727,18.343 l -101.949,3.519 z m 111.21,48.485 -88.468,9.568 -5.586,-14.258 86.95,-8.607 c 1.83,4.984 4.244,9.468 7.104,13.297 z m -95.427,-8.194 -6.905,-17.628 91.485,-4.906 c 0.429,5.5 1.496,10.727 3.085,15.542 l -87.665,6.992 z m -8.373,-21.374 -5.925,-15.125 100.034,-5.365 c -0.893,4.385 -1.377,9.015 -1.377,13.806 0,1.171 0.039,2.329 0.095,3.479 l -92.827,3.205 z"
             class="cls-20"
             id="path62"
             inkscape:connector-curvature="0"
             style="fill:#603913;fill-rule:evenodd" />
        </g>
      </g>
      <g
         id="g64">
        <path
           d="m 562.586,451.928 c 1.184,-0.131 17.735,25.176 17.735,25.176 0,0 -4.371,4.89 -9.61,8.213 -8.218,5.214 -18.692,9.74 -18.692,9.74 l -16.585,-17.01 c 0,0 2.297,-1.199 5.494,-3.225 l -6.605,-1.414 c -3.312,6.173 -6.592,11.225 -6.592,11.225 l -23.219,-4.972 c 0,0 5.519,-9.997 7.702,-20.163 1.671,-7.778 0.065,-16.305 0.46,-16.636 0.503,-0.422 9.136,2.99 16.802,6.145 1.194,-7.339 -0.19,-14.835 0.18,-15.145 0.914,-0.766 28.694,11.133 28.694,11.133 0,0 -0.935,6.495 -3.459,12.166 -1.938,4.354 -4.416,8.868 -6.442,12.345 1.556,-1.236 3.105,-2.569 4.552,-3.979 5.694,-5.552 9.072,-13.542 9.585,-13.599 z M 461.132,457 c -3.002,-7.367 -9.131,-13.502 -8.991,-14 0.323,-1.148 29.969,-7 29.969,-7 0,0 2.886,5.892 3.996,12 1.74,9.583 1.997,21 1.997,21 l -21.976,9 c 0,0 -1.073,-11.372 -4.995,-21 z m -0.295,11.028 c 0.555,9.724 -0.587,21.086 -0.587,21.086 l -22.912,6.238 c 0,0 0.327,-11.418 -2.388,-21.454 -2.077,-7.68 -7.409,-14.521 -7.209,-14.997 0.461,-1.1 30.599,-3.273 30.599,-3.273 0,0 2.143,6.201 2.497,12.4 z m -42.372,36.458 c 0,0 -8.038,-8.107 -17.173,-13.055 -6.991,-3.787 -15.617,-4.634 -15.824,-5.108 -0.478,-1.092 18.722,-24.449 18.722,-24.449 0,0 5.966,2.72 10.695,6.735 7.421,6.3 14.858,14.96 14.858,14.96 l -11.278,20.917 z"
           class="cls-21"
           id="path66"
           inkscape:connector-curvature="0"
           style="fill:#005826;fill-rule:evenodd" />
        <path
           d="m 557.985,489.839 c 0,0 -13.202,-11.764 -10.494,-14.271 2.708,-2.506 15.708,-15.288 15.708,-15.288 l 12.456,16.749 -17.67,12.81 z m -23.17,-24.122 3.236,-9.717 0,-4 -5.291,-1.589 c 0.787,-4.896 1.484,-9.306 1.484,-9.306 l 19.967,6.039 -6.584,20.822 c 0,0 -7.799,-0.707 -12.812,-2.249 z m -2.513,-12.472 1.753,1.755 -1.107,10.524 -3.302,10.442 c 0,0 -17.603,-1.589 -16.917,-5.216 0.686,-3.627 3.534,-21.645 3.534,-21.645 l 15.929,4.818 c 0.037,-0.225 0.073,-0.451 0.11,-0.678 z M 468.125,465 c -1.429,-3.404 -8.991,-20 -8.991,-20 l 19.979,-6 5.994,21 c 0,0 -15.554,8.404 -16.982,5 z m -27.814,17.284 c -0.765,-3.611 -5.085,-21.333 -5.085,-21.333 l 20.748,-2.144 1.955,21.752 c 0,0 -16.852,5.336 -17.618,1.725 z m -29.256,12.169 c -3.096,-2.006 -18.684,-11.454 -18.684,-11.454 l 13.13,-16.224 16.77,13.97 c 0,0 -8.121,15.715 -11.216,13.708 z"
           class="cls-22"
           id="path68"
           inkscape:connector-curvature="0"
           style="fill:#119a4c;fill-rule:evenodd" />
        <path
           d="m 558.03,494 c -3.861,0 -112.687,19.838 -114.879,17 -0.249,-0.323 -4.046,-3.739 -7.03,-7.952 -3.311,-0.002 -7.571,4.655 -8.953,7.952 -3.328,7.937 -2.722,-1.6 -2.997,-2 -0.358,0.418 -6.569,-1.375 -6.993,-1 -4.957,4.392 -4.624,-5.023 -9.011,-9.987 -0.672,-0.76 -3.529,7.849 -3.975,6.987 -0.42,0.523 1.436,-8.412 0.917,-7.952 -4.958,4.392 -12.533,3.929 -16.921,-1.035 -4.387,-4.963 -3.925,-12.547 1.033,-16.939 4.958,-4.392 12.534,-3.929 16.922,1.035 0.671,0.76 1.216,1.586 1.661,2.448 0.42,-0.522 0.878,-1.023 1.396,-1.483 4.958,-4.392 12.534,-3.929 16.921,1.035 0.33,0.373 0.624,0.765 0.899,1.165 0.169,-0.198 0.345,-0.392 0.529,-0.581 -2.549,-4.787 -1.607,-10.866 2.629,-14.619 4.958,-4.392 12.534,-3.929 16.921,1.035 1.213,1.372 2.042,2.947 2.521,4.596 2.795,-2.242 6.312,-3.04 9.618,-2.442 0.406,-2.685 1.715,-5.249 3.905,-7.189 3.179,-2.816 7.431,-3.625 11.232,-2.543 1.138,-5.443 5.956,-9.531 11.731,-9.531 4.099,0 7.714,2.063 9.876,5.205 2.199,-2.57 5.458,-4.205 9.104,-4.205 6.62,0 11.987,5.373 11.987,12 0,1.41 -0.256,2.758 -0.702,4.015 3.104,0.076 5.907,1.34 7.995,3.343 1.204,-5.354 5.974,-9.358 11.687,-9.358 6.62,0 11.987,5.373 11.987,12 0,0.137 -0.016,0.27 -0.02,0.406 2.144,-3.255 5.824,-5.406 10.01,-5.406 6.62,0 11.987,5.373 11.987,12 0,6.627 -5.367,12 -11.987,12 z m -12.258,-11.995 c 0.173,0.048 0.27,0.052 0.27,-0.005 0,-0.137 0.016,-0.27 0.021,-0.406 -0.093,0.141 -0.193,0.275 -0.291,0.411 z"
           class="cls-23"
           id="path70"
           inkscape:connector-curvature="0"
           style="fill:#f9b014;fill-rule:evenodd" />
        <path
           d="m 481.109,520 c -3.852,0 -7.235,-1.989 -9.196,-4.994 -1.82,3.556 -5.508,5.994 -9.772,5.994 -6.067,0 -10.985,-4.925 -10.985,-11 0,-6.075 4.918,-11 10.985,-11 3.851,0 7.235,1.989 9.196,4.994 1.82,-3.556 5.508,-5.994 9.772,-5.994 6.067,0 10.985,4.925 10.985,11 0,6.075 -4.918,11 -10.985,11 z"
           class="cls-24"
           id="path72"
           inkscape:connector-curvature="0"
           style="fill:#a57612;fill-rule:evenodd" />
        <path
           d="m 539.766,488.5 c -1.133,-4.869 -5.49,-8.5 -10.703,-8.5 -5.214,0 -9.571,3.631 -10.704,8.5 -0.187,-0.804 -0.297,-1.639 -0.297,-2.5 0,-2.634 0.928,-5.05 2.472,-6.943 -1.837,-3.03 -5.157,-5.057 -8.956,-5.057 -5.79,0 -10.484,4.701 -10.484,10.5 0,1.082 0.164,2.125 0.467,3.108 -0.165,-0.21 -0.319,-0.428 -0.469,-0.649 0,0.014 0.002,0.027 0.002,0.041 0,0.684 -0.071,1.351 -0.19,2 -0.941,-5.119 -5.411,-9 -10.795,-9 -5.383,0 -9.854,3.881 -10.794,9 -0.119,-0.649 -0.19,-1.316 -0.19,-2 0,-6.075 4.918,-11 10.984,-11 3.723,0 7.006,1.859 8.993,4.695 -10e-4,-0.066 -0.008,-0.129 -0.008,-0.195 0,-6.351 5.141,-11.5 11.484,-11.5 5.417,0 9.946,3.76 11.156,8.813 1.947,-1.744 4.51,-2.813 7.329,-2.813 6.075,0 11,4.925 11,11 0,0.861 -0.11,1.696 -0.297,2.5 z M 490.609,460 c -5.79,0 -10.484,4.701 -10.484,10.5 0,1.082 0.164,2.125 0.468,3.108 -1.541,-1.958 -2.468,-4.422 -2.468,-7.108 0,-6.351 5.142,-11.5 11.484,-11.5 6.343,0 11.485,5.149 11.485,11.5 0,0.695 -0.072,1.373 -0.19,2.034 -0.92,-4.858 -5.176,-8.534 -10.295,-8.534 z m -11.674,21.534 c -0.922,-4.858 -5.184,-8.534 -10.31,-8.534 -5.799,0 -10.5,4.701 -10.5,10.5 0,0.564 0.049,1.116 0.135,1.656 1.471,-0.735 3.125,-1.156 4.881,-1.156 6.066,0 10.984,4.925 10.984,11 0,1.225 -0.208,2.399 -0.578,3.5 -1.461,-4.357 -5.563,-7.5 -10.406,-7.5 -4.294,0 -8.002,2.472 -9.808,6.067 -0.392,-0.042 -0.789,-0.067 -1.192,-0.067 -5.935,0 -10.757,4.716 -10.965,10.607 -0.648,-1.403 -1.02,-2.96 -1.02,-4.607 0,-0.017 0.003,-0.033 0.003,-0.05 -5.607,-0.505 -10.003,-5.212 -10.003,-10.95 0,-6.075 4.925,-11 11,-11 6.075,0 11,4.925 11,11 0,0.017 -0.002,0.034 -0.002,0.051 0.135,0.013 0.267,0.033 0.4,0.05 0.782,-2.868 2.693,-5.268 5.223,-6.694 -1.041,-1.727 -1.652,-3.743 -1.652,-5.907 0,-6.351 5.149,-11.5 11.5,-11.5 6.351,0 11.5,5.149 11.5,11.5 0,0.695 -0.072,1.373 -0.19,2.034 z M 414.172,511 c -6.067,0 -10.985,-4.925 -10.985,-11 0,-6.075 4.918,-11 10.985,-11 6.066,0 10.984,4.925 10.984,11 0,6.075 -4.918,11 -10.984,11 z"
           class="cls-25"
           id="path74"
           inkscape:connector-curvature="0"
           style="fill:#fee09f;fill-rule:evenodd" />
        <path
           d="m 475.117,485 34.963,-5 0.999,36 -25.972,0 -9.99,-31 z"
           class="cls-21"
           id="path76"
           inkscape:connector-curvature="0"
           style="fill:#005826;fill-rule:evenodd" />
        <path
           d="m 480.112,487 25.972,-2 0.999,22 -20.977,0 -5.994,-20 z"
           class="cls-22"
           id="path78"
           inkscape:connector-curvature="0"
           style="fill:#119a4c;fill-rule:evenodd" />
      </g>
      <g
         id="g80">
        <path
           d="m 375.223,496 8.99,-3 82.913,14 102.891,-23 14.984,2 -118.874,32 -90.904,-22 z"
           class="cls-18"
           id="path82"
           inkscape:connector-curvature="0"
           style="fill:#d29151;fill-rule:evenodd" />
        <path
           d="m 465.128,514 -89.905,-19 -4.995,8 24.974,100 67.928,21 L 564.023,584 586,486 465.128,514 Z"
           class="cls-26"
           id="path84"
           inkscape:connector-curvature="0"
           style="fill:#986431;fill-rule:evenodd" />
        <path
           d="M 463.199,623.973 463.13,624 395.202,603 370.228,503 l 4.995,-8 89.905,19 0.57,-0.132 -2.499,110.105 z"
           class="cls-17"
           id="path86"
           inkscape:connector-curvature="0"
           style="fill:#754c24;fill-rule:evenodd" />
        <path
           d="m 481.111,526 -4.995,73 82.913,-30 11.987,-66 -89.905,23 z m -94.9,-12 62.934,11 0.999,75 -49.948,-15 -13.985,-71 z"
           class="cls-19"
           id="path88"
           inkscape:connector-curvature="0"
           style="fill:#4e2f11;fill-rule:evenodd" />
        <path
           d="m 564.944,517.863 -84.805,22.34 0.489,-7.143 85.393,-22.06 -1.077,6.863 z m -2.982,18.997 -83.214,23.675 1.215,-17.762 84.616,-22.588 -2.617,16.675 z m -2.584,16.461 -82.071,28.269 1.212,-17.71 83.075,-24.675 -2.216,14.116 z m -2.589,16.489 -80.673,29.19 1.004,-14.676 81.718,-27.564 -2.049,13.05 z m -155.873,3.1 48.229,10.242 0,17.848 -46.776,-14.633 -1.453,-13.457 z m -2.211,-20.469 50.44,10.711 0,17 -48.561,-10.312 -1.879,-17.399 z m 50.44,-12.077 -52.959,-11.246 -0.984,-9.118 53.943,9.9 0,10.464 z m 0,19.788 -50.771,-10.782 -1.856,-17.181 52.627,11.175 0,16.788 z"
           class="cls-20"
           id="path90"
           inkscape:connector-curvature="0"
           style="fill:#603913;fill-rule:evenodd" />
      </g>
      <path
         d="M 535.737,460.249 C 535.904,460.087 536,460 536,460 c 0,0 -0.096,0.094 -0.263,0.249 z m -1.591,19.756 C 532.042,477.935 528.454,475 525,475 c -2.592,0 -5.109,1.468 -7.084,3.059 1.6,-1.993 3.084,-4.518 3.084,-7.059 0,-5.17 -6.229,-10.374 -6.929,-10.943 0.691,0.551 6.374,4.943 11.929,4.943 4.324,0 8.654,-3.747 9.737,-4.751 -1.155,1.125 -5.737,5.889 -5.737,10.751 0,3.427 2.384,6.902 4.146,9.005 z m 0,0 C 535.288,481.128 536,482 536,482 c 0,0 -0.821,-0.763 -1.854,-1.995 z m -16.23,-1.946 C 516.038,480.397 514,482 514,482 c 0,0 1.576,-2.057 3.916,-3.941 z m -3.845,-18.002 C 514.024,460.02 514,460 514,460 c 0,0 0.029,0.023 0.071,0.057 z m -60.925,26.948 C 454.288,488.128 455,489 455,489 c 0,0 -0.821,-0.763 -1.854,-1.995 z M 444,482 c -2.592,0 -5.109,1.468 -7.084,3.059 1.6,-1.993 3.084,-4.518 3.084,-7.059 0,-5.17 -6.229,-10.374 -6.929,-10.943 0.691,0.551 6.374,4.943 11.929,4.943 4.324,0 8.654,-3.747 9.737,-4.751 -1.155,1.125 -5.737,5.889 -5.737,10.751 0,3.427 2.384,6.902 4.146,9.005 C 451.042,484.935 447.454,482 444,482 Z m -7.084,3.059 C 435.038,487.397 433,489 433,489 c 0,0 1.576,-2.057 3.916,-3.941 z m 17.821,-17.81 C 454.904,467.087 455,467 455,467 c 0,0 -0.096,0.094 -0.263,0.249 z m -7.591,-0.244 C 448.288,468.128 449,469 449,469 c 0,0 -0.821,-0.763 -1.854,-1.995 z M 438,462 c -2.592,0 -5.109,1.468 -7.084,3.059 1.6,-1.993 3.084,-4.518 3.084,-7.059 0,-5.17 -6.229,-10.374 -6.929,-10.943 0.691,0.551 6.374,4.943 11.929,4.943 4.324,0 8.654,-3.747 9.737,-4.751 -1.155,1.125 -5.737,5.889 -5.737,10.751 0,3.427 2.384,6.902 4.146,9.005 C 445.042,464.935 441.454,462 438,462 Z m -7.084,3.059 C 429.038,467.397 427,469 427,469 c 0,0 1.576,-2.057 3.916,-3.941 z m 17.821,-17.81 C 448.904,447.087 449,447 449,447 c 0,0 -0.096,0.094 -0.263,0.249 z"
         class="cls-3"
         id="path92"
         inkscape:connector-curvature="0"
         style="fill:#ffffff;fill-rule:evenodd" />
    </g>
    <g
       id="g94">
      <g
         id="g96">
        <path
           d="m 250.119,502 c -0.728,0.971 -2.531,3.108 -12.997,-10 l -38.989,15 3.999,22 c 0,0 -2.203,5.931 11.996,5 0,0 13.859,-3.199 3.999,18 0,0 -8.234,-1.057 -9.997,1 -4.795,5.594 -8.07,18.935 -19.994,23 0,0 -24.25,-12.195 -34.991,43 0,0 -1.191,19.513 -15.995,31 0,0 -15.286,16.068 0,31 0,0 -18.144,21.029 -22.994,24 -4.85,2.971 4.916,19.344 40.989,14 0,0 21.132,3.986 45.987,3 24.855,-0.986 59.412,7.675 99.973,0 0,0 54.887,3.091 25.993,-15 0,0 13.501,-23.297 0.999,-56 -4.426,-11.578 -5.27,-26.879 -13.506,-36.549 -9.615,-11.288 -5.196,-21.39 -4.489,-28.451 0.134,-1.334 -5.773,-3.385 -5.504,-4.417 0.428,-1.638 0.979,-2.864 1.505,-3.583 1.16,-1.583 8.105,-3.025 8.998,-5 2.509,-5.552 -2,-12 -2,-12 l 10.997,-18 -15.995,-19 -11.997,4 0,-36 -37.99,-4 c 0,0 -6.737,1.082 -7.997,5 -1.074,3.335 0.334,8.554 0,9 z"
           class="cls-12"
           id="path98"
           inkscape:connector-curvature="0"
           style="fill:#bf8d60;fill-rule:evenodd" />
        <path
           d="m 308.462,574.041 c -0.714,1.427 -1.5,2.787 -2.359,3.959 -0.689,0.941 -1.418,2.759 -1.858,5.224 -12.362,3.286 -21.073,1.841 -32.132,-0.224 -12.869,-2.403 -27.823,-6.127 -35.662,-13.078 -0.235,-0.208 -7.68,9.227 -14.325,22.078 -6.148,11.892 -11.475,27.189 -12.996,29 -0.544,0.648 -0.924,-9.215 2.999,-20 4.782,-13.146 14.02,-27.7 12.781,-26.712 -2.567,2.047 -5.389,4.932 -8.279,8.951 -10.607,14.754 -23.483,39.507 -24.496,38.761 -1.022,-0.751 6.417,-18.779 15.995,-35 7.594,-12.859 17.82,-24.67 17.144,-25.225 -4.022,-3.301 -6.96,-6.16 -8.61,-7.923 0.945,-1.155 1.463,-1.852 1.463,-1.852 3.666,-7.881 4.05,-12.386 3.091,-14.941 0.608,0.394 14.904,3.941 14.904,3.941 l 2,-8 c 0,0 2.123,5.308 4.181,10.455 1.937,4.844 3.817,9.545 3.817,9.545 l 3.999,-27 0,-19 c 0,0 1.585,7.57 1.999,16 0.281,5.714 -0.668,13.107 -0.346,13.859 0.28,0.654 17.546,-8.446 25.339,-9.859 11.532,-2.091 14.996,3 14.996,3 l -38.989,10 1.356,16.588 c 0,0 18.467,9.464 25.636,12.412 10.797,4.44 23.077,5.018 28.352,5.041 z M 301.105,722 c -40.561,7.675 -75.118,-0.986 -99.973,0 -24.855,0.986 -45.987,-3 -45.987,-3 -36.073,5.344 -45.839,-11.029 -40.989,-14 4.85,-2.971 22.994,-24 22.994,-24 -2.184,-2.133 -3.726,-4.288 -4.796,-6.417 2.133,2.066 4.285,3.94 5.795,4.417 14.291,4.517 -30.808,30.917 -10.997,33 49.497,5.204 148.699,14.514 196.946,3 3.051,-0.728 0.214,-4.166 1,-10 0.64,-4.747 4.253,-6.232 4.999,-12 1.104,-8.544 1.519,-18.436 2.652,-23.881 3.043,22.852 -5.652,37.881 -5.652,37.881 28.895,18.091 -25.992,15 -25.992,15 z"
           class="cls-13"
           id="path100"
           inkscape:connector-curvature="0"
           style="fill:#946943;fill-rule:evenodd" />
        <path
           d="m 191.135,628 c -6.563,-1.945 -3.948,-27.785 25.993,-58 0,0 7.196,-10.367 -5.999,-2 0,0 -8.953,6.096 -18.994,10 -7.043,2.738 -13.632,-0.729 -18.995,4 0,0 -17.144,12.878 -15.996,49 0,0 -41.07,46.323 0,57 0,0 -24.591,16.965 2.999,22 24.31,4.437 72.776,3.966 117.968,2 28.634,-1.246 41.81,-16.708 23.993,-17 -17.816,-0.292 26.717,-5.087 21.979,-32.667 -1.783,-10.377 -2.232,-22.907 -6.316,-34.029 -3.179,-8.657 -9.709,-16.08 -13.663,-23.304 -7.374,-13.469 -12.893,-15.919 -12.997,-16 0,0 -11.659,-2.08 -19.994,3 -5.116,3.118 -3.296,38.95 -7.998,38 -2.502,-0.506 -1.617,-45.346 -3.999,-46 -11.131,-3.056 -18.995,-9 -18.995,-9 0,0 -5.616,2.36 -10.997,12 -7.795,13.966 -16.438,37.253 -17.995,41 -2.631,6.333 -6.998,-11 -6.998,-11 0,0 -6.434,12.945 -12.996,11 z m 43.988,-133 -32.991,14 c 0,0 7.123,5.711 10.997,10 3.873,4.289 6.041,9.691 16.995,10 10.954,0.309 10.267,11.88 13.996,15 3.729,3.12 1,-14 1,-14 l 3.999,-8 -1,-16 -12.996,-11 z m 22.993,-4 c 0,0 -6.508,7.182 -3.998,24 2.509,16.818 -2,18 -2,18 l 11.997,-14 c 0,0 15.098,-9.739 23.993,-10 8.896,-0.261 5.999,-14 5.999,-14 l -35.991,-4 z m -4.998,49 c 0,0 39.019,-7.79 51.986,-12 l 14.995,14 c 0,0 -6.937,7.327 -8.997,14 -2.06,6.673 -3.633,7.822 -10.997,8 -7.365,0.178 -11.531,5.856 -23.993,-2 -12.463,-7.856 -22.994,-22 -22.994,-22 z"
           class="cls-14"
           id="path102"
           inkscape:connector-curvature="0"
           style="fill:#e3b07c;fill-rule:evenodd" />
        <path
           d="m 227.125,545 c 0,0 -1.772,-2.082 -2.999,-3 -5.095,-3.813 -12.301,1.541 0,16 16.091,18.915 55.463,26.756 77.978,24 0,0 5.693,0.618 3.999,-6 0,0 -24.943,-1.525 -43.988,-9 -20.398,-8.007 -34.99,-22 -34.99,-22 z"
           class="cls-15"
           id="path104"
           inkscape:connector-curvature="0"
           style="fill:#5d422a;fill-rule:evenodd" />
        <path
           d="m 224.126,546 c 0,0 15.639,15.62 36.99,24 17.817,6.994 42.988,8 42.988,8 0,0 -38.526,7.149 -64.982,-13 -22.219,-16.922 -14.996,-19 -14.996,-19 z"
           class="cls-16"
           id="path106"
           inkscape:connector-curvature="0"
           style="fill:#795638;fill-rule:evenodd" />
        <path
           d="m 210.13,719 c -7.467,0 -54.985,-5 -54.985,-5 0,0 28.465,-4.97 38.989,-15 6.245,-5.952 10.207,-20.324 11.997,-28 2.46,-10.55 0.999,-24.413 0.999,-36 0,-9.537 16.243,-10.333 27.993,-19 8.751,-6.455 8.794,-22.643 13.996,-31 1.339,-2.152 2.298,-4.375 2.966,-6.631 2.059,1.006 4.489,1.631 7.031,1.631 6.902,0 12.111,-4.583 11.997,-9 -0.119,-4.6 -10.159,-8.476 -14.961,-11.773 -1.751,-1.203 -3.196,-1.831 -4.392,-2.028 -1.704,-7.205 -4.229,-13.438 -4.641,-17.199 -1.065,-9.731 9.858,-10 20.995,-10 33.128,0 60.983,53.817 60.983,98 0,44.183 -85.839,91 -118.967,91 z"
           class="cls-12"
           id="path108"
           inkscape:connector-curvature="0"
           style="fill:#bf8d60;fill-rule:evenodd" />
      </g>
      <g
         id="g110">
        <g
           id="g112">
          <path
             d="m 314.256,527 c -0.385,0.066 -26.262,-7.838 -26.262,-7.838 l 0,-12.112 4.677,-4.93 c 0.499,0.824 1.393,1.38 2.423,1.38 1.57,0 2.843,-1.28 2.843,-2.859 0,-1.084 -0.606,-2.016 -1.49,-2.501 l 5.743,-6.053 10.646,2.85 5.678,5.7 2.13,12.113 c 0,0 -6.003,14.184 -6.388,14.25 z"
             class="cls-27"
             id="path114"
             inkscape:connector-curvature="0"
             style="fill:#fff568;fill-rule:evenodd" />
          <path
             d="m 318.514,500.637 -5.678,-5.7 -10.646,-2.85 11.356,6.413 -0.71,14.25 -9.937,5.7 -9.936,-2.85 -4.969,-8.55 0,12.112 c 0,0 25.877,7.904 26.262,7.838 0.385,-0.066 6.388,-14.25 6.388,-14.25 l -2.13,-12.113 z"
             class="cls-23"
             id="path116"
             inkscape:connector-curvature="0"
             style="fill:#f9b014;fill-rule:evenodd" />
          <path
             d="m 312.484,508.469 c -1.372,0 -2.484,-1.113 -2.484,-2.485 0,-1.372 1.112,-2.484 2.484,-2.484 1.372,0 2.485,1.112 2.485,2.484 0,1.372 -1.113,2.485 -2.485,2.485 z m -10.64,-7.844 c -0.984,0 -1.781,-0.798 -1.781,-1.781 0,-0.984 0.797,-1.781 1.781,-1.781 0.983,0 1.781,0.797 1.781,1.781 0,0.983 -0.798,1.781 -1.781,1.781 z m 1.062,9.266 c 0,1.182 -0.951,2.14 -2.125,2.14 -1.173,0 -2.125,-0.958 -2.125,-2.14 0,-1.183 0.952,-2.141 2.125,-2.141 1.174,0 2.125,0.958 2.125,2.141 z"
             class="cls-28"
             id="path118"
             inkscape:connector-curvature="0"
             style="fill:#f7941d;fill-rule:evenodd" />
          <ellipse
             cx="312.125"
             cy="517.01501"
             rx="2.125"
             ry="2.1400001"
             class="cls-29"
             id="ellipse120"
             style="fill:#f7941d" />
        </g>
        <g
           id="g122">
          <path
             d="m 345.485,477.837 -23.422,-2.85 -9.227,22.8 25.552,7.125 c 0,0 6.87,-27.846 7.097,-27.075 z"
             class="cls-23"
             id="path124"
             inkscape:connector-curvature="0"
             style="fill:#f9b014;fill-rule:evenodd" />
          <path
             d="m 339.098,478.55 -16.325,-3.563 -6.388,16.388 17.744,-3.562 4.969,-9.263 z"
             class="cls-27"
             id="path126"
             inkscape:connector-curvature="0"
             style="fill:#fff568;fill-rule:evenodd" />
          <circle
             cx="331.297"
             cy="485.68799"
             r="3.5469999"
             class="cls-29"
             id="circle128"
             style="fill:#f7941d" />
        </g>
        <g
           id="g130">
          <path
             d="m 371.031,481.75 c 0,1.381 1.112,2.5 2.485,2.5 0.505,0 0.974,-0.154 1.366,-0.415 l 3.253,6.827 -30.52,12.825 -9.937,-12.112 7.807,-20.663 24.842,3.563 2.433,5.105 c -1,0.324 -1.729,1.256 -1.729,2.37 z"
             class="cls-27"
             id="path132"
             inkscape:connector-curvature="0"
             style="fill:#fff568;fill-rule:evenodd" />
          <path
             d="m 345.485,470.712 -7.807,20.663 9.937,12.112 12.776,-5.7 17.744,-7.837 c 0,0 -18.745,6.019 -19,5.556 -2.795,-5.076 -9.503,-17.261 -12.343,-22.421 -0.219,-0.397 23.535,1.19 23.535,1.19 l -24.842,-3.563 z"
             class="cls-23"
             id="path134"
             inkscape:connector-curvature="0"
             style="fill:#f9b014;fill-rule:evenodd" />
          <path
             d="m 366.422,490.656 c -1.372,0 -2.484,-1.112 -2.484,-2.484 0,-1.372 1.112,-2.485 2.484,-2.485 1.372,0 2.484,1.113 2.484,2.485 0,1.372 -1.112,2.484 -2.484,2.484 z m -13.485,-4.969 c -1.76,0 -3.187,-1.441 -3.187,-3.218 0,-1.778 1.427,-3.219 3.187,-3.219 1.761,0 3.188,1.441 3.188,3.219 0,1.777 -1.427,3.218 -3.188,3.218 z"
             class="cls-28"
             id="path136"
             inkscape:connector-curvature="0"
             style="fill:#f7941d;fill-rule:evenodd" />
        </g>
        <g
           id="g138">
          <path
             d="m 319.224,510.256 c 0,1.377 -1.112,2.494 -2.484,2.494 -0.003,0 -0.006,-10e-4 -0.01,-10e-4 l -1.055,7.838 4.969,4.275 28.39,-2.137 7.098,-21.375 -14.195,-9.975 -7.852,0.985 c 0.022,0.145 0.044,0.289 0.044,0.44 0,1.574 -1.271,2.85 -2.839,2.85 -1.478,0 -2.678,-1.138 -2.812,-2.586 l -9.254,1.161 -1.835,13.634 c 1.055,0.288 1.835,1.247 1.835,2.397 z"
             class="cls-27"
             id="path140"
             inkscape:connector-curvature="0"
             style="fill:#fff568;fill-rule:evenodd" />
          <path
             d="m 315.675,520.587 4.969,4.275 28.39,-2.137 7.098,-21.375 -14.195,-9.975 -0.71,22.087 -4.969,3.563 -20.583,3.562 z"
             class="cls-23"
             id="path142"
             inkscape:connector-curvature="0"
             style="fill:#f9b014;fill-rule:evenodd" />
          <path
             d="m 341.219,511.312 c -1.571,0 -2.844,-1.273 -2.844,-2.843 0,-1.571 1.273,-2.844 2.844,-2.844 1.57,0 2.844,1.273 2.844,2.844 0,1.57 -1.274,2.843 -2.844,2.843 z m -10.985,-7.125 c -1.372,0 -2.484,-1.112 -2.484,-2.484 0,-1.372 1.112,-2.484 2.484,-2.484 1.372,0 2.485,1.112 2.485,2.484 0,1.372 -1.113,2.484 -2.485,2.484 z M 324.906,522 c -1.57,0 -2.844,-1.273 -2.844,-2.844 0,-1.57 1.274,-2.844 2.844,-2.844 1.571,0 2.844,1.274 2.844,2.844 0,1.571 -1.273,2.844 -2.844,2.844 z"
             class="cls-28"
             id="path144"
             inkscape:connector-curvature="0"
             style="fill:#f7941d;fill-rule:evenodd" />
        </g>
        <g
           id="g146">
          <path
             d="m 396.589,512.037 -2.839,-19.237 -17.035,-2.85 -19.873,-2.138 -11.357,19.95 4.969,13.538 34.069,1.425 12.066,-10.688 z"
             class="cls-27"
             id="path148"
             inkscape:connector-curvature="0"
             style="fill:#fff568;fill-rule:evenodd" />
          <path
             d="m 396.589,512.037 -2.839,-19.237 -1.42,15.675 -26.261,7.838 -20.584,-8.551 4.969,13.538 34.069,1.425 12.066,-10.688 z"
             class="cls-23"
             id="path150"
             inkscape:connector-curvature="0"
             style="fill:#f9b014;fill-rule:evenodd" />
          <path
             d="m 380.625,514.188 c -1.76,0 -3.187,-1.442 -3.187,-3.219 0,-1.778 1.427,-3.219 3.187,-3.219 1.76,0 3.187,1.441 3.187,3.219 0,1.777 -1.427,3.219 -3.187,3.219 z m -1.063,-12.844 c -1.57,0 -2.843,-1.273 -2.843,-2.844 0,-1.571 1.273,-2.844 2.843,-2.844 1.571,0 2.844,1.273 2.844,2.844 0,1.571 -1.273,2.844 -2.844,2.844 z m -17.39,4.281 c -1.769,0 -3.203,-1.434 -3.203,-3.203 0,-1.769 1.434,-3.203 3.203,-3.203 1.769,0 3.203,1.434 3.203,3.203 0,1.769 -1.434,3.203 -3.203,3.203 z"
             class="cls-28"
             id="path152"
             inkscape:connector-curvature="0"
             style="fill:#f7941d;fill-rule:evenodd" />
        </g>
        <path
           d="m 395.169,510.612 -26.261,8.55 -14.905,-2.137 -7.808,-9.263 9.937,-19.237 -2.839,-2.85 1.419,3.562 -4.258,6.413 -9.227,-5.7 c 0,0 -23.218,3.814 -22.713,4.275 0.064,0.059 9.937,-1.425 9.937,-1.425 0,0 2.619,2.349 4.259,2.138 1.002,-0.13 0.545,-2.499 1.506,-2.624 4.589,-0.596 8.397,-1.099 8.397,-1.099 l 7.131,6.572 -5.678,9.263 5.678,10.687 -8.517,-2.85 3.549,3.563 -26.971,4.275 -2.84,-2.138 2.13,-16.387 -4.259,15.675 -7.098,0.712 -13.485,-2.85 -2.839,-2.137 -0.71,3.562 24.842,7.838 68.847,-3.563 15.615,-11.4 -4.258,-19.95 -14.905,-2.85 -3.549,-4.987 c 0,0 -3.038,-0.569 -3.549,-1.425 -0.803,-1.344 0.71,-4.275 0.71,-4.275 l -2.13,-4.987 -24.842,-3.563 -2.839,5.7 -20.583,-0.713 -7.473,18.13 -13.11,-1.742 -4.953,5.757 c 0,0 0.967,3.788 -0.016,4.93 -1.06,1.233 -4.077,-0.173 -4.077,-0.173 l -4.44,5.161 0,11.4 0.71,-10.688 4.259,-4.987 c 0,0 2.328,2.019 4.258,-0.713 0.957,-1.354 0,-4.275 0,-4.275 l 6.048,-5.778 10.277,3.641 9.937,-19.95 18.053,1.294 -3.858,14.381 5.678,-14.25 2.129,-6.413 24.842,4.275 c 0,0 1.5,3.412 1.42,3.563 -0.487,0.911 -1.029,3.38 -0.71,4.275 0.548,1.532 3.549,1.425 3.549,1.425 l 3.549,6.412 14.905,2.85 2.129,17.1 z"
           class="cls-30"
           id="path154"
           inkscape:connector-curvature="0"
           style="fill:#b78116;fill-rule:evenodd" />
      </g>
      <g
         id="g156">
        <g
           id="g158">
          <path
             d="m 353.744,557 c -0.385,-0.066 -6.388,-14.25 -6.388,-14.25 l 2.13,-12.113 5.678,-5.7 10.646,-2.85 5.745,6.055 c -0.886,0.483 -1.495,1.413 -1.495,2.495 0,1.574 1.272,2.85 2.84,2.85 1.029,0 1.922,-0.554 2.42,-1.376 l 4.686,4.939 0,12.112 c 0,0 -25.877,7.904 -26.262,7.838 z"
             class="cls-27"
             id="path160"
             inkscape:connector-curvature="0"
             style="fill:#fff568;fill-rule:evenodd" />
          <path
             d="m 349.486,530.637 5.678,-5.7 10.646,-2.85 -11.356,6.413 0.71,14.25 9.937,5.7 9.936,-2.85 4.969,-8.55 0,12.112 c 0,0 -25.877,7.904 -26.262,7.838 -0.385,-0.066 -6.388,-14.25 -6.388,-14.25 l 2.13,-12.113 z"
             class="cls-23"
             id="path162"
             inkscape:connector-curvature="0"
             style="fill:#f9b014;fill-rule:evenodd" />
          <path
             d="m 367.221,542.037 c -1.177,0 -2.13,-0.956 -2.13,-2.137 0,-1.181 0.953,-2.138 2.13,-2.138 1.176,0 2.13,0.957 2.13,2.138 0,1.181 -0.954,2.137 -2.13,2.137 z m -1.065,-11.4 c -0.981,0 -1.775,-0.797 -1.775,-1.781 0,-0.984 0.794,-1.781 1.775,-1.781 0.98,0 1.775,0.797 1.775,1.781 0,0.984 -0.795,1.781 -1.775,1.781 z m -10.628,7.838 c -1.372,0 -2.484,-1.117 -2.484,-2.494 0,-1.377 1.112,-2.494 2.484,-2.494 1.373,0 2.485,1.117 2.485,2.494 0,1.377 -1.112,2.494 -2.485,2.494 z"
             class="cls-28"
             id="path164"
             inkscape:connector-curvature="0"
             style="fill:#f7941d;fill-rule:evenodd" />
          <circle
             cx="355.875"
             cy="547.01501"
             r="2.125"
             class="cls-29"
             id="circle166"
             style="fill:#f7941d" />
        </g>
        <g
           id="g168">
          <path
             d="m 322.514,507.837 23.423,-2.85 9.227,22.8 -25.552,7.125 c 0,0 -6.87,-27.846 -7.098,-27.075 z"
             class="cls-23"
             id="path170"
             inkscape:connector-curvature="0"
             style="fill:#f9b014;fill-rule:evenodd" />
          <path
             d="m 328.902,508.55 16.325,-3.563 6.388,16.388 -17.744,-3.562 -4.969,-9.263 z"
             class="cls-27"
             id="path172"
             inkscape:connector-curvature="0"
             style="fill:#fff568;fill-rule:evenodd" />
          <circle
             cx="336.703"
             cy="515.68799"
             r="3.5469999"
             class="cls-29"
             id="circle174"
             style="fill:#f7941d" />
        </g>
        <g
           id="g176">
          <path
             d="m 320.385,533.487 -30.52,-12.825 3.25,-6.82 c 0.39,0.256 0.855,0.408 1.357,0.408 1.372,0 2.484,-1.117 2.484,-2.494 0,-1.108 -0.725,-2.037 -1.723,-2.362 l 2.44,-5.119 24.841,-3.563 7.808,20.663 -9.937,12.112 z"
             class="cls-27"
             id="path178"
             inkscape:connector-curvature="0"
             style="fill:#fff568;fill-rule:evenodd" />
          <path
             d="m 322.514,500.712 7.808,20.663 -9.937,12.112 -12.776,-5.7 -17.744,-7.837 c 0,0 18.745,6.019 19,5.556 2.795,-5.076 9.503,-17.261 12.343,-22.421 0.219,-0.397 -23.535,1.19 -23.535,1.19 l 24.841,-3.563 z"
             class="cls-23"
             id="path180"
             inkscape:connector-curvature="0"
             style="fill:#f9b014;fill-rule:evenodd" />
          <path
             d="m 315.06,515.675 c -1.764,0 -3.194,-1.435 -3.194,-3.206 0,-1.771 1.43,-3.207 3.194,-3.207 1.765,0 3.195,1.436 3.195,3.207 0,1.771 -1.43,3.206 -3.195,3.206 z m -13.489,4.987 c -1.372,0 -2.485,-1.116 -2.485,-2.493 0,-1.378 1.113,-2.494 2.485,-2.494 1.373,0 2.485,1.116 2.485,2.494 0,1.377 -1.112,2.493 -2.485,2.493 z"
             class="cls-28"
             id="path182"
             inkscape:connector-curvature="0"
             style="fill:#f7941d;fill-rule:evenodd" />
        </g>
        <g
           id="g184">
          <path
             d="m 348.776,540.256 c 0,1.377 1.112,2.494 2.484,2.494 0.003,0 0.006,-10e-4 0.01,-10e-4 l 1.055,7.838 -4.969,4.275 -28.39,-2.137 -7.098,-21.375 14.195,-9.975 7.852,0.985 c -0.022,0.145 -0.044,0.289 -0.044,0.44 0,1.574 1.271,2.85 2.839,2.85 1.478,0 2.678,-1.138 2.812,-2.586 l 9.254,1.161 1.835,13.634 c -1.055,0.288 -1.835,1.247 -1.835,2.397 z"
             class="cls-27"
             id="path186"
             inkscape:connector-curvature="0"
             style="fill:#fff568;fill-rule:evenodd" />
          <path
             d="m 352.325,550.587 -4.969,4.275 -28.39,-2.137 -7.098,-21.375 14.195,-9.975 0.71,22.087 4.968,3.563 20.584,3.562 z"
             class="cls-23"
             id="path188"
             inkscape:connector-curvature="0"
             style="fill:#f9b014;fill-rule:evenodd" />
          <path
             d="m 343.104,552.012 c -1.568,0 -2.84,-1.276 -2.84,-2.85 0,-1.574 1.272,-2.85 2.84,-2.85 1.568,0 2.84,1.276 2.84,2.85 0,1.574 -1.272,2.85 -2.84,2.85 z M 337.779,534.2 c -1.372,0 -2.485,-1.117 -2.485,-2.494 0,-1.377 1.113,-2.494 2.485,-2.494 1.373,0 2.485,1.117 2.485,2.494 0,1.377 -1.112,2.494 -2.485,2.494 z m -11.004,7.125 c -1.569,0 -2.84,-1.276 -2.84,-2.85 0,-1.574 1.271,-2.85 2.84,-2.85 1.568,0 2.84,1.276 2.84,2.85 0,1.574 -1.272,2.85 -2.84,2.85 z"
             class="cls-28"
             id="path190"
             inkscape:connector-curvature="0"
             style="fill:#f7941d;fill-rule:evenodd" />
        </g>
        <g
           id="g192">
          <path
             d="m 271.411,542.037 2.839,-19.237 17.035,-2.85 19.873,-2.138 11.356,19.95 -4.968,13.538 -34.069,1.425 -12.066,-10.688 z"
             class="cls-27"
             id="path194"
             inkscape:connector-curvature="0"
             style="fill:#fff568;fill-rule:evenodd" />
          <path
             d="m 271.411,542.037 2.839,-19.237 1.42,15.675 26.261,7.838 20.583,-8.551 -4.968,13.538 -34.069,1.425 -12.066,-10.688 z"
             class="cls-23"
             id="path196"
             inkscape:connector-curvature="0"
             style="fill:#f9b014;fill-rule:evenodd" />
          <path
             d="m 305.831,535.625 c -1.765,0 -3.195,-1.436 -3.195,-3.206 0,-1.771 1.43,-3.207 3.195,-3.207 1.764,0 3.195,1.436 3.195,3.207 0,1.77 -1.431,3.206 -3.195,3.206 z m -17.394,-4.275 c -1.569,0 -2.84,-1.276 -2.84,-2.85 0,-1.574 1.271,-2.85 2.84,-2.85 1.568,0 2.84,1.276 2.84,2.85 0,1.574 -1.272,2.85 -2.84,2.85 z m 2.13,9.619 c 0,1.771 -1.431,3.206 -3.195,3.206 -1.765,0 -3.195,-1.435 -3.195,-3.206 0,-1.771 1.43,-3.207 3.195,-3.207 1.764,0 3.195,1.436 3.195,3.207 z"
             class="cls-28"
             id="path198"
             inkscape:connector-curvature="0"
             style="fill:#f7941d;fill-rule:evenodd" />
        </g>
        <path
           d="m 272.831,540.612 26.261,8.55 14.905,-2.137 7.808,-9.263 -9.937,-19.237 2.839,-2.85 -1.42,3.562 4.259,6.413 9.227,-5.7 c 0,0 23.218,3.814 22.713,4.275 -0.064,0.059 -9.937,-1.425 -9.937,-1.425 0,0 -2.619,2.349 -4.259,2.137 -1.002,-0.129 -0.545,-2.498 -1.506,-2.623 -4.589,-0.596 -8.397,-1.099 -8.397,-1.099 l -7.131,6.572 5.678,9.263 -5.678,10.687 8.517,-2.85 -3.549,3.563 26.971,4.275 2.84,-2.138 -2.13,-16.387 4.259,15.675 7.098,0.712 13.485,-2.85 2.839,-2.137 0.71,3.562 -24.842,7.838 -68.848,-3.563 -15.614,-11.4 4.258,-19.95 14.905,-2.85 3.549,-4.987 c 0,0 3.037,-0.569 3.549,-1.425 0.803,-1.344 -0.71,-4.275 -0.71,-4.275 l 2.13,-4.988 24.841,-3.562 2.84,5.7 20.583,-0.713 7.473,18.13 13.11,-1.742 4.953,5.757 c 0,0 -0.967,3.788 0.016,4.931 1.06,1.232 4.076,-0.174 4.076,-0.174 l 4.441,5.161 0,11.4 -0.71,-10.688 -4.259,-4.987 c 0,0 -2.328,2.019 -4.258,-0.712 -0.957,-1.355 0,-4.276 0,-4.276 l -6.048,-5.778 -10.277,3.641 -9.937,-19.95 -18.053,1.294 3.858,14.381 -5.678,-14.25 -2.13,-6.413 -24.841,4.275 c 0,0 -1.5,3.412 -1.42,3.563 0.487,0.911 1.029,3.38 0.71,4.275 -0.548,1.532 -3.549,1.425 -3.549,1.425 l -3.549,6.412 -14.905,2.85 -2.129,17.1 z"
           class="cls-30"
           id="path200"
           inkscape:connector-curvature="0"
           style="fill:#b78116;fill-rule:evenodd" />
      </g>
      <g
         id="g202">
        <g
           id="g204">
          <path
             d="m 403.744,559 c -0.385,-0.066 -6.388,-14.25 -6.388,-14.25 l 2.13,-12.113 5.678,-5.7 10.646,-2.85 5.743,6.053 c -0.884,0.485 -1.491,1.417 -1.491,2.501 0,1.579 1.274,2.859 2.844,2.859 1.03,0 1.924,-0.556 2.423,-1.38 l 4.677,4.93 0,12.112 c 0,0 -25.877,7.904 -26.262,7.838 z"
             class="cls-27"
             id="path206"
             inkscape:connector-curvature="0"
             style="fill:#fff568;fill-rule:evenodd" />
          <path
             d="m 399.486,532.637 5.678,-5.7 10.646,-2.85 -11.356,6.413 0.71,14.25 9.937,5.7 9.936,-2.85 4.969,-8.55 0,12.112 c 0,0 -25.877,7.904 -26.262,7.838 -0.385,-0.066 -6.388,-14.25 -6.388,-14.25 l 2.13,-12.113 z"
             class="cls-23"
             id="path208"
             inkscape:connector-curvature="0"
             style="fill:#f9b014;fill-rule:evenodd" />
          <path
             d="m 417.219,544.031 c -1.174,0 -2.125,-0.958 -2.125,-2.14 0,-1.183 0.951,-2.141 2.125,-2.141 1.173,0 2.125,0.958 2.125,2.141 0,1.182 -0.952,2.14 -2.125,2.14 z m -1.063,-11.406 c -0.984,0 -1.781,-0.798 -1.781,-1.781 0,-0.984 0.797,-1.781 1.781,-1.781 0.984,0 1.781,0.797 1.781,1.781 0,0.983 -0.797,1.781 -1.781,1.781 z m -10.64,7.844 c -1.373,0 -2.485,-1.113 -2.485,-2.485 0,-1.372 1.112,-2.484 2.485,-2.484 1.372,0 2.484,1.112 2.484,2.484 0,1.372 -1.112,2.485 -2.484,2.485 z"
             class="cls-28"
             id="path210"
             inkscape:connector-curvature="0"
             style="fill:#f7941d;fill-rule:evenodd" />
          <circle
             cx="405.875"
             cy="549.01501"
             r="2.125"
             class="cls-29"
             id="circle212"
             style="fill:#f7941d" />
        </g>
        <g
           id="g214">
          <path
             d="m 372.514,509.837 23.423,-2.85 9.227,22.8 -25.552,7.125 c 0,0 -6.87,-27.846 -7.098,-27.075 z"
             class="cls-23"
             id="path216"
             inkscape:connector-curvature="0"
             style="fill:#f9b014;fill-rule:evenodd" />
          <path
             d="m 378.902,510.55 16.325,-3.563 6.388,16.388 -17.744,-3.562 -4.969,-9.263 z"
             class="cls-27"
             id="path218"
             inkscape:connector-curvature="0"
             style="fill:#fff568;fill-rule:evenodd" />
          <circle
             cx="386.703"
             cy="517.68799"
             r="3.5469999"
             class="cls-29"
             id="circle220"
             style="fill:#f7941d" />
        </g>
        <g
           id="g222">
          <path
             d="m 370.385,535.487 -30.52,-12.825 3.253,-6.827 c 0.392,0.261 0.861,0.415 1.366,0.415 1.372,0 2.485,-1.119 2.485,-2.5 0,-1.114 -0.729,-2.046 -1.729,-2.37 l 2.433,-5.105 24.841,-3.563 7.808,20.663 -9.937,12.112 z"
             class="cls-27"
             id="path224"
             inkscape:connector-curvature="0"
             style="fill:#fff568;fill-rule:evenodd" />
          <path
             d="m 372.514,502.712 7.808,20.663 -9.937,12.112 -12.776,-5.7 -17.744,-7.837 c 0,0 18.745,6.019 19,5.556 2.795,-5.076 9.503,-17.261 12.343,-22.421 0.219,-0.397 -23.535,1.19 -23.535,1.19 l 24.841,-3.563 z"
             class="cls-23"
             id="path226"
             inkscape:connector-curvature="0"
             style="fill:#f9b014;fill-rule:evenodd" />
          <path
             d="m 365.063,517.687 c -1.761,0 -3.188,-1.441 -3.188,-3.218 0,-1.778 1.427,-3.219 3.188,-3.219 1.76,0 3.187,1.441 3.187,3.219 0,1.777 -1.427,3.218 -3.187,3.218 z m -13.485,4.969 c -1.372,0 -2.484,-1.112 -2.484,-2.484 0,-1.372 1.112,-2.485 2.484,-2.485 1.372,0 2.484,1.113 2.484,2.485 0,1.372 -1.112,2.484 -2.484,2.484 z"
             class="cls-28"
             id="path228"
             inkscape:connector-curvature="0"
             style="fill:#f7941d;fill-rule:evenodd" />
        </g>
        <g
           id="g230">
          <path
             d="m 398.776,542.256 c 0,1.377 1.112,2.494 2.484,2.494 0.003,0 0.006,-10e-4 0.01,-10e-4 l 1.055,7.838 -4.969,4.275 -28.39,-2.137 -7.098,-21.375 14.195,-9.975 7.852,0.985 c -0.022,0.145 -0.044,0.289 -0.044,0.44 0,1.574 1.271,2.85 2.839,2.85 1.478,0 2.678,-1.138 2.812,-2.586 l 9.254,1.161 1.835,13.634 c -1.055,0.288 -1.835,1.247 -1.835,2.397 z"
             class="cls-27"
             id="path232"
             inkscape:connector-curvature="0"
             style="fill:#fff568;fill-rule:evenodd" />
          <path
             d="m 402.325,552.587 -4.969,4.275 -28.39,-2.137 -7.098,-21.375 14.195,-9.975 0.71,22.087 4.968,3.563 20.584,3.562 z"
             class="cls-23"
             id="path234"
             inkscape:connector-curvature="0"
             style="fill:#f9b014;fill-rule:evenodd" />
          <path
             d="m 393.094,554 c -1.571,0 -2.844,-1.273 -2.844,-2.844 0,-1.57 1.273,-2.844 2.844,-2.844 1.57,0 2.844,1.274 2.844,2.844 0,1.571 -1.274,2.844 -2.844,2.844 z m -5.328,-17.813 c -1.373,0 -2.485,-1.112 -2.485,-2.484 0,-1.372 1.112,-2.484 2.485,-2.484 1.372,0 2.484,1.112 2.484,2.484 0,1.372 -1.112,2.484 -2.484,2.484 z m -10.985,7.125 c -1.57,0 -2.844,-1.273 -2.844,-2.843 0,-1.571 1.274,-2.844 2.844,-2.844 1.571,0 2.844,1.273 2.844,2.844 0,1.57 -1.273,2.843 -2.844,2.843 z"
             class="cls-28"
             id="path236"
             inkscape:connector-curvature="0"
             style="fill:#f7941d;fill-rule:evenodd" />
        </g>
        <g
           id="g238">
          <path
             d="m 321.411,544.037 2.839,-19.237 17.035,-2.85 19.873,-2.138 11.356,19.95 -4.968,13.538 -34.069,1.425 -12.066,-10.688 z"
             class="cls-27"
             id="path240"
             inkscape:connector-curvature="0"
             style="fill:#fff568;fill-rule:evenodd" />
          <path
             d="m 321.411,544.037 2.839,-19.237 1.42,15.675 26.261,7.838 20.583,-8.551 -4.968,13.538 -34.069,1.425 -12.066,-10.688 z"
             class="cls-23"
             id="path242"
             inkscape:connector-curvature="0"
             style="fill:#f9b014;fill-rule:evenodd" />
          <path
             d="m 355.828,537.625 c -1.769,0 -3.203,-1.434 -3.203,-3.203 0,-1.769 1.434,-3.203 3.203,-3.203 1.769,0 3.203,1.434 3.203,3.203 0,1.769 -1.434,3.203 -3.203,3.203 z m -17.39,-4.281 c -1.571,0 -2.844,-1.273 -2.844,-2.844 0,-1.571 1.273,-2.844 2.844,-2.844 1.57,0 2.843,1.273 2.843,2.844 0,1.571 -1.273,2.844 -2.843,2.844 z m 2.124,9.625 c 0,1.777 -1.427,3.219 -3.187,3.219 -1.76,0 -3.187,-1.442 -3.187,-3.219 0,-1.778 1.427,-3.219 3.187,-3.219 1.76,0 3.187,1.441 3.187,3.219 z"
             class="cls-28"
             id="path244"
             inkscape:connector-curvature="0"
             style="fill:#f7941d;fill-rule:evenodd" />
        </g>
        <path
           d="m 322.831,542.612 26.261,8.55 14.905,-2.137 7.808,-9.263 -9.937,-19.237 2.839,-2.85 -1.42,3.562 4.259,6.413 9.227,-5.7 c 0,0 23.218,3.814 22.713,4.275 -0.064,0.059 -9.937,-1.425 -9.937,-1.425 0,0 -2.619,2.349 -4.259,2.138 -1.002,-0.13 -0.545,-2.499 -1.506,-2.624 -4.589,-0.596 -8.397,-1.099 -8.397,-1.099 l -7.131,6.572 5.678,9.263 -5.678,10.687 8.517,-2.85 -3.549,3.563 26.971,4.275 2.84,-2.138 -2.13,-16.387 4.259,15.675 7.098,0.712 13.485,-2.85 2.839,-2.137 0.71,3.562 -24.842,7.838 -68.848,-3.563 -15.614,-11.4 4.258,-19.95 14.905,-2.85 3.549,-4.987 c 0,0 3.037,-0.569 3.549,-1.425 0.803,-1.344 -0.71,-4.275 -0.71,-4.275 l 2.13,-4.987 24.841,-3.563 2.84,5.7 20.583,-0.713 7.473,18.13 13.11,-1.742 4.953,5.757 c 0,0 -0.967,3.788 0.016,4.93 1.06,1.233 4.076,-0.173 4.076,-0.173 l 4.441,5.161 0,11.4 -0.71,-10.688 -4.259,-4.987 c 0,0 -2.328,2.019 -4.258,-0.713 -0.957,-1.354 0,-4.275 0,-4.275 l -6.048,-5.778 -10.277,3.641 -9.937,-19.95 -18.053,1.294 3.858,14.381 -5.678,-14.25 -2.13,-6.413 -24.841,4.275 c 0,0 -1.5,3.412 -1.42,3.563 0.487,0.911 1.029,3.38 0.71,4.275 -0.548,1.532 -3.549,1.425 -3.549,1.425 l -3.549,6.412 -14.905,2.85 -2.129,17.1 z"
           class="cls-30"
           id="path246"
           inkscape:connector-curvature="0"
           style="fill:#b78116;fill-rule:evenodd" />
      </g>
      <g
         id="g248">
        <path
           d="m 478.056,575 c 21.547,7.401 50.67,18.749 56.985,40 1.533,5.16 0,14.281 0,20 0,29.271 -37.704,46 -64.483,46 -26.778,0 -48.487,-23.729 -48.487,-53 0,-29.271 30.658,-61.699 55.985,-53 z"
           class="cls-13"
           id="path250"
           inkscape:connector-curvature="0"
           style="fill:#946943;fill-rule:evenodd" />
        <path
           d="m 476.792,577.432 c 28.936,6.404 64.891,33.061 43.253,29.568 -23.858,-3.851 -31.01,-0.592 -44.988,7 -21.321,11.58 -34.199,8.068 -31.991,-21 0.266,-3.508 9.833,-20.857 33.726,-15.568 z"
           class="cls-12"
           id="path252"
           inkscape:connector-curvature="0"
           style="fill:#bf8d60;fill-rule:evenodd" />
        <path
           d="m 479.056,577 c 28.936,6.404 62.627,33.493 40.989,30 -23.858,-3.851 -22.012,-13.592 -35.99,-6 -21.321,11.58 -34.2,19.068 -31.992,-10 0.267,-3.508 3.1,-19.288 26.993,-14 z"
           class="cls-14"
           id="path254"
           inkscape:connector-curvature="0"
           style="fill:#e3b07c;fill-rule:evenodd" />
      </g>
      <g
         id="g256">
        <path
           d="m 249.119,539 c 0,0 5.168,-6.344 15.996,-6 11.492,0.365 22.293,8.676 39.989,14 16.168,4.864 36.361,0.465 55.984,5 20.579,4.756 40.489,-1.885 54.985,-5 13.241,-2.845 21.994,-2 21.994,-2 l 0,25 c 0,0 4.62,7.063 2.999,11 -1.861,4.523 -9.997,6 -9.997,6 l 10.997,9 c 0,0 -0.667,25.565 10.997,54 10.411,25.381 4.999,51 4.999,51 0,0 24.704,22.298 -10.997,26 0,0 -15.38,-0.718 -30.992,3 -31.102,7.407 -73.98,22 -73.98,22 0,0 -29.706,1.124 -53.985,-3 -28.384,-4.821 -51.986,-15 -51.986,-15 0,0 -33.91,5.575 -42.988,-7 -2.763,-3.827 3.862,-6.072 8.998,-11 6.029,-5.785 12.098,-9.517 12.996,-17 0.898,-7.483 -5.807,-6.371 -4.998,-15 0.679,-7.251 2.557,-2.714 5.998,-9 0.937,-1.712 -4.809,-20.88 -3.999,-27 2.958,-22.352 23.993,-24 23.993,-24 0,0 9.354,-5.079 12.997,-13 2.603,-5.66 -1.37,-13.748 2.999,-18 3.194,-3.109 9.136,-1.454 12.997,-2 5.211,-0.738 7.997,-3 7.997,-3 l -15.995,-8 c 0,0 1.052,-8.48 -1,-19 -1.944,-9.965 -6.998,-22 -6.998,-22 z"
           class="cls-12"
           id="path258"
           inkscape:connector-curvature="0"
           style="fill:#bf8d60;fill-rule:evenodd" />
        <path
           d="m 447.065,727 c 0,0 -15.38,-0.718 -30.992,3 -31.102,7.407 -73.98,22 -73.98,22 0,0 -29.706,1.124 -53.985,-3 -28.384,-4.821 -51.986,-15 -51.986,-15 0,0 -33.91,5.575 -42.988,-7 -2.763,-3.827 3.862,-6.072 8.998,-11 6.029,-5.785 12.098,-9.517 12.996,-17 0.898,-7.483 -5.807,-6.371 -4.998,-15 0.679,-7.251 2.557,-2.714 5.998,-9 0.937,-1.713 -4.809,-20.88 -3.999,-27 2.958,-22.352 23.993,-24 23.993,-24 0,0 9.354,-5.079 12.997,-13 2.603,-5.66 -1.37,-13.748 2.999,-18 3.194,-3.109 9.136,-1.454 12.996,-2 5.212,-0.738 7.998,-3 7.998,-3 l -15.995,-8 c 0,0 1.052,-8.48 -1,-19 -1.944,-9.965 -6.998,-22 -6.998,-22 0,0 5.168,-6.344 15.995,-6 4.11,0.13 8.137,1.287 12.417,2.95 0.226,0.342 0.426,0.691 0.58,1.05 2.49,5.825 -18.604,-6.022 -22.994,2 -3.068,5.607 1.502,14.092 3.999,22 2.427,7.685 2.736,14.858 2.999,16 0.142,0.613 11.54,5.622 11.997,7 0.923,2.783 31.092,12.5 39.704,17.113 10.057,0.775 21.57,0.269 32.38,0.347 21.866,0.157 38.766,-5.735 54.881,-9.46 21.556,-4.982 31.996,-6.014 31.991,-4 -0.004,1.904 -3.076,8.584 -18.994,19 -2.339,1.531 -2.294,12.907 -4.999,14 -3.459,1.397 -11.181,-13.398 -14.996,-12 -3.388,1.241 -2.243,20.214 -5.998,21 -8.629,1.807 1.911,-21.447 -29.992,-14 -6.115,1.427 -19.752,5.017 -30.991,3 -6.224,-1.117 -18.813,-8.092 -21.994,-9 -6.116,-1.746 -10.018,8.924 -14.996,7 -3.346,-1.293 -1.181,-12.443 -3.999,-14 -3.161,-1.747 -5.63,-3.262 -7.563,-4.589 -10.873,-2.122 -20.19,-3.539 -21.429,-1.411 -2.995,5.14 -2.348,12.99 -3.999,16 -2.032,3.705 -7.039,10.94 -12.997,14 -8.074,4.147 -17.592,4.043 -20.994,9 -9.931,14.473 -1.613,30.73 1,36 2.631,5.307 -5.818,7.781 -5.999,12 -0.211,4.934 4.152,9.519 3.999,14 -0.475,13.942 -13.597,26.983 -9.997,29 5.045,2.826 16.218,1.716 32.991,4 21.992,2.994 49.986,9 49.986,9 0,0 20.239,5.679 49.987,1 36.666,-5.767 59.612,-22.001 83.977,-24 16.581,-1.361 30.455,-0.383 33.99,-1 3.776,-0.66 -3.838,-9.444 -3.999,-18 -0.36,-19.192 -10.894,-63.01 -13.996,-86 -0.896,-6.641 -0.469,-12.414 0.214,-16.643 l 0.786,0.643 c 0,0 -0.667,25.565 10.997,54 10.411,25.381 4.999,51 4.999,51 0,0 24.704,22.298 -10.997,26 z"
           class="cls-13"
           id="path260"
           inkscape:connector-curvature="0"
           style="fill:#946943;fill-rule:evenodd" />
        <path
           d="m 263.767,533.403 c -6.008,0.884 -20.192,14.771 9.345,24.597 0,0 -4.306,21.728 12.997,27 0,0 58.27,20.445 124.966,0 0,0 -7.849,-1.546 -16.996,-2 -12.076,-0.6 -29.681,-2.063 -44.988,-12 0,0 59.464,-5.168 87.976,-21 0,0 -5.53,-4.953 -12.996,-4 -16.274,2.077 -44.502,10.581 -71.98,4 -17.134,-4.104 -34.077,-0.048 -47.987,-3 -23.882,-5.069 -34.328,-14.48 -40.337,-13.597 z M 229.124,636 c 1.524,0.164 12.818,1.572 28.992,-14 0,0 21.795,-25.778 24.994,4 0,0 0.441,11.561 13.996,-1 0,0 6.918,-9.706 23.993,5 0,0 9.529,3.234 18.995,-4 l 32.991,0 c 0,0 6.416,-5.032 8.997,10 0,0 4.447,21.642 9.998,6 l 5.998,-20 12.997,16 c 0,0 29.344,67.133 14.995,-17 0,0 5.006,-24.194 8.998,-11 0,0 8.705,31.625 11.997,43 3.291,11.374 -1.341,36.24 1.999,44 0,0 9.677,16.761 0,15 0,0 -25.259,-9.679 -44.988,-1 -19.728,8.679 -49.381,1.167 -72.98,19 -23.598,17.833 -71.98,-14 -71.98,-14 0,0 -18.668,5.287 -30.991,5 -8.402,-0.195 -11.997,-6 -11.997,-6 0,0 6.436,-1.857 8.997,-7 1.386,-2.782 -1.55,-8.19 0,-11 2.365,-4.285 8.667,-3.037 8.998,-8 0.949,-14.235 -16.386,-27.414 -16.995,-44 -0.317,-8.613 11.476,-9.056 11.996,-9 z"
           class="cls-14"
           id="path262"
           inkscape:connector-curvature="0"
           style="fill:#e3b07c;fill-rule:evenodd" />
        <path
           d="m 427.07,660 c 0,0 -14.796,-15.87 -15.995,-44 -0.195,-4.562 -0.182,-8.362 0.013,-11.516 -6.972,5.812 -16.1,11.669 -24.924,13.654 -10.772,2.423 -35.93,2.098 -36.073,-1.138 -0.018,-0.405 0.334,-0.775 0.976,-1.124 -21.784,1.113 -50.65,-3.611 -63.958,-13.876 -25.546,-19.704 0.307,-6.933 5.998,-4 5.691,2.933 24.929,6.513 55.984,6 29.381,-0.486 58.984,-11 58.984,-11 0,0 0.627,0.789 -0.807,2.509 2.66,-1.216 5.087,-2.258 7.21,-3.09 1.016,-1.028 2.224,-1.45 3.595,-1.419 0.097,0.002 0.181,0.024 0.269,0.04 2.967,-0.92 4.729,-1.035 4.729,-0.04 0,0.812 -1.151,2.619 -3.144,4.937 0.067,7.338 -1.281,22.4 8.143,42.063 8.353,17.431 -1,22 -1,22 z"
           class="cls-15"
           id="path264"
           inkscape:connector-curvature="0"
           style="fill:#5d422a;fill-rule:evenodd" />
        <path
           d="m 428.263,652.045 c -6.158,1.267 -10.835,-17.9 -12.19,-31.045 -1.218,-11.812 1,-25 1,-25 0,0 2.966,16.126 2.999,28 0.033,11.848 14.54,26.738 8.191,28.045 z M 371.085,614 c 0,-1.105 11.45,-3.611 20.995,-8 8.571,-3.942 24.993,-13.105 24.993,-12 0,1.105 -12.858,13.185 -19.995,16 -11.843,4.671 -25.993,5.105 -25.993,4 z m -21.994,-1 c -39.892,3.277 -63.982,-16 -63.982,-16 -0.41,-0.394 43.499,23.496 110.769,1.807 0.201,0.193 -6.894,10.916 -46.787,14.193 z"
           class="cls-16"
           id="path266"
           inkscape:connector-curvature="0"
           style="fill:#795638;fill-rule:evenodd" />
      </g>
      <g
         id="g268">
        <path
           d="m 464.06,632 c 0,0 44.691,-48.218 81.978,-6 0,0 32.256,5.036 37.989,35 0,0 7.251,33.161 10.997,38 3.746,4.839 25.576,15.994 -1,19 0,0 -36.215,12.402 -48.986,15 -12.771,2.598 -80.978,-101 -80.978,-101 z"
           class="cls-12"
           id="path270"
           inkscape:connector-curvature="0"
           style="fill:#bf8d60;fill-rule:evenodd" />
        <path
           d="m 464.06,632 c -0.172,0.815 41.785,-42.909 79.978,-5 0.168,-0.796 29.794,4.884 33.991,36 0,0 8.251,30.161 11.996,35 3.746,4.839 12.58,6.994 -13.996,10 0,0 -13.215,-1.936 -20.994,-22 -2.56,-6.602 8.07,-37.733 -37.99,-55 -21.217,-7.954 -52.985,1 -52.985,1 z"
           class="cls-14"
           id="path272"
           inkscape:connector-curvature="0"
           style="fill:#e3b07c;fill-rule:evenodd" />
        <path
           d="m 594.024,718 c 0,0 -36.215,12.402 -48.986,15 -12.771,2.598 -80.978,-101 -80.978,-101 0,0 4.898,-5.282 12.8,-10.818 7.798,23.835 69.935,-13.495 75.176,68.818 2.307,36.237 21.708,37.039 35.99,21 3.267,-3.669 15.13,6.277 14.996,-1 -0.024,-1.3 -0.064,-2.664 -0.118,-4.076 5.273,4.83 8.227,10.141 -8.88,12.076 z"
           class="cls-13"
           id="path274"
           inkscape:connector-curvature="0"
           style="fill:#946943;fill-rule:evenodd" />
        <path
           d="m 552.464,665.024 c -3.034,1.015 -6.016,1.762 -8.842,2.252 9.415,20.815 7.376,42.111 -5.715,49.931 -14.695,8.778 -37.738,-2.749 -51.468,-25.746 -13.73,-22.997 -12.948,-48.756 1.747,-57.534 8.461,-5.054 19.686,-3.367 30.31,3.354 0.234,-2.685 0.627,-5.476 1.209,-8.333 3.467,-17.048 11.981,-29.707 19.014,-28.275 7.034,1.431 9.924,16.412 6.456,33.459 -0.866,4.257 -2.052,8.226 -3.446,11.78 1.248,-0.51 2.527,-1 3.859,-1.446 13.752,-4.602 26.439,-3.73 28.337,1.946 1.899,5.677 -7.709,14.01 -21.461,18.612 z m -16.535,-50.632 c -3.247,-0.661 -8.243,10.429 -11.161,24.771 -0.162,0.797 -0.304,1.578 -0.446,2.36 3.059,2.539 6.007,5.498 8.761,8.83 0.029,-0.019 0.057,-0.038 0.087,-0.057 0.643,-2.569 1.27,-5.345 1.871,-8.296 2.917,-14.342 4.134,-26.948 0.888,-27.608 z m 26.93,35.724 c -2.03,-1.463 -13.082,-3.243 -22.103,3.699 -1.129,0.869 -2.247,1.621 -3.354,2.324 0.773,1.147 1.528,2.321 2.252,3.534 0.242,0.404 0.469,0.811 0.701,1.218 0.88,-0.29 1.776,-0.587 2.683,-0.891 11.569,-3.872 22.062,-8.269 19.821,-9.884 z"
           class="cls-15"
           id="path276"
           inkscape:connector-curvature="0"
           style="fill:#5d422a;fill-rule:evenodd" />
        <path
           d="m 563.033,658 c 0,0 6.139,-11 -2,-11 -5.797,0 -18.994,1.5 -18.994,1.5 0,0 7.217,-4.04 12.996,-4.5 32.54,-2.589 7.998,14 7.998,14 z M 538.04,644 c 0,0 1.999,-18.611 1.999,-28 0,-9.389 -9.838,-4.661 -8.997,-7 1.535,-4.271 13.629,-12.31 12.996,11 -0.255,9.385 -5.998,24 -5.998,24 z m 0.156,53.454 c -8.767,5.367 -24.225,-3.917 -34.526,-20.737 -10.3,-16.819 -11.544,-34.804 -2.776,-40.171 8.767,-5.367 24.224,3.917 34.525,20.737 10.301,16.819 11.544,34.804 2.777,40.171 z"
           class="cls-16"
           id="path278"
           inkscape:connector-curvature="0"
           style="fill:#795638;fill-rule:evenodd" />
        <path
           d="m 440.067,753 c 0,0 -23.315,-6.896 -31.992,-7 -8.676,-0.104 -16.995,-14 -16.995,-14 l 1,-20 c 0,0 5.032,-11.04 10.997,-23 5.965,-11.96 6.998,-19 6.998,-19 0,0 16.237,-12.516 20.994,-16 4.757,-3.484 13.996,-16 13.996,-16 0,0 11.661,-5.35 12.997,-7 1.335,-1.65 6.998,-6 6.998,-6 0,0 22.341,1.986 34.99,10 12.649,8.014 22.994,9 22.994,9 0,0 4.893,11.209 9.997,24 5.104,12.791 19.188,25.881 22.994,33 3.806,7.119 -0.679,15.017 -4.999,25 -4.32,9.983 -5.066,17.406 -12.996,22 -7.931,4.594 -23.654,12.832 -44.988,13 -21.334,0.168 -52.985,-8 -52.985,-8 z"
           class="cls-12"
           id="path280"
           inkscape:connector-curvature="0"
           style="fill:#bf8d60;fill-rule:evenodd" />
        <path
           d="m 517.045,735 c -1.893,1.782 -5.583,5.912 -10.997,8 -17.573,6.778 -51.795,10.375 -88.975,-4 -37.198,-14.382 -3.826,-32.449 -3.999,-38 -0.057,-1.83 11.59,-15.761 12.996,-17 1.407,-1.239 41.821,-24.991 42.989,-26 1.167,-1.009 27.992,11 27.992,11 0,0 5.642,-3.053 9.997,6 4.122,8.568 6.968,29.247 6.998,30 0.062,1.549 11.038,22.432 2.999,30 z M 414.074,668 c 0,0 -23.244,49.25 -16.996,61 0,0 9.093,10.288 19.995,15 10.912,4.717 99.079,17.891 108.673,1.057 0,0 11.885,-0.077 18.292,-12.057 5.163,-9.654 12.996,-30 12.996,-30 0,0 -6.043,38.818 -13.996,42 -7.952,3.182 -7.791,2.347 -15.995,7 -7.255,4.114 -15.247,8.522 -23.994,9 -12.194,0.667 -28.831,-3.677 -40.988,-4 -16.543,-0.439 -33.415,-6.366 -36.99,-7 -13.961,-2.475 -21.924,-5.106 -28.992,-12 -7.069,-6.894 -5.292,-9.106 -5.999,-16 -0.707,-6.894 10.182,-33.395 17.995,-47 2.986,-5.2 5.999,-7 5.999,-7 z"
           class="cls-13"
           id="path282"
           inkscape:connector-curvature="0"
           style="fill:#946943;fill-rule:evenodd" />
        <path
           d="m 419.072,707 c 21.239,-9.712 79.978,-25 79.978,-25 0,0 9.862,14.047 15.996,28 5.759,13.101 8.023,26.061 1.999,29 -12.44,6.07 -7.265,7.389 -21.993,9 -11.188,1.224 -28.415,-3.281 -39.99,-3 -18.556,0.45 -29.909,-2.648 -35.99,-6 -14.867,-8.194 -21.239,-22.288 0,-32 z"
           class="cls-15"
           id="path284"
           inkscape:connector-curvature="0"
           style="fill:#5d422a;fill-rule:evenodd" />
        <path
           d="m 416.073,683 c 0,0 5.906,-11.652 14.996,-13 9.09,-1.348 22.792,-10.307 28.992,-16 6.2,-5.693 11.279,-17.428 23.994,-8 12.714,9.428 18.932,23.55 25.992,27 7.061,3.45 10.458,21.522 12.997,33 2.538,11.478 6.309,-15.767 -1,-33 0,0 8.522,-0.174 13.996,23 5.474,23.173 -1.375,43.188 2.999,41 4.375,-2.188 13.315,-19.421 13.997,-31 0.681,-11.579 -24.326,-35.233 -32.991,-61 0,0 -9.188,-3.063 -17.995,-6 -14.973,-4.992 -32.991,-11 -32.991,-11 l -26.993,21 c 0,0 -7.86,11.626 -15.996,14 -8.135,2.373 -9.997,20 -9.997,20 z"
           class="cls-14"
           id="path286"
           inkscape:connector-curvature="0"
           style="fill:#e3b07c;fill-rule:evenodd" />
      </g>
      <g
         id="g288">
        <path
           d="m 414.074,735 -2.999,-15 9.997,-10 0.999,-14 9.998,-9 4.998,-12 16.996,-7 6.998,5 5.998,-6 16.996,0 2.999,11 8.997,-1 4.999,10 -2,6 9.998,-1 c 0,0 2.444,6.724 2.999,12 0.427,4.064 -1,7 -1,7 0,0 5.609,0.222 7.998,5 2.601,5.204 1.999,17 1.999,17 l -11.996,11 -14.996,2 -4.999,-6 -6.998,5 -12.996,-1 -8.998,-5 -4.999,5 -12.996,0 -5.998,-6 c 0,0 -2.992,0.641 -6.209,1.331 -3.741,0.802 -7.788,1.669 -7.788,1.669 l -7.997,-6 z m 45.987,15 -23.993,-2 -8.998,14 4.999,18 21.994,5 13.996,-8 3.999,-6 7.998,2 13.996,-7 0,-15 -18.995,-4 -6.998,0 -7.998,3 z"
           class="cls-30"
           id="path290"
           inkscape:connector-curvature="0"
           style="fill:#b78116;fill-rule:evenodd" />
        <path
           d="m 484.055,681 3.998,-2 7.998,-1 2.999,8 0,5 -6.998,-2 -5.998,-5 -1.999,-3 z m -20.995,-9 3.999,-4 15.996,0 1.999,9 -7.998,-1 -7.997,-2 -5.999,-2 z m 22.994,22 21.994,-1 2.999,7 0,6 -1.999,3 -9.998,3 -9.997,-4 -2.999,-9 0,-5 z m 6.998,24 c 0.484,-0.689 18.995,-7 18.995,-7 0,0 6.191,4.19 5.998,5 -0.193,0.81 2,11 2,11 l -5.999,1 0,9 -8.997,4 -11.997,-8 c 0,0 -0.483,-14.311 0,-15 z m -40.989,-30 12.997,-9 c 0,0 10.743,0.536 10.997,1 0.254,0.464 6.998,6 6.998,6 l 1,8 -2,3 2.999,9 -21.994,3 -10.997,-4 0,-17 z m -17.995,-3 c 0.201,-0.231 3.999,-9 3.999,-9 l 15.996,-8 6.998,9 -6.998,6 -12.997,3 c 0,0 -7.199,-0.769 -6.998,-1 z m -10.997,23 0,-11 6.998,-7 10.997,0 6.998,7 -5.998,5 -12.996,4 -5.999,2 z m 0,3 -9.997,9 1.999,12 4.999,4 4.999,-3 0.999,-8 3.999,-6 0,-7 -6.998,-1 z m 26.993,-5 -12.997,2 -4.998,6 0.999,6 -2.999,5 0,4 5.999,7 11.996,6 7.998,-3 2.999,-7 -0.999,-13 3.999,-5 -11.997,-8 z m 18.995,3 -7.998,9 -1,6 0,7 2.999,7 16.996,4 7.997,-8 -1.999,-17 7.998,-3 -6.998,-4 -10.997,-2 -6.998,1 z m -32.991,41 c -0.108,1.115 -6.998,12 -6.998,12 l 5.998,13 17.995,3 11.997,-6 1.999,-7 -7.998,-13 c 0,0 -22.885,-3.115 -22.993,-2 z m 26.992,2 4.999,-3 23.993,3 0,11 -11.996,4 -7.998,-1 -6.998,-9 -2,-5 z"
           class="cls-23"
           id="path292"
           inkscape:connector-curvature="0"
           style="fill:#f9b014;fill-rule:evenodd" />
        <path
           d="m 462.061,718 7.997,-10 11.997,0 12.997,6 -9.998,3 -5.998,15 -11.997,2 -5.998,-6 1,-10 z m -28.993,-5 4.999,-5 11.997,-3 10.997,9 -3.999,5 -15.996,7 -6.998,-7 -1,-6 z m 19.995,-25 12.996,9 13.997,-1 1.999,-3 0,-7 c 0,0 -6.414,-4.637 -6.998,-5 -0.584,-0.363 -11.997,-1 -11.997,-1 l -9.997,8 z m 58.984,23 -18.995,7 20.994,11 4.999,-3 0,-10 -6.998,-5 z m -24.993,-17 20.994,-1 2.999,6 -3.999,5 -19.994,-10 z m -73.98,26 9.997,-9 6.998,1 0,7 -3.999,5 -12.996,-4 z m 9.997,-22 1,9 10.997,-8 -7.998,-5 -3.999,4 z m 6.998,62 7.998,-9 20.994,1 6.998,13 -9.997,6 -16.995,-2 -8.998,-9 z m 33.991,-9 c 0.465,-0.753 5.998,-4 5.998,-4 l 21.994,5 -1.999,6 c 0,0 -9.187,0.762 -9.997,1 -0.811,0.238 -8.998,-1 -8.998,-1 0,0 -7.463,-6.247 -6.998,-7 z"
           class="cls-27"
           id="path294"
           inkscape:connector-curvature="0"
           style="fill:#fff568;fill-rule:evenodd" />
        <path
           d="m 510.547,728 c -1.38,0 -2.499,-1.119 -2.499,-2.5 0,-1.381 1.119,-2.5 2.499,-2.5 1.381,0 2.5,1.119 2.5,2.5 0,1.381 -1.119,2.5 -2.5,2.5 z m -6.998,-17 c -1.38,0 -2.499,-1.119 -2.499,-2.5 0,-1.381 1.119,-2.5 2.499,-2.5 1.381,0 2.499,1.119 2.499,2.5 0,1.381 -1.118,2.5 -2.499,2.5 z m -4.998,-10 c -1.381,0 -2.5,-1.119 -2.5,-2.5 0,-1.381 1.119,-2.5 2.5,-2.5 1.38,0 2.499,1.119 2.499,2.5 0,1.381 -1.119,2.5 -2.499,2.5 z m 0.499,28.5 c 0,1.381 -1.119,2.5 -2.499,2.5 -1.38,0 -2.499,-1.119 -2.499,-2.5 0,-1.381 1.119,-2.5 2.499,-2.5 1.38,0 2.499,1.119 2.499,2.5 z M 481.055,765 c -1.656,0 -2.999,-1.343 -2.999,-3 0,-1.657 1.343,-3 2.999,-3 1.657,0 3,1.343 3,3 0,1.657 -1.343,3 -3,3 z m 0.5,-49 c -1.38,0 -2.499,-1.119 -2.499,-2.5 0,-1.381 1.119,-2.5 2.499,-2.5 1.381,0 2.5,1.119 2.5,2.5 0,1.381 -1.119,2.5 -2.5,2.5 z m -3.999,-39 c -1.38,0 -2.499,-1.119 -2.499,-2.5 0,-1.381 1.119,-2.5 2.499,-2.5 1.381,0 2.5,1.119 2.5,2.5 0,1.381 -1.119,2.5 -2.5,2.5 z m -1.499,8.5 c 0,1.381 -1.119,2.5 -2.5,2.5 -1.38,0 -2.499,-1.119 -2.499,-2.5 0,-1.381 1.119,-2.5 2.499,-2.5 1.381,0 2.5,1.119 2.5,2.5 z m 0,13.5 c 0,2.209 -1.791,4 -3.999,4 -2.209,0 -3.999,-1.791 -3.999,-4 0,-2.209 1.79,-4 3.999,-4 2.208,0 3.999,1.791 3.999,4 z m -14.996,64 c -1.657,0 -2.999,-1.343 -2.999,-3 0,-1.657 1.342,-3 2.999,-3 1.656,0 2.999,1.343 2.999,3 0,1.657 -1.343,3 -2.999,3 z m -3.499,-68 c -1.381,0 -2.5,-1.119 -2.5,-2.5 0,-1.381 1.119,-2.5 2.5,-2.5 1.38,0 2.499,1.119 2.499,2.5 0,1.381 -1.119,2.5 -2.499,2.5 z m -4.999,-17 c -1.38,0 -2.499,-1.119 -2.499,-2.5 0,-1.381 1.119,-2.5 2.499,-2.5 1.38,0 2.499,1.119 2.499,2.5 0,1.381 -1.119,2.5 -2.499,2.5 z m -4.998,36 c -1.381,0 -2.5,-1.119 -2.5,-2.5 0,-1.381 1.119,-2.5 2.5,-2.5 1.38,0 2.499,1.119 2.499,2.5 0,1.381 -1.119,2.5 -2.499,2.5 z m -4.999,-31 c -1.38,0 -2.499,-1.119 -2.499,-2.5 0,-1.381 1.119,-2.5 2.499,-2.5 1.38,0 2.499,1.119 2.499,2.5 0,1.381 -1.119,2.5 -2.499,2.5 z m -4.999,55 c -1.38,0 -2.499,-1.119 -2.499,-2.5 0,-1.381 1.119,-2.5 2.499,-2.5 1.381,0 2.5,1.119 2.5,2.5 0,1.381 -1.119,2.5 -2.5,2.5 z m -3.999,-39 c -1.38,0 -2.499,-1.119 -2.499,-2.5 0,-1.381 1.119,-2.5 2.499,-2.5 1.381,0 2.5,1.119 2.5,2.5 0,1.381 -1.119,2.5 -2.5,2.5 z m -8.997,18 c -1.381,0 -2.5,-1.119 -2.5,-2.5 0,-1.381 1.119,-2.5 2.5,-2.5 1.38,0 2.499,1.119 2.499,2.5 0,1.381 -1.119,2.5 -2.499,2.5 z m 1.499,7.5 c 0,1.381 -1.119,2.5 -2.499,2.5 -1.38,0 -2.499,-1.119 -2.499,-2.5 0,-1.381 1.119,-2.5 2.499,-2.5 1.38,0 2.499,1.119 2.499,2.5 z m 18.495,42.5 c 1.933,0 3.499,1.567 3.499,3.5 0,1.933 -1.566,3.5 -3.499,3.5 -1.932,0 -3.499,-1.567 -3.499,-3.5 0,-1.933 1.567,-3.5 3.499,-3.5 z m -1.499,-10 c 0,-1.657 1.343,-3 2.999,-3 1.656,0 2.999,1.343 2.999,3 0,1.657 -1.343,3 -2.999,3 -1.656,0 -2.999,-1.343 -2.999,-3 z m 2.999,-31.5 c 0,-1.381 1.119,-2.5 2.499,-2.5 1.381,0 2.5,1.119 2.5,2.5 0,1.381 -1.119,2.5 -2.5,2.5 -1.38,0 -2.499,-1.119 -2.499,-2.5 z m 28.992,1.5 c 2.209,0 3.999,1.791 3.999,4 0,2.209 -1.79,4 -3.999,4 -2.209,0 -3.999,-1.791 -3.999,-4 0,-2.209 1.79,-4 3.999,-4 z m -1,20 c 1.657,0 2.999,1.343 2.999,3 0,1.657 -1.342,3 -2.999,3 -1.656,0 -2.999,-1.343 -2.999,-3 0,-1.657 1.343,-3 2.999,-3 z"
           class="cls-28"
           id="path296"
           inkscape:connector-curvature="0"
           style="fill:#f7941d;fill-rule:evenodd" />
      </g>
    </g>
  </g>
  <g
     inkscape:groupmode="layer"
     id="layer2"
     inkscape:label="markers">
    <rect
       style="opacity:1;fill:none;fill-opacity:1;stroke:#908f00;stroke-width:4.36646557;stroke-linecap:butt;stroke-linejoin:round;stroke-miterlimit:4;stroke-dasharray:none;stroke-opacity:1"
       id="Frame:C1S1Frustum"
       width="1018.2605"
       height="831.09509"
       x="2.8361926"
       y="136.74181"
       inkscape:label="#rect4365" />
    <path
       inkscape:label="#path3719"
       style="display:inline;fill:#000000;fill-opacity:1;stroke:none"
       d="m 725.56746,734.40316 2.49868,-22.65466 7.32945,8.99524 18.98993,-20.32258 6.1634,7.32945 -19.65625,18.4902 4.6642,6.82972 z"
       id="Marker:C1S1Frustum:DealerPos:-0.001"
       inkscape:connector-curvature="0" />
    <path
       inkscape:label="#path3719"
       style="display:inline;fill:#000000;fill-opacity:1;stroke:none"
       d="m 417,552.269 2.4987,-22.65466 7.3295,8.99524 18.9899,-20.32258 6.1634,7.32945 -19.6562,18.4902 4.6642,6.82972 z"
       id="Pivot:C1S1Frustum"
       inkscape:connector-curvature="0" />
    <path
       inkscape:label="#path3719"
       style="display:inline;fill:#000000;fill-opacity:1;stroke:none"
       d="m 132.70262,221.69616 2.49868,-22.65466 7.32945,8.99524 18.98993,-20.32258 6.1634,7.32945 -19.65625,18.4902 4.6642,6.82972 z"
       id="Marker:C1S1Frustum:Leaves1Pos:-0.2"
       inkscape:connector-curvature="0" />
    <path
       inkscape:label="#path3719"
       style="display:inline;fill:#000000;fill-opacity:1;stroke:none"
       d="m 878.80092,213.63752 2.4987,-22.65466 7.3295,8.99524 18.9899,-20.32258 6.1634,7.32945 -19.6563,18.4902 4.6642,6.82972 z"
       id="Marker:C1S1Frustum:Leaves2Pos:-0.2"
       inkscape:connector-curvature="0" />
    <path
       inkscape:label="#path3719"
       style="display:inline;fill:#000000;fill-opacity:1;stroke:none"
       d="m 148.5267,852.53377 2.4987,-22.65466 7.3295,8.99524 18.98989,-20.32258 6.1634,7.32945 -19.65629,18.4902 4.66419,6.82972 z"
       id="Marker:C1S1Frustum:Leaves3Pos:-0.2"
       inkscape:connector-curvature="0" />
  </g>
</svg>
