<?xml version="1.0" encoding="UTF-8" standalone="no"?>
<svg
   xmlns:dc="http://purl.org/dc/elements/1.1/"
   xmlns:cc="http://creativecommons.org/ns#"
   xmlns:rdf="http://www.w3.org/1999/02/22-rdf-syntax-ns#"
   xmlns:svg="http://www.w3.org/2000/svg"
   xmlns="http://www.w3.org/2000/svg"
   xmlns:sodipodi="http://sodipodi.sourceforge.net/DTD/sodipodi-0.dtd"
   xmlns:inkscape="http://www.inkscape.org/namespaces/inkscape"
   preserveAspectRatio="xMidYMid"
   width="1024"
   height="1024"
   viewBox="0 0 1024 1024"
   id="svg2"
   version="1.1"
   inkscape:version="0.91 r"
   sodipodi:docname="C1S2Background.svg"
   frustum="Frame:C1S2Frustum">
  <metadata
     id="metadata384">
    <rdf:RDF>
      <cc:Work
         rdf:about="">
        <dc:format>image/svg+xml</dc:format>
        <dc:type
           rdf:resource="http://purl.org/dc/dcmitype/StillImage" />
      </cc:Work>
    </rdf:RDF>
  </metadata>
  <sodipodi:namedview
     pagecolor="#ffffff"
     bordercolor="#666666"
     borderopacity="1"
     objecttolerance="10"
     gridtolerance="10"
     guidetolerance="10"
     inkscape:pageopacity="0"
     inkscape:pageshadow="2"
     inkscape:window-width="1920"
     inkscape:window-height="1053"
     id="namedview382"
     showgrid="false"
     inkscape:zoom="0.65186406"
     inkscape:cx="968.9877"
     inkscape:cy="411.66165"
     inkscape:window-x="1920"
     inkscape:window-y="0"
     inkscape:window-maximized="1"
     inkscape:current-layer="objects" />
  <defs
     id="defs4">
    <style
       id="style6">
      .cls-1 {
        fill: #6dd0f7;
      }

      .cls-2 {
        fill: #93dcf9;
      }

      .cls-10, .cls-11, .cls-12, .cls-13, .cls-14, .cls-15, .cls-16, .cls-17, .cls-18, .cls-19, .cls-2, .cls-20, .cls-21, .cls-22, .cls-23, .cls-24, .cls-25, .cls-26, .cls-27, .cls-28, .cls-29, .cls-3, .cls-30, .cls-31, .cls-32, .cls-33, .cls-34, .cls-35, .cls-36, .cls-37, .cls-38, .cls-39, .cls-4, .cls-40, .cls-41, .cls-42, .cls-43, .cls-44, .cls-45, .cls-46, .cls-47, .cls-48, .cls-49, .cls-5, .cls-6, .cls-7, .cls-9 {
        fill-rule: evenodd;
      }

      .cls-3 {
        fill: #fff;
      }

      .cls-4 {
        fill: #dcf4fd;
      }

      .cls-5 {
        fill: #fff568;
      }

      .cls-6 {
        fill: #f9b014;
      }

      .cls-7, .cls-8 {
        fill: #f7941d;
      }

      .cls-9 {
        fill: #b78116;
      }

      .cls-10 {
        fill: #bf8d60;
      }

      .cls-11 {
        fill: #946943;
      }

      .cls-12 {
        fill: #e3b07c;
      }

      .cls-13 {
        fill: #5d422a;
      }

      .cls-14 {
        fill: #795638;
      }

      .cls-15 {
        fill: #754c24;
      }

      .cls-16 {
        fill: #d29151;
      }

      .cls-17 {
        fill: #4e2f11;
      }

      .cls-18 {
        fill: #603913;
      }

      .cls-19 {
        fill: #005826;
      }

      .cls-20 {
        fill: #119a4c;
      }

      .cls-21 {
        fill: #a57612;
      }

      .cls-22 {
        fill: #fee09f;
      }

      .cls-23 {
        fill: #986431;
      }

      .cls-24 {
        fill: #000;
      }

      .cls-25 {
        fill: #5b2a0c;
      }

      .cls-26 {
        fill: #bc7547;
      }

      .cls-27 {
        fill: #a95727;
      }

      .cls-28 {
        fill: #794422;
      }

      .cls-29 {
        fill: #f18e3b;
      }

      .cls-30 {
        fill: #ffc92a;
      }

      .cls-31 {
        fill: #d05f26;
      }

      .cls-32 {
        fill: #f9ad81;
      }

      .cls-33 {
        fill: #c4733b;
      }

      .cls-34 {
        fill: #ced7d4;
      }

      .cls-35 {
        fill: #fefeff;
      }

      .cls-36 {
        fill: #343233;
      }

      .cls-37 {
        fill: #fba66f;
      }

      .cls-38 {
        fill: #fcbe95;
      }

      .cls-39 {
        fill: #b46a1e;
      }

      .cls-40 {
        fill: #754311;
      }

      .cls-41 {
        fill: #cc7924;
      }

      .cls-42 {
        fill: #dfc498;
      }

      .cls-43 {
        fill: #fcb831;
      }

      .cls-44 {
        fill: #ffcb3b;
      }

      .cls-45 {
        fill: #fb962e;
      }

      .cls-46 {
        fill: #be6536;
      }

      .cls-47 {
        fill: #f39d26;
      }

      .cls-48 {
        fill: #00682c;
      }

      .cls-49 {
        fill: #16b159;
      }
    </style>
  </defs>
  <g
     inkscape:groupmode="layer"
     id="objects"
     inkscape:label="objects">
    <g
       id="g8">
      <rect
         x="-1048"
         y="-578"
         width="2218"
         height="2218"
         class="cls-1"
         id="rect10"
         style="fill:#6dd0f7" />
      <path
         d="m -1048,-318.078 c 0,0 127.602,-31.168 199.273,73.644 79.469,116.216 -8.664,210.104 -8.664,210.104 0,0 32.516,19.585 62.815,41.154 33.443,23.807 64.98,60.649 64.98,60.649 0,0 35.268,-33.948 75.811,-47.653 36.091,-12.2 73.644,-10.83 73.644,-10.83 0,0 3.482,-62.886 49.819,-106.134 50.952,-47.557 116.965,-28.159 116.965,-28.159 0,0 -53.462,-121.307 32.49,-188.443 151.824,-118.589 328.79,-34.732 379.053,119.131 0,0 78.988,-28.495 142.957,0 54.38,24.224 90.972,97.471 90.972,97.471 0,0 46.203,-24.55 103.969,-12.997 55.919,11.184 127.795,67.147 127.795,67.147 0,0 55.219,-55.632 140.791,-38.988 77.486,15.07 86.641,71.478 86.641,71.478 0,0 76.175,-19.389 151.621,19.494 64.48,33.232 129.961,125.629 129.961,125.629 0,0 -5.788,-24.755 5.898,-50.378 7.45,-16.334 24.796,-35.458 24.426,-36.262 0,0 -185.18,-131.882 -82.309,-340.065 C 980.337,-412.355 1170,-406.885 1170,-406.885 l 0,2046.885 -2218,0 0,-1958.078 z"
         class="cls-2"
         id="path12"
         inkscape:connector-curvature="0"
         style="fill:#93dcf9;fill-rule:evenodd" />
      <path
         d="m -1048,249.418 c 0,0 87.658,-51.762 186.277,6.498 74.319,43.905 106.755,158.995 106.755,158.995 -3.133,-2.614 17.923,-23.624 47.032,-31.2 29.048,-7.56 62.815,0 62.815,0 0,0 -72.747,-130.629 12.996,-212.27 43.542,-41.459 123.463,-12.996 123.463,-12.996 0,0 -2.062,-60.134 25.992,-93.138 27.165,-31.959 84.475,-36.823 84.475,-36.823 0,0 -23.004,-146.936 140.791,-186.277 109.199,-26.228 162.451,86.641 162.451,86.641 0,0 26.162,-10.246 49.818,-4.332 23.994,5.998 43.321,32.49 43.321,32.49 0,0 53.638,-142.123 171.115,-97.471 209.804,79.744 108.301,290.246 108.301,290.246 0,0 28.436,-1.454 51.984,12.996 24.098,14.788 43.32,45.487 43.32,45.487 0,0 58.439,-216.825 262.088,-197.108 C 903.166,37.12 838.6,346.889 838.6,346.889 c 0,0 71.901,29.222 95.304,82.308 20.852,47.299 -6.498,119.131 -6.498,119.131 0,0 24.821,11.317 41.155,32.49 12.34,15.997 17.328,43.321 17.328,43.321 0,0 34.197,-31.862 77.976,-38.989 49.059,-7.986 106.135,8.664 106.135,8.664 l 0,1046.186 -2218,0 0,-1390.582 z"
         class="cls-3"
         id="path14"
         inkscape:connector-curvature="0"
         style="fill:#ffffff;fill-rule:evenodd" />
      <path
         d="m -1048,342.557 c 0,0 82.165,-58.481 181.945,15.162 67.971,50.165 38.989,142.957 38.989,142.957 0,0 23.909,1.051 43.32,12.996 22.585,13.898 41.154,38.988 41.154,38.988 0,0 4.194,-37.039 36.822,-54.15 70.247,-36.84 103.969,-4.332 103.969,-4.332 0,0 7.699,-17.908 19.494,-30.324 8.048,-8.472 21.661,-12.997 21.661,-12.997 0,0 -73.42,-99.741 19.494,-168.949 40.395,-30.089 106.134,6.498 106.134,6.498 0,0 3.668,-16.497 12.997,-28.158 7.875,-9.845 21.66,-15.162 21.66,-15.162 0,0 -45.542,-42.349 -41.155,-88.807 11.569,-122.5 121.297,-82.308 121.297,-82.308 0,0 -47.144,-116.338 71.479,-145.123 116.009,-28.151 162.451,110.466 162.451,110.466 0,0 33.503,-5.267 58.482,10.831 23.724,15.288 38.989,51.984 38.989,51.984 0.058,0.083 -13.415,-141.164 103.205,-137.883 49.533,1.393 77.137,39.503 100.4,79.4 22.293,38.234 41.378,77.557 36.822,112.633 -6.549,50.419 -62.814,62.815 -62.814,62.815 0,0 75.162,1.943 112.633,25.992 35.007,22.467 32.49,67.146 32.49,67.146 0,0 20.863,-11.989 41.154,-10.83 17.39,0.994 34.657,15.162 34.657,15.162 0,0 20.117,-207.268 194.941,-199.273 86.549,3.958 106.135,125.629 106.135,125.629 0,0 43.256,17.322 54.15,51.984 12.781,40.667 -6.498,99.637 -6.498,99.637 0,0 50.021,17.783 71.479,75.811 19.053,51.526 -10.831,82.308 -10.831,82.308 0,0 46.94,22.198 62.815,58.483 14.375,32.857 -2.166,80.142 -2.166,80.142 0,0 20.315,11.773 32.49,30.324 10.434,15.899 12.996,38.989 12.996,38.989 0,0 21.113,-5.958 38.989,-2.166 17.863,3.789 32.49,17.328 32.49,17.328 0,0 28.953,-52.901 71.478,-73.645 C 1114.332,679.611 1170,689.119 1170,689.119 l 0,950.881 -2218,0 0,-1297.443 z"
         class="cls-4"
         id="path16"
         inkscape:connector-curvature="0"
         style="fill:#dcf4fd;fill-rule:evenodd" />
    </g>
    <g
       id="g18">
      <g
         id="g20">
        <g
           id="g22">
          <path
             d="m 262.642,747.428 c -0.826,0.235 -26.233,-22.148 -26.233,-22.148 l -7.334,-26.018 5.805,-16.693 18.359,-15.776 17.139,6.525 c -1.287,1.802 -1.6,4.224 -0.566,6.371 1.505,3.128 5.247,4.452 8.356,2.958 2.038,-0.98 3.277,-2.931 3.479,-5.038 l 13.96,5.315 11.549,23.992 c 0,0 -43.689,40.277 -44.514,40.512 z"
             class="cls-5"
             id="path24"
             inkscape:connector-curvature="0"
             style="fill:#fff568;fill-rule:evenodd" />
          <path
             d="m 229.075,699.262 5.805,-16.693 18.359,-15.776 -16.367,23.507 14.993,27.551 25.105,1.836 16.954,-15.1 1.683,-21.663 11.549,23.992 c 0,0 -43.689,40.277 -44.514,40.512 -0.826,0.235 -26.233,-22.148 -26.233,-22.148 l -7.334,-26.018 z"
             class="cls-6"
             id="path26"
             inkscape:connector-curvature="0"
             style="fill:#f9b014;fill-rule:evenodd" />
          <path
             d="m 275.043,704.957 c -2.323,1.117 -5.12,0.124 -6.248,-2.218 -1.127,-2.342 -0.157,-5.145 2.166,-6.262 2.323,-1.117 5.12,-0.124 6.248,2.218 1.127,2.342 0.157,5.146 -2.166,6.262 z m -12.979,-21.582 c -1.947,0.936 -4.287,0.115 -5.225,-1.833 -0.938,-1.949 -0.119,-4.288 1.828,-5.224 1.948,-0.936 4.287,-0.115 5.225,1.834 0.938,1.948 0.119,4.287 -1.828,5.223 z m -13.585,25.661 c -2.716,1.306 -5.979,0.161 -7.287,-2.557 -1.308,-2.718 -0.167,-5.979 2.549,-7.285 2.716,-1.305 5.979,-0.16 7.287,2.557 1.308,2.718 0.167,5.98 -2.549,7.285 z"
             class="cls-7"
             id="path28"
             inkscape:connector-curvature="0"
             style="fill:#f7941d;fill-rule:evenodd" />
          <circle
             cx="257.34399"
             cy="725.625"
             r="4.6880002"
             class="cls-8"
             id="circle30"
             style="fill:#f7941d" />
        </g>
        <g
           id="g32">
          <path
             d="m 153.943,679.763 43.65,-27.931 40.005,36.382 -43.789,38.425 c 0,0 -40.151,-48.621 -39.866,-46.876 z"
             class="cls-6"
             id="path34"
             inkscape:connector-curvature="0"
             style="fill:#f9b014;fill-rule:evenodd" />
          <path
             d="m 167.268,675.096 28.92,-22.589 28.27,26.382 -38.523,9.827 -18.667,-13.62 z"
             class="cls-5"
             id="path36"
             inkscape:connector-curvature="0"
             style="fill:#fff568;fill-rule:evenodd" />
          <path
             d="m 186.119,674.755 c -3.878,1.864 -5.501,6.534 -3.625,10.432 1.876,3.897 6.541,5.545 10.419,3.681 3.877,-1.864 5.5,-6.534 3.624,-10.431 -1.876,-3.897 -6.54,-5.546 -10.418,-3.682 z"
             class="cls-7"
             id="path38"
             inkscape:connector-curvature="0"
             style="fill:#f7941d;fill-rule:evenodd" />
        </g>
        <g
           id="g40">
          <path
             d="m 174.185,732.596 -72.646,3.637 -0.071,-16.619 c 1.025,0.144 2.1,0.002 3.101,-0.478 2.716,-1.306 3.851,-4.581 2.534,-7.316 -1.062,-2.206 -3.393,-3.36 -5.681,-3.049 l -0.053,-12.427 45.78,-30.694 35.158,33.499 -8.122,33.447 z"
             class="cls-5"
             id="path42"
             inkscape:connector-curvature="0"
             style="fill:#fff568;fill-rule:evenodd" />
          <path
             d="m 147.149,665.65 35.158,33.499 -8.122,33.447 -30.726,0.866 -42.6,1.359 c 0,0 42.848,-5.913 42.911,-7.073 0.692,-12.713 2.353,-43.233 3.056,-56.156 0.054,-0.994 -45.457,24.752 -45.457,24.752 l 45.78,-30.694 z"
             class="cls-6"
             id="path44"
             inkscape:connector-curvature="0"
             style="fill:#f9b014;fill-rule:evenodd" />
          <path
             d="m 146.676,702.403 c -3.485,1.675 -7.684,0.178 -9.379,-3.343 -1.695,-3.521 -0.244,-7.733 3.241,-9.408 3.485,-1.675 7.684,-0.179 9.379,3.342 1.695,3.522 0.244,7.734 -3.241,9.409 z m -21.956,22.672 c -2.716,1.306 -5.979,0.161 -7.287,-2.557 -1.308,-2.718 -0.167,-5.979 2.549,-7.285 2.716,-1.305 5.979,-0.16 7.287,2.557 1.308,2.718 0.167,5.98 -2.549,7.285 z"
             class="cls-7"
             id="path46"
             inkscape:connector-curvature="0"
             style="fill:#f7941d;fill-rule:evenodd" />
        </g>
        <g
           id="g48">
          <path
             d="m 236.841,718.99 c 1.313,2.728 4.58,3.881 7.296,2.575 0.006,-0.003 0.011,-0.007 0.018,-0.01 l 9.562,14.522 -5.759,13.195 -58.24,22.78 -34.432,-35.586 18.59,-33.265 16.483,-5.519 c 0.093,0.307 0.188,0.615 0.332,0.913 1.5,3.118 5.233,4.436 8.337,2.944 2.926,-1.406 4.217,-4.802 3.102,-7.799 l 19.426,-6.505 16.633,25.26 c -1.814,1.575 -2.445,4.216 -1.348,6.495 z"
             class="cls-5"
             id="path50"
             inkscape:connector-curvature="0"
             style="fill:#fff568;fill-rule:evenodd" />
          <path
             d="m 253.717,736.077 -5.759,13.195 -58.24,22.78 -34.432,-35.586 18.59,-33.265 22.466,43.075 13.232,2.329 44.143,-12.528 z"
             class="cls-6"
             id="path52"
             inkscape:connector-curvature="0"
             style="fill:#f9b014;fill-rule:evenodd" />
          <path
             d="m 236.79,747.658 c -3.109,1.494 -6.843,0.184 -8.341,-2.927 -1.497,-3.111 -0.191,-6.844 2.918,-8.339 3.109,-1.494 6.844,-0.184 8.341,2.927 1.498,3.111 0.191,6.845 -2.918,8.339 z m -27.531,-30.213 c -2.716,1.306 -5.979,0.161 -7.287,-2.557 -1.308,-2.718 -0.167,-5.979 2.549,-7.285 2.716,-1.305 5.979,-0.16 7.287,2.557 1.308,2.718 0.167,5.98 -2.549,7.285 z m -14.951,24.565 c -3.109,1.494 -6.844,0.184 -8.341,-2.927 -1.498,-3.111 -0.191,-6.844 2.918,-8.339 3.109,-1.494 6.843,-0.184 8.341,2.927 1.497,3.111 0.191,6.844 -2.918,8.339 z"
             class="cls-7"
             id="path54"
             inkscape:connector-curvature="0"
             style="fill:#f7941d;fill-rule:evenodd" />
        </g>
        <g
           id="g56">
          <path
             d="m 85.388,796.131 -12.722,-40.807 31.004,-21.853 37.303,-23.144 41.503,28.711 3.073,31.542 -66.084,35.239 -34.077,-9.688 z"
             class="cls-5"
             id="path58"
             inkscape:connector-curvature="0"
             style="fill:#fff568;fill-rule:evenodd" />
          <path
             d="m 85.388,796.131 -12.722,-40.807 17.756,29.698 59.46,-9.463 32.594,-36.521 3.073,31.542 -66.084,35.239 -34.077,-9.688 z"
             class="cls-6"
             id="path60"
             inkscape:connector-curvature="0"
             style="fill:#f9b014;fill-rule:evenodd" />
          <path
             d="m 147.406,750.681 c -3.502,1.683 -7.708,0.207 -9.395,-3.297 -1.687,-3.504 -0.215,-7.709 3.287,-9.392 3.501,-1.684 7.708,-0.207 9.395,3.297 1.686,3.504 0.215,7.709 -3.287,9.392 z M 119.04,785.2 c -3.485,1.675 -7.684,0.178 -9.379,-3.343 -1.695,-3.521 -0.244,-7.734 3.241,-9.409 3.485,-1.675 7.684,-0.178 9.379,3.343 1.695,3.521 0.244,7.734 -3.241,9.409 z m -10.143,-26.452 c -3.109,1.494 -6.843,0.184 -8.341,-2.927 -1.497,-3.111 -0.191,-6.844 2.918,-8.339 3.109,-1.494 6.844,-0.184 8.341,2.927 1.498,3.111 0.191,6.845 -2.918,8.339 z"
             class="cls-7"
             id="path62"
             inkscape:connector-curvature="0"
             style="fill:#f7941d;fill-rule:evenodd" />
        </g>
        <path
           d="m 86.84,791.957 60.139,-8.052 27.468,-18.416 6.624,-25.776 -38.013,-28.65 2.902,-8.347 0.587,8.408 14.545,8.649 12.831,-20.07 c 0,0 49.598,-14.538 49.038,-13.143 -0.072,0.177 -21.03,6.632 -21.03,6.632 0,0 -2.944,7.144 -6.392,8.286 -2.107,0.698 -3.462,-4.431 -5.484,-3.763 -9.652,3.186 -17.67,5.813 -17.67,5.813 l -7.85,19.804 20.072,12.944 -1.05,26.572 14.143,-13.749 -3.628,10.433 57.468,-17.195 3.582,-6.936 -19.84,-30.433 23.376,26.996 14.73,-5.342 23.979,-18.477 3.582,-6.935 4.802,6.381 -41.704,39.161 -139.688,58.453 -41.781,-7.724 -10.592,-43.568 26.789,-19.828 2.27,-13.256 c 0,0 5.47,-4.017 5.666,-6.199 0.309,-3.426 -5.481,-7.792 -5.481,-7.792 l -0.54,-11.906 45.78,-30.693 11.055,8.589 40.068,-20.996 32.081,28.8 24.291,-15.926 15.293,6.691 c 0,0 1.699,8.424 4.733,9.752 3.275,1.432 7.905,-4.224 7.905,-4.224 l 13.711,5.999 10.87,22.58 -11.596,-20.494 -13.186,-5.827 c 0,0 -2.683,6.214 -9.11,2.641 -3.185,-1.771 -4.076,-8.468 -4.076,-8.468 l -17.482,-5.691 -16.872,16.99 -38.693,-30.061 -34.505,19.741 21.35,24.814 -24.828,-22.823 -10.33,-10.676 -45.1,32.105 c 0,0 0.284,8.186 0.586,8.407 1.833,1.342 5.261,5.717 5.481,7.793 0.377,3.556 -5.666,6.199 -5.666,6.199 l -0.911,16.079 -26.789,19.827 12.09,35.897 z"
           class="cls-9"
           id="path64"
           inkscape:connector-curvature="0"
           style="fill:#b78116;fill-rule:evenodd" />
      </g>
      <g
         id="g66">
        <g
           id="g68">
          <path
             d="m 213.075,844.425 c -0.699,0.497 -59.461,9.463 -59.461,9.463 l -11.549,-23.992 4.567,-14.242 c 1.77,1.155 4.066,1.403 6.102,0.425 3.105,-1.493 4.406,-5.23 2.905,-8.348 -1.032,-2.144 -3.124,-3.408 -5.338,-3.52 l 5.599,-17.459 23.793,-4.485 16.676,5.887 15.764,21.966 c 0,0 1.641,33.807 0.942,34.305 z"
             class="cls-5"
             id="path70"
             inkscape:connector-curvature="0"
             style="fill:#fff568;fill-rule:evenodd" />
          <path
             d="m 196.369,788.154 -16.676,-5.887 -23.793,4.485 28.595,1.896 12.182,28.901 -14.236,20.745 -22.388,3.81 -17.988,-12.208 11.549,23.992 c 0,0 58.762,-8.966 59.461,-9.463 0.699,-0.498 -0.942,-34.305 -0.942,-34.305 l -15.764,-21.966 z"
             class="cls-6"
             id="path72"
             inkscape:connector-curvature="0"
             style="fill:#f9b014;fill-rule:evenodd" />
          <path
             d="m 191.879,809.428 c -2.716,1.306 -5.983,0.153 -7.296,-2.575 -1.314,-2.728 -0.176,-5.998 2.541,-7.304 2.717,-1.306 5.983,-0.153 7.297,2.575 1.313,2.728 0.175,5.998 -2.542,7.304 z M 172.13,827.61 c -2.328,1.119 -5.128,0.131 -6.254,-2.207 -1.126,-2.339 -0.15,-5.142 2.178,-6.261 2.329,-1.119 5.129,-0.131 6.255,2.207 1.125,2.339 0.15,5.142 -2.179,6.261 z m -8.761,-23.594 c -1.941,0.933 -4.274,0.109 -5.212,-1.84 -0.938,-1.948 -0.126,-4.284 1.815,-5.217 1.94,-0.932 4.274,-0.109 5.212,1.84 0.938,1.948 0.125,4.284 -1.815,5.217 z"
             class="cls-7"
             id="path74"
             inkscape:connector-curvature="0"
             style="fill:#f7941d;fill-rule:evenodd" />
          <path
             d="m 197.291,822.468 c -2.329,1.119 -3.304,3.922 -2.178,6.26 1.125,2.339 3.926,3.327 6.254,2.208 2.329,-1.12 3.304,-3.923 2.178,-6.261 -1.125,-2.338 -3.925,-3.326 -6.254,-2.207 z"
             class="cls-7"
             id="path76"
             inkscape:connector-curvature="0"
             style="fill:#f7941d;fill-rule:evenodd" />
        </g>
        <g
           id="g78">
          <path
             d="m 228.021,717.33 -49.084,16.641 3.474,53.941 57.375,-10.2 c 0,0 -12.951,-61.694 -11.765,-60.382 z"
             class="cls-6"
             id="path80"
             inkscape:connector-curvature="0"
             style="fill:#f9b014;fill-rule:evenodd" />
          <path
             d="m 216.055,724.819 -35.713,8.476 2.98,38.538 31.729,-23.94 1.004,-23.074 z"
             class="cls-5"
             id="path82"
             inkscape:connector-curvature="0"
             style="fill:#fff568;fill-rule:evenodd" />
          <circle
             cx="207.375"
             cy="746.35999"
             r="7.8130002"
             class="cls-8"
             id="circle84"
             style="fill:#f7941d" />
        </g>
        <g
           id="g86">
          <path
             d="m 282.353,700.773 c 1.313,2.728 4.58,3.881 7.296,2.575 0.993,-0.477 1.769,-1.22 2.297,-2.099 l 12.937,10.418 -48.19,54.443 -31.219,-14.537 -4.246,-48.357 52.574,-16.58 9.709,7.82 c -1.664,1.591 -2.216,4.121 -1.158,6.317 z"
             class="cls-5"
             id="path88"
             inkscape:connector-curvature="0"
             style="fill:#fff568;fill-rule:evenodd" />
          <path
             d="m 221.228,703.216 4.246,48.357 31.219,14.537 19.857,-23.446 27.653,-32.408 c 0,0 -31.369,29.758 -32.315,29.084 -10.372,-7.396 -35.27,-25.15 -45.813,-32.667 -0.811,-0.578 47.727,-20.037 47.727,-20.037 l -52.574,16.58 z"
             class="cls-6"
             id="path90"
             inkscape:connector-curvature="0"
             style="fill:#f9b014;fill-rule:evenodd" />
          <path
             d="m 281.709,722.805 c -2.717,1.306 -5.983,0.153 -7.297,-2.575 -1.313,-2.728 -0.175,-5.998 2.542,-7.304 2.716,-1.306 5.983,-0.153 7.296,2.575 1.314,2.728 0.176,5.999 -2.541,7.304 z m -40.84,-0.355 c -1.689,-3.507 -0.226,-7.711 3.267,-9.39 3.493,-1.679 7.693,-0.197 9.382,3.311 1.688,3.507 0.225,7.711 -3.268,9.39 -3.493,1.679 -7.693,0.197 -9.381,-3.311 z"
             class="cls-7"
             id="path92"
             inkscape:connector-curvature="0"
             style="fill:#f7941d;fill-rule:evenodd" />
        </g>
        <g
           id="g94">
          <path
             d="m 206.945,806.531 c 1.313,2.729 0.176,5.998 -2.54,7.304 -0.006,0.003 -0.013,0.004 -0.02,0.007 l 5.386,16.53 13.911,3.741 54.164,-31.248 -6.33,-49.093 -37.612,-6.251 -14.604,9.422 c 0.182,0.265 0.363,0.531 0.507,0.829 1.501,3.118 0.201,6.855 -2.903,8.347 -2.926,1.406 -6.386,0.294 -8.034,-2.446 l -17.211,11.104 9.367,28.753 c 2.364,-0.434 4.822,0.723 5.919,3.001 z"
             class="cls-5"
             id="path96"
             inkscape:connector-curvature="0"
             style="fill:#fff568;fill-rule:evenodd" />
          <path
             d="m 209.771,830.372 13.911,3.741 54.164,-31.248 -6.33,-49.093 -37.612,-6.251 19.655,44.426 -6.439,11.784 -37.349,26.641 z"
             class="cls-6"
             id="path98"
             inkscape:connector-curvature="0"
             style="fill:#f9b014;fill-rule:evenodd" />
          <path
             d="m 251.517,787.714 c -3.104,1.493 -6.838,0.175 -8.339,-2.943 -1.501,-3.117 -0.2,-6.855 2.905,-8.347 3.104,-1.492 6.838,-0.175 8.339,2.943 1.501,3.118 0.2,6.855 -2.905,8.347 z m -22.134,36.707 c -3.105,1.493 -6.839,0.175 -8.34,-2.943 -1.5,-3.118 -0.2,-6.855 2.905,-8.347 3.105,-1.493 6.838,-0.175 8.339,2.943 1.501,3.118 0.2,6.855 -2.904,8.347 z m -6.444,-40.349 c -2.716,1.306 -5.983,0.153 -7.296,-2.575 -1.314,-2.728 -0.176,-5.998 2.541,-7.304 2.717,-1.306 5.983,-0.153 7.297,2.575 1.313,2.728 0.175,5.998 -2.542,7.304 z"
             class="cls-7"
             id="path100"
             inkscape:connector-curvature="0"
             style="fill:#f7941d;fill-rule:evenodd" />
        </g>
        <g
           id="g102">
          <path
             d="m 361.795,736.447 -23.963,-35.404 -36.439,10.563 -41.38,14.676 -3.459,50.322 22.744,22.088 68.801,-29.594 13.696,-32.651 z"
             class="cls-5"
             id="path104"
             inkscape:connector-curvature="0"
             style="fill:#fff568;fill-rule:evenodd" />
          <path
             d="m 361.795,736.447 -23.963,-35.404 12.136,32.4 -44.514,40.512 -48.9,2.649 22.744,22.088 68.801,-29.594 13.696,-32.651 z"
             class="cls-6"
             id="path106"
             inkscape:connector-curvature="0"
             style="fill:#f9b014;fill-rule:evenodd" />
          <path
             d="m 332.237,755.868 c -3.493,1.679 -7.693,0.196 -9.382,-3.311 -1.688,-3.508 -0.225,-7.712 3.268,-9.391 3.493,-1.679 7.693,-0.197 9.381,3.311 1.689,3.507 0.226,7.712 -3.267,9.391 z M 317.9,731.478 c -3.104,1.492 -6.838,0.174 -8.339,-2.944 -1.501,-3.117 -0.2,-6.854 2.904,-8.347 3.105,-1.492 6.839,-0.174 8.34,2.943 1.5,3.118 0.2,6.855 -2.905,8.348 z m -30.357,25.018 c -3.493,1.679 -7.693,0.196 -9.382,-3.311 -1.688,-3.508 -0.225,-7.712 3.268,-9.391 3.493,-1.679 7.693,-0.196 9.381,3.311 1.689,3.508 0.226,7.712 -3.267,9.391 z"
             class="cls-7"
             id="path108"
             inkscape:connector-curvature="0"
             style="fill:#f7941d;fill-rule:evenodd" />
        </g>
        <path
           d="m 357.626,734.975 -43.835,41.924 -31.544,9.948 -24.287,-10.918 1.328,-47.56 -8.338,-2.944 6.207,5.706 -2.316,16.754 -23.701,-2.511 c 0,0 -42.326,29.646 -40.886,30.079 0.183,0.054 18.312,-12.278 18.312,-12.278 0,0 7.424,2.161 10.469,0.182 1.861,-1.209 -1.303,-5.469 0.481,-6.63 8.516,-5.546 15.574,-10.167 15.574,-10.167 l 20.384,6.234 -2.409,23.75 21.431,15.766 -19.578,2.459 10.422,3.68 -49.316,34.131 -7.659,-1.532 -11.41,-34.486 6.516,35.1 -13.371,8.165 -29.414,7.186 -7.658,-1.532 1.992,7.732 56.65,-8.113 132.894,-72.565 20.041,-37.439 -27.452,-35.464 -32.224,8.537 -11.781,-6.502 c 0,0 -6.555,1.762 -8.384,0.554 -2.871,-1.898 -2.671,-9.143 -2.671,-9.143 l -8.971,-7.853 -52.574,16.58 -0.185,13.992 -41.426,18.174 2.492,43.022 -27.614,9.023 -4.315,16.116 c 0,0 5.527,6.584 4.67,9.781 -0.924,3.451 -8.236,3.535 -8.236,3.535 l -3.869,14.448 10.87,22.581 -8.785,-21.845 3.675,-13.931 c 0,0 6.533,1.783 7.751,-5.464 0.603,-3.592 -4.077,-8.468 -4.077,-8.468 l 6.463,-17.2 23.816,-2.566 0.648,-48.972 36.973,-14.614 6.075,32.156 -2.347,-33.629 -1.899,-14.728 53.253,-15.169 c 0,0 6.222,5.331 6.207,5.706 -0.095,2.268 1.185,7.675 2.671,9.143 2.545,2.514 8.384,-0.554 8.384,-0.554 l 13.14,9.325 32.223,-8.537 20.52,31.845 z"
           class="cls-9"
           id="path110"
           inkscape:connector-curvature="0"
           style="fill:#b78116;fill-rule:evenodd" />
      </g>
      <g
         id="g112">
        <g
           id="g114">
          <path
             d="m 116.002,895.961 c -0.699,0.498 -59.461,9.464 -59.461,9.464 L 44.992,881.432 49.55,867.217 c 1.774,1.158 4.073,1.408 6.112,0.429 3.109,-1.495 4.408,-5.242 2.903,-8.37 -1.034,-2.147 -3.123,-3.415 -5.335,-3.534 l 5.597,-17.454 23.793,-4.485 16.676,5.888 15.764,21.966 c 0,0 1.641,33.806 0.942,34.304 z"
             class="cls-5"
             id="path116"
             inkscape:connector-curvature="0"
             style="fill:#fff568;fill-rule:evenodd" />
          <path
             d="m 99.296,839.691 -16.676,-5.888 -23.793,4.485 28.595,1.896 12.182,28.902 -14.236,20.745 -22.388,3.81 -17.988,-12.209 11.549,23.993 c 0,0 58.762,-8.966 59.461,-9.464 0.699,-0.498 -0.942,-34.304 -0.942,-34.304 L 99.296,839.691 Z"
             class="cls-6"
             id="path118"
             inkscape:connector-curvature="0"
             style="fill:#f9b014;fill-rule:evenodd" />
          <path
             d="m 94.826,860.94 c -2.716,1.306 -5.979,0.161 -7.287,-2.557 -1.308,-2.718 -0.167,-5.979 2.549,-7.285 2.716,-1.305 5.979,-0.16 7.287,2.557 1.308,2.718 0.167,5.98 -2.549,7.285 z m -19.771,18.192 c -2.323,1.117 -5.12,0.124 -6.248,-2.218 -1.127,-2.342 -0.157,-5.145 2.166,-6.262 2.323,-1.117 5.12,-0.123 6.248,2.218 1.127,2.342 0.157,5.146 -2.166,6.262 z m -8.772,-23.604 c -1.948,0.936 -4.287,0.115 -5.225,-1.833 -0.938,-1.949 -0.12,-4.287 1.828,-5.223 1.947,-0.936 4.286,-0.116 5.224,1.833 0.938,1.949 0.12,4.287 -1.827,5.223 z"
             class="cls-7"
             id="path120"
             inkscape:connector-curvature="0"
             style="fill:#f7941d;fill-rule:evenodd" />
          <circle
             cx="102.266"
             cy="878.203"
             r="4.6719999"
             class="cls-8"
             id="circle122"
             style="fill:#f7941d" />
        </g>
        <g
           id="g124">
          <path
             d="m 130.948,768.866 -49.084,16.641 3.474,53.941 57.375,-10.199 c 0,0 -12.951,-61.694 -11.765,-60.383 z"
             class="cls-6"
             id="path126"
             inkscape:connector-curvature="0"
             style="fill:#f9b014;fill-rule:evenodd" />
          <path
             d="m 118.982,776.356 -35.713,8.476 2.98,38.538 31.729,-23.94 1.004,-23.074 z"
             class="cls-5"
             id="path128"
             inkscape:connector-curvature="0"
             style="fill:#fff568;fill-rule:evenodd" />
          <path
             d="m 106.948,790.859 c -3.877,1.864 -5.5,6.534 -3.624,10.432 1.876,3.897 6.54,5.545 10.418,3.681 3.878,-1.864 5.501,-6.534 3.625,-10.431 -1.876,-3.897 -6.541,-5.546 -10.419,-3.682 z"
             class="cls-7"
             id="path130"
             inkscape:connector-curvature="0"
             style="fill:#f7941d;fill-rule:evenodd" />
        </g>
        <g
           id="g132">
          <path
             d="m 185.249,752.309 c 1.317,2.735 4.586,3.894 7.302,2.588 1,-0.481 1.782,-1.232 2.31,-2.122 l 12.948,10.429 -48.189,54.443 -31.22,-14.537 -4.246,-48.357 52.574,-16.581 9.684,7.799 c -1.672,1.592 -2.225,4.132 -1.163,6.338 z"
             class="cls-5"
             id="path134"
             inkscape:connector-curvature="0"
             style="fill:#fff568;fill-rule:evenodd" />
          <path
             d="m 124.154,754.753 4.246,48.357 31.22,14.537 19.857,-23.447 27.653,-32.408 c 0,0 -31.369,29.759 -32.315,29.084 -10.372,-7.395 -35.27,-25.149 -45.813,-32.667 -0.811,-0.578 47.726,-20.037 47.726,-20.037 l -52.574,16.581 z"
             class="cls-6"
             id="path136"
             inkscape:connector-curvature="0"
             style="fill:#f9b014;fill-rule:evenodd" />
          <path
             d="m 184.616,774.336 c -2.716,1.306 -5.978,0.161 -7.286,-2.557 -1.309,-2.718 -0.167,-5.979 2.549,-7.285 2.716,-1.305 5.978,-0.161 7.287,2.557 1.308,2.718 0.167,5.98 -2.55,7.285 z m -40.81,-0.354 c -1.695,-3.521 -0.244,-7.734 3.241,-9.409 3.485,-1.675 7.684,-0.178 9.379,3.343 1.695,3.521 0.244,7.734 -3.241,9.409 -3.485,1.675 -7.684,0.178 -9.379,-3.343 z"
             class="cls-7"
             id="path138"
             inkscape:connector-curvature="0"
             style="fill:#f7941d;fill-rule:evenodd" />
        </g>
        <g
           id="g140">
          <path
             d="m 109.872,858.068 c 1.313,2.728 0.176,5.998 -2.54,7.303 -0.006,0.004 -0.013,0.004 -0.02,0.007 l 5.385,16.531 13.912,3.74 54.164,-31.248 -6.33,-49.092 -37.612,-6.252 -14.604,9.423 c 0.182,0.264 0.363,0.53 0.507,0.829 1.501,3.118 0.201,6.855 -2.903,8.346 -2.926,1.407 -6.386,0.295 -8.034,-2.446 l -17.211,11.105 9.367,28.753 c 2.363,-0.434 4.822,0.722 5.919,3.001 z"
             class="cls-5"
             id="path142"
             inkscape:connector-curvature="0"
             style="fill:#fff568;fill-rule:evenodd" />
          <path
             d="m 112.697,881.909 13.912,3.74 54.164,-31.248 -6.33,-49.092 -37.612,-6.252 19.655,44.426 -6.439,11.784 -37.35,26.642 z"
             class="cls-6"
             id="path144"
             inkscape:connector-curvature="0"
             style="fill:#f9b014;fill-rule:evenodd" />
          <path
             d="m 154.42,839.232 c -3.109,1.495 -6.844,0.184 -8.341,-2.927 -1.498,-3.111 -0.191,-6.844 2.918,-8.338 3.109,-1.495 6.843,-0.184 8.341,2.927 1.497,3.111 0.191,6.844 -2.918,8.338 z m -22.102,36.691 c -3.109,1.495 -6.843,0.184 -8.341,-2.927 -1.497,-3.111 -0.191,-6.844 2.918,-8.338 3.109,-1.495 6.844,-0.184 8.341,2.927 1.498,3.11 0.191,6.844 -2.918,8.338 z m -6.436,-40.352 c -2.717,1.306 -5.979,0.161 -7.287,-2.557 -1.309,-2.718 -0.167,-5.979 2.549,-7.285 2.716,-1.306 5.978,-0.161 7.287,2.557 1.308,2.718 0.167,5.979 -2.549,7.285 z"
             class="cls-7"
             id="path146"
             inkscape:connector-curvature="0"
             style="fill:#f7941d;fill-rule:evenodd" />
        </g>
        <g
           id="g148">
          <path
             d="m 264.722,787.984 -23.963,-35.404 -36.439,10.563 -41.38,14.676 -3.459,50.322 22.744,22.087 68.801,-29.594 13.696,-32.65 z"
             class="cls-5"
             id="path150"
             inkscape:connector-curvature="0"
             style="fill:#fff568;fill-rule:evenodd" />
          <path
             d="m 264.722,787.984 -23.963,-35.404 12.136,32.399 -44.515,40.512 -48.899,2.65 22.744,22.087 68.801,-29.594 13.696,-32.65 z"
             class="cls-6"
             id="path152"
             inkscape:connector-curvature="0"
             style="fill:#f9b014;fill-rule:evenodd" />
          <path
             d="m 235.17,807.432 c -3.485,1.675 -7.684,0.178 -9.379,-3.343 -1.695,-3.521 -0.244,-7.733 3.241,-9.408 3.485,-1.675 7.684,-0.179 9.379,3.342 1.695,3.522 0.244,7.734 -3.241,9.409 z m -14.35,-24.43 c -3.109,1.495 -6.843,0.184 -8.341,-2.927 -1.497,-3.111 -0.191,-6.844 2.918,-8.338 3.109,-1.495 6.844,-0.184 8.341,2.927 1.498,3.111 0.191,6.844 -2.918,8.338 z m -30.344,25.028 c -3.502,1.683 -7.709,0.207 -9.395,-3.297 -1.687,-3.504 -0.216,-7.709 3.286,-9.393 3.502,-1.683 7.709,-0.207 9.395,3.297 1.687,3.504 0.216,7.71 -3.286,9.393 z"
             class="cls-7"
             id="path154"
             inkscape:connector-curvature="0"
             style="fill:#f7941d;fill-rule:evenodd" />
        </g>
        <path
           d="m 260.553,786.512 -43.835,41.923 -31.544,9.949 -24.288,-10.919 1.328,-47.56 -8.337,-2.943 6.207,5.705 -2.316,16.754 -23.701,-2.511 c 0,0 -42.326,29.646 -40.886,30.079 0.183,0.055 18.312,-12.277 18.312,-12.277 0,0 7.423,2.161 10.469,0.182 1.861,-1.21 -1.304,-5.469 0.481,-6.631 8.516,-5.546 15.574,-10.166 15.574,-10.166 l 20.384,6.234 -2.409,23.749 21.431,15.767 -19.578,2.459 10.422,3.68 -49.316,34.131 -7.659,-1.533 -11.41,-34.486 6.516,35.101 -13.371,8.165 -29.414,7.186 -7.658,-1.533 1.991,7.732 56.65,-8.112 132.895,-72.566 20.041,-37.438 -27.453,-35.464 -32.223,8.537 -11.781,-6.503 c 0,0 -6.555,1.763 -8.384,0.554 -2.872,-1.897 -2.671,-9.143 -2.671,-9.143 l -8.971,-7.853 -52.574,16.581 -0.185,13.992 -41.426,18.173 2.492,43.023 -27.614,9.022 -4.315,16.116 c 0,0 5.526,6.584 4.67,9.781 -0.924,3.452 -8.236,3.535 -8.236,3.535 l -3.869,14.448 10.87,22.581 -8.785,-21.845 3.674,-13.931 c 0,0 6.534,1.784 7.751,-5.463 0.604,-3.593 -4.076,-8.468 -4.076,-8.468 l 6.463,-17.2 23.816,-2.567 0.648,-48.971 36.973,-14.614 6.074,32.156 -2.346,-33.629 -1.9,-14.728 53.254,-15.169 c 0,0 6.222,5.331 6.207,5.706 -0.095,2.268 1.185,7.675 2.671,9.143 2.545,2.514 8.384,-0.554 8.384,-0.554 l 13.139,9.325 32.224,-8.537 20.52,31.845 z"
           class="cls-9"
           id="path156"
           inkscape:connector-curvature="0"
           style="fill:#b78116;fill-rule:evenodd" />
      </g>
      <g
         id="g158">
        <path
           d="m 403.029,709.219 c 0,0 -16.279,-7.648 -37.386,3.336 -22.403,11.657 -35.86,38.397 -65.814,65.78 -27.368,25.019 -71.538,35.519 -106.06,63.173 -36.202,29.001 -81.95,34.791 -113.615,42.415 -28.925,6.963 -45.447,16.965 -45.447,16.965 l 23.838,49.52 c 0,0 -2.411,18.386 4.551,24.642 7.998,7.187 25.511,2.372 25.511,2.372 l -13.188,28.291 c 0,0 25.697,50.003 29.719,117.425 3.591,60.181 38.733,105.776 38.733,105.776 0,0 -27.644,67.674 46.56,41.037 0,0 29.761,-16.056 64.212,-23.546 68.633,-14.922 167.427,-26.815 167.427,-26.815 0,0 59.878,-26.04 104.009,-57.309 51.593,-36.558 88.608,-79.177 88.608,-79.177 0,0 72.445,-21.222 78.425,-54.768 1.82,-10.21 -13.433,-8.354 -28.3,-13.228 -17.452,-5.721 -33.024,-7.338 -41.937,-21.307 -8.912,-13.968 5.421,-18.146 -4.407,-34.468 -8.259,-13.716 -7.65,-2.943 -20.456,-12.119 -3.488,-2.5 -10.389,-45.933 -17.828,-57.286 -27.167,-41.46 -70.381,-24.709 -70.381,-24.709 0,0 -23.36,-1.161 -38.123,-13.384 -10.55,-8.735 -10.397,-28.535 -23.1,-32.8 -9.287,-3.118 -19.472,5.814 -27.635,8.405 -11.019,3.497 -18.693,1.667 -18.693,1.667 l 24.037,-31.066 c 0,0 -10.169,-15.796 -16.137,-38.586 -5.653,-21.588 -7.123,-50.236 -7.123,-50.236 z"
           class="cls-10"
           id="path160"
           inkscape:connector-curvature="0"
           style="fill:#bf8d60;fill-rule:evenodd" />
        <path
           d="m 693.112,1028.336 c -5.98,33.546 -78.425,54.768 -78.425,54.768 0,0 -37.015,42.619 -88.608,79.177 -44.131,31.269 -104.009,57.309 -104.009,57.309 0,0 -98.794,11.893 -167.427,26.814 -34.451,7.49 -64.211,23.547 -64.211,23.547 -74.205,26.637 -46.561,-41.037 -46.561,-41.037 0,0 -35.142,-45.595 -38.733,-105.776 -4.022,-67.422 -29.719,-117.425 -29.719,-117.425 l 0.943,-2.023 c 5.385,7.727 11.734,18.758 16.292,32.764 15.78,48.489 36.708,145.306 54.294,183.664 7.84,17.101 1.143,41.745 9.246,39.459 7.588,-2.141 34.119,-17.279 68.242,-30.361 50.139,-19.223 111.04,-8.9 189.125,-32.366 63.349,-19.038 97.999,-49.543 97.999,-49.543 0,0 49.69,-38.532 90.372,-65.389 31.026,-20.482 54.202,-28.916 61.495,-39.314 5.203,-7.42 -33.208,-20.767 -47.442,-47.93 -4.576,-8.73 -0.31,-21.963 -5.433,-31.536 -4.38,-8.185 -23.464,-5.046 -23.316,-18.062 0.147,-12.924 1.113,-53.041 -32.347,-72.259 -11.461,-6.582 -30.204,2.682 -50.142,2.149 -14.711,-0.392 -31.522,-9.96 -39.076,-15.364 -6.138,-4.392 -12.343,-20.555 -23.172,-27.888 -4.483,-3.035 -21.571,8.628 -41.072,23.179 -2.562,4.469 -6.006,9.821 -10.6,16.292 -4.094,5.766 10.823,25.79 5.433,31.536 -8.021,8.549 -25.92,-8.875 -36.361,0.403 -5.432,4.827 -23.703,30.621 -34.958,38.754 -20.326,14.69 -50.744,20.555 -64.211,23.546 -70.256,15.606 -27.217,51.637 -46.023,56.268 -8.184,2.016 -24.006,-36.653 -31.898,-35.888 -8.883,0.86 -10.064,37.514 -18.244,38.037 -6.397,0.41 -17.154,-22.168 -23.244,-22.974 -41.443,-5.485 -53.894,-15.794 -55.718,-19.561 -1.93,-3.986 19.721,-11.876 67.144,-22.517 35.453,-7.955 74.525,-12.365 117.662,-33.482 21.32,-10.437 44.589,-20.387 63.754,-31.489 12.66,-17.337 63.123,-65.293 62.296,-71.683 -0.409,-3.164 17.379,-23.932 17.075,-25.28 -0.568,-2.513 -6.796,-17.016 -9.319,-34.546 -2.597,-18.04 -1.64,-39.195 -13.061,-47.382 -16.339,-11.712 -46.802,31.824 -47.425,17.917 -0.039,-0.858 0.026,-1.739 0.147,-2.632 6.887,-7.366 13.755,-13.488 21.767,-17.658 21.107,-10.983 37.386,-3.335 37.386,-3.335 0,0 1.47,28.648 7.123,50.236 5.968,22.79 16.137,38.586 16.137,38.586 l -24.037,31.066 c 0,0 7.674,1.83 18.693,-1.668 8.163,-2.59 18.348,-11.522 27.635,-8.404 12.703,4.265 12.55,24.065 23.1,32.8 14.763,12.223 38.123,13.384 38.123,13.384 0,0 43.214,-16.751 70.381,24.709 7.439,11.352 14.34,54.786 17.829,57.286 12.805,9.176 12.196,-1.597 20.455,12.119 9.829,16.322 -4.505,20.5 4.407,34.468 8.913,13.969 24.486,15.586 41.937,21.307 14.867,4.874 30.12,3.018 28.3,13.228 z"
           class="cls-11"
           id="path162"
           inkscape:connector-curvature="0"
           style="fill:#946943;fill-rule:evenodd" />
        <path
           d="m 368.694,712.072 c 12.737,-3.967 54.057,10.045 4.953,57.612 0,0 29.243,38.942 0.017,65.847 0,0 -95.858,95.942 -247.382,118.905 0,0 14.063,-10.529 31.737,-20.133 23.334,-12.679 56.79,-32.327 77.615,-66.575 0,0 -122.642,46.342 -194.18,42.113 0,0 6.226,-15.073 21.914,-20.289 34.197,-11.371 98.185,-21.384 146.306,-60.566 30.005,-24.432 67.412,-32.518 92.134,-51.602 42.444,-32.764 54.15,-61.346 66.886,-65.312 z M 535.098,882.33 c -2.858,1.775 -23.875,15.309 -70.741,-0.145 0,0 -67.723,-30.323 -45.663,31.704 0,0 10.15,23.321 -28.66,11.337 0,0 -22.949,-12.642 -42.73,32.733 0,0 -15.78,15.474 -41.416,10.151 l -65.309,31.391 c 0,0 -17.499,-3.864 -8.277,28.369 0,0 11.834,47.099 -14.069,21.397 l -30.944,-33.908 -10.472,44.058 c 0,0 5.921,160.896 -45.895,-19.405 0,0 -32.978,-43.16 -28.3,-13.227 0,0 12.922,70.926 17.251,96.588 4.329,25.663 37.209,70.509 37.996,89.057 0,0 -3.177,42.407 14.302,29.712 0,0 40.774,-43.206 88.104,-44.787 47.33,-1.581 98.868,-44.675 162.588,-31.806 63.72,12.869 129.143,-96.22 129.143,-96.22 0,0 41.997,-7.291 66.118,-19.585 16.445,-8.381 18.028,-23.299 18.028,-23.299 0,0 -14.511,2.446 -24.486,-5.304 -5.395,-4.192 -4.739,-17.698 -10.488,-21.789 -8.767,-6.238 -20.052,2.231 -25.44,-7.285 -15.451,-27.294 6.3,-69.892 -8.309,-103.325 -7.587,-17.362 -31.353,-7.019 -32.331,-6.412 z"
           class="cls-12"
           id="path164"
           inkscape:connector-curvature="0"
           style="fill:#e3b07c;fill-rule:evenodd" />
        <path
           d="m 387.894,870.155 c -16.555,32.99 -69.184,69.818 -113.364,88.343 1.593,0.082 2.636,0.481 2.986,1.297 2.802,6.545 -46.69,31.127 -70.325,36.577 -19.36,4.464 -43.015,1.548 -62.359,-3.33 3.394,6.063 7.043,13.576 11.008,22.798 24.447,56.861 10.289,102.374 10.289,102.374 0,0 -22.873,-0.151 -22.956,-42.626 -0.094,-47.914 -17.123,-76.465 -23.987,-91.065 -6.156,-2.696 -10.158,-5.179 -10.932,-6.787 -0.95,-1.974 2.64,-3.426 9.41,-4.427 0.156,-0.113 0.297,-0.234 0.485,-0.33 2.679,-1.364 5.469,-1.678 8.455,-0.614 4.993,-0.372 10.809,-0.613 17.228,-0.734 -4.48,-2.043 -3.985,-4.203 -3.985,-4.203 0,0 68.627,-7.34 127.253,-34.334 61.968,-28.533 96.636,-53.93 105.106,-65.154 8.47,-11.224 47.472,-61.12 15.688,2.215 z"
           class="cls-13"
           id="path166"
           inkscape:connector-curvature="0"
           style="fill:#5d422a;fill-rule:evenodd" />
        <path
           d="m 275.681,950.921 c -82.096,31.466 -106.365,16.977 -106.151,16.405 153.847,-21.047 217.991,-110.148 217.555,-108.977 0,0 -29.308,61.105 -111.404,92.572 z m -91.774,27.038 c 23.08,-0.388 48.135,-6.318 49.188,-4.13 1.053,2.188 -27.369,14.792 -55.269,16.809 -16.811,1.215 -53.784,-10.48 -54.837,-12.668 -1.054,-2.188 40.192,0.337 60.918,-0.011 z m -27.725,125.633 c -13.814,3.452 0.707,-39.845 -10.526,-63.345 -11.257,-23.551 -20.76,-58.315 -20.76,-58.315 0,0 16.964,24.013 25.816,48.568 9.851,27.327 18.869,69.743 5.47,73.092 z"
           class="cls-14"
           id="path168"
           inkscape:connector-curvature="0"
           style="fill:#795638;fill-rule:evenodd" />
      </g>
    </g>
    <g
       id="g170">
      <g
         id="g172">
        <path
           d="M 634.19,421.293 550.672,725.12 c 0,0 -80.48,-23.873 -47.64,-154.695 0,0 20.777,-55.994 56.094,-96.15 29.789,-33.872 75.064,-52.982 75.064,-52.982 z"
           class="cls-15"
           id="path174"
           inkscape:connector-curvature="0"
           style="fill:#754c24;fill-rule:evenodd" />
        <g
           id="g176">
          <path
             d="M 632.136,419.752 547.597,716.383 830.044,870.444 894.509,613.402 632.136,419.752 Z"
             class="cls-16"
             id="path178"
             inkscape:connector-curvature="0"
             style="fill:#d29151;fill-rule:evenodd" />
          <path
             d="M 642.903,443.905 562.496,717.917 819.788,849.888 887.825,618.032 642.903,443.905 Z"
             class="cls-17"
             id="path180"
             inkscape:connector-curvature="0"
             style="fill:#4e2f11;fill-rule:evenodd" />
          <path
             d="M 885.492,619.192 C 870.39,624.58 855.295,633.312 841.298,645 L 626.263,494.968 640.85,442.364 c 0,0 242.044,176.913 244.921,174.127 0.202,-0.196 0.089,0.781 -0.279,2.701 z m -72.221,55.42 c -1.807,2.408 -3.514,4.849 -5.175,7.303 L 612.304,545.308 623.465,505.058 837.41,648.34 c -8.604,7.642 -16.745,16.417 -24.139,26.272 z M 787.558,723.041 596.532,602.19 609.54,555.278 805.201,686.315 c -7.606,11.975 -13.48,24.371 -17.643,36.726 z m -7.496,43.2 -196.637,-116.783 10.521,-37.944 192.048,116.427 c -3.926,13.069 -5.901,26.018 -5.932,38.3 z m -1.475,4.69 1.568,0.167 c 0.969,23.928 9.59,44.949 26.014,58.764 L 565.582,713.804 580.898,658.569 778.587,770.931 Z"
             class="cls-18"
             id="path182"
             inkscape:connector-curvature="0"
             style="fill:#603913;fill-rule:evenodd" />
        </g>
      </g>
      <g
         id="g184">
        <path
           d="m 981.033,916.741 c -10.708,5.968 -22.772,11.431 -32.305,15.458 5.109,-0.143 10.354,-0.498 15.508,-1.168 20.274,-2.635 39.551,-13.858 40.695,-13.183 2.637,1.556 -2.393,79.141 -2.393,79.141 0,0 -16.534,3.316 -32.433,2.07 -24.942,-1.955 -53.462,-8.803 -53.462,-8.803 l -7.846,-60.572 c 0,0 6.557,1.083 16.278,1.849 L 913.673,918.43 c -16.337,7.587 -30.876,12.918 -30.876,12.918 l -40.066,-46.044 c 0,0 26.777,-12.049 46.954,-29.59 15.44,-13.423 25.295,-33.438 26.622,-33.51 1.683,-0.092 14.167,20.244 25.06,38.56 13.781,-13.254 22.502,-30.807 23.744,-30.875 3.059,-0.166 41.809,67.163 41.809,67.163 0,0 -11.946,11.918 -25.887,19.689 z M 825.45,838.063 766.377,822.673 c 0,0 15.347,-25.046 22.141,-50.899 5.2,-19.785 2.067,-41.858 3.123,-42.665 2.435,-1.863 72.416,31.832 72.416,31.832 0,0 -3.159,16.571 -10.305,30.846 -11.21,22.395 -28.302,46.276 -28.302,46.276 z m -88.307,-1.595 -56.733,-22.516 c 0,0 18.294,-22.981 28.202,-47.811 7.581,-19.002 7.176,-41.297 8.322,-41.969 2.645,-1.55 67.961,40.472 67.961,40.472 0,0 -5.163,16.062 -14.002,29.357 -13.867,20.857 -33.75,42.467 -33.75,42.467 z m -124.79,-86.187 c -8.528,-18.573 -24.955,-33.622 -24.65,-34.915 0.702,-2.985 76.223,-21.408 76.223,-21.408 0,0 8.068,14.797 11.595,30.353 5.533,24.404 7.459,53.689 7.459,53.689 l -55.469,25.627 c 0,0 -4.014,-29.077 -15.158,-53.346 z"
           class="cls-19"
           id="path186"
           inkscape:connector-curvature="0"
           style="fill:#005826;fill-rule:evenodd" />
        <path
           d="m 949.423,927.76 c 0,0 -14.948,-13.483 -22.876,-24.387 l 21.655,-14.999 6.173,-8.228 -8.426,-11.43 c 9.175,-8.855 17.414,-16.85 17.414,-16.85 l 31.731,43.223 -45.671,32.671 z m -8.788,-53.92 0.895,6.313 -18.516,19.939 -22.906,16.385 c 0,0 -33.738,-30.423 -26.729,-36.826 7.008,-6.403 40.67,-39.068 40.67,-39.068 l 25.314,34.482 c 0.422,-0.407 0.847,-0.815 1.272,-1.225 z M 790.548,799.015 c 2.316,-9.204 12.382,-55.006 12.382,-55.006 l 50.336,18.479 -20.087,52.44 c 0,0 -44.947,-6.708 -42.631,-15.913 z m -83.857,-7.355 c 3.999,-8.609 22.467,-51.723 22.467,-51.723 l 45.967,27.596 -29.552,47.757 c 0,0 -42.88,-15.02 -38.882,-23.63 z M 627.76,771.558 c -3.268,-8.902 -20.735,-52.38 -20.735,-52.38 l 52.034,-13.117 12.918,54.605 c 0,0 -40.949,19.795 -44.217,10.892 z m 309.651,171.629 c 9.435,-0.978 55.89,-7.215 55.89,-7.215 l -0.241,53.665 -56.1,-0.91 c 0,0 -8.984,-44.562 0.451,-45.54 z"
           class="cls-20"
           id="path188"
           inkscape:connector-curvature="0"
           style="fill:#119a4c;fill-rule:evenodd" />
        <path
           d="m 930.632,997.354 c -7.938,-5.956 -262.293,-133.029 -262.421,-142.248 -0.014,-1.048 -2.547,-13.932 -2.181,-27.2 -6.805,-5.113 -22.749,-2.105 -30.679,2.544 -19.091,11.192 -3.127,-7.489 -3.075,-8.737 -1.381,0.309 -11.382,-12.962 -12.833,-12.844 -16.971,1.385 -1.754,-17.466 -3.114,-34.442 -0.209,-2.6 -19.369,10.699 -18.955,8.239 -1.669,0.427 15.934,-15.088 14.158,-14.943 -16.971,1.386 -31.832,-11.253 -33.192,-28.23 -1.36,-16.977 11.295,-31.862 28.266,-33.247 16.972,-1.386 31.833,11.254 33.193,28.23 0.208,2.6 0.052,5.139 -0.363,7.6 1.67,-0.427 3.384,-0.752 5.159,-0.897 16.972,-1.385 31.833,11.254 33.193,28.231 0.102,1.277 0.1,2.535 0.048,3.783 0.654,-0.146 1.314,-0.274 1.984,-0.379 2.148,-13.779 13.466,-24.829 27.968,-26.013 16.971,-1.385 31.832,11.254 33.192,28.231 0.376,4.693 -0.351,9.21 -1.912,13.343 9.207,-0.302 17.67,3.483 23.545,9.814 4.977,-4.898 11.625,-8.15 19.122,-8.762 10.881,-0.888 20.873,4.006 27.018,12.094 10.738,-9.439 26.954,-10.415 38.826,-1.507 8.429,6.325 12.678,16.145 12.272,25.943 8.487,-1.896 17.711,-0.231 25.207,5.393 13.611,10.213 16.353,29.543 6.125,43.175 -2.177,2.901 -4.782,5.278 -7.64,7.175 6.264,4.945 10.079,11.869 11.278,19.211 10.739,-9.158 26.726,-10.034 38.47,-1.221 13.612,10.213 16.354,29.542 6.126,43.174 -0.212,0.282 -0.449,0.531 -0.668,0.803 9.431,-3.387 20.316,-2.134 28.922,4.323 13.611,10.213 16.354,29.542 6.126,43.174 -10.229,13.632 -29.554,16.403 -43.165,6.19 z m -6.691,-43.58 c 0.282,0.364 0.478,0.523 0.565,0.406 0.212,-0.282 0.449,-0.53 0.668,-0.803 -0.407,0.146 -0.82,0.268 -1.233,0.397 z"
           class="cls-6"
           id="path190"
           inkscape:connector-curvature="0"
           style="fill:#f9b014;fill-rule:evenodd" />
        <path
           d="m 771.922,926.493 c -9.376,12.495 -27.088,15.039 -39.56,5.68 -7.92,-5.942 -11.805,-15.253 -11.199,-24.458 -9.23,4.506 -20.576,3.832 -29.343,-2.747 -12.473,-9.358 -14.983,-27.074 -5.607,-39.57 9.376,-12.496 27.087,-15.039 39.56,-5.68 7.919,5.942 11.804,15.252 11.199,24.458 9.229,-4.506 20.575,-3.832 29.343,2.746 12.472,9.359 14.982,27.075 5.607,39.571 z"
           class="cls-21"
           id="path192"
           inkscape:connector-curvature="0"
           style="fill:#a57612;fill-rule:evenodd" />
        <path
           d="m 901.571,957.868 c 5.184,-11.763 1.831,-25.952 -8.888,-33.995 -10.719,-8.043 -25.28,-7.294 -35.124,0.971 0.856,-1.943 1.92,-3.827 3.249,-5.599 4.065,-5.417 9.701,-8.954 15.798,-10.468 0.898,-9.067 -2.8,-18.357 -10.61,-24.217 -11.904,-8.932 -28.81,-6.504 -37.76,5.423 -1.67,2.226 -2.943,4.625 -3.835,7.114 -0.015,-0.686 0.004,-1.372 0.036,-2.059 -0.021,0.029 -0.038,0.059 -0.059,0.088 -1.056,1.406 -2.23,2.668 -3.478,3.82 5.967,-11.979 2.766,-26.859 -8.302,-35.163 -11.068,-8.305 -26.249,-7.218 -36.082,1.86 0.757,-1.52 1.64,-3 2.695,-4.407 9.376,-12.496 27.088,-15.039 39.56,-5.681 7.653,5.742 11.536,14.631 11.243,23.53 0.099,-0.137 0.182,-0.279 0.284,-0.414 9.802,-13.064 28.319,-15.722 41.359,-5.938 11.137,8.356 14.645,23.077 9.335,35.337 6.693,-0.584 13.613,1.17 19.408,5.519 12.49,9.371 15.015,27.098 5.639,39.594 -1.33,1.772 -2.841,3.32 -4.468,4.685 z M 844.492,823.417 c -11.905,-8.933 -28.81,-6.504 -37.76,5.423 -1.67,2.226 -2.943,4.625 -3.835,7.114 -0.147,-6.403 1.752,-12.902 5.896,-18.426 9.803,-13.064 28.32,-15.722 41.36,-5.938 13.04,9.784 15.665,28.306 5.863,41.37 -1.073,1.43 -2.267,2.712 -3.53,3.891 5.607,-11.412 2.53,-25.538 -7.994,-33.434 z M 787.255,849.7 c 5.604,-11.414 2.515,-25.55 -8.025,-33.458 -11.922,-8.945 -28.842,-6.528 -37.792,5.4 -0.87,1.16 -1.62,2.371 -2.277,3.613 4.157,0.758 8.207,2.443 11.817,5.152 12.473,9.359 14.983,27.075 5.607,39.571 -1.891,2.519 -4.131,4.613 -6.589,6.308 3.721,-11.216 0.136,-24.01 -9.821,-31.481 -8.826,-6.623 -20.265,-7.258 -29.528,-2.65 -0.741,-0.692 -1.518,-1.356 -2.347,-1.977 -12.2,-9.155 -29.392,-6.894 -38.913,4.903 0.833,-3.886 2.471,-7.662 5.014,-11.05 0.026,-0.035 0.056,-0.065 0.083,-0.099 -10.749,-9.688 -12.522,-26.15 -3.666,-37.953 9.376,-12.495 27.101,-15.028 39.592,-5.656 12.49,9.372 15.014,27.099 5.639,39.594 -0.027,0.036 -0.058,0.066 -0.085,0.102 0.259,0.233 0.499,0.479 0.747,0.721 6.035,-4.694 13.666,-6.682 21.069,-5.711 0.524,-5.16 2.379,-10.248 5.72,-14.7 9.802,-13.064 28.333,-15.711 41.391,-5.914 13.058,9.798 15.697,28.331 5.895,41.394 -1.073,1.431 -2.267,2.713 -3.531,3.891 z M 608.632,810.402 c -12.473,-9.359 -14.983,-27.075 -5.607,-39.571 9.376,-12.495 27.087,-15.039 39.56,-5.68 12.472,9.358 14.982,27.074 5.607,39.57 -9.376,12.496 -27.088,15.039 -39.56,5.681 z"
           class="cls-22"
           id="path194"
           inkscape:connector-curvature="0"
           style="fill:#fee09f;fill-rule:evenodd" />
        <path
           d="m 774.058,850.94 79.599,43.65 -53.506,75.588 -53.398,-40.066 27.305,-79.172 z"
           class="cls-19"
           id="path196"
           inkscape:connector-curvature="0"
           style="fill:#005826;fill-rule:evenodd" />
        <path
           d="m 781.24,862.758 56.485,35.953 -31.899,46.792 -43.129,-32.362 18.543,-50.383 z"
           class="cls-20"
           id="path198"
           inkscape:connector-curvature="0"
           style="fill:#119a4c;fill-rule:evenodd" />
      </g>
      <g
         id="g200">
        <path
           d="m 551.704,719.465 23.114,7.698 148.857,156.699 247.035,111.416 27.72,27.229 L 704.645,904.947 551.704,719.465 Z"
           class="cls-16"
           id="path202"
           inkscape:connector-curvature="0"
           style="fill:#d29151;fill-rule:evenodd" />
        <path
           d="m 708.764,895.178 -155.516,-177.77 -22.616,8.75 -102.987,244.211 107.247,147.982 269.164,73.367 196.428,-167.67 -291.72,-128.87 z"
           class="cls-23"
           id="path204"
           inkscape:connector-curvature="0"
           style="fill:#986431;fill-rule:evenodd" />
        <path
           d="m 535.076,1118.401 -0.184,-0.05 -107.247,-147.982 102.987,-244.211 22.616,-8.75 155.516,177.77 1.377,0.609 -175.065,222.614 z"
           class="cls-15"
           id="path206"
           inkscape:connector-curvature="0"
           style="fill:#754c24;fill-rule:evenodd" />
        <path
           d="M 723.105,944.517 600.174,1086.962 816.937,1153.16 943.441,1035.899 723.105,944.517 Z M 546.516,773.439 658.927,893.148 545.233,1048.953 465.694,941.05 546.516,773.439 Z"
           class="cls-17"
           id="path208"
           inkscape:connector-curvature="0"
           style="fill:#4e2f11;fill-rule:evenodd" />
        <path
           d="m 908.019,1057.103 -208.832,-84.871 12.029,-13.938 209.609,86.355 -12.806,12.454 z m -35.45,34.475 -207.621,-79.672 29.911,-34.66 208.827,84.071 -31.117,30.261 z m -386.738,-174.285 83.35,95.464 -27.546,36.712 -73.585,-102.255 17.781,-29.921 z m 27.046,-45.513 87.171,99.84 -26.237,34.967 -83.923,-96.121 22.989,-38.686 z m 322.558,255.91 -24.352,23.682 -210.909,-64.41 24.714,-28.636 210.547,69.364 z M 651.365,903.226 635.217,924.749 543.693,819.923 555.74,799.65 651.365,903.226 Z m -134.431,-38.273 22.702,-38.203 90.951,104.169 -25.909,34.53 -87.744,-100.496 z m 142.382,153.479 208.877,77.401 -26.34,25.615 -212.36,-68.459 29.823,-34.557 z"
           class="cls-18"
           id="path210"
           inkscape:connector-curvature="0"
           style="fill:#603913;fill-rule:evenodd" />
      </g>
      <path
         d="m 936.861,893.549 c 0.609,-0.079 0.952,-0.111 0.952,-0.111 0,0 -0.346,0.048 -0.952,0.111 z m -28.36,13.259 c -5.27,7.023 -5.749,17.803 -5.378,24.849 -1.142,-7.505 -4.003,-19.028 -11.075,-24.335 -5.302,-3.978 -12.703,-4.862 -19.196,-4.649 6.34,-1.635 13.243,-4.549 17.145,-9.749 7.954,-10.601 3.23,-30.836 2.644,-33.193 0.577,2.223 5.483,20.002 16.896,28.565 8.862,6.65 23.493,5.65 27.324,5.253 -4.153,0.538 -20.872,3.278 -28.36,13.259 z m -5.378,24.849 c 0.626,4.119 0.737,7.032 0.737,7.032 0,0 -0.517,-2.864 -0.737,-7.032 z m -30.271,-28.984 c -7.506,1.936 -14.223,2.078 -14.223,2.078 0,0 6.461,-1.824 14.223,-2.078 z m 19.789,-42.942 c -0.039,-0.15 -0.059,-0.231 -0.059,-0.231 0,0 0.022,0.083 0.059,0.231 z M 749.697,745.859 c -5.27,7.024 -5.75,17.804 -5.378,24.85 -1.142,-7.505 -4.003,-19.028 -11.075,-24.335 -5.302,-3.978 -12.703,-4.862 -19.196,-4.649 6.34,-1.635 13.243,-4.549 17.145,-9.749 7.954,-10.601 3.23,-30.836 2.644,-33.193 0.577,2.223 5.483,20.002 16.896,28.565 8.862,6.65 23.493,5.65 27.324,5.253 -4.153,0.537 -20.872,3.278 -28.36,13.258 z m -5.378,24.85 c 0.626,4.119 0.737,7.032 0.737,7.032 0,0 -0.517,-2.864 -0.737,-7.032 z m -30.271,-28.984 c -7.507,1.936 -14.223,2.078 -14.223,2.078 0,0 6.461,-1.824 14.223,-2.078 z m 19.789,-42.942 c -0.039,-0.15 -0.059,-0.231 -0.059,-0.231 0,0 0.022,0.083 0.059,0.231 z m 45.172,33.707 c 0,0 -0.346,0.048 -0.952,0.111 0.609,-0.079 0.952,-0.111 0.952,-0.111 z m -66.347,49.879 c 7.955,-10.601 3.231,-30.836 2.644,-33.193 0.577,2.223 5.484,20.002 16.896,28.565 8.863,6.65 23.493,5.65 27.325,5.253 -4.153,0.537 -20.872,3.278 -28.361,13.258 -5.27,7.024 -5.749,17.804 -5.378,24.85 -1.141,-7.505 -4.002,-19.028 -11.075,-24.335 -5.302,-3.978 -12.703,-4.862 -19.195,-4.649 6.339,-1.635 13.242,-4.549 17.144,-9.749 z m 2.644,-33.193 c -0.039,-0.15 -0.059,-0.231 -0.059,-0.231 0,0 0.022,0.083 0.059,0.231 z m 44.221,33.818 c 0.608,-0.079 0.951,-0.111 0.951,-0.111 0,0 -0.345,0.048 -0.951,0.111 z m -33.739,38.108 c 0.627,4.119 0.737,7.032 0.737,7.032 0,0 -0.517,-2.864 -0.737,-7.032 z m -30.27,-28.984 c -7.507,1.936 -14.224,2.078 -14.224,2.078 0,0 6.461,-1.824 14.224,-2.078 z"
         class="cls-3"
         id="path212"
         inkscape:connector-curvature="0"
         style="fill:#ffffff;fill-rule:evenodd" />
    </g>
    <path
       inkscape:label="#path3719"
       style="display:inline;fill:#000000;fill-opacity:1;stroke:none"
       d="m 495.87514,971.0348 2.4986,-22.6547 7.3295,8.9952 18.9899,-20.3225 6.1634,7.3294 -19.6562,18.4902 4.6642,6.8297 z"
       id="Marker:C1S2Frustum:DealerPos:-0.25"
       inkscape:connector-curvature="0" />
  </g>
  <g
     inkscape:groupmode="layer"
     id="layer2"
     inkscape:label="markers">
    <rect
       style="opacity:1;fill:none;fill-opacity:1;stroke:#908f00;stroke-width:4.83747435;stroke-linecap:butt;stroke-linejoin:round;stroke-miterlimit:4;stroke-dasharray:none;stroke-opacity:1"
       id="Frame:C1S2Frustum"
       width="1019.1625"
       height="1019.1625"
       x="2.4187374"
       y="11.623115"
       inkscape:label="#rect4365" />
  </g>
</svg>
