<?xml version="1.0" encoding="UTF-8" standalone="no"?>
<svg
   xmlns:dc="http://purl.org/dc/elements/1.1/"
   xmlns:cc="http://creativecommons.org/ns#"
   xmlns:rdf="http://www.w3.org/1999/02/22-rdf-syntax-ns#"
   xmlns:svg="http://www.w3.org/2000/svg"
   xmlns="http://www.w3.org/2000/svg"
   xmlns:sodipodi="http://sodipodi.sourceforge.net/DTD/sodipodi-0.dtd"
   xmlns:inkscape="http://www.inkscape.org/namespaces/inkscape"
   preserveAspectRatio="xMidYMid"
   width="1024"
   height="1024"
   viewBox="0 0 1024 1024"
   id="svg2"
   version="1.1"
   inkscape:version="0.91 r"
   sodipodi:docname="FirstSlideObjects.svg"
   inkscape:export-filename="/home/eba/Documents/FTB_Grafik/Cutscenes/1st_scene/svg/1st_slide.png"
   inkscape:export-xdpi="90"
   inkscape:export-ydpi="90"
   default-parent="CompleteBase">
  <metadata
     id="metadata474">
    <rdf:RDF>
      <cc:Work
         rdf:about="">
        <dc:format>image/svg+xml</dc:format>
        <dc:type
           rdf:resource="http://purl.org/dc/dcmitype/StillImage" />
      </cc:Work>
    </rdf:RDF>
  </metadata>
  <sodipodi:namedview
     pagecolor="#ffffff"
     bordercolor="#666666"
     borderopacity="1"
     objecttolerance="10"
     gridtolerance="10"
     guidetolerance="10"
     inkscape:pageopacity="0"
     inkscape:pageshadow="2"
     inkscape:window-width="1920"
     inkscape:window-height="1028"
     id="namedview472"
     showgrid="false"
     inkscape:zoom="1.3872201"
     inkscape:cx="13.021854"
     inkscape:cy="625.98525"
     inkscape:window-x="0"
     inkscape:window-y="0"
     inkscape:window-maximized="1"
     inkscape:current-layer="layer4" />
  <defs
     id="defs4">
    <style
       id="style6">
      .cls-1 {
        fill: #6dd0f7;
      }

      .cls-2 {
        fill: #93dcf9;
      }

      .cls-10, .cls-11, .cls-12, .cls-13, .cls-14, .cls-15, .cls-16, .cls-17, .cls-18, .cls-19, .cls-2, .cls-20, .cls-21, .cls-22, .cls-23, .cls-24, .cls-25, .cls-26, .cls-27, .cls-28, .cls-3, .cls-30, .cls-31, .cls-32, .cls-33, .cls-34, .cls-35, .cls-36, .cls-37, .cls-38, .cls-39, .cls-4, .cls-40, .cls-41, .cls-42, .cls-43, .cls-44, .cls-45, .cls-46, .cls-47, .cls-48, .cls-49, .cls-5, .cls-50, .cls-51, .cls-52, .cls-53, .cls-54, .cls-55, .cls-56, .cls-57, .cls-58, .cls-6, .cls-7, .cls-8, .cls-9 {
        fill-rule: evenodd;
      }

      .cls-3 {
        fill: #fff;
      }

      .cls-4 {
        fill: #dcf4fd;
      }

      .cls-5 {
        fill: #6da128;
      }

      .cls-6 {
        fill: #85c231;
      }

      .cls-7 {
        fill: #a1e546;
      }

      .cls-8 {
        fill: #476321;
      }

      .cls-9 {
        fill: #8c6239;
      }

      .cls-10 {
        fill: #a67c52;
      }

      .cls-11 {
        fill: #476b17;
      }

      .cls-12 {
        fill: #bf8d60;
      }

      .cls-13 {
        fill: #946943;
      }

      .cls-14 {
        fill: #e3b07c;
      }

      .cls-15 {
        fill: #5d422a;
      }

      .cls-16 {
        fill: #795638;
      }

      .cls-17 {
        fill: #754c24;
      }

      .cls-18 {
        fill: #d29151;
      }

      .cls-19 {
        fill: #4e2f11;
      }

      .cls-20 {
        fill: #603913;
      }

      .cls-21 {
        fill: #005826;
      }

      .cls-22 {
        fill: #119a4c;
      }

      .cls-23 {
        fill: #f9b014;
      }

      .cls-24 {
        fill: #a57612;
      }

      .cls-25 {
        fill: #fee09f;
      }

      .cls-26 {
        fill: #986431;
      }

      .cls-27 {
        fill: #fff568;
      }

      .cls-28, .cls-29 {
        fill: #f7941d;
      }

      .cls-30 {
        fill: #b78116;
      }

      .cls-31 {
        fill: #5b2a0c;
      }

      .cls-32 {
        fill: #bc7547;
      }

      .cls-33 {
        fill: #a95727;
      }

      .cls-34 {
        fill: #794422;
      }

      .cls-35 {
        fill: #f18e3b;
      }

      .cls-36 {
        fill: #ffc92a;
      }

      .cls-37 {
        fill: #d05f26;
      }

      .cls-38 {
        fill: #f9ad81;
      }

      .cls-39 {
        fill: #c4733b;
      }

      .cls-40 {
        fill: #ced7d4;
      }

      .cls-41 {
        fill: #fefeff;
      }

      .cls-42 {
        fill: #343233;
      }

      .cls-43 {
        fill: #fba66f;
      }

      .cls-44 {
        fill: #fcbe95;
      }

      .cls-45 {
        fill: #b46a1e;
      }

      .cls-46 {
        fill: #754311;
      }

      .cls-47 {
        fill: #cc7924;
      }

      .cls-48 {
        fill: #dfc498;
      }

      .cls-49 {
        fill: #fcb831;
      }

      .cls-50 {
        fill: #ffcb3b;
      }

      .cls-51 {
        fill: #fb962e;
      }

      .cls-52 {
        fill: #be6536;
      }

      .cls-53 {
        fill: #f39d26;
      }

      .cls-54 {
        fill: #00682c;
      }

      .cls-55 {
        fill: #16b159;
      }

      .cls-56 {
        fill: #348046;
      }

      .cls-57 {
        fill: #20cf4a;
      }

      .cls-58 {
        fill: #3aee64;
      }
    </style>
  </defs>
  <g
     inkscape:groupmode="layer"
     id="objects"
     inkscape:label="objects">
    <g
       transform="matrix(0.99786344,-0.06533414,0.06533414,0.99786344,-617.65197,-219.62782)"
       id="Frame:CSDealerCounting"
       inkscape:label="#g298">
      <g
         id="g300">
        <path
           d="m 820.642,662.186 c -3.235,9.976 -13.462,14.037 -22.843,9.071 l -6.411,-3.394 0.475,0.58 c 7.247,8.835 5.957,21.87 -2.881,29.114 -8.838,7.244 -21.877,5.953 -29.124,-2.883 l -8.018,-9.776 -0.259,3.983 c -0.739,11.402 -10.584,20.044 -21.99,19.304 -11.405,-0.74 -20.051,-10.583 -19.312,-21.985 l 0.431,-6.633 -9.08,10.493 c -7.463,8.625 -20.398,9.427 -28.892,1.792 -8.494,-7.636 -9.33,-20.817 -1.867,-29.442 l 11.168,-12.906 -21.596,8.945 c -9.806,4.062 -22.318,0.18 -27.947,-8.671 -5.629,-8.851 -2.243,-19.318 7.563,-23.38 l 42.611,-17.65 14.672,23.07 5.959,-6.887 13.262,11.922 32.898,2.136 10.911,-8.943 2.172,2.647 6.208,-19.143 40.764,21.581 c 9.38,4.966 14.362,17.079 11.126,27.055 z"
           class="cls-31"
           id="path302"
           inkscape:connector-curvature="0"
           style="fill:#5b2a0c;fill-rule:evenodd" />
        <g
           id="g304">
          <g
             id="g306">
            <g
               id="g308">
              <path
                 d="m 751.737,622.551 -2.143,33.031 c 0,0 -1.882,10.089 9.522,13.057 37.739,9.822 39.259,-5.183 40.308,-13.969 1.048,-8.785 -18.24,-38.5 -18.24,-38.5 l -29.447,6.381 z"
                 class="cls-32"
                 id="path310"
                 inkscape:connector-curvature="0"
                 style="fill:#bc7547;fill-rule:evenodd" />
              <path
                 d="m 752.004,618.423 2.458,34.903 c 0,0 -1.524,8.172 7.713,10.576 30.569,7.955 31.8,-4.199 32.65,-11.315 0.849,-7.116 -17.504,-40.814 -17.504,-40.814 l -25.317,6.65 z"
                 class="cls-33"
                 id="path312"
                 inkscape:connector-curvature="0"
                 style="fill:#a95727;fill-rule:evenodd" />
            </g>
            <g
               id="g314">
              <path
                 d="m 776.224,650.34 c 9.552,-1.769 18.055,0.895 18.993,5.95 0.937,5.055 -6.046,10.588 -15.598,12.358 -9.552,1.769 -18.055,-0.895 -18.993,-5.95 -0.938,-5.055 6.046,-10.588 15.598,-12.358 z"
                 class="cls-34"
                 id="path316"
                 inkscape:connector-curvature="0"
                 style="fill:#794422;fill-rule:evenodd" />
              <path
                 d="m 855.294,720.49 c 10.265,0.666 18.226,6.752 17.782,13.593 -0.443,6.841 -9.124,11.846 -19.389,11.18 -10.264,-0.666 -18.226,-6.752 -17.782,-13.593 0.444,-6.841 9.125,-11.846 19.389,-11.18 z"
                 class="cls-35"
                 id="path318"
                 inkscape:connector-curvature="0"
                 style="fill:#f18e3b;fill-rule:evenodd" />
              <path
                 d="m 850.131,720.155 c 9.695,0.629 17.254,5.761 16.884,11.461 -0.37,5.701 -8.528,9.812 -18.223,9.183 -9.694,-0.629 -17.253,-5.761 -16.884,-11.461 0.37,-5.701 8.529,-9.812 18.223,-9.183 z"
                 class="cls-36"
                 id="path320"
                 inkscape:connector-curvature="0"
                 style="fill:#ffc92a;fill-rule:evenodd" />
              <path
                 d="m 840.839,719.552 c 10.264,0.666 18.225,6.752 17.781,13.592 -0.443,6.841 -9.124,11.847 -19.389,11.181 -10.264,-0.667 -18.226,-6.752 -17.782,-13.593 0.444,-6.841 9.125,-11.847 19.39,-11.18 z"
                 class="cls-35"
                 id="path322"
                 inkscape:connector-curvature="0"
                 style="fill:#f18e3b;fill-rule:evenodd" />
              <path
                 d="m 835.676,719.216 c 9.694,0.63 17.253,5.761 16.884,11.462 -0.37,5.701 -8.529,9.812 -18.224,9.183 -9.694,-0.629 -17.253,-5.761 -16.883,-11.462 0.37,-5.7 8.528,-9.812 18.223,-9.183 z"
                 class="cls-36"
                 id="path324"
                 inkscape:connector-curvature="0"
                 style="fill:#ffc92a;fill-rule:evenodd" />
              <path
                 d="m 767.778,662.982 c 0,0 6.383,-13.298 23.252,-6.784 0,0 3.322,20.308 1.719,37.428 -1.025,10.947 -1.825,21.781 -3.94,28.768 -0.234,0.775 76.32,-19.968 50.824,15.738 -10.286,14.404 -55.489,-7.748 -55.489,-7.748 l -14.858,5.255 c 0,0 -8.632,3.409 -7.724,-8.794 0.292,-3.925 2.466,-6.059 2.466,-6.059 0,0 2.83,0.183 6.196,0.402 2.771,0.18 6.195,0.402 6.195,0.402 0,0 0.315,-17.68 -1.988,-33.299 -1.995,-13.536 -6.653,-25.309 -6.653,-25.309 z"
                 class="cls-35"
                 id="path326"
                 inkscape:connector-curvature="0"
                 style="fill:#f18e3b;fill-rule:evenodd" />
              <path
                 d="m 773.839,665.448 c 0,0 12.083,-15.687 23.118,-4.719 l -5.949,59.735 37.44,-1.717 c -1.439,0.28 23.368,1.659 9.388,15.122 -7.546,7.266 -40.255,-4.501 -54.173,-7.508 -2.922,-0.631 -3.248,-2.439 -3.248,-2.439 0,0 1.159,-12.792 -0.458,-24.907 -2.408,-18.042 -6.118,-33.567 -6.118,-33.567 z"
                 class="cls-36"
                 id="path328"
                 inkscape:connector-curvature="0"
                 style="fill:#ffc92a;fill-rule:evenodd" />
              <path
                 d="m 863.231,741.805 c -2.823,-2.032 -3.567,-6.177 -1.661,-9.257 1.906,-3.079 5.739,-3.928 8.563,-1.895 2.823,2.032 8.477,14.164 8.477,14.164 0,0 -12.556,-0.979 -15.379,-3.012 z m -16.521,-1.072 c -2.823,-2.033 -3.567,-6.177 -1.661,-9.257 1.906,-3.08 5.74,-3.929 8.563,-1.896 2.823,2.033 8.477,14.165 8.477,14.165 0,0 -12.556,-0.979 -15.379,-3.012 z m -18.586,-1.206 c -2.823,-2.033 -3.567,-6.177 -1.661,-9.257 1.906,-3.08 5.74,-3.929 8.563,-1.896 2.824,2.033 8.477,14.165 8.477,14.165 0,0 -12.556,-0.979 -15.379,-3.012 z m -77.57,-2.957 c 0,0 7.163,-10.46 10.238,-11.978 3.073,-1.518 6.797,-0.257 8.315,2.816 1.519,3.074 0.258,6.795 -2.816,8.313 -3.074,1.518 -15.737,0.849 -15.737,0.849 z"
                 class="cls-37"
                 id="path330"
                 inkscape:connector-curvature="0"
                 style="fill:#d05f26;fill-rule:evenodd" />
              <path
                 d="m 866.321,738.242 c -1.55,-1.239 -1.944,-3.785 -0.879,-5.688 1.065,-1.902 3.185,-2.44 4.735,-1.201 1.55,1.239 4.62,8.678 4.62,8.678 0,0 -6.926,-0.55 -8.476,-1.789 z M 849.8,737.169 c -1.55,-1.238 -1.943,-3.785 -0.878,-5.687 1.064,-1.902 3.184,-2.44 4.734,-1.201 1.55,1.239 4.621,8.678 4.621,8.678 0,0 -6.927,-0.551 -8.477,-1.79 z m -18.586,-1.206 c -1.55,-1.239 -1.943,-3.785 -0.878,-5.687 1.064,-1.902 3.184,-2.44 4.734,-1.201 1.55,1.238 4.621,8.677 4.621,8.677 0,0 -6.927,-0.55 -8.477,-1.789 z m -76.254,-3.322 c 0,0 3.997,-6.463 5.7,-7.41 1.703,-0.946 3.753,-0.186 4.579,1.699 0.825,1.884 0.114,4.179 -1.589,5.125 -1.703,0.946 -8.69,0.586 -8.69,0.586 z"
                 class="cls-38"
                 id="path332"
                 inkscape:connector-curvature="0"
                 style="fill:#f9ad81;fill-rule:evenodd" />
            </g>
          </g>
          <g
             id="g334">
            <path
               d="m 686.693,644.529 c -9.244,-2.989 -18.02,-1.447 -19.602,3.445 -1.583,4.892 4.626,11.281 13.87,14.27 9.243,2.99 18.019,1.447 19.602,-3.444 1.583,-4.892 -4.627,-11.281 -13.87,-14.271 z"
               class="cls-34"
               id="path336"
               inkscape:connector-curvature="0"
               style="fill:#794422;fill-rule:evenodd" />
            <path
               d="m 599.223,703.87 c -10.265,-0.667 -18.946,4.339 -19.39,11.18 -0.443,6.841 7.518,12.926 17.783,13.593 10.264,0.666 18.945,-4.34 19.389,-11.181 0.444,-6.84 -7.518,-12.926 -17.782,-13.592 z"
               class="cls-35"
               id="path338"
               inkscape:connector-curvature="0"
               style="fill:#f18e3b;fill-rule:evenodd" />
            <path
               d="m 604.385,704.205 c -9.694,-0.63 -17.853,3.482 -18.222,9.182 -0.37,5.701 7.189,10.833 16.883,11.462 9.695,0.629 17.853,-3.482 18.223,-9.183 0.37,-5.701 -7.189,-10.832 -16.884,-11.461 z"
               class="cls-36"
               id="path340"
               inkscape:connector-curvature="0"
               style="fill:#ffc92a;fill-rule:evenodd" />
            <path
               d="m 613.678,704.808 c -10.265,-0.667 -18.945,4.339 -19.389,11.18 -0.444,6.841 7.517,12.927 17.782,13.593 10.265,0.666 18.946,-4.339 19.39,-11.18 0.443,-6.841 -7.518,-12.927 -17.783,-13.593 z"
               class="cls-35"
               id="path342"
               inkscape:connector-curvature="0"
               style="fill:#f18e3b;fill-rule:evenodd" />
            <path
               d="m 618.841,705.143 c -9.694,-0.629 -17.853,3.482 -18.223,9.183 -0.37,5.7 7.189,10.832 16.884,11.461 9.694,0.629 17.853,-3.482 18.223,-9.183 0.37,-5.7 -7.189,-10.832 -16.884,-11.461 z"
               class="cls-36"
               id="path344"
               inkscape:connector-curvature="0"
               style="fill:#ffc92a;fill-rule:evenodd" />
            <path
               d="m 693.435,658.157 c 0,0 -4.612,-14.012 -22.18,-9.733 0,0 -5.919,19.708 -6.541,36.892 -0.398,10.987 -1.004,21.834 0.19,29.036 0.132,0.799 -73.1,-29.666 -52.431,9.036 8.339,15.614 56.025,-0.51 56.025,-0.51 l 14.054,7.131 c 0,0 8.12,4.497 8.796,-7.721 0.218,-3.93 -1.663,-6.327 -1.663,-6.327 0,0 -2.829,-0.184 -6.195,-0.403 -2.771,-0.179 -6.196,-0.402 -6.196,-0.402 0,0 1.972,-17.572 6.273,-32.762 3.728,-13.165 9.868,-24.237 9.868,-24.237 z"
               class="cls-35"
               id="path346"
               inkscape:connector-curvature="0"
               style="fill:#f18e3b;fill-rule:evenodd" />
            <path
               d="m 687.105,659.819 c 0,0 -9.954,-17.118 -22.314,-7.668 l -1.818,60.003 -36.904,-6.542 c 1.391,0.463 -23.386,-1.376 -11.263,13.781 6.543,8.181 40.499,0.74 54.689,-0.442 2.979,-0.248 3.535,-1.998 3.535,-1.998 0,0 0.504,-12.836 3.672,-24.639 4.719,-17.58 10.403,-32.495 10.403,-32.495 z"
               class="cls-36"
               id="path348"
               inkscape:connector-curvature="0"
               style="fill:#ffc92a;fill-rule:evenodd" />
            <path
               d="m 685.512,730.479 c -2.852,-1.903 -3.622,-5.757 -1.719,-8.608 1.903,-2.851 5.758,-3.62 8.61,-1.718 2.852,1.903 8.605,13.201 8.605,13.201 0,0 -12.644,-0.973 -15.496,-2.875 z m -77.446,-3.221 c 0,0 7.174,-11.3 10.236,-12.951 3.062,-1.65 6.754,-0.313 8.246,2.987 1.492,3.301 0.219,7.314 -2.843,8.965 -3.062,1.651 -15.639,0.999 -15.639,0.999 z m -18.586,-1.207 c 0,0 7.174,-11.299 10.236,-12.95 3.062,-1.651 6.754,-0.313 8.246,2.987 1.492,3.3 0.22,7.314 -2.842,8.965 -3.063,1.65 -15.64,0.998 -15.64,0.998 z m -16.521,-1.072 c 0,0 7.174,-11.299 10.236,-12.95 3.063,-1.651 6.755,-0.314 8.247,2.987 1.492,3.3 0.219,7.314 -2.843,8.964 -3.063,1.651 -15.64,0.999 -15.64,0.999 z"
               class="cls-37"
               id="path350"
               inkscape:connector-curvature="0"
               style="fill:#d05f26;fill-rule:evenodd" />
            <path
               d="m 688.604,727.184 c -1.566,-1.159 -1.975,-3.526 -0.913,-5.287 1.062,-1.762 3.193,-2.251 4.76,-1.093 1.566,1.159 4.695,8.085 4.695,8.085 0,0 -6.975,-0.546 -8.542,-1.705 z m -76.139,-4.18 c 0,0 4.006,-6.98 5.703,-8.007 1.697,-1.029 3.73,-0.221 4.54,1.803 0.81,2.024 0.091,4.498 -1.607,5.526 -1.697,1.028 -8.636,0.678 -8.636,0.678 z m -18.586,-1.206 c 0,0 4.006,-6.98 5.703,-8.008 1.697,-1.028 3.73,-0.22 4.54,1.803 0.81,2.024 0.091,4.498 -1.606,5.526 -1.697,1.029 -8.637,0.679 -8.637,0.679 z m -16.521,-1.072 c 0,0 4.007,-6.98 5.704,-8.008 1.697,-1.028 3.729,-0.221 4.539,1.803 0.81,2.024 0.091,4.498 -1.606,5.526 -1.697,1.028 -8.637,0.679 -8.637,0.679 z"
               class="cls-38"
               id="path352"
               inkscape:connector-curvature="0"
               style="fill:#f9ad81;fill-rule:evenodd" />
          </g>
          <g
             id="g354">
            <path
               d="m 714.565,620.139 -2.143,33.03 c 0,0 0.563,10.248 -11.129,11.717 -38.692,4.861 -38.26,-10.215 -38.165,-19.062 0.095,-8.847 23.061,-35.819 23.061,-35.819 l 28.376,10.134 z"
               class="cls-32"
               id="path356"
               inkscape:connector-curvature="0"
               style="fill:#bc7547;fill-rule:evenodd" />
            <path
               d="m 714.833,616.01 -6.947,34.292 c 0,0 0.456,8.301 -9.014,9.491 -31.341,3.937 -30.992,-8.274 -30.914,-15.44 0.077,-7.167 22.629,-38.209 22.629,-38.209 l 24.246,9.866 z"
               class="cls-33"
               id="path358"
               inkscape:connector-curvature="0"
               style="fill:#a95727;fill-rule:evenodd" />
          </g>
        </g>
        <g
           id="g360">
          <path
             d="m 661,497 c 4.872,-10.151 170.752,-4.211 174,10 3.248,14.211 -5.9,23.479 -13.384,43.382 -4.665,12.406 14.584,32.817 10.925,60.829 -3.407,26.074 -51.956,48.456 -105.797,44.961 -53.841,-3.495 -92.172,-48.061 -90.575,-74.291 0.703,-11.547 13.69,-18.426 19.553,-33.974 7.44,-19.729 0.406,-40.756 5.278,-50.907 z"
             class="cls-33"
             id="path362"
             inkscape:connector-curvature="0"
             style="fill:#a95727;fill-rule:evenodd" />
          <path
             d="m 832.541,611.211 c -3.407,26.074 -51.956,48.456 -105.797,44.961 -53.841,-3.495 -92.172,-48.061 -90.575,-74.291 0.703,-11.547 13.69,-18.426 19.553,-33.974 7.169,-19.009 0.931,-39.194 4.822,-49.724 1.37,1.911 2.549,4.793 3.296,8.788 1.221,6.528 -0.789,28.774 -2.41,37.16 -5.372,27.79 -51.356,44.593 31.145,95.312 31.041,7.692 67.599,15.434 108.322,-7.481 30.475,-17.149 22.54,-34.246 20.136,-54.668 -0.844,-7.177 -4.184,-18.342 -2.255,-29.17 3.222,-18.084 11.906,-36.156 16.645,-38.76 1.783,12.926 -6.747,22.242 -13.807,41.018 -4.665,12.406 14.584,32.817 10.925,60.829 z"
             class="cls-32"
             id="path364"
             inkscape:connector-curvature="0"
             style="fill:#bc7547;fill-rule:evenodd" />
          <path
             d="m 680.305,476.943 c 0,0 -30.431,46.122 8.697,89.709 14.88,16.576 42.513,36.484 53.614,36.65 9.025,0.134 22.556,0.494 38.109,-12.039 25.131,-20.25 47.585,-49.729 46.067,-102.739 L 680.305,476.943 Z"
             class="cls-34"
             id="path366"
             inkscape:connector-curvature="0"
             style="fill:#794422;fill-rule:evenodd" />
        </g>
        <g
           id="g368">
          <g
             id="g370">
            <path
               d="m 757.503,309.885 c 51.339,3.074 83.692,52.521 80.105,107.818 -3.588,55.298 -48.101,97.425 -99.425,94.094 -51.323,-3.332 -90.075,-43.402 -86.389,-98.693 3.596,-53.929 54.387,-106.291 105.709,-103.219 z"
               class="cls-39"
               id="path372"
               inkscape:connector-curvature="0"
               style="fill:#c4733b;fill-rule:evenodd" />
            <path
               d="m 755.705,305.622 c 44.481,2.887 77.151,57.449 72.972,121.867 -4.178,64.419 -43.624,114.3 -88.104,111.413 -44.48,-2.887 -77.151,-57.449 -72.972,-121.867 4.178,-64.419 43.624,-114.3 88.104,-111.413 z"
               class="cls-34"
               id="path374"
               inkscape:connector-curvature="0"
               style="fill:#794422;fill-rule:evenodd" />
            <path
               d="m 778.343,307.235 c -9.45,8.609 -19.345,13.138 -22.101,10.114 -0.221,-0.242 -0.371,-0.54 -0.489,-0.862 -0.944,0.941 -1.926,1.452 -2.916,1.388 -0.821,-0.054 -1.587,-0.491 -2.29,-1.236 -4.323,-0.958 -11.075,-5.872 -17.339,-13.002 -8.437,-9.605 -11.538,-16.809 -11.538,-16.809 0,0 14.234,-2.569 22.671,7.035 0.608,0.693 1.188,1.386 1.753,2.08 0.014,-1.439 0.059,-2.906 0.156,-4.41 0.925,-14.252 14.065,-25.001 14.065,-25.001 0,0 3.381,11.822 2.456,26.073 -0.265,4.086 -0.827,7.914 -1.59,11.312 1.978,-2.493 4.399,-5.095 7.181,-7.63 9.449,-8.61 17.862,-13.561 17.862,-13.561 0,0 1.568,15.899 -7.881,24.509 z"
               class="cls-34"
               id="path376"
               inkscape:connector-curvature="0"
               style="fill:#794422;fill-rule:evenodd" />
          </g>
          <g
             id="g378">
            <path
               d="m 813.006,381.735 c 33.624,-6.708 65.779,12.379 71.82,42.631 6.041,30.252 -16.319,60.215 -49.943,66.922 -33.624,6.708 -65.778,-12.379 -71.82,-42.631 -6.041,-30.253 16.319,-60.215 49.943,-66.922 z"
               class="cls-40"
               id="path380"
               inkscape:connector-curvature="0"
               style="fill:#ced7d4;fill-rule:evenodd" />
            <path
               d="m 814.75,385.184 c 28.581,-5.702 55.912,10.522 61.047,36.236 5.136,25.715 -13.871,51.183 -42.451,56.884 -28.581,5.702 -55.913,-10.522 -61.048,-36.236 -5.134,-25.715 13.872,-51.183 42.452,-56.884 z"
               class="cls-41"
               id="path382"
               inkscape:connector-curvature="0"
               style="fill:#fefeff;fill-rule:evenodd" />
            <g
               id="g4634">
              <path
                 style="fill:#343233;fill-rule:evenodd"
                 inkscape:connector-curvature="0"
                 id="path384"
                 class="cls-42"
                 d="m 809.89,475.347 c -7.231,1.433 -14.324,0.46 -20.271,-2.321 2.868,-1.396 4.596,-4.312 4,-7.277 -0.724,-3.606 -4.581,-5.881 -8.614,-5.081 -2.635,0.522 -4.671,2.236 -5.579,4.362 -2.409,-3.046 -4.152,-6.605 -4.949,-10.572 -2.979,-14.824 8.047,-29.505 24.626,-32.792 16.579,-3.287 32.435,6.066 35.413,20.889 2.979,14.824 -8.047,29.505 -24.626,32.792 z" />
              <path
                 style="fill:#ffffff;fill-rule:evenodd"
                 inkscape:connector-curvature="0"
                 id="path386"
                 class="cls-3"
                 d="m 803.641,435.853 c 7.618,-1.51 14.902,2.787 16.271,9.597 1.369,6.811 -3.697,13.557 -11.315,15.067 -7.617,1.51 -14.902,-2.787 -16.27,-9.598 -1.369,-6.811 3.697,-13.556 11.314,-15.066 z" />
            </g>
            <path
               d="m 884.751,424.036 c -10.429,-7.223 -34.719,-22.795 -60.876,-31.381 -8.31,-2.728 -16.766,-4.859 -24.866,-6.532 4.391,-1.91 9.069,-3.405 13.997,-4.388 33.501,-6.683 65.535,12.242 71.745,42.301 z"
               class="cls-43"
               id="path388"
               inkscape:connector-curvature="0"
               style="fill:#fba66f;fill-rule:evenodd" />
            <path
               d="m 873.305,416.198 c -8.982,-5.786 -19.191,-11.588 -29.844,-16.184 -12.956,-5.59 -26.44,-9.681 -38.268,-12.618 11.979,-4.771 26.641,-4.651 40.425,1.492 13.066,5.822 22.746,15.899 27.687,27.31 z"
               class="cls-44"
               id="path390"
               inkscape:connector-curvature="0"
               style="fill:#fcbe95;fill-rule:evenodd" />
          </g>
          <g
             id="g392">
            <path
               d="m 699.377,374.36 c 32.475,10.997 50.777,43.598 40.878,72.817 -9.898,29.217 -44.25,43.988 -76.725,32.99 -32.476,-10.998 -50.778,-43.6 -40.879,-72.817 9.899,-29.218 44.251,-43.988 76.726,-32.99 z"
               class="cls-40"
               id="path394"
               inkscape:connector-curvature="0"
               style="fill:#ced7d4;fill-rule:evenodd" />
            <path
               d="m 695.242,376.891 c 27.604,9.348 43.16,37.059 34.746,61.894 -8.413,24.835 -37.612,37.39 -65.216,28.042 -27.604,-9.348 -43.161,-37.059 -34.747,-61.895 8.414,-24.835 37.613,-37.389 65.217,-28.041 z"
               class="cls-41"
               id="path396"
               inkscape:connector-curvature="0"
               style="fill:#fefeff;fill-rule:evenodd" />
            <g
               id="g4638">
              <path
                 style="fill:#343233;fill-rule:evenodd"
                 inkscape:connector-curvature="0"
                 id="path398"
                 class="cls-42"
                 d="m 705.389,414.812 c 16.104,5.444 25.179,21.581 20.271,36.044 -4.909,14.462 -21.943,21.773 -38.046,16.329 -16.104,-5.444 -25.18,-21.581 -20.271,-36.043 4.909,-14.463 21.942,-21.774 38.046,-16.33 z" />
              <path
                 style="fill:#ffffff;fill-rule:evenodd"
                 inkscape:connector-curvature="0"
                 id="path400"
                 class="cls-3"
                 d="m 722.373,445.011 c -2.256,6.645 -10.082,10.004 -17.481,7.502 -7.399,-2.501 -11.569,-9.915 -9.313,-16.56 2.255,-6.645 10.081,-10.004 17.48,-7.503 7.399,2.501 11.569,9.916 9.314,16.561 z m -46.505,2.425 c -4.352,-1.471 -6.805,-5.833 -5.478,-9.742 1.327,-3.909 5.93,-5.884 10.283,-4.413 4.352,1.471 6.805,5.832 5.478,9.741 -1.327,3.909 -5.93,5.885 -10.283,4.414 z" />
            </g>
            <path
               d="m 622.651,407.35 c 9.899,-29.218 44.251,-43.988 76.726,-32.99 6.982,2.364 13.304,5.732 18.836,9.845 -10.528,0.46 -22.018,1.6 -33.186,3.94 -26.434,5.539 -51.291,16.679 -63.386,22.618 0.3,-1.141 0.627,-2.28 1.01,-3.413 z"
               class="cls-43"
               id="path402"
               inkscape:connector-curvature="0"
               style="fill:#fba66f;fill-rule:evenodd" />
            <path
               d="m 673.487,389.698 c -17.062,4.528 -33.272,11.526 -45.329,17.458 5.072,-14.386 18.722,-26.709 36.884,-31.314 16.97,-4.302 33.78,-0.824 45.273,7.964 -11.387,0.86 -24.367,2.585 -36.828,5.892 z"
               class="cls-44"
               id="path404"
               inkscape:connector-curvature="0"
               style="fill:#fcbe95;fill-rule:evenodd" />
          </g>
          <g
             id="g406">
            <path
               d="m 750.88,491.889 c 26.803,1.74 78.837,15.483 78.837,15.483 0,0 -43.454,86.324 -86.297,83.543 -38.54,-2.501 -81.109,-92.335 -81.109,-92.335 0,0 61.767,-8.43 88.569,-6.691 z"
               class="cls-45"
               id="path408"
               inkscape:connector-curvature="0"
               style="fill:#b46a1e;fill-rule:evenodd" />
            <path
               d="m 743.811,505.942 c 26.792,1.739 69.736,-4.494 68.886,8.618 -0.851,13.111 -40.523,47.259 -67.356,46.357 -26.265,-0.883 -65.643,-39.594 -64.892,-52.868 0.742,-13.118 36.571,-3.846 63.362,-2.107 z"
               class="cls-46"
               id="path410"
               inkscape:connector-curvature="0"
               style="fill:#754311;fill-rule:evenodd" />
            <path
               d="m 744.893,568.206 c 28.073,1.822 42.646,-18.041 42.239,-11.77 -0.406,6.271 -28.834,31.298 -41.379,30.484 -12.546,-0.814 -39.834,-25.312 -39.427,-31.582 0.407,-6.271 15.717,11.385 38.567,12.868 z"
               class="cls-47"
               id="path412"
               inkscape:connector-curvature="0"
               style="fill:#cc7924;fill-rule:evenodd" />
          </g>
          <g
             id="g420">
            <path
               d="m 752.399,420.527 c 4.4,0.285 22.682,20.694 47.63,33.009 23.552,11.626 55.281,10.96 54.066,29.687 -1.342,20.691 -39.527,34.207 -67.4,47.982 -24.076,11.899 -38.116,25.574 -42.081,25.317 -4.855,-0.315 -33.08,-20.331 -60.569,-41.329 -20.944,-15.998 -43.615,-30.961 -42.533,-47.637 1.175,-18.113 30.389,-12.719 55.262,-20.722 28.085,-9.036 51.089,-26.602 55.625,-26.307 z"
               class="cls-49"
               id="path422"
               inkscape:connector-curvature="0"
               style="fill:#fcb831;fill-rule:evenodd" />
            <path
               d="m 786.695,531.205 c -24.076,11.899 -38.116,25.574 -42.081,25.317 -0.851,-0.055 -2.432,-0.727 -4.588,-1.891 2.268,-12.131 11.995,-27.223 39.617,-42.583 53.001,-29.472 -20.769,-69.513 -30.611,-90.479 1.528,-0.706 2.668,-1.088 3.367,-1.042 4.4,0.285 22.682,20.694 47.63,33.009 23.552,11.626 55.281,10.96 54.066,29.687 -1.342,20.691 -39.527,34.207 -67.4,47.982 z"
               class="cls-50"
               id="path424"
               inkscape:connector-curvature="0"
               style="fill:#ffcb3b;fill-rule:evenodd" />
            <path
               d="m 854.095,483.223 c -1.342,20.691 -39.527,34.207 -67.4,47.982 -24.076,11.899 -38.116,25.574 -42.081,25.317 -4.855,-0.315 -33.08,-20.331 -60.569,-41.329 -20.944,-15.998 -43.615,-30.961 -42.533,-47.637 1.175,-18.113 30.389,-12.719 55.262,-20.722 28.085,-9.036 51.089,-26.602 55.625,-26.307 4.4,0.285 22.682,20.694 47.63,33.009 23.552,11.626 55.281,10.96 54.066,29.687 z M 785.452,454.46 c -11.645,-8.133 -21.19,-23.814 -35.722,-24.757 -20.871,-1.355 -36.222,17.97 -57.569,24.311 -20.65,6.134 -43.503,-0.72 -44.454,13.944 -0.763,11.759 21.385,26.188 38.886,39.921 26.883,21.096 54.81,30.55 60.261,30.089 9.002,-0.761 21.585,-3.313 40.324,-14.211 21.508,-12.508 61.753,-24.865 62.787,-40.802 1.25,-19.267 -43.256,-13.651 -64.513,-28.495 z"
               class="cls-51"
               id="path426"
               inkscape:connector-curvature="0"
               style="fill:#fb962e;fill-rule:evenodd" />
          </g>
          <g
             id="g428">
            <g
               id="g430">
              <path
                 d="m 779.468,466.794 c 5.132,0.334 8.993,5.225 8.623,10.926 -0.37,5.7 -4.83,10.052 -9.963,9.718 -5.132,-0.333 -8.993,-5.224 -8.623,-10.925 0.37,-5.7 4.83,-10.052 9.963,-9.719 z"
                 class="cls-52"
                 id="path432"
                 inkscape:connector-curvature="0"
                 style="fill:#be6536;fill-rule:evenodd" />
              <path
                 d="m 779.2,470.923 c 4.714,0.228 5.402,1.022 4.761,6.529 -0.758,6.515 0.466,8.322 -4.666,7.989 -5.132,-0.333 -6.163,-0.894 -5.794,-6.595 0.37,-5.701 0.562,-8.171 5.699,-7.923 z"
                 class="cls-53"
                 id="path434"
                 inkscape:connector-curvature="0"
                 style="fill:#f39d26;fill-rule:evenodd" />
            </g>
            <g
               id="g436">
              <path
                 d="m 717.515,462.773 c 5.133,0.334 8.993,5.225 8.623,10.926 -0.37,5.7 -4.83,10.051 -9.962,9.718 -5.133,-0.333 -8.993,-5.224 -8.624,-10.925 0.37,-5.7 4.83,-10.052 9.963,-9.719 z"
                 class="cls-52"
                 id="path438"
                 inkscape:connector-curvature="0"
                 style="fill:#be6536;fill-rule:evenodd" />
              <path
                 d="m 717.247,466.902 c 4.714,0.228 5.402,1.022 4.761,6.529 -0.758,6.515 0.467,8.322 -4.666,7.989 -5.132,-0.333 -6.163,-0.894 -5.793,-6.595 0.37,-5.701 0.561,-8.171 5.698,-7.923 z"
                 class="cls-53"
                 id="path440"
                 inkscape:connector-curvature="0"
                 style="fill:#f39d26;fill-rule:evenodd" />
            </g>
          </g>
        </g>
      </g>
    </g>
    <g
       id="Frame:CSLeaves3"
       inkscape:label="#g4518"
       transform="translate(563.6752,-432.25047)">
      <path
         id="path466"
         d="m 453.05811,539.00413 c 0,0 50.088,13.109 35,43 -14.588,28.902 -54,5 -54,5 0,0 39.991,46.557 26,64 -16.753,20.887 -55,-9 -55,-9 0,0 -0.336,53.781 -13,64 -14.663,11.832 -22,-14.871 -22,-14.871 l 0,-207.129 c 0,0 18.206,-44.026 35,-33 8.563,5.622 19,53 19,53 0,0 27.258,-30.742 37,-21 12.428,12.428 -8,56 -8,56 z"
         style="fill:#348046;fill-rule:evenodd"
         inkscape:connector-curvature="0" />
      <path
         id="path4458"
         d="m 361.94311,540.50713 c -4.422,-1.045 -7.281,-2.224 -7.281,-2.224 0,0 4.224,-13.36 14.413,-22.397 0.031,-3.78 0.575,-7.695 1.952,-11.498 1.196,-3.304 2.93,-6.27 4.934,-8.91 -1.539,-4.786 -2.435,-10.16 -1.751,-15.682 2.178,-17.598 19.487,-29.939 19.487,-29.939 0,0 0.893,1.052 2.187,2.904 5.807,-9.19 13.813,-14.904 13.813,-14.904 0,0 13.776,16.189 11.598,33.787 -0.025,0.202 -0.062,0.399 -0.091,0.6 2.105,-1.136 3.476,-1.715 3.476,-1.715 0,0 9.834,18.846 3.8,35.519 -3.22,8.895 -10.305,15.374 -16.216,19.483 -0.405,3.82 -1.251,8.4 -2.947,12.968 4.283,-5.608 10.736,-12.005 19.294,-14.843 16.844,-5.588 35.443,4.731 35.443,4.731 0,0 -5.661,12.581 -16.673,20.391 0.845,0.114 1.691,0.253 2.538,0.44 17.327,3.834 28.011,22.226 28.011,22.226 0,0 -17.41,12.176 -34.737,8.342 -2.558,-0.566 -4.968,-1.455 -7.224,-2.55 9.881,13.891 6.686,33.687 6.686,33.687 0,0 -15.734,-1.183 -27.116,-10.411 6.712,13.342 4.116,29.411 4.116,29.411 0,0 -17.629,-1.321 -29.065,-12.112 0.003,2.6 -0.268,5.253 -0.919,7.896 -4.243,17.216 -22.889,27.426 -22.889,27.426 0,0 -11.767,-17.705 -7.524,-34.921 3.274,-13.287 15.12,-22.394 20.36,-25.862 -0.059,-0.692 -0.119,-1.385 -0.152,-2.042 -0.305,0.008 -0.477,0.008 -0.477,0.008 0,0 -0.938,-11.327 3.254,-22.512 -2.461,0.673 -5.041,1.107 -7.711,1.185 -17.678,0.519 -32.488,-14.547 -32.488,-14.547 0,0 8.14,-9.337 19.899,-13.935 z"
         style="fill:#20cf4a;fill-rule:evenodd"
         inkscape:connector-curvature="0" />
      <path
         id="path4456"
         d="m 421.05811,565.45113 c -0.43,-0.489 -0.835,-0.967 -1.22,-1.432 -0.087,0.26 -0.174,0.52 -0.266,0.781 0.494,0.208 0.989,0.422 1.486,0.651 z"
         style="fill:#20cf4a;fill-rule:evenodd"
         inkscape:connector-curvature="0" />
      <path
         id="path4452"
         d="m 462.26811,503.33313 c -12.021,13.034 -33.279,12.983 -33.279,12.983 0,0 -1.767,-21.184 10.254,-34.219 12.022,-13.034 33.279,-12.983 33.279,-12.983 0,0 1.768,21.185 -10.254,34.219 z"
         style="fill:#20cf4a;fill-rule:evenodd"
         inkscape:connector-curvature="0" />
      <path
         id="path4450"
         d="m 457.87711,543.11513 c 0,0 10.856,-10.965 23.657,-10.474 12.802,0.49 22.702,12.25 22.702,12.25 0,0 -10.856,10.965 -23.657,10.474 -12.802,-0.49 -22.702,-12.25 -22.702,-12.25 z"
         style="fill:#20cf4a;fill-rule:evenodd"
         inkscape:connector-curvature="0" />
      <path
         id="path4344"
         d="m 415.04111,507.33613 c 1.414,-1.372 2.97,-2.644 4.686,-3.758 14.103,-9.156 33.504,-4.308 33.504,-4.308 0,0 -3.467,19.694 -17.571,28.851 -14.104,9.156 -33.504,4.308 -33.504,4.308 0,0 0.115,-0.646 0.381,-1.746 -8.001,8.612 -16.706,13.354 -16.706,13.354 0,0 -14.172,-22.168 -8.657,-43.595 5.515,-21.427 28.629,-33.999 28.629,-33.999 0,0 12.994,20.345 9.238,40.893 z"
         style="fill:#3aee64;fill-rule:evenodd"
         inkscape:connector-curvature="0" />
      <path
         id="path4342"
         d="m 433.93711,542.23613 c 16.793,-0.869 31.162,13.038 31.162,13.038 0,0 -12.857,15.315 -29.65,16.184 -16.793,0.868 -31.163,-13.039 -31.163,-13.039 0,0 12.858,-15.315 29.651,-16.183 z"
         style="fill:#3aee64;fill-rule:evenodd"
         inkscape:connector-curvature="0" />
    </g>
    <g
       id="Frame:CSLeaves1"
       inkscape:label="#g4496"
       transform="translate(-40,0)">
      <path
         id="path4492"
         d="m 577.05811,219.00413 c 0,0 28.363,35.929 17,38 -75.876,13.83 -67,-50 -67,-50 l -30,27 c 0,0 21.577,27.446 9,49 -7.417,12.71 -34,-3 -34,-3 0,0 17.407,16.803 10,21 -7.591,4.302 -40,-4 -40,-4 0,0 8.324,27.844 0,39 -15.142,20.295 -34,-32 -34,-32 0,0 -22.231,113.253 -38,59.055 l 0,-336.054999 155,0 c 0.498,18.454 8,26 8,26 0,0 28.3,-12.897 35,1 6.799,14.102 -11,50.999999 -11,50.999999 0,0 109.609,-21.566999 109,27 -0.433,34.513 -85,45 -85,45 0,0 78.462,2.994 65,35 -11.676,27.76 -69,7 -69,7 z"
         style="fill:#348046;fill-rule:evenodd"
         inkscape:connector-curvature="0" />
      <path
         id="path4480"
         d="m 662.62411,173.59013 c -17.635,1.848 -33.563,-12.231 -33.563,-12.231 0,0 12.665,-17.074 30.3,-18.921 17.635,-1.847 33.563,12.232 33.563,12.232 0,0 -12.665,17.074 -30.3,18.92 z"
         style="fill:#20cf4a;fill-rule:evenodd"
         inkscape:connector-curvature="0" />
      <path
         id="path4478"
         d="m 617.62411,123.59013 c -17.635,1.848 -33.563,-12.231 -33.563,-12.231 0,0 12.665,-17.073999 30.3,-18.920999 17.635,-1.847 33.563,12.231999 33.563,12.231999 0,0 -12.665,17.074 -30.3,18.92 z"
         style="fill:#20cf4a;fill-rule:evenodd"
         inkscape:connector-curvature="0" />
      <path
         id="path4476"
         d="m 582.02211,107.01013 c -5.503,2.765 -11.49,3.657 -16.964,3.648 0.179,1.138 0.311,2.273 0.412,3.401 2.76,0.044 5.562,0.333 8.363,0.961 22.095,4.953 35.633,28.483 35.633,28.483 0,0 -22.286,15.501 -44.382,10.549 -8.682,-1.946 -16.035,-6.762 -21.772,-11.89 -1.173,4.574 -2.337,7.44 -2.337,7.44 0,0 -4.148,-1.292 -9.74,-4.145 4.53,12.365 2.42,25.466 2.42,25.466 0,0 -17.404,-1.299 -28.845,-11.898 -0.429,1.521 -0.833,2.778 -1.153,3.71 3.521,5.616 6.741,12.93 6.762,20.944 0.046,17.731 -15.577,32.147 -15.577,32.147 0,0 -15.699,-14.334 -15.746,-32.065 -0.001,-0.587 0.056,-1.159 0.088,-1.738 -7.289,-4.589 -15.307,-11.423 -19.807,-20.948 -0.466,-0.987 -0.873,-1.987 -1.25,-2.992 -1.754,-1.52 -3.459,-3.182 -5.058,-4.989 -1.086,4.03 -2.094,6.508 -2.094,6.508 0,0 -14.869,-4.626 -26.288,-15.763 -1.683,1.912 -2.845,2.987 -2.845,2.987 0,0 -0.258,-0.236 -0.703,-0.68 1.27,1.825 2.424,3.766 3.404,5.841 9.673,20.474 -0.568,45.615 -0.568,45.615 0,0 -25.925,-8.054 -35.598,-28.527 -0.31,-0.656 -0.597,-1.316 -0.867,-1.98 -5.592,-2.04 -25.835,-10.457 -34.133,-28.02 -9.673,-20.474 0.569,-45.614999 0.569,-45.614999 0,0 6.581,2.048 14.348,6.693999 0.288,-6.522999 1.516,-12.380999 2.646,-16.505999 -5.982,-10.362 -5.803,-22.946 -5.365,-28.398 -5.939,-4.351 -9.517,-8.246 -9.517,-8.246 0,0 18.356,-20 41,-20 13.841,0 26.07,7.469 33.494,13.279 5.314,-4.426 16.497,-12.198 29.206,-11.88 15.52,0.388 28.166,12.714 31.074,15.776 2.383,-0.846 4.899,-1.465 7.529,-1.741 12.801,-1.34 24.695,5.707 30.258,9.673 2.164,-1.955 4.599,-3.712 7.341,-5.09 15.844,-7.96 35.719,-0.419 35.719,-0.419 0,0 -5.813,20.448 -21.657,28.408 -2.767,1.39 -5.657,2.3 -8.543,2.867 4.729,2.95 9.782,6.855 14.002,11.825 3.185,-4.128 7.291,-8.074 12.479,-10.681 15.844,-7.96 35.719,-0.419 35.719,-0.419 0,0 -5.813,20.448 -21.657,28.407999 z"
         style="fill:#20cf4a;fill-rule:evenodd"
         inkscape:connector-curvature="0" />
      <path
         id="path4474"
         d="m 398.66211,66.949131 c -0.483,0.02 -0.963,0.05 -1.45,0.052 0.288,0.333 0.573,0.668 0.848,1.016 0.334,0.423 0.653,0.852 0.96,1.287 -0.139,-0.786 -0.259,-1.571 -0.358,-2.355 z"
         style="fill:#20cf4a;fill-rule:evenodd"
         inkscape:connector-curvature="0" />
      <path
         id="path4472"
         d="m 405.29511,85.204131 c 1.224,6.94 0.857,13.147 0.567,16.020999 0.679,1.042 1.319,2.118 1.909,3.237 1.247,-3.939 3.043,-7.548999 4.955,-10.638999 -2.714,-2.513 -5.268,-5.376 -7.431,-8.619 z"
         style="fill:#20cf4a;fill-rule:evenodd"
         inkscape:connector-curvature="0" />
      <path
         id="path4470"
         d="m 412.15311,134.54813 c -0.074,0.58 -0.153,1.151 -0.237,1.712 1.139,0.949 2.266,1.937 3.357,3.003 -1.034,-1.411 -2.098,-2.994 -3.12,-4.715 z"
         style="fill:#20cf4a;fill-rule:evenodd"
         inkscape:connector-curvature="0" />
      <path
         id="path4468"
         d="m 443.39811,102.39013 c 0.495,0.514 0.98,1.042 1.457,1.582 0.125,-0.467 0.251,-0.929 0.373,-1.352 -0.618,-0.051 -1.223,-0.143 -1.83,-0.23 z"
         style="fill:#20cf4a;fill-rule:evenodd"
         inkscape:connector-curvature="0" />
      <path
         id="path4466"
         d="m 456.51511,101.52013 c 2.304,1.168 4.863,2.615 7.481,4.339 0.288,-1.931 0.634,-3.739 1.001,-5.394 -0.599,-0.493999 -1.171,-0.974999 -1.687,-1.423999 -2.128,0.974999 -4.403,1.836999 -6.795,2.478999 z"
         style="fill:#20cf4a;fill-rule:evenodd"
         inkscape:connector-curvature="0" />
      <path
         id="path4464"
         d="m 517.29311,67.873131 c -4.485,2.798 -9.799,5.103 -15.669,5.717 -17.635,1.848 -33.563,-12.231 -33.563,-12.231 0,0 1.123,-1.509 3.152,-3.671 -2.182,0.752 -4.48,1.338 -6.857,1.686 3.95,6.619 5.324,14.202 5.683,20.279 1.597,1.126 3.036,2.251 4.268,3.291 7.039,-4.226 15.995,-7.94 25.751,-7.94 8.425,0 16.255,2.77 22.768,6.248 0.26,-1.23 0.532,-2.379 0.805,-3.437 -5.561,-0.957 -9.329,-2.386 -9.329,-2.386 0,0 0.914,-3.2 2.991,-7.556 z"
         style="fill:#20cf4a;fill-rule:evenodd"
         inkscape:connector-curvature="0" />
      <path
         id="path4462"
         d="m 495.08411,41.052131 c -22.095,-4.953 -35.633,-28.483 -35.633,-28.483 0,0 22.286,-15.501 44.382,-10.549 22.095,4.953 35.633,28.483 35.633,28.483 0,0 -22.286,15.501 -44.382,10.549 z"
         style="fill:#20cf4a;fill-rule:evenodd"
         inkscape:connector-curvature="0" />
      <path
         id="path4460"
         d="m 379.75011,225.44713 c -9.877,-14.725 -4.879,-35.387 -4.879,-35.387 0,0 21.014,3.212 30.892,17.938 9.877,14.725 4.879,35.387 4.879,35.387 0,0 -21.014,-3.213 -30.892,-17.938 z"
         style="fill:#20cf4a;fill-rule:evenodd"
         inkscape:connector-curvature="0" />
      <path
         id="path4454"
         d="m 427.75011,268.44713 c -9.878,-14.725 -4.879,-35.387 -4.879,-35.387 0,0 21.014,3.212 30.892,17.938 9.877,14.725 4.879,35.387 4.879,35.387 0,0 -21.014,-3.213 -30.892,-17.938 z"
         style="fill:#20cf4a;fill-rule:evenodd"
         inkscape:connector-curvature="0" />
      <path
         id="path4448"
         d="m 570.06011,180.01713 c 10.985,13.92 7.595,34.906 7.595,34.906 0,0 -21.199,-1.582 -32.183,-15.502 -10.985,-13.919 -7.595,-34.905 -7.595,-34.905 0,0 21.199,1.582 32.183,15.501 z"
         style="fill:#20cf4a;fill-rule:evenodd"
         inkscape:connector-curvature="0" />
      <path
         id="path4446"
         d="m 608.75811,165.40313 c 17.726,0.444 31.704,16.46 31.704,16.46 0,0 -14.762,15.297 -32.488,14.853 -17.726,-0.443 -31.704,-16.459 -31.704,-16.459 0,0 14.762,-15.297 32.488,-14.854 z"
         style="fill:#20cf4a;fill-rule:evenodd"
         inkscape:connector-curvature="0" />
      <path
         id="path4350"
         d="m 594.86911,98.001131 c -21.26,0.358 -38.806,-17.85 -38.806,-17.85 0,0 16.924,-18.787 38.184,-19.144 21.26,-0.358 38.806,17.85 38.806,17.85 0,0 -16.924,18.787 -38.184,19.144 z"
         style="fill:#3aee64;fill-rule:evenodd"
         inkscape:connector-curvature="0" />
      <path
         id="path4348"
         d="m 535.23411,72.251131 c 19.83,7.673 29.229,31.146999 29.229,31.146999 0,0 -22.751,11.033 -42.582,3.359 -9.328,-3.61 -16.347,-10.715999 -21.166,-17.230999 -4.771,0.841 -10.176,1.257 -15.689,0.649 3.715,10.830999 3.73,20.542999 3.73,20.542999 0,0 -25.221,1.813 -40.794,-12.664999 -15.573,-14.477 -15.602,-39.763 -15.602,-39.763 0,0 6.258,-0.448 14.463,0.889 -0.779,-1.597 -1.17,-2.569 -1.17,-2.569 0,0 8.109,-3.93 18.862,-5.467 -2.834,-2.318 -4.452,-3.992 -4.452,-3.992 0,0 16.924,-18.787 38.184,-19.144 21.26,-0.358 38.806,17.85 38.806,17.85 0,0 -14.07,15.609 -32.665,18.638 1.875,1.974 3.548,4.007 5.013,5.987 7.699,-1.357 17.051,-1.63 25.833,1.769 z"
         style="fill:#3aee64;fill-rule:evenodd"
         inkscape:connector-curvature="0" />
      <path
         id="path4346"
         d="m 437.24211,137.61113 c 0,0 -25.104,-3.027 -37.632,-20.207 -12.528,-17.18 -7.736,-42.007999 -7.736,-42.007999 0,0 25.104,3.028 37.632,20.208 12.528,17.179999 7.736,42.006999 7.736,42.006999 z"
         style="fill:#3aee64;fill-rule:evenodd"
         inkscape:connector-curvature="0" />
      <path
         id="path4340"
         d="m 562.94111,126.92113 c 16.761,13.083 18.966,38.272 18.966,38.272 0,0 -24.971,3.978 -41.732,-9.106 -16.762,-13.083 -18.966,-38.272 -18.966,-38.272 0,0 24.971,-3.978 41.732,9.106 z"
         style="fill:#3aee64;fill-rule:evenodd"
         inkscape:connector-curvature="0" />
      <path
         id="path4338"
         d="m 554.60111,114.06213 c 0,0 20.089,-15.354999 41.052,-11.797 20.964,3.558 34.862,24.681 34.862,24.681 0,0 -20.089,15.355 -41.053,11.797 -20.963,-3.558 -34.861,-24.681 -34.861,-24.681 z"
         style="fill:#3aee64;fill-rule:evenodd"
         inkscape:connector-curvature="0" />
    </g>
    <g
       id="Frame:CSLeaves2"
       inkscape:label="#g4527"
       transform="translate(-523.06774,-2.0389173)">
      <path
         id="path4494"
         d="m 1229.0581,27.004131 165,0 0,245.665999 c -1.091,0.104 -14,-5.666 -14,-5.666 0,0 -6.05,30.438 -25,22 -13.671,-6.087 -15,-37 -15,-37 0,0 -34.105,37.7 -55,14 -26.585,-30.154 45,-64 45,-64 0,0 -21.351,2.505 -38,-3 -14.128,-4.672 -24.672,-16.726 -18,-24 33.243,-36.241 74,4 74,4 l 22,-38 c 0,0 -26.415,37.091 -31,22 -2.506,-8.246 6,-37 6,-37 l -52,11 c 0,0 -4.253,32.287 -27,26 -23.5,-6.495 -8,-62 -8,-62 0,0 -40.648,47.653 -54,27 -16.116,-24.929 35,-52.999999 35,-52.999999 0,0 -43.089,13.327 -47,-11 -4.601,-28.613 37.373,-30.106 37,-37 z"
         style="fill:#348046;fill-rule:evenodd"
         inkscape:connector-curvature="0" />
      <path
         id="path4488"
         d="m 1428.4031,36.066131 c 0,0 -5.428,20.553 -21.12,28.81 -13.132,6.91 -29.284,3.019 -34.206,1.565 0.247,0.265 0.385,0.422 0.385,0.422 0,0 -14.762,15.297 -32.488,14.853 -10.449,-0.261 -19.592,-5.933 -25.341,-10.547 -2.011,2.535 -4.371,4.966 -7.129,7.029 9.869,0.012 17.899,2.868 17.899,2.868 0,0 -5.428,20.552999 -21.12,28.809999 -15.691,8.256 -35.705,1.09 -35.705,1.09 0,0 0.402,-1.513 1.293,-3.872 -13.272,2.53 -26.293,-2.128 -26.293,-2.128 0,0 1.962,-7.414999 6.926,-15.125999 -6.257,-0.005 -11.78,-1.15 -14.984,-1.997 -3.244,6.47 -8.73,14.556999 -17.237,19.032999 -15.691,8.256 -35.705,1.09 -35.705,1.09 0,0 5.428,-20.552999 21.12,-28.809999 12.048,-6.34 26.634,-3.588 32.763,-1.968 2.491,-4.966 6.301,-10.883 11.786,-15.391 -0.862,-0.037 -1.701,-0.097 -2.52,-0.17 -0.149,0.081 -0.293,0.169 -0.444,0.249 -7.254,3.817 -15.428,4.335 -22.125,3.792 -3.757,1.952 -7.979,3.445 -12.534,3.922 -17.635,1.848 -33.563,-12.231 -33.563,-12.231 0,0 12.665,-17.074 30.3,-18.921 0.305,-0.032 0.606,-0.038 0.91,-0.06 -8.489,-4.809 -14.001,-11.121 -14.001,-11.121 0,0 14.762,-15.297 32.488,-14.854 15.774,0.395 28.571,13.113 31.2,15.91 8.866,-3.106 18.372,-2.227 24.583,-1.019 3.213,-4.618 7.519,-9.172 13.157,-12.138 15.692,-8.257 35.705,-1.09 35.705,-1.09 0,0 -1.833,6.922 -6.434,14.345 6.741,-1.697 13.593,-1.375 18.883,-0.582 5.159,-2.585 11.327,-4.59 17.906,-4.426 5.299,0.133 10.258,1.661 14.614,3.733 3.114,-4.211 7.161,-8.262 12.326,-10.98 15.692,-8.257 35.705,-1.09 35.705,-1.09 0,0 -2.557,9.68 -9.234,18.423 7.102,0.742 12.234,2.577 12.234,2.577 z"
         style="fill:#20cf4a;fill-rule:evenodd"
         inkscape:connector-curvature="0" />
      <path
         id="path4486"
         d="m 1274.7341,54.235131 c 0.733,0.032 1.446,0.082 2.148,0.14 0.698,-1.47 1.518,-3.045 2.47,-4.662 -1.388,1.595 -2.921,3.127 -4.618,4.522 z"
         style="fill:#20cf4a;fill-rule:evenodd"
         inkscape:connector-curvature="0" />
      <path
         id="path4484"
         d="m 1344.4141,49.445131 c -0.287,0.357 -0.583,0.71 -0.884,1.061 1.404,0.12 2.782,0.329 4.128,0.618 -1.125,-0.526 -2.202,-1.093 -3.244,-1.679 z"
         style="fill:#20cf4a;fill-rule:evenodd"
         inkscape:connector-curvature="0" />
      <path
         id="path4482"
         d="m 1361.9741,54.716131 c -2.021,-0.051 -3.991,-0.312 -5.9,-0.721 7.417,3.464 13.096,8.534 15.743,11.154 0.646,-2.105 2.664,-8.013 6.582,-14.148 -4.84,2.231 -10.462,3.864 -16.425,3.715 z"
         style="fill:#20cf4a;fill-rule:evenodd"
         inkscape:connector-curvature="0" />
      <path
         id="path468"
         d="m 1324.3981,176.09213 c 0,0 0.067,0.693 0.109,1.892 2.157,-1.264 4.38,-2.299 6.575,-3.142 1.45,-3.609 3.455,-7.158 6.236,-10.267 4.04,-4.515 9.182,-7.518 14.2,-9.516 -0.238,-4.128 -0.591,-21.87 9.8,-33.484 3.623,-4.049 8.131,-6.878 12.642,-8.861 -0.328,0.002 -0.655,0.01 -0.986,0.002 -17.726,-0.443 -31.704,-16.458999 -31.704,-16.458999 0,0 14.762,-15.297 32.488,-14.854 17.726,0.444 31.704,16.46 31.704,16.46 0,0 -5.901,6.108999 -14.718,10.493999 2.262,-0.246 3.654,-0.265 3.654,-0.265 0,0 1.676,17.061 -6.546,30.111 8.583,-1.938 17.227,-0.72 22.487,0.466 3.645,-0.545 6.059,-0.577 6.059,-0.577 0,0 1.52,15.492 -5.45,28.243 2.143,-0.226 3.45,-0.243 3.45,-0.243 0,0 2.087,21.155 -9.737,34.369 -11.824,13.214 -33.08,13.483 -33.08,13.483 0,0 -1.52,-15.493 5.451,-28.244 -1.374,0.145 -2.411,0.205 -2.969,0.228 -1.471,4.699 -3.783,9.488 -7.402,13.533 -3.266,3.65 -7.252,6.308 -11.311,8.25 -0.571,7.351 -2.699,17.938 -9.689,25.75 -11.824,13.214 -33.08,13.483 -33.08,13.483 0,0 -1.653,-16.846 6.394,-29.863 -6.928,1.79 -12.394,1.863 -12.394,1.863 0,0 -0.067,-0.693 -0.109,-1.893 -11.451,6.715 -24.891,6.893 -24.891,6.893 0,0 -2.086,-21.155 9.737,-34.369 11.824,-13.214 33.08,-13.483 33.08,-13.483 z"
         style="fill:#20cf4a;fill-rule:evenodd"
         inkscape:connector-curvature="0" />
      <path
         id="path4362"
         d="m 1395.5021,168.70913 c -5.45,16.025 -23.812,24.31 -23.812,24.31 0,0 -6.747,-12.537 -5.634,-26.062 -2.167,3.585 -4.976,7.042 -8.622,9.786 -13.525,10.176 -33.366,6.687 -33.366,6.687 0,0 2.089,-19.988 15.614,-30.165 4.206,-3.164 9.023,-5.006 13.664,-6.044 -12.477,-3.855 -21.43,-13.806 -21.43,-13.806 0,0 13.967,-14.451 30.89,-14.125 16.923,0.325 30.394,15.303 30.394,15.303 0,0 -0.479,0.491 -1.336,1.27 1.803,3.74 8.374,18.921 3.638,32.846 z"
         style="fill:#3aee64;fill-rule:evenodd"
         inkscape:connector-curvature="0" />
      <path
         id="path4360"
         d="m 1372.9851,147.08013 c -0.082,0.607 -0.256,1.737 -0.567,3.228 1.18,-1.593 2.457,-3.063 3.776,-4.411 -1.042,0.428 -2.105,0.833 -3.209,1.183 z"
         style="fill:#3aee64;fill-rule:evenodd"
         inkscape:connector-curvature="0" />
      <path
         id="path4358"
         d="m 1352.6671,63.577131 c 0,0 -7.401,-18.852 -0.044,-34.213 7.357,-15.36 26.685,-21.412 26.685,-21.412 0,0 7.4,18.853 0.044,34.213 -7.357,15.361 -26.685,21.412 -26.685,21.412 z"
         style="fill:#3aee64;fill-rule:evenodd"
         inkscape:connector-curvature="0" />
      <path
         id="path4356"
         d="m 1343.2951,41.320131 c 0,0 -2.621,25.15 -19.597,37.954 -16.975,12.804 -41.877,8.414 -41.877,8.414 0,0 2.621,-25.15 19.597,-37.954 0.337,-0.254 0.683,-0.491 1.027,-0.732 -20.518,1.802 -39.075,-13.608 -39.075,-13.608 0,0 14.748,-20.54 35.838,-23.24 21.091,-2.701 40.538,13.46 40.538,13.46 0,0 -6.354,8.849 -16.684,15.694 11.029,-1.603 20.233,0.012 20.233,0.012 z"
         style="fill:#3aee64;fill-rule:evenodd"
         inkscape:connector-curvature="0" />
      <path
         id="path4354"
         d="m 1288.0451,49.729131 c 0,0 -2.643,25.248 -19.756,38.103 -17.114,12.853999 -42.218,8.447 -42.218,8.447 0,0 2.643,-25.249 19.756,-38.103 17.114,-12.854 42.218,-8.447 42.218,-8.447 z"
         style="fill:#3aee64;fill-rule:evenodd"
         inkscape:connector-curvature="0" />
      <path
         id="path4352"
         d="m 1222.1451,64.910131 c -16.365,2.988 -32.286,-8.799 -32.286,-8.799 0,0 10.612,-16.635 26.976,-19.623 16.364,-2.989 32.285,8.799 32.285,8.799 0,0 -10.611,16.634 -26.975,19.623 z"
         style="fill:#3aee64;fill-rule:evenodd"
         inkscape:connector-curvature="0" />
      <path
         id="path470"
         d="m 1325.0481,171.57813 c 0,0 -2.089,19.988 -15.614,30.165 -13.525,10.176 -33.366,6.687 -33.366,6.687 0,0 2.089,-19.988 15.614,-30.165 13.525,-10.176 33.366,-6.687 33.366,-6.687 z"
         style="fill:#3aee64;fill-rule:evenodd"
         inkscape:connector-curvature="0" />
    </g>
    <g
       id="Frame:CSDealerCountingLeftHand"
       transform="matrix(0.99786344,-0.06533414,0.06533414,0.99786344,-648.64921,52.138713)"
       inkscape:label="#g4570">
      <g
         transform="translate(-4.988334e-7,4.5576101e-6)"
         id="g4537">
        <path
           style="fill:#005826;fill-rule:evenodd"
           inkscape:connector-curvature="0"
           id="path444"
           class="cls-21"
           d="m 713,481 c 0,0 29.624,-3.018 45,28 l 5,49 -53,-16 -28,-34 31,-27 z" />
        <path
           style="fill:#119a4c;fill-rule:evenodd"
           inkscape:connector-curvature="0"
           id="path446"
           class="cls-22"
           d="m 701,509 14,-21 c 0,0 26.097,-1.229 39,21 l 3,40 -63,-27 7,-13 z" />
      </g>
      <g
         id="g4545">
        <path
           inkscape:connector-curvature="0"
           id="path454"
           d="m 630,510 c 0,0 15.908,-17.895 50,-22 0,0 31.971,-1.917 32,-19 0,0 13.81,-10.621 15,14 l -12,-2 -21,26 c 0,0 79,17.888 21,32 0,0 60.282,54.93 -20,30 0,0 16.697,34.23 4,30 -102.768,-34.24 -69,-89 -69,-89 z"
           style="fill:#794422;fill-rule:evenodd" />
        <path
           style="fill:#a95727;fill-rule:evenodd"
           inkscape:connector-curvature="0"
           id="path456"
           class="cls-33"
           d="m 630,510 c 0,0 15.908,-17.895 50,-22 0,0 31.971,-1.917 32,-19 0,0 11.431,-10.074 13,10 l -11,-2 -34,32 c 0,0 90.746,8.013 26,28 0.907,-2.97 72.806,55.247 -26,22 0,0 29.659,35.23 16,31 -103.473,-32.046 -66,-80 -66,-80 z" />
      </g>
      <path
         style="fill:#bc7547;fill-rule:evenodd"
         inkscape:connector-curvature="0"
         id="path458"
         class="cls-32"
         d="m 675,511 c -0.717,-0.064 1.565,-0.919 5.317,-2.299 L 680,509 c 0,0 56.099,4.957 48.59,16.793 C 714.05,518.514 695.381,512.827 675,511 Z m 44,-40 c -7.243,4.611 -12.903,12.164 -22,16 -17.844,7.524 -34.687,11.8 -51,21 -12.233,6.899 -18.929,14.544 -22.599,21.959 C 623.645,518.144 630,510 630,510 c 0,0 15.908,-17.895 50,-22 0,0 31.971,-1.917 32,-19 0,0 11.431,-10.074 13,10 l -4.169,-0.758 c 0.89,-4.901 -0.435,-8.131 -1.831,-7.242 z" />
    </g>
    <g
       transform="matrix(0.99786344,-0.06533414,0.06533414,0.99786344,-596.74685,29.584196)"
       id="Frame:CSDealerCountingRightHand"
       inkscape:label="#g4625">
      <g
         transform="translate(-1.5201867e-6,4.8510442e-6)"
         id="g442">
        <path
           d="m 839,569 20,-58 -37,-14 -3,5 -14,-7 -3,8 -16,-8 -2,5 -12,3 -15,-12 -21,33 45,43 58,2 z"
           class="cls-54"
           id="path448"
           inkscape:connector-curvature="0"
           style="fill:#00682c;fill-rule:evenodd" />
        <path
           d="m 811,549 c 0,0 3.031,-14.959 7,-28 2.837,-9.323 7,-18 7,-18 l 29,11 -17,47 -26,-12 z m -4,-47 9,4 -11,41 -9,-2 11,-43 z m -18,-2 11,6 -7,39 -6,0 2,-45 z m -18,10 c 0,0 12.073,-6.91 12,-6 -0.073,0.909 2,41 2,41 0,0 -14,-35.769 -14,-35 z m -30,14 17,-27 11,8 -3,4 16,36 -7,9 -34,-30 z"
           class="cls-55"
           id="path450"
           inkscape:connector-curvature="0"
           style="fill:#16b159;fill-rule:evenodd" />
      </g>
      <g
         id="g4599">
        <path
           inkscape:connector-curvature="0"
           id="path4543"
           d="m 771.952,584.124 c -0.023,0.01 -76.345,21.318 54.522,25.246 7.774,-1.161 62.556,-15.376 33.632,-48.548 0,0 -35.938,-41.611 -84.796,-36.611 -15.406,1.577 11.965,30.042 12.029,30.447 0,0 -36.414,-6.286 -40.308,0.502 -4.227,7.368 24.921,28.964 24.921,28.964 z"
           style="fill:#794422;fill-rule:evenodd" />
        <path
           style="fill:#a95727;fill-rule:evenodd"
           inkscape:connector-curvature="0"
           id="path460"
           class="cls-33"
           d="m 787,583 c -0.023,0.009 -90.104,16.215 26.445,20.675 1.95,0.075 14.664,-0.484 20.992,-1.836 1.07,-0.229 48.048,-15.352 25.669,-41.017 0,0 -35.938,-41.611 -84.796,-36.611 -15.406,1.577 25.626,33.384 25.69,33.789 0,0 -50.075,-9.628 -53.969,-2.84 C 742.804,562.528 787,583 787,583 Z" />
        <path
           style="fill:#bc7547;fill-rule:evenodd"
           inkscape:connector-curvature="0"
           id="path462"
           class="cls-32"
           d="m 799,534 c -10.705,-3.541 -20.484,-3.619 -26.78,-5.259 -0.896,-2.481 -0.19,-4.194 3.09,-4.53 48.858,-5 84.796,36.611 84.796,36.611 11.561,13.258 4.605,23.694 -4.962,30.726 C 864.769,578.603 868.693,557.05 799,534 Z" />
      </g>
    </g>
  </g>
  <g
     inkscape:groupmode="layer"
     id="layer4"
     inkscape:label="markers">
    <path
       inkscape:connector-curvature="0"
       id="Pivot:CSDealerCounting"
       d="m 151.7732,467.27682 2.4986,-22.65466 7.3295,8.99524 18.9899,-20.32258 6.1634,7.32945 -19.6562,18.4902 4.6642,6.82972 z"
       style="display:inline;fill:#000000;fill-opacity:1;stroke:none"
       inkscape:label="#path3719" />
    <path
       inkscape:connector-curvature="0"
       id="Marker:CSDealerCounting:LHandPos:-0.001"
       d="m 62.52544,271.82684 2.4986,-22.65466 7.3295,8.99524 18.9899,-20.32258 6.1634,7.32945 -19.6562,18.4902 4.6642,6.82972 z"
       style="display:inline;fill:#000000;fill-opacity:1;stroke:none"
       inkscape:label="#path3719" />
    <path
       inkscape:connector-curvature="0"
       id="Marker:CSDealerCounting:RHandPos:-0.001"
       d="m 252.11323,299.21975 2.4986,-22.65466 7.3295,8.99524 18.9899,-20.32258 6.1634,7.32945 -19.6562,18.4902 4.6642,6.82972 z"
       style="display:inline;fill:#000000;fill-opacity:1;stroke:none"
       inkscape:label="#path3719" />
    <path
       inkscape:label="#path3719"
       style="display:inline;fill:#000000;fill-opacity:1;stroke:none"
       d="m 40.17859,541.43077 2.4986,-22.65466 7.3295,8.99524 18.9899,-20.32258 6.1634,7.32945 -19.6562,18.4902 4.6642,6.82972 z"
       id="Pivot:CSDealerCountingLeftHand"
       inkscape:connector-curvature="0" />
    <path
       inkscape:label="#path3719"
       style="display:inline;fill:#000000;fill-opacity:1;stroke:none"
       d="m 273.01835,553.6855 2.4986,-22.65466 7.3295,8.99524 18.9899,-20.32258 6.1634,7.32945 -19.6562,18.4902 4.6642,6.82972 z"
       id="Pivot:CSDealerCountingRightHand"
       inkscape:connector-curvature="0" />
    <path
       inkscape:connector-curvature="0"
       id="Marker:CSDealerCountingRightHand:MoveTo:-0.001"
       d="m 252.83411,549.36029 2.4986,-22.65466 7.3295,8.99524 18.9899,-20.32258 6.1634,7.32945 -19.6562,18.4902 4.6642,6.82972 z"
       style="display:inline;fill:#000000;fill-opacity:1;stroke:none"
       inkscape:label="#path3719" />
    <path
       inkscape:connector-curvature="0"
       id="Marker:CSDealerCountingLeftHand:MoveTo"
       d="m 65.408905,540.7099 2.4986,-22.65466 7.3295,8.99524 18.9899,-20.32258 6.163395,7.32945 -19.656195,18.4902 4.6642,6.82972 z"
       style="display:inline;fill:#000000;fill-opacity:1;stroke:none"
       inkscape:label="#path3719" />
  </g>
</svg>
