<?xml version="1.0" encoding="UTF-8" standalone="no"?>
<!-- Created with Inkscape (http://www.inkscape.org/) -->

<svg
   xmlns:dc="http://purl.org/dc/elements/1.1/"
   xmlns:cc="http://creativecommons.org/ns#"
   xmlns:rdf="http://www.w3.org/1999/02/22-rdf-syntax-ns#"
   xmlns:svg="http://www.w3.org/2000/svg"
   xmlns="http://www.w3.org/2000/svg"
   xmlns:sodipodi="http://sodipodi.sourceforge.net/DTD/sodipodi-0.dtd"
   xmlns:inkscape="http://www.inkscape.org/namespaces/inkscape"
   sodipodi:docname="Window.svg"
   viewBox="0 0 2500 2500"
   height="2500"
   width="2500"
   xml:space="preserve"
   inkscape:version="0.91 r"
   version="1.1"
   id="svg2"><sodipodi:namedview
     inkscape:current-layer="g10"
     inkscape:window-maximized="1"
     inkscape:window-y="146"
     inkscape:window-x="0"
     inkscape:cy="1651.0957"
     inkscape:cx="1095.9895"
     inkscape:zoom="0.3237625"
     showgrid="false"
     id="namedview4"
     inkscape:window-height="1030"
     inkscape:window-width="1920"
     inkscape:pageshadow="2"
     inkscape:pageopacity="0"
     guidetolerance="10"
     gridtolerance="10"
     objecttolerance="10"
     borderopacity="1"
     bordercolor="#666666"
     pagecolor="#ffffff" /><metadata
     id="metadata8"><rdf:RDF><cc:Work
         rdf:about=""><dc:format>image/svg+xml</dc:format><dc:type
           rdf:resource="http://purl.org/dc/dcmitype/StillImage" /><dc:title /></cc:Work></rdf:RDF></metadata><defs
     id="defs6"><linearGradient
       id="linearGradient26"
       spreadMethod="pad"
       gradientTransform="matrix(-3.05e-5,-821.29834,-821.29834,3.05e-5,999.99951,999.01367)"
       gradientUnits="userSpaceOnUse"
       y2="0"
       x2="1"
       y1="0"
       x1="0"><stop
         id="stop28"
         offset="0"
         style="stop-opacity:1;stop-color:#966e44" /><stop
         id="stop30"
         offset="0.4579887"
         style="stop-opacity:1;stop-color:#966e44" /><stop
         id="stop32"
         offset="1"
         style="stop-opacity:1;stop-color:#5e452a" /></linearGradient><linearGradient
       id="linearGradient48"
       spreadMethod="pad"
       gradientTransform="matrix(-3.05e-5,-801.29785,-801.29785,3.05e-5,999.99951,989.01367)"
       gradientUnits="userSpaceOnUse"
       y2="0"
       x2="1"
       y1="0"
       x1="0"><stop
         id="stop50"
         offset="0"
         style="stop-opacity:1;stop-color:#b08150" /><stop
         id="stop52"
         offset="0.4579887"
         style="stop-opacity:1;stop-color:#b08150" /><stop
         id="stop54"
         offset="1"
         style="stop-opacity:1;stop-color:#6e5131" /></linearGradient><linearGradient
       id="linearGradient70"
       spreadMethod="pad"
       gradientTransform="matrix(-3.05e-5,-801.24316,-801.24316,3.05e-5,999.58252,988.9668)"
       gradientUnits="userSpaceOnUse"
       y2="0"
       x2="1"
       y1="0"
       x1="0"><stop
         id="stop72"
         offset="0"
         style="stop-opacity:1;stop-color:#bd8b55" /><stop
         id="stop74"
         offset="0.4579887"
         style="stop-opacity:1;stop-color:#bd8b55" /><stop
         id="stop76"
         offset="1"
         style="stop-opacity:1;stop-color:#7d5c38" /></linearGradient><linearGradient
       id="linearGradient92"
       spreadMethod="pad"
       gradientTransform="matrix(-3.05e-5,-801.29883,-801.29883,3.05e-5,1000.8794,989.01367)"
       gradientUnits="userSpaceOnUse"
       y2="0"
       x2="1"
       y1="0"
       x1="0"><stop
         id="stop94"
         offset="0"
         style="stop-opacity:1;stop-color:#cc9864" /><stop
         id="stop96"
         offset="0.4579887"
         style="stop-opacity:1;stop-color:#cc9864" /><stop
         id="stop98"
         offset="1"
         style="stop-opacity:1;stop-color:#8a6644" /></linearGradient><clipPath
       id="clipPath106"
       clipPathUnits="userSpaceOnUse"><path
         inkscape:connector-curvature="0"
         id="path108"
         d="m 0,2000 2000,0 L 2000,0 0,0 0,2000 Z" /></clipPath><linearGradient
       id="linearGradient202"
       spreadMethod="pad"
       gradientTransform="matrix(-4.58e-5,-1025.9478,-1025.9478,4.58e-5,1621.8086,1100.9336)"
       gradientUnits="userSpaceOnUse"
       y2="0"
       x2="1"
       y1="0"
       x1="0"><stop
         id="stop204"
         offset="0"
         style="stop-opacity:1;stop-color:#9c7247" /><stop
         id="stop206"
         offset="0.4579887"
         style="stop-opacity:1;stop-color:#9c7247" /><stop
         id="stop208"
         offset="1"
         style="stop-opacity:1;stop-color:#594228" /></linearGradient><linearGradient
       id="linearGradient224"
       spreadMethod="pad"
       gradientTransform="matrix(-4.58e-5,-1025.8052,-1025.8052,4.58e-5,1619.9746,1100.9336)"
       gradientUnits="userSpaceOnUse"
       y2="0"
       x2="1"
       y1="0"
       x1="0"><stop
         id="stop226"
         offset="0"
         style="stop-opacity:1;stop-color:#a87c4c" /><stop
         id="stop228"
         offset="0.4579887"
         style="stop-opacity:1;stop-color:#a87c4c" /><stop
         id="stop230"
         offset="1"
         style="stop-opacity:1;stop-color:#694d2f" /></linearGradient><linearGradient
       id="linearGradient246"
       spreadMethod="pad"
       gradientTransform="matrix(-4.58e-5,-1024.0337,-1024.0337,4.58e-5,1623.8574,1099.0215)"
       gradientUnits="userSpaceOnUse"
       y2="0"
       x2="1"
       y1="0"
       x1="0"><stop
         id="stop248"
         offset="0"
         style="stop-opacity:1;stop-color:#b8895a" /><stop
         id="stop250"
         offset="0.4579887"
         style="stop-opacity:1;stop-color:#b8895a" /><stop
         id="stop252"
         offset="1"
         style="stop-opacity:1;stop-color:#75573a" /></linearGradient><linearGradient
       id="linearGradient268"
       spreadMethod="pad"
       gradientTransform="matrix(-4.58e-5,-1024.4478,-1024.4478,4.58e-5,1492.0645,1100.9336)"
       gradientUnits="userSpaceOnUse"
       y2="0"
       x2="1"
       y1="0"
       x1="0"><stop
         id="stop270"
         offset="0"
         style="stop-opacity:1;stop-color:#b08150" /><stop
         id="stop272"
         offset="0.4579887"
         style="stop-opacity:1;stop-color:#b08150" /><stop
         id="stop274"
         offset="1"
         style="stop-opacity:1;stop-color:#6e5131" /></linearGradient><linearGradient
       id="linearGradient290"
       spreadMethod="pad"
       gradientTransform="matrix(-4.58e-5,-1012.3892,-1012.3892,4.58e-5,1492.2002,1100.9336)"
       gradientUnits="userSpaceOnUse"
       y2="0"
       x2="1"
       y1="0"
       x1="0"><stop
         id="stop292"
         offset="0"
         style="stop-opacity:1;stop-color:#bd8b55" /><stop
         id="stop294"
         offset="0.4579887"
         style="stop-opacity:1;stop-color:#bd8b55" /><stop
         id="stop296"
         offset="1"
         style="stop-opacity:1;stop-color:#7d5c38" /></linearGradient><linearGradient
       id="linearGradient312"
       spreadMethod="pad"
       gradientTransform="matrix(-4.58e-5,-1021.5054,-1021.5054,4.58e-5,1492.0645,1100.9336)"
       gradientUnits="userSpaceOnUse"
       y2="0"
       x2="1"
       y1="0"
       x1="0"><stop
         id="stop314"
         offset="0"
         style="stop-opacity:1;stop-color:#cc9864" /><stop
         id="stop316"
         offset="0.4579887"
         style="stop-opacity:1;stop-color:#cc9864" /><stop
         id="stop318"
         offset="1"
         style="stop-opacity:1;stop-color:#8a6644" /></linearGradient><clipPath
       id="clipPath326"
       clipPathUnits="userSpaceOnUse"><path
         inkscape:connector-curvature="0"
         id="path328"
         d="m 0,2000 2000,0 L 2000,0 0,0 0,2000 Z" /></clipPath><linearGradient
       id="linearGradient358"
       spreadMethod="pad"
       gradientTransform="matrix(184.11523,-1.53e-5,1.53e-5,184.11523,1412.1514,799.24707)"
       gradientUnits="userSpaceOnUse"
       y2="0"
       x2="1"
       y1="0"
       x1="0"><stop
         id="stop360"
         offset="0"
         style="stop-opacity:1;stop-color:#9fd9f5" /><stop
         id="stop362"
         offset="1"
         style="stop-opacity:1;stop-color:#63a0bf" /></linearGradient><linearGradient
       id="linearGradient378"
       spreadMethod="pad"
       gradientTransform="matrix(163.50293,-1.53e-5,1.53e-5,163.50293,1397.374,378.70898)"
       gradientUnits="userSpaceOnUse"
       y2="0"
       x2="1"
       y1="0"
       x1="0"><stop
         id="stop380"
         offset="0"
         style="stop-opacity:1;stop-color:#9fd9f5" /><stop
         id="stop382"
         offset="1"
         style="stop-opacity:1;stop-color:#63a0bf" /></linearGradient><linearGradient
       id="linearGradient398"
       spreadMethod="pad"
       gradientTransform="matrix(1.53e-5,-324.36157,324.36157,1.53e-5,1545.0283,944.37891)"
       gradientUnits="userSpaceOnUse"
       y2="0"
       x2="1"
       y1="0"
       x1="0"><stop
         id="stop400"
         offset="0"
         style="stop-opacity:1;stop-color:#c9efff" /><stop
         id="stop402"
         offset="1"
         style="stop-opacity:1;stop-color:#8ec3de" /></linearGradient><linearGradient
       id="linearGradient418"
       spreadMethod="pad"
       gradientTransform="matrix(1.53e-5,-269.90723,269.90723,1.53e-5,1519.1465,532.53125)"
       gradientUnits="userSpaceOnUse"
       y2="0"
       x2="1"
       y1="0"
       x1="0"><stop
         id="stop420"
         offset="0"
         style="stop-opacity:1;stop-color:#c9efff" /><stop
         id="stop422"
         offset="1"
         style="stop-opacity:1;stop-color:#8ec3de" /></linearGradient><clipPath
       id="clipPath430"
       clipPathUnits="userSpaceOnUse"><path
         inkscape:connector-curvature="0"
         id="path432"
         d="m 0,2000 2000,0 L 2000,0 0,0 0,2000 Z" /></clipPath><linearGradient
       id="linearGradient506"
       spreadMethod="pad"
       gradientTransform="matrix(-4.58e-5,-1025.9478,-1025.9478,4.58e-5,378.19189,1100.9336)"
       gradientUnits="userSpaceOnUse"
       y2="0"
       x2="1"
       y1="0"
       x1="0"><stop
         id="stop508"
         offset="0"
         style="stop-opacity:1;stop-color:#9c7247" /><stop
         id="stop510"
         offset="0.4579887"
         style="stop-opacity:1;stop-color:#9c7247" /><stop
         id="stop512"
         offset="1"
         style="stop-opacity:1;stop-color:#594228" /></linearGradient><linearGradient
       id="linearGradient528"
       spreadMethod="pad"
       gradientTransform="matrix(-4.58e-5,-1025.23,-1025.23,4.58e-5,375.45068,1100.2715)"
       gradientUnits="userSpaceOnUse"
       y2="0"
       x2="1"
       y1="0"
       x1="0"><stop
         id="stop530"
         offset="0"
         style="stop-opacity:1;stop-color:#a87c4c" /><stop
         id="stop532"
         offset="0.4579887"
         style="stop-opacity:1;stop-color:#a87c4c" /><stop
         id="stop534"
         offset="1"
         style="stop-opacity:1;stop-color:#694d2f" /></linearGradient><linearGradient
       id="linearGradient550"
       spreadMethod="pad"
       gradientTransform="matrix(-4.58e-5,-1025.9429,-1025.9429,4.58e-5,377.54736,1100.9336)"
       gradientUnits="userSpaceOnUse"
       y2="0"
       x2="1"
       y1="0"
       x1="0"><stop
         id="stop552"
         offset="0"
         style="stop-opacity:1;stop-color:#b8895a" /><stop
         id="stop554"
         offset="0.4579887"
         style="stop-opacity:1;stop-color:#b8895a" /><stop
         id="stop556"
         offset="1"
         style="stop-opacity:1;stop-color:#75573a" /></linearGradient><linearGradient
       id="linearGradient572"
       spreadMethod="pad"
       gradientTransform="matrix(-4.58e-5,-1024.4478,-1024.4478,4.58e-5,507.93604,1100.9336)"
       gradientUnits="userSpaceOnUse"
       y2="0"
       x2="1"
       y1="0"
       x1="0"><stop
         id="stop574"
         offset="0"
         style="stop-opacity:1;stop-color:#b08150" /><stop
         id="stop576"
         offset="0.4579887"
         style="stop-opacity:1;stop-color:#b08150" /><stop
         id="stop578"
         offset="1"
         style="stop-opacity:1;stop-color:#6e5131" /></linearGradient><linearGradient
       id="linearGradient594"
       spreadMethod="pad"
       gradientTransform="matrix(-4.58e-5,-1024.4478,-1024.4478,4.58e-5,507.46143,1100.9336)"
       gradientUnits="userSpaceOnUse"
       y2="0"
       x2="1"
       y1="0"
       x1="0"><stop
         id="stop596"
         offset="0"
         style="stop-opacity:1;stop-color:#bd8b55" /><stop
         id="stop598"
         offset="0.4579887"
         style="stop-opacity:1;stop-color:#bd8b55" /><stop
         id="stop600"
         offset="1"
         style="stop-opacity:1;stop-color:#7d5c38" /></linearGradient><linearGradient
       id="linearGradient616"
       spreadMethod="pad"
       gradientTransform="matrix(-4.58e-5,-1000.356,-1000.356,4.58e-5,507.93604,1100.9336)"
       gradientUnits="userSpaceOnUse"
       y2="0"
       x2="1"
       y1="0"
       x1="0"><stop
         id="stop618"
         offset="0"
         style="stop-opacity:1;stop-color:#cc9864" /><stop
         id="stop620"
         offset="0.4579887"
         style="stop-opacity:1;stop-color:#cc9864" /><stop
         id="stop622"
         offset="1"
         style="stop-opacity:1;stop-color:#8a6644" /></linearGradient><clipPath
       id="clipPath630"
       clipPathUnits="userSpaceOnUse"><path
         inkscape:connector-curvature="0"
         id="path632"
         d="m 0,2000 2000,0 L 2000,0 0,0 0,2000 Z" /></clipPath><linearGradient
       id="linearGradient662"
       spreadMethod="pad"
       gradientTransform="matrix(-184.11475,-1.53e-5,-1.53e-5,184.11475,587.84766,799.24512)"
       gradientUnits="userSpaceOnUse"
       y2="0"
       x2="1"
       y1="0"
       x1="0"><stop
         id="stop664"
         offset="0"
         style="stop-opacity:1;stop-color:#9fd9f5" /><stop
         id="stop666"
         offset="1"
         style="stop-opacity:1;stop-color:#63a0bf" /></linearGradient><linearGradient
       id="linearGradient682"
       spreadMethod="pad"
       gradientTransform="matrix(-163.50293,-1.53e-5,-1.53e-5,163.50293,602.625,378.70801)"
       gradientUnits="userSpaceOnUse"
       y2="0"
       x2="1"
       y1="0"
       x1="0"><stop
         id="stop684"
         offset="0"
         style="stop-opacity:1;stop-color:#9fd9f5" /><stop
         id="stop686"
         offset="1"
         style="stop-opacity:1;stop-color:#63a0bf" /></linearGradient><linearGradient
       id="linearGradient702"
       spreadMethod="pad"
       gradientTransform="matrix(-1.53e-5,-324.36157,-324.36157,1.53e-5,454.97168,944.37891)"
       gradientUnits="userSpaceOnUse"
       y2="0"
       x2="1"
       y1="0"
       x1="0"><stop
         id="stop704"
         offset="0"
         style="stop-opacity:1;stop-color:#c9efff" /><stop
         id="stop706"
         offset="1"
         style="stop-opacity:1;stop-color:#8ec3de" /></linearGradient><linearGradient
       id="linearGradient722"
       spreadMethod="pad"
       gradientTransform="matrix(-1.53e-5,-269.90723,-269.90723,1.53e-5,480.85352,532.53125)"
       gradientUnits="userSpaceOnUse"
       y2="0"
       x2="1"
       y1="0"
       x1="0"><stop
         id="stop724"
         offset="0"
         style="stop-opacity:1;stop-color:#c9efff" /><stop
         id="stop726"
         offset="1"
         style="stop-opacity:1;stop-color:#8ec3de" /></linearGradient><clipPath
       id="clipPath734"
       clipPathUnits="userSpaceOnUse"><path
         inkscape:connector-curvature="0"
         id="path736"
         d="m 0,2000 2000,0 L 2000,0 0,0 0,2000 Z" /></clipPath><linearGradient
       id="linearGradient810"
       spreadMethod="pad"
       gradientTransform="matrix(-3.05e-5,-821.29834,-821.29834,3.05e-5,999.99951,1929.5742)"
       gradientUnits="userSpaceOnUse"
       y2="0"
       x2="1"
       y1="0"
       x1="0"><stop
         id="stop812"
         offset="0"
         style="stop-opacity:1;stop-color:#966e44" /><stop
         id="stop814"
         offset="0.4579887"
         style="stop-opacity:1;stop-color:#966e44" /><stop
         id="stop816"
         offset="1"
         style="stop-opacity:1;stop-color:#5e452a" /></linearGradient><linearGradient
       id="linearGradient832"
       spreadMethod="pad"
       gradientTransform="matrix(-3.05e-5,-801.29834,-801.29834,3.05e-5,999.99951,1919.5742)"
       gradientUnits="userSpaceOnUse"
       y2="0"
       x2="1"
       y1="0"
       x1="0"><stop
         id="stop834"
         offset="0"
         style="stop-opacity:1;stop-color:#b08150" /><stop
         id="stop836"
         offset="0.4579887"
         style="stop-opacity:1;stop-color:#b08150" /><stop
         id="stop838"
         offset="1"
         style="stop-opacity:1;stop-color:#6e5131" /></linearGradient><linearGradient
       id="linearGradient854"
       spreadMethod="pad"
       gradientTransform="matrix(-3.05e-5,-801.24365,-801.24365,3.05e-5,999.58252,1919.5278)"
       gradientUnits="userSpaceOnUse"
       y2="0"
       x2="1"
       y1="0"
       x1="0"><stop
         id="stop856"
         offset="0"
         style="stop-opacity:1;stop-color:#bd8b55" /><stop
         id="stop858"
         offset="0.4579887"
         style="stop-opacity:1;stop-color:#bd8b55" /><stop
         id="stop860"
         offset="1"
         style="stop-opacity:1;stop-color:#7d5c38" /></linearGradient><linearGradient
       id="linearGradient876"
       spreadMethod="pad"
       gradientTransform="matrix(-7.3407449e-5,-1334.8622,-1928.5661,5.0809163e-5,1093.8441,1816.8183)"
       gradientUnits="userSpaceOnUse"
       y2="0"
       x2="1"
       y1="0"
       x1="0"><stop
         id="stop878"
         offset="0"
         style="stop-opacity:1;stop-color:#cc9864" /><stop
         id="stop880"
         offset="0.4579887"
         style="stop-opacity:1;stop-color:#cc9864" /><stop
         id="stop882"
         offset="1"
         style="stop-opacity:1;stop-color:#8a6644" /></linearGradient><clipPath
       id="clipPath890"
       clipPathUnits="userSpaceOnUse"><path
         inkscape:connector-curvature="0"
         id="path892"
         d="m 0,2000 2000,0 L 2000,0 0,0 0,2000 Z" /></clipPath><linearGradient
       id="linearGradient958"
       spreadMethod="pad"
       gradientTransform="matrix(3.05e-5,-686.20557,686.20557,3.05e-5,1201.7021,1862.8887)"
       gradientUnits="userSpaceOnUse"
       y2="0"
       x2="1"
       y1="0"
       x1="0"><stop
         id="stop960"
         offset="0"
         style="stop-opacity:1;stop-color:#b08150" /><stop
         id="stop962"
         offset="0.4579887"
         style="stop-opacity:1;stop-color:#b08150" /><stop
         id="stop964"
         offset="1"
         style="stop-opacity:1;stop-color:#6e5131" /></linearGradient><linearGradient
       id="linearGradient980"
       spreadMethod="pad"
       gradientTransform="matrix(-3.05e-5,-686.19824,-686.19824,3.05e-5,1201.5879,1862.8828)"
       gradientUnits="userSpaceOnUse"
       y2="0"
       x2="1"
       y1="0"
       x1="0"><stop
         id="stop982"
         offset="0"
         style="stop-opacity:1;stop-color:#bd8b55" /><stop
         id="stop984"
         offset="0.4579887"
         style="stop-opacity:1;stop-color:#bd8b55" /><stop
         id="stop986"
         offset="1"
         style="stop-opacity:1;stop-color:#7d5c38" /></linearGradient><linearGradient
       id="linearGradient1002"
       spreadMethod="pad"
       gradientTransform="matrix(-3.05e-5,-685.65625,-685.65625,3.05e-5,1199.3818,1862.8887)"
       gradientUnits="userSpaceOnUse"
       y2="0"
       x2="1"
       y1="0"
       x1="0"><stop
         id="stop1004"
         offset="0"
         style="stop-opacity:1;stop-color:#cc9864" /><stop
         id="stop1006"
         offset="0.4579887"
         style="stop-opacity:1;stop-color:#cc9864" /><stop
         id="stop1008"
         offset="1"
         style="stop-opacity:1;stop-color:#8a6644" /></linearGradient><linearGradient
       id="linearGradient1024"
       spreadMethod="pad"
       gradientTransform="matrix(-288.04687,288.04687,-288.04687,-288.04687,1335.3799,1218.0117)"
       gradientUnits="userSpaceOnUse"
       y2="0"
       x2="1"
       y1="0"
       x1="0"><stop
         id="stop1026"
         offset="0"
         style="stop-opacity:1;stop-color:#9fd9f5" /><stop
         id="stop1028"
         offset="1"
         style="stop-opacity:1;stop-color:#63a0bf" /></linearGradient><linearGradient
       id="linearGradient1044"
       spreadMethod="pad"
       gradientTransform="matrix(-296.89893,296.89893,-296.89893,-296.89893,1348.1465,1533.6616)"
       gradientUnits="userSpaceOnUse"
       y2="0"
       x2="1"
       y1="0"
       x1="0"><stop
         id="stop1046"
         offset="0"
         style="stop-opacity:1;stop-color:#9fd9f5" /><stop
         id="stop1048"
         offset="1"
         style="stop-opacity:1;stop-color:#63a0bf" /></linearGradient><linearGradient
       id="linearGradient1064"
       spreadMethod="pad"
       gradientTransform="matrix(0,-114.71289,114.71289,0,1181.126,1485.7002)"
       gradientUnits="userSpaceOnUse"
       y2="0"
       x2="1"
       y1="0"
       x1="0"><stop
         id="stop1066"
         offset="0"
         style="stop-opacity:1;stop-color:#c9efff" /><stop
         id="stop1068"
         offset="1"
         style="stop-opacity:1;stop-color:#8ec3de" /></linearGradient><linearGradient
       id="linearGradient1084"
       spreadMethod="pad"
       gradientTransform="matrix(0,-144.05566,144.05566,0,1202.9229,1807.6924)"
       gradientUnits="userSpaceOnUse"
       y2="0"
       x2="1"
       y1="0"
       x1="0"><stop
         id="stop1086"
         offset="0"
         style="stop-opacity:1;stop-color:#c9efff" /><stop
         id="stop1088"
         offset="1"
         style="stop-opacity:1;stop-color:#8ec3de" /></linearGradient><clipPath
       id="clipPath1096"
       clipPathUnits="userSpaceOnUse"><path
         inkscape:connector-curvature="0"
         id="path1098"
         d="m 0,2000 2000,0 L 2000,0 0,0 0,2000 Z" /></clipPath><linearGradient
       id="linearGradient1148"
       spreadMethod="pad"
       gradientTransform="matrix(-3.05e-5,-686.20557,-686.20557,3.05e-5,798.29834,1862.8887)"
       gradientUnits="userSpaceOnUse"
       y2="0"
       x2="1"
       y1="0"
       x1="0"><stop
         id="stop1150"
         offset="0"
         style="stop-opacity:1;stop-color:#b08150" /><stop
         id="stop1152"
         offset="0.4579887"
         style="stop-opacity:1;stop-color:#b08150" /><stop
         id="stop1154"
         offset="1"
         style="stop-opacity:1;stop-color:#6e5131" /></linearGradient><linearGradient
       id="linearGradient1170"
       spreadMethod="pad"
       gradientTransform="matrix(-3.05e-5,-685.88916,-685.88916,3.05e-5,798.29834,1862.5723)"
       gradientUnits="userSpaceOnUse"
       y2="0"
       x2="1"
       y1="0"
       x1="0"><stop
         id="stop1172"
         offset="0"
         style="stop-opacity:1;stop-color:#bd8b55" /><stop
         id="stop1174"
         offset="0.4579887"
         style="stop-opacity:1;stop-color:#bd8b55" /><stop
         id="stop1176"
         offset="1"
         style="stop-opacity:1;stop-color:#7d5c38" /></linearGradient><linearGradient
       id="linearGradient1192"
       spreadMethod="pad"
       gradientTransform="matrix(-3.05e-5,-685.90137,-685.90137,3.05e-5,799.604,1862.8887)"
       gradientUnits="userSpaceOnUse"
       y2="0"
       x2="1"
       y1="0"
       x1="0"><stop
         id="stop1194"
         offset="0"
         style="stop-opacity:1;stop-color:#cc9864" /><stop
         id="stop1196"
         offset="0.4579887"
         style="stop-opacity:1;stop-color:#cc9864" /><stop
         id="stop1198"
         offset="1"
         style="stop-opacity:1;stop-color:#8a6644" /></linearGradient><linearGradient
       id="linearGradient1214"
       spreadMethod="pad"
       gradientTransform="matrix(288.04691,288.04691,288.04691,-288.04691,664.62109,1218.0112)"
       gradientUnits="userSpaceOnUse"
       y2="0"
       x2="1"
       y1="0"
       x1="0"><stop
         id="stop1216"
         offset="0"
         style="stop-opacity:1;stop-color:#9fd9f5" /><stop
         id="stop1218"
         offset="1"
         style="stop-opacity:1;stop-color:#63a0bf" /></linearGradient><linearGradient
       id="linearGradient1234"
       spreadMethod="pad"
       gradientTransform="matrix(296.89896,296.89896,296.89896,-296.89896,651.854,1533.6611)"
       gradientUnits="userSpaceOnUse"
       y2="0"
       x2="1"
       y1="0"
       x1="0"><stop
         id="stop1236"
         offset="0"
         style="stop-opacity:1;stop-color:#9fd9f5" /><stop
         id="stop1238"
         offset="1"
         style="stop-opacity:1;stop-color:#63a0bf" /></linearGradient><linearGradient
       id="linearGradient1254"
       spreadMethod="pad"
       gradientTransform="matrix(0,-114.71289,-114.71289,0,818.87402,1485.7002)"
       gradientUnits="userSpaceOnUse"
       y2="0"
       x2="1"
       y1="0"
       x1="0"><stop
         id="stop1256"
         offset="0"
         style="stop-opacity:1;stop-color:#c9efff" /><stop
         id="stop1258"
         offset="1"
         style="stop-opacity:1;stop-color:#8ec3de" /></linearGradient><linearGradient
       id="linearGradient1274"
       spreadMethod="pad"
       gradientTransform="matrix(0,-144.05566,-144.05566,0,797.07715,1807.6924)"
       gradientUnits="userSpaceOnUse"
       y2="0"
       x2="1"
       y1="0"
       x1="0"><stop
         id="stop1276"
         offset="0"
         style="stop-opacity:1;stop-color:#c9efff" /><stop
         id="stop1278"
         offset="1"
         style="stop-opacity:1;stop-color:#8ec3de" /></linearGradient><clipPath
       id="clipPath1286"
       clipPathUnits="userSpaceOnUse"><path
         inkscape:connector-curvature="0"
         id="path1288"
         d="m 0,2000 2000,0 L 2000,0 0,0 0,2000 Z" /></clipPath></defs><g
     transform="matrix(1.25,0,0,-1.25,0,2500)"
     inkscape:label="Windows_1_wood"
     inkscape:groupmode="layer"
     id="g10"><g
       id="g5636"
       transform="translate(-37.064206,793.85426)"
       inkscape:export-filename="/home/eba/local/feedthebird/working_directory/common/images/window_frame.png"
       inkscape:export-xdpi="45"
       inkscape:export-ydpi="45"><g
         id="g798"
         transform="matrix(2.4068016,0,0,1.6658742,-1315.0716,-1380.9508)"><g
           id="g800"><g
             id="g806"><g
               id="g808"><path
                 d="m 578.64138,1527.7275 c -5.9289,-158.4847 -5.05953,-549.30895 -1.12054,-694.60658 0,0 0,0 0,0 132.4253,-4.76485 265.00861,-4.12797 384.36767,-4.12797 0,0 0,0 0,0 119.35819,0 251.93879,-0.63688 384.36499,4.12797 0,0 0,0 0,0 3.9399,145.29763 4.8084,536.12188 -1.1205,694.60658 0,0 0,0 0,0 -110.5407,13.5002 -268.0127,21.5796 -383.2446,21.5796 0,0 0,0 0,0 -115.23433,0 -272.70711,-8.0794 -383.24702,-21.5796 m 54.06151,-635.92075 c -2.15979,124.20945 -5.68012,453.59305 -1.47093,591.05335 0,0 0,0 0,0 98.6954,10.9217 227.6083,16.3718 330.65645,16.3718 0,0 0,0 0,0 103.04569,0 231.95779,-5.4501 330.65479,-16.3718 0,0 0,0 0,0 4.2084,-137.4603 0.6898,-466.8439 -1.4726,-591.05335 0,0 0,0 0,0 -116.9638,-4.04608 -223.7992,-2.51073 -329.1821,-2.51073 0,0 0,0 0,0 -45.46347,0 -91.20727,-0.28596 -137.91098,-0.28596 0,0 0,0 0,0 -61.55696,0 -124.78062,0.49665 -191.27463,2.79669"
                 style="fill:url(#linearGradient810);stroke:none"
                 id="path818"
                 inkscape:connector-curvature="0" /></g></g></g></g><g
         id="g820"
         transform="matrix(2.4068016,0,0,1.6658742,-1315.0716,-1380.9508)"><g
           id="g822"><g
             id="g828"><g
               id="g830"><path
                 d="m 586.4273,1519.6084 c -5.78609,-158.7977 -3.75882,-531.97983 0.32495,-676.97289 0,0 0,0 0,0 132.29011,-4.75478 255.90344,-4.11925 375.13626,-4.11925 0,0 0,0 0,0 119.23189,0 242.84259,-0.63553 375.13359,4.11925 0,0 0,0 0,0 4.0847,144.99306 6.1111,518.17519 0.325,676.97289 0,0 0,0 0,0 -110.636,13.5266 -260.1145,21.6218 -375.4587,21.6218 0,0 0,0 0,0 -115.34668,0 -264.82597,-8.0952 -375.4611,-21.6218 m 46.27559,-627.80165 c -2.15979,124.20945 -5.68012,453.59305 -1.47093,591.05335 0,0 0,0 0,0 98.6954,10.9217 227.6083,16.3718 330.65645,16.3718 0,0 0,0 0,0 103.04569,0 231.95779,-5.4501 330.65479,-16.3718 0,0 0,0 0,0 4.2084,-137.4603 0.6898,-466.8439 -1.4726,-591.05335 0,0 0,0 0,0 -116.9638,-4.04608 -223.7992,-2.51073 -329.1821,-2.51073 0,0 0,0 0,0 -45.46347,0 -91.20727,-0.28596 -137.91098,-0.28596 0,0 0,0 0,0 -61.55696,0 -124.78062,0.49665 -191.27463,2.79669"
                 style="fill:url(#linearGradient832);stroke:none"
                 id="path840"
                 inkscape:connector-curvature="0" /></g></g></g></g><g
         id="g844"
         transform="matrix(2.4068016,0,0,1.6658742,-1315.0716,-1380.9508)"><g
           id="g850"><g
             id="g852"><path
               inkscape:connector-curvature="0"
               id="path862"
               style="fill:url(#linearGradient854);stroke:none"
               d="m 979.53887,1540.7062 c 32.79173,-3.9381 65.31473,-9.6601 97.74773,-15.8421 0,0 0,0 0,0 32.4849,-6.0677 64.8225,-13.6725 98.0584,-15.8792 0,0 0,0 0,0 33.143,-2.2829 66.5302,-1.0056 99.2083,3.3442 0,0 0,0 0,0 17.3774,3.0722 34.8698,5.6617 52.276,8.5347 0,0 0,0 0,0 -10.6036,1.2372 -21.5275,2.4253 -32.7121,3.5636 0,0 0,0 0,0 -7.0549,-1.3519 -14.173,-2.4986 -21.3262,-3.4596 0,0 0,0 0,0 -31.7252,-4.2374 -64.7435,-5.4844 -96.7903,-3.2697 0,0 0,0 0,0 -15.9794,1.1877 -32.5219,3.4127 -48.0545,6.2763 0,0 0,0 0,0 -16.209,3.1196 -32.4274,6.3114 -48.6947,9.4076 0,0 0,0 0,0 -12.1432,2.3128 -24.3213,4.5652 -36.5395,6.687 0,0 0,0 0,0 -23.1836,0.6308 -45.77007,1.0108 -67.31793,1.124 0,0 0,0 0,0 1.38154,-0.1609 2.76476,-0.3186 4.1448,-0.4868 m -310.88292,-12.6056 c 4.73368,0.1079 9.46789,0.2352 14.20188,0.4087 0,0 0,0 0,0 27.35944,0.1436 54.58104,3.0628 81.69396,6.5305 0,0 0,0 0,0 -32.57029,-1.9121 -64.90871,-4.2393 -95.89584,-6.9392 m 110.73234,-8.2541 c -8.40273,-0.89 -16.75083,-1.946 -25.10581,-3.1275 0,0 0,0 0,0 -7.25218,-1.1306 -16.46797,-1.7554 -24.51226,-2.7799 0,0 0,0 0,0 -16.47705,-1.8673 -33.12585,-3.6882 -49.52627,-5.2956 0,0 0,0 0,0 -27.17888,-2.5619 -54.41029,-4.0265 -80.05624,-0.3219 0,0 0,0 0,0 0,0 4.69779,-3.8531 4.69779,-3.8531 4.62599,-42.468 9.34528,-85.3805 6.99879,-129.5519 0,0 0,0 0,0 -0.23713,-17.372 -0.94288,-34.8341 -2.21462,-52.3487 0,0 0,0 0,0 -1.934,-17.5434 -4.12501,-35.1361 -6.58263,-52.7696 0,0 0,0 0,0 -5.00294,-35.4802 -11.06102,-71.1127 -17.8081,-106.9109 0,0 0,0 0,0 -0.76418,-4.0477 -1.53833,-8.0966 -2.31999,-12.1483 0,0 0,0 0,0 0.0545,-15.4584 0.12552,-30.8514 0.21179,-46.092 0,0 0,0 0,0 3.81955,18.8699 7.52166,37.6912 11.05064,56.4791 0,0 0,0 0,0 6.73769,35.9522 12.79236,71.7884 17.79224,107.5113 0,0 0,0 0,0 2.47186,17.9372 4.60833,35.0698 6.61084,53.5616 0,0 0,0 0,0 1.2704,17.7528 1.96772,35.4629 2.18854,53.0287 0,0 0,0 0,0 1.21815,34.5753 -0.4184,69.9282 -4.18026,103.5817 0,0 0,0 0,0 -0.59362,5.9016 -1.29747,11.8022 -2.0142,17.6757 0,0 0,0 0,0 0,0 -5.00954,4.1095 -5.00954,4.1095 0,0 3.06495,-2.5137 3.06495,-2.5137 22.57639,-1.738 45.64066,-0.2729 68.27961,1.8467 0,0 0,0 0,0 33.19922,3.3946 66.3546,6.9904 99.39281,11.2427 0,0 0,0 0,0 66.2007,7.0919 133.12583,5.8495 199.01619,-1.6388 0,0 0,0 0,0 28.91984,-3.1687 57.71694,-7.3386 86.45184,-11.9424 0,0 0,0 0,0 22.1053,-0.6708 44.5083,-1.5502 66.8114,-2.6325 0,0 0,0 0,0 -1.1321,0.2118 -2.2692,0.4284 -3.4081,0.6532 0,0 0,0 0,0 -16.819,3.3892 -32.9375,5.8151 -49.4837,8.6245 0,0 0,0 0,0 -32.8632,5.3909 -65.8835,10.3337 -99.15394,13.9759 0,0 0,0 0,0 -36.4905,4.1417 -73.35743,6.394 -110.2724,6.394 0,0 0,0 0,0 -30.30807,0 -60.67331,-1.5182 -90.91937,-4.7578 m 545.56801,-10.4021 c 1.2509,-19.9098 3.7393,-39.8789 7.2625,-59.6438 0,0 0,0 0,0 2.1594,-20.4058 5.472,-40.8352 7.8859,-61.4246 0,0 0,0 0,0 -0.3227,28.328 -0.7425,54.919 -1.2765,78.9994 0,0 0,0 0,0 -1.526,11.6991 -3.0685,23.3935 -4.6145,34.9523 0,0 0,0 0,0 -0.4601,3.8387 -1.3617,9.4151 -1.4572,11.8124 0,0 0,0 0,0 -0.032,0.5306 -0.038,1.0936 -0.036,1.672 0,0 0,0 0,0 0,0 -7.7641,-6.3677 -7.7641,-6.3677 0,0 0,0 0,0 m -740.46757,-64.8319 c 1.87882,-23.2275 2.51042,-46.7872 1.08605,-70.523 0,0 0,0 0,0 -0.61922,-13.8258 -1.37761,-27.7088 -2.40084,-41.6263 0,0 0,0 0,0 -0.16966,-25.544 -0.27281,-51.9911 -0.31732,-78.8625 0,0 0,0 0,0 0.77874,4.6334 1.52004,9.2713 2.21659,13.9179 0,0 0,0 0,0 5.48924,35.8781 7.88846,71.5129 9.41797,106.4801 0,0 0,0 0,0 0.94037,17.6071 1.04514,35.3923 0.0938,52.8492 0,0 0,0 0,0 -0.45506,8.5268 -1.1504,17.657 -1.83625,25.5476 0,0 0,0 0,0 -0.61087,8.8188 -1.57175,17.6388 -2.83677,25.9552 0,0 0,0 0,0 -1.20086,8.4325 -2.62062,16.7311 -4.03028,24.9211 0,0 0,0 0,0 -0.54366,-17.6896 -1.00523,-37.3904 -1.39293,-58.6593 m 727.22235,54.1424 c -2.2238,-0.3471 -3.5176,-0.5179 -6.5073,-1.0097 0,0 0,0 0,0 0,0 -5.9331,-1.0442 -5.9331,-1.0442 -7.9312,-1.3208 -15.9136,-2.5038 -23.9744,-3.3821 0,0 0,0 0,0 -20.1906,-2.3847 -40.6386,-3.3357 -61.1893,-3.3218 0,0 0,0 0,0 21.4428,-1.5948 42.2596,-3.399 62.0672,-5.4081 0,0 0,0 0,0 7.3055,0.7957 14.5872,1.7207 21.8438,2.7618 0,0 0,0 0,0 0,0 2.5902,2.124 2.5902,2.124 1.6637,-12.5132 3.2556,-25.0746 4.6378,-37.6979 0,0 0,0 0,0 3.7483,-34.7115 6.7839,-69.8544 7.4034,-105.2971 0,0 0,0 0,0 0.2292,-35.7447 -3.3354,-71.5997 -9.7227,-106.9265 0,0 0,0 0,0 -2.317,-13.7476 -5.3743,-27.2973 -8.6421,-40.8239 0,0 0,0 0,0 -0.065,-13.3176 -0.1405,-26.6507 -0.2247,-39.9269 0,0 0,0 0,0 1.8824,8.2896 3.8836,16.5175 6.0399,24.5115 0,0 0,0 0,0 4.5142,17.7774 8.4678,35.7156 11.7149,53.8054 0,0 0,0 0,0 6.4558,35.9327 10.0646,72.5232 9.7918,109.0817 0,0 0,0 0,0 -0.6853,36.5032 -3.7579,71.2191 -7.5824,106.4835 0,0 0,0 0,0 -1.6089,14.5443 -3.4908,28.975 -5.4404,43.3315 0,0 0,0 0,0 0,0 3.3868,2.7772 3.3868,2.7772 -0.085,-0.013 -0.1732,-0.025 -0.2594,-0.038 m 21.1,-260.8258 c -3.3753,-17.7252 -7.4681,-35.3108 -11.9722,-52.8101 0,0 0,0 0,0 -2.2753,-8.7714 -4.664,-17.5192 -7.1348,-26.2501 0,0 0,0 0,0 -2.6729,-8.6776 -5.0129,-17.4908 -6.5766,-26.612 0,0 0,0 0,0 -6.7416,-36.4089 -11.7573,-73.9132 -11.5122,-112.1627 0,0 0,0 0,0 0.1936,-19.2377 1.7833,-38.55683 4.0193,-57.85146 0,0 0,0 0,0 2.1016,-19.39658 4.8039,-38.84083 9.0433,-58.01219 0,0 0,0 0,0 3.0229,-14.11439 6.5385,-28.13009 10.1755,-42.15287 0,0 0,0 0,0 0,0 13.6751,-14.63164 13.6751,-14.63164 -0.2074,0.77277 -0.4158,1.55111 -0.6214,2.32362 0,0 0,0 0,0 -5.0242,19.09387 -10.041,38.01642 -14.1076,56.9164 0,0 0,0 0,0 -4.1331,18.63835 -6.784,37.4211 -8.885,56.66509 0,0 0,0 0,0 -2.2302,19.05401 -3.7918,37.97585 -3.9948,56.49005 0,0 0,0 0,0 -0.3139,36.8173 4.5881,73.9812 11.1689,109.7273 0,0 0,0 0,0 0.8279,4.0591 1.9541,9.7322 2.5276,12.4554 0,0 0,0 0,0 0,0 3.8017,13.2203 3.8017,13.2203 2.4828,8.8143 4.8866,17.6521 7.1795,26.5273 0,0 0,0 0,0 4.2182,16.4591 8.077,33.0304 11.3454,49.7617 0,0 0,0 0,0 -0.011,20.4781 -0.053,40.7874 -0.1322,60.7211 0,0 0,0 0,0 -1.7999,-18.2123 -4.5479,-36.3492 -7.9995,-54.3252 m -713.46427,-75.68 c -6.17782,-36.1996 -13.50598,-72.4906 -20.79498,-109.0936 0,0 0,0 0,0 -3.78644,-18.3916 -7.11997,-36.9702 -11.16475,-55.45931 0,0 0,0 0,0 -1.39382,-6.22442 -2.35444,-12.51746 -3.1143,-18.84895 0,0 0,0 0,0 0.66257,-54.5717 1.51775,-102.05533 2.47947,-136.21173 0,0 0,0 0,0 0,0 2.28847,2.44961 2.28847,2.44961 -1.236,12.85038 -1.96407,25.60834 -1.82357,38.37905 0,0 0,0 0,0 0.14593,19.37871 0.60573,37.72678 2.5533,56.73711 0,0 0,0 0,0 0.77474,9.80466 2.03783,17.90885 2.92276,29.05272 0,0 0,0 0,0 0.36217,8.63254 1.9361,17.44155 3.7317,26.2358 0,0 0,0 0,0 4.13208,19.0169 7.35697,37.1517 11.14952,55.6783 0,0 0,0 0,0 7.25181,36.6105 14.56723,73.0232 20.75059,109.477 0,0 0,0 0,0 0.44846,2.6321 0.8916,5.2643 1.32948,7.8976 0,0 0,0 0,0 -0.12403,20.5319 -0.22395,41.1599 -0.2929,61.6044 0,0 0,0 0,0 -2.73424,-22.5918 -6.0406,-45.2374 -10.01479,-67.898 m 714.60137,-29.6549 c -5.9662,-36.59 -11.1784,-74.0549 -10.6878,-112.3384 0,0 0,0 0,0 0.6478,-38.25964 7.34,-76.49893 15.1625,-114.47868 0,0 0,0 0,0 0.2623,14.73202 0.5111,30.47389 0.741,47.03758 0,0 0,0 0,0 -3.6616,22.57878 -6.2114,45.05498 -6.6028,67.2685 0,0 0,0 0,0 -0.4482,31.8266 3.2416,63.7626 8.1017,95.5065 0,0 0,0 0,0 0.079,15.4928 0.1434,31.1214 0.1901,46.7912 0,0 0,0 0,0 -3.0145,-9.6345 -5.5999,-19.4653 -6.9047,-29.7867 m -705.36668,-79.358 c -8.92071,-36.4531 -15.15121,-74.02115 -17.96146,-112.15994 0,0 0,0 0,0 -1.82457,-24.96124 -2.91251,-50.19747 -2.35155,-75.4162 0,0 0,0 0,0 0,0 3.27228,3.50111 3.27228,3.50111 30.44631,3.22551 60.98648,3.74383 91.49198,2.02719 0,0 0,0 0,0 35.48656,-2.1831 71.30023,-5.71269 105.71078,-12.67131 0,0 0,0 0,0 34.18822,-6.82334 68.4895,-14.01428 103.27889,-20.02172 0,0 0,0 0,0 16.71182,0.01 33.3318,0.0209 49.86609,0.0209 0,0 0,0 0,0 5.61973,0 11.25271,0 16.89365,-0.01 0,0 0,0 0,0 -20.56132,2.05249 -41.07262,5.10477 -61.51062,9.4529 0,0 0,0 0,0 -35.62569,6.05643 -70.91367,13.46784 -106.21815,20.50605 0,0 0,0 0,0 -35.23959,7.10549 -71.19482,10.61866 -107.13275,12.83643 0,0 0,0 0,0 -27.23416,1.53662 -54.65141,1.31054 -81.96284,-0.998 0,0 0,0 0,0 0,0 -4.37723,-4.68388 -4.37723,-4.68388 -0.16361,21.59905 0.84418,43.13438 2.38585,64.91021 0,0 0,0 0,0 2.01616,27.45026 5.70059,53.98664 10.96207,80.44686 0,0 0,0 0,0 -0.14675,13.2258 -0.28978,26.8876 -0.4272,40.8716 0,0 0,0 0,0 -0.63644,-2.8714 -1.27244,-5.7448 -1.91996,-8.6173 M 1291.0708,891.80205 c 0,0 3.7998,-4.0649 3.7998,-4.0649 -1.2706,5.0406 -2.4764,10.09524 -3.6095,15.20513 0,0 0,0 0,0 -0.065,-3.87833 -0.1285,-7.60221 -0.1903,-11.14023 m -478.35303,-2.79011 c 34.02997,-7.20194 68.36406,-13.68701 103.02791,-18.95609 0,0 0,0 0,0 71.95483,-11.00277 146.41142,-16.02555 219.08142,-10.74331 0,0 0,0 0,0 18.3016,0.92222 36.0528,1.56595 54.4139,2.40362 0,0 0,0 0,0 19.1733,1.3106 35.7974,2.95565 54.5243,4.23797 0,0 0,0 0,0 22.2082,1.31315 44.1911,4.99151 65.4226,6.46371 0,0 0,0 0,0 0,0 -6.6375,7.10111 -6.6375,7.10111 -127.9811,-6.28732 -257.3461,-23.0102 -385.1203,0.55049 0,0 0,0 0,0 -17.76004,2.69772 -35.45027,5.71859 -53.07483,8.99424 0,0 0,0 0,0 -17.09512,-0.0433 -34.29553,-0.0706 -51.6375,-0.0517 M 595.84658,846.01786 c -2.36429,-0.41031 -4.72906,-0.8273 -7.0939,-1.24053 0,0 0,0 0,0 0,0 -2.00043,-2.14182 -2.00043,-2.14182 25.70949,-0.92393 51.09006,-1.64268 76.18333,-2.20369 0,0 0,0 0,0 0,0 0.0318,0 0.0318,0 0,0 3.30312,-9.5e-4 3.30312,-9.5e-4 0,0 0.82358,0 0.82358,0 -0.0318,0 0.06,0 0.15006,0 0,0 0,0 0,0 0.0644,0 0.12888,0 0.14565,0 0,0 0,0 0,0 0,0 0.0318,0 0.0318,0 0,0 1.70589,-0.0941 1.70589,-0.0941 0,0 1.08205,-0.0599 1.08205,-0.0599 34.04072,-0.72088 67.5422,-1.15651 100.58097,-1.41619 0,0 0,0 0,0 -4.51662,0.9017 -9.0268,1.81367 -13.54459,2.69979 0,0 0,0 0,0 -17.5497,3.72038 -35.35936,6.30715 -53.3735,7.15673 0,0 0,0 0,0 -15.56839,1.12842 -31.22028,1.86947 -46.87443,1.87042 0,0 0,0 0,0 -20.40845,0 -40.83538,-1.2592 -61.1512,-4.56592 m 560.66182,-7.13343 c 58.5714,0.4813 118.6,1.52554 180.5133,3.7511 0,0 0,0 0,0 0,0 -4.9603,5.30799 -4.9603,5.30799 -58.4025,-0.0256 -116.9377,-5.24621 -175.553,-9.05909" /></g></g></g><path
         d="m 525.05288,1176.2324 c -65.25543,-5.7768 -130.77242,-10.6398 -196.62117,-10.8789 0,0 0,0 0,0 -11.39377,-0.2891 -22.78808,-0.5012 -34.18109,-0.681 0,0 0,0 0,0 -61.03049,-3.6827 -119.88806,-7.7813 -175.09889,-12.2599 0,0 0,0 0,0 28.98512,-2.0251 58.49667,-3.5986 88.84394,-3.455 0,0 0,0 0,0 39.82764,0.7109 80.71649,0.8626 120.35365,1.8726 0,0 0,0 0,0 39.46841,0.5374 81.63809,1.9979 121.27815,4.6555 0,0 0,0 0,0 42.74374,2.4334 79.5867,7.2423 119.65639,10.1528 0,0 0,0 0,0 157.04531,17.9089 314.04732,18.7105 470.01634,5.6716 0,0 0,0 0,0 78.0319,-6.4903 155.7922,-15.9583 233.7006,-26.2523 0,0 0,0 0,0 39.0105,-5.1507 78.0818,-10.4816 117.3105,-15.7229 0,0 0,0 0,0 41.0168,-5.2208 80.5802,-8.8776 121.8638,-11.0522 0,0 0,0 0,0 82.4084,-3.9143 163.6485,-1.7344 244.6024,5.6954 0,0 0,0 0,0 20.14,1.8794 40.1919,4.1359 60.028,6.8722 0,0 0,0 0,0 8.9939,1.1336 21.91,3.2673 27.67,3.5848 0,0 0,0 0,0 0,0 29.7811,2.8939 29.7811,2.8939 2.5105,0.2482 5.0272,0.5223 7.5367,0.784 0,0 0,0 0,0 0,0 21.8641,12.4126 21.8641,12.4126 -8.3477,0.7053 -16.7885,1.4038 -25.3142,2.0913 0,0 0,0 0,0 -41.8932,-4.7861 -83.9939,-9.0998 -125.8179,-14.2177 0,0 0,0 0,0 -78.6497,-7.2462 -159.0061,-9.3739 -238.7747,-5.571 0,0 0,0 0,0 -79.9922,3.676 -157.8225,16.3447 -236.0071,26.4527 0,0 0,0 0,0 -78.0598,10.2985 -156.3362,19.8307 -235.2594,26.391 0,0 0,0 0,0 -3.3214,0.2802 -6.6506,0.5429 -9.9757,0.8109 0,0 0,0 0,0 -10.9468,0.04 -21.7957,0.062 -32.5055,0.062 0,0 0,0 0,0 -144.40407,0 -310.94445,-3.6482 -474.95001,-10.3124 m 984.66821,-11.4855 c 62.5313,-3.8462 125.0444,-2.946 186.6802,0.485 0,0 0,0 0,0 -112.2747,6.6693 -231.6131,11.9325 -348.9347,15.5595 0,0 0,0 0,0 53.3457,-6.9685 107.1103,-12.8135 162.2545,-16.0445 m -946.65381,-28.2783 c -79.51642,-7.0838 -159.31483,-13.0738 -239.21878,-18.7289 0,0 0,0 0,0 -54.48745,-3.5308 -109.99857,-5.9715 -164.33546,-3.0763 0,0 0,0 0,0 0,0 27.66614,-15.7061 27.66614,-15.7061 46.63997,-0.9548 93.16776,1.3216 138.3848,4.2338 0,0 0,0 0,0 40.47785,2.7558 80.24187,5.7773 120.34821,8.9256 0,0 0,0 0,0 20.4459,1.7981 38.35302,2.5004 60.56555,4.7768 0,0 0,0 0,0 19.58884,1.9235 39.2682,3.6506 58.90018,5.0889 0,0 0,0 0,0 157.28061,11.6666 316.44217,9.6605 473.73957,-2.7316 0,0 0,0 0,0 12.1906,-0.9263 24.3771,-1.9206 36.5557,-2.9436 0,0 0,0 0,0 56.3233,-0.3919 114.9279,-1.2124 174.4589,-2.4631 0,0 0,0 0,0 -69.159,7.6693 -138.468,14.6159 -208.0723,19.8945 0,0 0,0 0,0 -87.10013,6.8516 -174.93589,10.5641 -262.7641,10.5641 0,0 0,0 0,0 -72.14579,0 -144.33787,-2.5032 -216.22841,-7.8341 m -436.2025,-59.2871 c 8.68574,-55.5872 12.30921,-110.66072 9.25659,-168.21169 0,0 0,0 0,0 -0.6112,-28.61939 -2.32865,-57.29302 -5.38959,-86.07492 0,0 0,0 0,0 -4.48505,-27.64433 -9.89401,-57.71906 -15.77133,-86.59002 0,0 0,0 0,0 -8.03435,-39.12927 -17.21259,-78.39833 -27.241154,-117.82377 0,0 0,0 0,0 0.04293,-27.47786 0.137663,-55.02118 0.275627,-82.44565 0,0 0,0 0,0 1.88129,6.74973 3.744519,13.49459 5.583756,20.23757 0,0 0,0 0,0 16.238881,59.63527 30.819471,118.99453 42.860561,178.10008 0,0 0,0 0,0 5.91501,29.37514 11.18832,58.68241 15.84309,87.90749 0,0 0,0 0,0 3.06083,29.1772 4.75941,58.26681 5.33016,87.20635 0,0 0,0 0,0 5.64751,73.58408 -5.71078,145.07226 -16.84462,215.81856 0,0 0,0 0,0 0,0 -24.0903,13.6751 -24.0903,13.6751 3.18493,-20.8274 7.25197,-41.1064 10.18721,-61.7991 m 1726.66551,44.8852 c 0.2339,-1.2113 0.4609,-2.4677 0.6775,-3.8142 0,0 0,0 0,0 5.4368,-28.5955 10.7254,-56.9484 16.0213,-85.7613 0,0 0,0 0,0 5.9453,-29.2186 9.1811,-56.76442 16.0119,-87.31286 0,0 0,0 0,0 6.0361,-28.19789 9.3676,-56.83669 9.8069,-85.62467 0,0 0,0 0,0 1.1099,-57.96528 -8.5566,-116.29588 -24.6323,-173.95208 0,0 0,0 0,0 -8.0392,-29.03092 -17.7984,-57.91446 -28.5598,-86.72132 0,0 0,0 0,0 -5.427,-14.44092 -11.142,-28.8594 -17.057,-43.26989 0,0 0,0 0,0 0,0 -9.0494,-21.63519 -9.0494,-21.63519 -3.5201,-10.3411 -4.855,-16.00718 -7.3908,-24.25608 0,0 0,0 0,0 -4.0798,-14.05166 -7.6075,-28.46677 -10.7571,-42.94341 0,0 0,0 0,0 -1.179,-99.77117 -2.7373,-193.85476 -4.2514,-269.32193 0,0 0,0 0,0 4.5392,-25.29944 10.31,-50.92844 18.3449,-76.1649 0,0 0,0 0,0 4.3576,-14.16102 9.1337,-28.19688 14.1065,-42.169643 0,0 0,0 0,0 0,0 32.3453,-23.957369 32.3453,-23.957369 -8.7535,23.360198 -17.2148,46.708582 -24.4902,70.221392 0,0 0,0 0,0 -10.2035,31.93708 -16.7074,64.32874 -21.7655,96.64101 0,0 0,0 0,0 -5.3817,32.14241 -9.2078,64.32563 -9.6737,96.37323 0,0 0,0 0,0 -0.5899,63.71893 11.4818,126.19632 27.7076,186.84892 0,0 0,0 0,0 3.7635,15.1948 9.3954,29.8764 15.8286,44.33229 0,0 0,0 0,0 5.9466,14.54463 11.6959,29.11721 17.1719,43.72934 0,0 0,0 0,0 10.8405,29.15164 20.6912,58.44706 28.8147,87.97501 0,0 0,0 0,0 8.3075,29.94571 14.9213,60.1596 19.2532,90.49894 0,0 0,0 0,0 -0.3116,55.65975 -0.8664,109.57316 -1.6988,160.12671 0,0 0,0 0,0 -5.8097,34.29932 -13.7826,68.3321 -18.9799,102.3256 0,0 0,0 0,0 -8.4796,32.9258 -14.4687,66.1918 -17.4794,99.3591 0,0 0,0 0,0 0,0 -20.305,-11.5267 -20.305,-11.5267 0,0 0,0 0,0 m -44.53,-25.2785 c -17.4653,-1.7343 -34.991,-3.2753 -52.5738,-4.6008 0,0 0,0 0,0 13.3198,-0.934 26.4829,-1.8913 39.397,-2.8801 0,0 0,0 0,0 0,0 0.1376,0.078 0.1376,0.078 3.3305,-17.7459 6.515,-35.5357 9.3036,-53.3696 0,0 0,0 0,0 8.8311,-56.90223 16.0555,-116.15754 17.384,-173.43945 0,0 0,0 0,0 0.4418,-56.8895 -7.6589,-114.08232 -22.2209,-170.65997 0,0 0,0 0,0 -0.099,-25.147 -0.2364,-50.51926 -0.4132,-75.93486 0,0 0,0 0,0 7.865,22.53368 15.2234,45.10559 20.7998,68.00743 0,0 0,0 0,0 15.3729,58.85005 23.9523,118.57999 23.4007,178.1261 0,0 0,0 0,0 -1.4911,59.04308 -8.797,117.58681 -17.8186,175.41175 0,0 0,0 0,0 -3.3265,21.0288 -7.158,41.9546 -11.1622,62.8 0,0 0,0 0,0 0,0 -6.234,-3.5384 -6.234,-3.5384 0,0 0,0 0,0 M 197.97131,1077.7524 c 1.90361,-12.6147 3.34175,-25.255 4.42906,-37.9361 0,0 0,0 0,0 0.51374,17.7131 1.1033,34.2781 1.77812,49.4913 0,0 0,0 0,0 0,0 -8.59714,4.8799 -8.59714,4.8799 0.86697,-5.4754 1.69145,-10.951 2.38996,-16.4351 M 88.512376,838.76522 c 2.462719,23.18487 4.288013,46.31218 5.778332,69.34427 0,0 0,0 0,0 3.428178,39.54084 1.908041,78.78836 -2.613888,117.48231 0,0 0,0 0,0 C 90.187249,969.03115 89.153425,905.74027 88.512376,838.76522 M 198.1027,823.23992 c -4.0661,-28.7895 -6.97936,-59.42697 -10.10246,-88.29485 0,0 0,0 0,0 -6.99087,-58.6504 -19.18835,-117.69005 -34.02753,-177.06093 0,0 0,0 0,0 -14.85658,-59.88535 -32.52185,-120.13622 -50.15677,-181.10261 0,0 0,0 0,0 -4.752252,-15.8898 -9.286536,-32.12191 -13.888226,-48.2746 0,0 0,0 0,0 0.369997,-27.03496 0.781587,-53.38306 1.229346,-78.82137 0,0 0,0 0,0 1.828838,10.54748 4.140844,21.03087 7.495514,31.39998 0,0 0,0 0,0 9.734966,30.80061 17.758126,61.75008 26.871326,92.38821 0,0 0,0 0,0 17.54318,60.97594 35.1806,121.43228 50.0494,181.73628 0,0 0,0 0,0 9.56507,37.74961 17.52284,75.47443 24.1036,113.10951 0,0 0,0 0,0 -0.28405,58.70835 -0.35241,116.50264 -0.12476,171.03025 0,0 0,0 0,0 -0.4528,-5.41588 -0.92813,-10.80196 -1.44944,-16.10987 m 1711.4569,-223.4811 c -6.4323,-14.54622 -13.28,-26.50055 -20.6895,-42.8391 0,0 0,0 0,0 -6.9253,-15.54478 -11.2821,-31.4824 -15.1526,-47.32922 0,0 0,0 0,0 -14.3972,-60.96589 -27.4549,-124.31162 -26.3566,-190.63284 0,0 0,0 0,0 1.5814,-66.78772 18.3108,-132.27588 37.4708,-196.89662 0,0 0,0 0,0 6.0547,-19.85035 12.781,-39.466281 19.5228,-58.955994 0,0 0,0 0,0 0.6586,19.904369 1.2911,41.614894 1.8923,64.854884 0,0 0,0 0,0 -18.8273,63.26948 -34.9339,126.97133 -36.4932,190.70715 0,0 0,0 0,0 -1.1807,63.77542 11.364,126.18722 25.7235,187.1416 0,0 0,0 0,0 3.1404,17.19408 9.363,33.57096 16.6182,49.62086 0,0 0,0 0,0 0.071,16.73716 0.1264,33.50447 0.1643,50.25621 0,0 0,0 0,0 -0.8977,-1.97601 -1.7748,-3.95854 -2.7,-5.92693 M 176.25066,377.48939 c -21.5852,-60.61929 -37.32791,-125.71554 -44.17145,-189.82414 0,0 0,0 0,0 -5.08144,-46.65911 -7.85089,-95.092149 -5.31486,-142.937311 0,0 0,0 0,0 0,0 22.14563,16.402027 22.14563,16.402027 -1.35012,42.011224 1.26832,84.051614 5.65971,125.633904 0,0 0,0 0,0 6.76371,63.53442 21.75929,126.11813 43.22968,186.84427 0,0 0,0 0,0 1.55844,4.78522 3.08916,9.57184 4.62095,14.35532 0,0 0,0 0,0 -0.32191,22.98569 -0.63088,46.49372 -0.91988,70.34703 0,0 0,0 0,0 -7.9781,-26.88336 -16.41187,-53.8242 -25.24978,-80.8211 m 23.9094,-278.399988 c 0,0 -18.30221,-13.556418 -18.30221,-13.556418 65.73317,3.845738 131.721,4.222357 197.2682,1.662544 0,0 0,0 0,0 86.49542,-3.694522 173.03247,-9.547021 257.84713,-21.383855 0,0 0,0 0,0 84.97084,-11.724757 169.90196,-24.071223 255.64588,-34.160464 0,0 0,0 0,0 49.19017,-7.243423 98.55676,-12.32813 148.04374,-15.747327 0,0 0,0 0,0 139.5892,-0.03644 281.7682,-0.210778 427.7526,0.621219 0,0 0,0 0,0 141.0754,6.351777 281.9581,15.048624 422.5213,15.091325 0,0 0,0 0,0 0,0 -27.1181,20.089251 -27.1181,20.089251 -65.7609,0.654522 -130.4852,-4.581656 -191.9445,-8.570816 0,0 0,0 0,0 -86.5158,-3.765361 -173.5473,-8.839911 -259.6655,-11.915399 0,0 0,0 0,0 -86.6593,-2.178114 -173.6529,-7.083955 -258.7901,-3.418508 0,0 0,0 0,0 -85.709,2.716264 -171.18125,10.506823 -256.25428,20.563416 0,0 0,0 0,0 -84.98906,9.987934 -169.64036,22.273969 -254.6438,33.99163 0,0 0,0 0,0 -66.0851,9.197432 -132.19725,14.759989 -198.63022,18.55275 0,0 0,0 0,0 -72.08338,0.64081 -145.49062,1.70611 -220.58787,3.42123 0,0 0,0 0,0 -5.66589,-0.20673 -11.33522,-0.43539 -16.99989,-0.69227 0,0 0,0 0,0 0,0 -5.75727,-4.263074 -5.75727,-4.263074 0,0 7.17357,5.312414 7.17357,5.312414 -0.56208,22.30646 -1.16273,48.79791 -1.77621,78.56319 0,0 0,0 0,0 -3.26521,-27.85187 -5.24327,-55.96164 -5.78247,-84.160838 M 1672.2679,95.256514 c -41.7249,-1.95718 -88.2783,-5.017873 -128.9815,-6.930855 0,0 0,0 0,0 -42.8602,-1.354608 -87.2519,-2.475529 -130.2626,-3.976621 0,0 0,0 0,0 -168.7554,-8.413938 -335.8799,-0.90143 -502.63968,16.067702 0,0 0,0 0,0 -48.11609,-0.0815 -96.4403,-0.20527 -145.12396,-0.29147 0,0 0,0 0,0 42.41882,-5.456795 84.99566,-10.489193 127.74053,-14.983257 0,0 0,0 0,0 307.52711,-39.249091 618.88281,-11.390902 926.90751,-0.917039 0,0 0,0 0,0 0,0 -26.4723,19.605396 -26.4723,19.605396 -41.1008,-2.9796 -81.1642,-7.139235 -121.168,-8.573856 M 249.36234,53.027281 C 209.37226,52.360199 168.74515,50.2892 129.14046,46.48798 c 0,0 0,0 0,0 0,0 -27.20117,-20.146028 -27.20117,-20.146028 5.69169,0.688396 11.38324,1.383045 17.07361,2.066565 0,0 0,0 0,0 86.37559,9.730191 173.69088,8.820008 259.9964,4.490365 0,0 0,0 0,0 43.35647,-1.415307 86.22081,-5.724538 128.45946,-11.922223 0,0 0,0 0,0 10.87343,-1.476164 21.72855,-2.995408 32.59915,-4.497513 0,0 0,0 0,0 43.01021,-0.234535 85.69878,-0.383508 128.0856,-0.475423 0,0 0,0 0,0 -9.28205,1.300988 -18.55808,2.608075 -27.841,3.914943 0,0 0,0 0,0 -42.34923,5.978568 -84.7515,11.958688 -127.27965,17.720723 0,0 0,0 0,0 -41.52129,6.133381 -88.43287,10.860686 -131.73923,12.195472 0,0 0,0 0,0 -21.7533,0.836088 -43.72661,1.531708 -64.92131,2.381826 0,0 0,0 0,0 0,0 -16.01441,0.610316 -16.01441,0.610316 0,0 -4.00558,0.151395 -4.00558,0.151395 0,0 -1.00297,0.03787 -1.00297,0.03787 -1.81423,0.05045 -1.85677,0.04733 -1.9037,0.04099 0,0 0,0 0,0 -0.0255,0 -0.0509,0 -0.36662,0.0019 0,0 0,0 0,0 0,0 -2.0837,0 -2.0837,0 0,0 -8.32203,0 -8.32203,0 -3.79855,0 -7.59498,0 -11.39141,0 0,0 0,0 0,0 -2.49068,0 -4.98347,0 -7.47415,0 0,0 0,0 0,0 -4.8139,0 -9.62779,0 -14.44602,-0.04411"
         style="fill:url(#linearGradient876);stroke:none"
         id="path884"
         inkscape:connector-curvature="0" /><g
         id="g894"
         transform="matrix(2.4068016,0,0,1.6658742,164.96216,559.22158)"><path
           d="m 8.6323942,-282.26101 c -2.0359039,124.46925 -4.5370038,471.46662 -0.2026797,608.65515 0,0 7.8642515,-8.19104 7.8642515,-8.19104 -4.209192,-137.46029 -0.688855,-466.84389 1.470936,-591.05336 0,0 -9.1325078,-9.41075 -9.1325078,-9.41075 0,0 0,0 0,0"
           style="fill:#6e5031;fill-opacity:1;fill-rule:nonzero;stroke:none"
           id="path896"
           inkscape:connector-curvature="0" /></g><g
         id="g898"
         transform="matrix(2.4068016,0,0,1.6658742,1994.4262,575.88032)"><path
           d="m -83.989478,-282.85026 c -116.964672,-4.04702 -223.799212,-2.51074 -329.182962,-2.51074 -105.38551,0 -212.22093,-1.53628 -329.1856,2.51074 0,0 -9.1325,-9.41075 -9.1325,-9.41075 117.08368,-4.05555 232.82164,-2.51602 338.3181,-2.51602 105.4947,0 221.23178,-1.53953 338.31547,2.51602 0,0 -9.132508,9.41075 -9.132508,9.41075 0,0 0,0 0,0"
           style="fill:#ba8f63;fill-opacity:1;fill-rule:nonzero;stroke:none"
           id="path900"
           inkscape:connector-curvature="0" /></g><g
         id="g902"
         transform="matrix(2.4068016,0,0,1.6658742,2018.4942,559.22158)"><path
           d="m -84.85697,-282.26101 c 2.036777,124.46925 4.537028,471.46662 0.204348,608.65515 0,0 -7.86425,-8.19104 -7.86425,-8.19104 4.207546,-137.46029 0.688924,-466.84389 -1.472605,-591.05336 0,0 9.132507,-9.41075 9.132507,-9.41075 0,0 0,0 0,0"
           style="fill:#6e5031;fill-opacity:1;fill-rule:nonzero;stroke:none"
           id="path904"
           inkscape:connector-curvature="0" /></g><g
         id="g906"
         transform="matrix(2.4068016,0,0,1.6658742,1091.7312,1747.3755)"><path
           d="m -38.112501,-370.49808 c -102.947269,0 -239.910899,-5.43944 -338.520709,-16.33968 0,0 7.86425,-8.19105 7.86425,-8.19105 98.69622,10.92164 227.60831,16.37176 330.656459,16.37176 103.045699,0 231.958601,-5.45012 330.655641,-16.37176 0,0 7.86425,8.19105 7.86425,8.19105 -98.61062,10.90024 -235.575074,16.33968 -338.519891,16.33968"
           style="fill:#634527;fill-opacity:1;fill-rule:nonzero;stroke:none"
           id="path908"
           inkscape:connector-curvature="0" /></g><g
         id="g910"
         transform="matrix(2.4068016,0,0,1.6658742,68.648942,489.22405)"><path
           d="m 11.831294,-280.00252 c -0.30521,-0.039 -6.3697851,160.59151 -6.4068123,351.435448 C 4.8154366,254.18344 11.055727,396.98485 11.506309,396.96941 11.054853,396.94747 9.7226681,254.3474 10.438303,71.675139 10.585469,-119.09106 11.525391,-280.01583 11.831294,-280.00252"
           style="fill:#e8bc90;fill-opacity:1;fill-rule:nonzero;stroke:none"
           id="path912"
           inkscape:connector-curvature="0" /></g><g
         id="g914"
         transform="matrix(2.4068016,0,0,1.6658742,96.747869,1714.0466)"><path
           d="m 36.771756,-366.83079 c -0.432437,-0.0221 -0.602259,-128.97801 0.174622,-293.60186 0.410145,-171.16821 -0.05722,-315.05428 0.02804,-315.05334 -0.08477,-0.0113 -4.728267,143.60787 -5.039085,314.82973 -0.680946,164.68376 4.404565,293.83774 4.836424,293.82547"
           style="fill:#e8bc90;fill-opacity:1;fill-rule:nonzero;stroke:none"
           id="path916"
           inkscape:connector-curvature="0" /></g><g
         id="g918"
         transform="matrix(2.4068016,0,0,1.6658742,68.648942,489.22405)"><path
           d="m 11.831294,-280.00252 c -0.01,-0.51423 167.873926,-2.64874 375.134456,-1.31182 207.26142,-1.33692 375.14621,0.79759 375.13534,1.31182 0.0691,-0.51327 -167.71348,-8.26894 -375.13534,-6.93034 -207.42097,-1.3386 -375.203531,6.41707 -375.134456,6.93034"
           style="fill:#473421;fill-opacity:1;fill-rule:nonzero;stroke:none"
           id="path920"
           inkscape:connector-curvature="0" /></g><g
         id="g922"
         transform="matrix(2.4068016,0,0,1.6658742,2114.8087,489.22405)"><path
           d="m -88.055934,-280.00252 c 0.306786,-0.0133 1.246691,160.91146 1.393839,351.677659 0.713956,182.672261 -0.6174,325.272331 -1.068855,325.294271 0.450581,0.0154 6.691702,-142.78597 6.082676,-325.536482 -0.03701,-190.843938 -6.101567,-351.474418 -6.40766,-351.435448"
           style="fill:#e8bc90;fill-opacity:1;fill-rule:nonzero;stroke:none"
           id="path924"
           inkscape:connector-curvature="0" /></g><g
         id="g926"
         transform="matrix(2.4068016,0,0,1.6658742,-15.617274,1772.3815)"><path
           d="m 46.518243,-373.29154 c -0.155317,0.17473 167.855427,23.62233 375.459497,24.00939 207.60488,-0.38706 375.61566,-23.83547 375.46031,-24.00939 0.0945,0.18367 -168.16351,18.85505 -375.46031,19.23447 -207.29681,-0.37942 -375.554023,-19.0508 -375.459497,-19.23447"
           style="fill:#f5d5b6;fill-opacity:1;fill-rule:nonzero;stroke:none"
           id="path928"
           inkscape:connector-curvature="0" /></g><g
         id="g930"
         transform="matrix(2.4068016,0,0,1.6658742,164.96216,559.22158)"><path
           d="m 8.6323942,-282.26101 c 0.00319,0.0612 37.8447428,-0.79329 99.0669058,-0.86019 61.22185,-0.21766 145.80055,0.97983 239.24944,1.12678 93.44889,-0.14695 178.02848,-1.34444 239.24944,-1.12678 61.22305,0.0669 99.0646,0.92142 99.06779,0.86019 -0.002,0.0612 -37.75324,-2.18424 -98.96264,-3.64351 -61.22108,-1.61065 -145.8889,-1.804 -239.35459,-1.65686 -93.46569,-0.14714 -178.13351,0.0462 -239.35459,1.65686 -61.208521,1.45927 -98.9594413,3.70474 -98.9617558,3.64351"
           style="fill:#f2d0ae;fill-opacity:1;fill-rule:nonzero;stroke:none"
           id="path932"
           inkscape:connector-curvature="0" /></g><g
         id="g934"
         transform="matrix(2.4068016,0,0,1.6658742,2086.7121,1714.0466)"><path
           d="m -112.99657,-366.83079 c 0.43186,0.0123 5.51738,-129.14171 4.83645,-293.82547 -0.31167,-171.22186 -4.95516,-314.84104 -5.04081,-314.82973 0.0861,-9.4e-4 -0.38036,143.88513 0.0289,315.05334 0.77771,164.62385 0.60787,293.57977 0.17544,293.60186"
           style="fill:#e8bc90;fill-opacity:1;fill-rule:nonzero;stroke:none"
           id="path936"
           inkscape:connector-curvature="0" /></g><g
         id="g938"
         transform="matrix(2.4068016,0,0,1.6658742,96.747869,1714.0466)"><path
           d="m 36.771756,-366.83079 c -0.133859,0.47459 151.404394,18.85432 338.519884,18.74598 187.11631,0.10834 338.65457,-18.27139 338.52071,-18.74598 0.0631,0.48195 -151.63144,14.04455 -338.52071,13.932 -186.88763,0.11255 -338.583845,-13.45005 -338.519884,-13.932"
           style="fill:#45311a;fill-opacity:1;fill-rule:nonzero;stroke:none"
           id="path940"
           inkscape:connector-curvature="0" /></g></g><g
       transform="matrix(2.4068016,0,0,1.6658742,1946.074,1185.3041)"
       id="g942" /><g
       id="g946"><g
         id="g948"><g
           id="g954"><g
             id="g956" /></g></g></g><g
       id="g968"><g
         id="g970"><g
           id="g976"><g
             id="g978" /></g></g></g><g
       id="g990"><g
         id="g992"><g
           id="g998"><g
             id="g1000" /></g></g></g><g
       id="g1012"><g
         id="g1014"><g
           id="g1020"><g
             id="g1022" /></g></g></g><g
       id="g1032"><g
         id="g1034"><g
           id="g1040"><g
             id="g1042" /></g></g></g><g
       id="g1052"><g
         id="g1054"><g
           id="g1060"><g
             id="g1062" /></g></g></g><g
       id="g1072"><g
         id="g1074"><g
           id="g1080"><g
             id="g1082" /></g></g></g><g
       id="g1092"><g
         clip-path="url(#clipPath1096)"
         id="g1094"><g
           transform="translate(1398.4043,1842.8818)"
           id="g1100" /><g
           transform="translate(1370.0625,1179.6572)"
           id="g1104" /><g
           transform="translate(1005,1176.9873)"
           id="g1108" /><g
           transform="translate(1005,1862.8887)"
           id="g1112" /><g
           transform="translate(1363.8105,1809.8721)"
           id="g1116" /><g
           transform="translate(1041.6973,1548.2363)"
           id="g1120" /><g
           transform="translate(1353.2207,1494.6719)"
           id="g1124" /><g
           transform="translate(1039.168,1219.7236)"
           id="g1128" /><g
           transform="translate(958.3032,1548.2363)"
           id="g1132" /></g></g><g
       id="g1136"><g
         id="g1138"><g
           id="g1144"><g
             id="g1146" /></g></g></g><g
       id="g1158"><g
         id="g1160"><g
           id="g1166"><g
             id="g1168" /></g></g></g><g
       id="g1180"><g
         id="g1182"><g
           id="g1188"><g
             id="g1190" /></g></g></g><g
       id="g1202"><g
         id="g1204"><g
           id="g1210"><g
             id="g1212" /></g></g></g><g
       id="g1222"><g
         id="g1224"><g
           id="g1230"><g
             id="g1232" /></g></g></g><g
       id="g1242"><g
         id="g1244"><g
           id="g1250"><g
             id="g1252" /></g></g></g><g
       id="g1262"><g
         id="g1264"><g
           id="g1270"><g
             id="g1272" /></g></g></g><path
       sodipodi:nodetypes="ccccc"
       inkscape:connector-curvature="0"
       id="path5677"
       d="m -22.238524,-574.17947 80,1200.00003 1840.000024,0 80,-1200.00003 z"
       style="fill:none;fill-rule:evenodd;stroke:#000000;stroke-width:0.80000001px;stroke-linecap:butt;stroke-linejoin:miter;stroke-opacity:1" /></g></svg>