<?xml version="1.0" encoding="UTF-8" standalone="no"?>
<svg
   xmlns:dc="http://purl.org/dc/elements/1.1/"
   xmlns:cc="http://creativecommons.org/ns#"
   xmlns:rdf="http://www.w3.org/1999/02/22-rdf-syntax-ns#"
   xmlns:svg="http://www.w3.org/2000/svg"
   xmlns="http://www.w3.org/2000/svg"
   xmlns:sodipodi="http://sodipodi.sourceforge.net/DTD/sodipodi-0.dtd"
   xmlns:inkscape="http://www.inkscape.org/namespaces/inkscape"
   preserveAspectRatio="xMidYMid"
   width="2048"
   height="2048"
   viewBox="0 0 2048 2048"
   id="svg2"
   version="1.1"
   inkscape:version="0.91 r"
   sodipodi:docname="appIcon.svg"
   inkscape:export-filename="/home/enis/local/feedthebird/android/src/main/res/drawable-ldpi/icon.png"
   inkscape:export-xdpi="1.5820312"
   inkscape:export-ydpi="1.5820312">
  <metadata
     id="metadata254">
    <rdf:RDF>
      <cc:Work
         rdf:about="">
        <dc:format>image/svg+xml</dc:format>
        <dc:type
           rdf:resource="http://purl.org/dc/dcmitype/StillImage" />
      </cc:Work>
    </rdf:RDF>
  </metadata>
  <sodipodi:namedview
     pagecolor="#ffffff"
     bordercolor="#666666"
     borderopacity="1"
     objecttolerance="10"
     gridtolerance="10"
     guidetolerance="10"
     inkscape:pageopacity="0"
     inkscape:pageshadow="2"
     inkscape:window-width="1920"
     inkscape:window-height="1028"
     id="namedview252"
     showgrid="false"
     inkscape:zoom="0.32593203"
     inkscape:cx="353.44681"
     inkscape:cy="1091.0622"
     inkscape:window-x="0"
     inkscape:window-y="0"
     inkscape:window-maximized="1"
     inkscape:current-layer="svg2" />
  <defs
     id="defs4">
    <style
       id="style6">
      .cls-1, .cls-9 {
        fill: #fff;
      }

      .cls-2 {
        fill: #b0843a;
      }

      .cls-10, .cls-11, .cls-12, .cls-13, .cls-14, .cls-15, .cls-16, .cls-17, .cls-18, .cls-19, .cls-2, .cls-20, .cls-21, .cls-22, .cls-23, .cls-24, .cls-25, .cls-26, .cls-27, .cls-28, .cls-29, .cls-3, .cls-30, .cls-31, .cls-32, .cls-33, .cls-34, .cls-35, .cls-36, .cls-37, .cls-38, .cls-39, .cls-4, .cls-40, .cls-41, .cls-46, .cls-47, .cls-48, .cls-49, .cls-50, .cls-51, .cls-52, .cls-53, .cls-54, .cls-55, .cls-56, .cls-57, .cls-6, .cls-7, .cls-8, .cls-9 {
        fill-rule: evenodd;
      }

      .cls-3 {
        fill: #c89846;
      }

      .cls-4 {
        fill: #dcac5b;
      }

      .cls-5 {
        opacity: 0.5;
      }

      .cls-6 {
        fill: #686969;
      }

      .cls-7 {
        fill: #363636;
      }

      .cls-8 {
        fill: #d2d4d5;
      }

      .cls-10 {
        fill: #373535;
      }

      .cls-11 {
        fill: #2b2928;
      }

      .cls-12 {
        fill: #fbb830;
      }

      .cls-13 {
        fill: #ffcc3b;
      }

      .cls-14 {
        fill: #f9a233;
      }

      .cls-15 {
        fill: #f37636;
      }

      .cls-16 {
        fill: #c4733b;
      }

      .cls-17 {
        fill: #794422;
      }

      .cls-18 {
        fill: #ced7d4;
      }

      .cls-19 {
        fill: #fefeff;
      }

      .cls-20 {
        fill: #343233;
      }

      .cls-21 {
        fill: #fba66f;
      }

      .cls-22 {
        fill: #fcbe95;
      }

      .cls-23 {
        fill: #b46a1e;
      }

      .cls-24 {
        fill: #754311;
      }

      .cls-25 {
        fill: #cc7924;
      }

      .cls-26 {
        fill: #dfc498;
      }

      .cls-27 {
        fill: #fcb831;
      }

      .cls-28 {
        fill: #ffcb3b;
      }

      .cls-29 {
        fill: #fb962e;
      }

      .cls-30 {
        fill: #be6536;
      }

      .cls-31 {
        fill: #f39d26;
      }

      .cls-32 {
        fill: #422a14;
      }

      .cls-33 {
        fill: #6d441d;
      }

      .cls-34 {
        fill: #5a391a;
      }

      .cls-35, .cls-38 {
        fill: #000;
      }

      .cls-35 {
        opacity: 0.6;
      }

      .cls-36 {
        fill: #cd2727;
      }

      .cls-37 {
        fill: #991414;
      }

      .cls-38 {
        opacity: 0.3;
      }

      .cls-39 {
        fill: #d13b3b;
      }

      .cls-40 {
        fill: #d84545;
      }

      .cls-41 {
        fill: #e1e1e1;
      }

      .cls-42 {
        fill: #8a0000;
      }

      .cls-43 {
        fill: #ebebeb;
      }

      .cls-44 {
        fill: #06c;
      }

      .cls-45 {
        fill: #111;
      }

      .cls-46 {
        fill: #ffc200;
      }

      .cls-47 {
        fill: #fff200;
      }

      .cls-48 {
        fill: #403309;
      }

      .cls-49 {
        fill: #8f7218;
      }

      .cls-50 {
        fill: #6e1f28;
      }

      .cls-51 {
        fill: #c19406;
      }

      .cls-52 {
        fill: #fff568;
      }

      .cls-53 {
        fill: #fefac1;
      }

      .cls-54 {
        fill: #f7d135;
      }

      .cls-55 {
        fill: #deab49;
      }

      .cls-56 {
        fill: #f9c560;
      }

      .cls-57 {
        fill: #cc9b3d;
      }
    </style>
  </defs>
  <path
     d="M 0,2048 0,0 2048,0 2048,2048 0,2048 Z M 1765.195,471.585 c 0,-110.457 -89.543,-200 -200,-200 l -1097.39,0 c -110.457,0 -200,89.543 -200,200 l 0,1101.83 c 0,110.457 89.543,200 200,200 l 1097.39,0 c 110.457,0 200,-89.543 200,-200 l 0,-1101.83 z"
     class="cls-2"
     id="path10"
     inkscape:connector-curvature="0"
     style="fill:#b0843a;fill-rule:evenodd" />
  <path
     d="m 1835.889,2048 c 1.366,-5.781 2.111,-11.802 2.111,-18 0,-43.078 -34.922,-78 -78,-78 -43.078,0 -78,34.922 -78,78 0,6.198 0.745,12.219 2.111,18 l -837.69,0 c 43.004,-23.398 113.597,-61.086 152.579,-78 96.725,-41.968 89.848,-1.692 182,-17 90.243,-14.991 165.069,-122.006 306,-134 49.56,-4.218 117.699,22.328 217,39 61.854,10.385 163.749,13.445 220,30 55.062,16.205 96.281,44.075 124,61.106 l 0,98.894 -212.111,0 z M 1562.5,1955 c -20.158,0 -36.5,17.685 -36.5,39.5 0,21.815 16.342,39.5 36.5,39.5 20.158,0 36.5,-17.685 36.5,-39.5 0,-21.815 -16.342,-39.5 -36.5,-39.5 z M 1710,1814 c -62.363,-7.132 -123.579,-27.531 -163.576,-40.585 l 18.771,0 c 99.008,0 181.199,-71.948 197.176,-166.409 61.255,11.939 145.547,38.869 202.629,64.994 40.84,18.692 64.244,37.131 83,48.05 l 0,187.005 c -35.302,-24.227 -89.966,-54.261 -155,-73.055 -60.198,-17.397 -121.291,-12.943 -183,-20 z m 55.195,-247.097 0,-78.347 c 94.155,20.726 188.735,45.945 282.805,75.864 l 0,96.045 c -38.926,-24.857 -107.558,-58.05 -205,-76.465 -25.181,-4.759 -51.148,-10.622 -77.805,-17.097 z m 0,-269.637 c 58.485,19.811 126.817,59.664 212.783,68.789 26.106,2.771 49.688,9.099 70.022,16.161 l 0,131.78 c -39.29,-17.391 -140.744,-46.927 -282.805,-74.598 l 0,-142.132 z m 0,-28.298 0,-61.391 c 66.078,24.241 139.79,44.423 197.805,44.423 31.298,0 59.763,-1.2 85,-3.352 l 0,100.033 c -16.333,-4.812 -35.018,-8.591 -56,-10.681 -71.701,-7.141 -157.933,-48.83 -226.805,-69.032 z M 1943,1214 c -50.531,-4.394 -116.264,-26.269 -177.805,-49.713 l 0,-172.454 c 4.237,0.106 8.503,0.167 12.805,0.167 114.875,0 208,-38.504 208,-86 0,-47.497 -93.125,-86 -208,-86 -4.302,0 -8.568,0.061 -12.805,0.167 l 0,-200.729 C 1815.549,613.165 1872.832,606 1916,606 c 51.973,0 99.25,9.241 132,14.888 l 0,592.275 c -31.377,2.892 -66.94,4.146 -105,0.837 z m -177.805,-633.715 0,-108.7 c 0,-9.615 -0.694,-19.067 -2.005,-28.32 52.164,-1.448 112.858,-3.404 157.585,0.902 50.278,4.84 95.303,17.944 127.225,26.717 l 0,115.895 C 2013.55,573.346 1963.344,562 1910,562 c -42.144,0 -96.614,7.835 -144.805,18.285 z m -10.828,-173.753 c -7.659,-22.277 -19.146,-42.773 -33.668,-60.71 106.284,0.653 181.031,6.901 194.301,8.178 49.495,4.765 97.58,4.977 133,1.475 l 0,79.262 c -32.783,-15.59 -79.019,-30.133 -128.981,-34.942 -47.407,-4.564 -111.441,-0.677 -164.652,6.737 z M 1653.659,292.173 c -26.671,-13.178 -56.701,-20.588 -88.464,-20.588 l -475.577,0 c 26.808,-10.187 53.313,-19.451 79.382,-27.585 221.672,-69.163 714.969,17.398 742,20 51.381,4.946 101.25,4.989 137,1.06 l 0,54.304 c -35.74,-2.984 -84.155,-4.662 -133,-9.364 -18.825,-1.812 -118.841,-16.355 -261.341,-17.827 z M 1127,221 c -46.885,14.916 -93.244,31.938 -138.986,50.585 l -437.952,0 c 19.032,-9.2 38.344,-17.818 57.938,-25.585 247.941,-98.287 602.546,-118 832,-118 104.18,0 278,-17 278,-17 0,0 85.538,25.219 200,26 42.093,0.287 88.942,-3.343 130,-7.799 l 0,105.358 c -43.143,-1.054 -105.714,0.763 -161,-4.559 -26.394,-2.541 -546.597,-76.891 -760,-9 z m 9,-117 c -321.523,6.027 -504.066,77.172 -675.579,167.735 -65.623,2.383 -123.177,36.372 -157.892,87.21 C 278.007,372.566 252.946,386.291 227,400 194.865,416.979 146.881,420.517 116,439 67.839,467.825 31.983,504.963 0,530.104 L 0,364.605 C 16.212,361.258 36.274,355.35 57.539,347.325 77.143,339.927 165.262,212.191 334,142 385.26,120.677 569.775,93.579 626,76 734.26,42.152 813.878,17.211 866.871,0 L 2048,0 l 0,97.082 c -24.915,-1.764 -55.209,-3.225 -92,-4.082 -175.753,-4.093 -495.916,4.925 -820,11 z M 212.92,75.577 C 135.596,113.539 62.543,170.848 0,235.757 L 0,0 447.413,0 C 370.775,25.071 289.577,37.942 212.92,75.577 Z M 329,114 C 224.293,155.071 124.101,229.596 44.475,312.708 30.362,327.44 14.237,336.944 0,343.638 L 0,287.38 C 40.371,238.727 111.068,159.445 220.212,103.069 269.539,77.59 451.19,35.365 505.773,13.208 516.937,8.677 527.768,4.28 538.306,0 L 799.898,0 C 739.082,14.417 664.334,33.071 585,54 501.729,75.967 413.947,80.68 329,114 Z M 129,473 c 37.174,-23.3 83.066,-10.897 128,-34 4.931,-2.535 9.904,-5.173 14.898,-7.859 -2.682,13.062 -4.093,26.588 -4.093,40.444 0,0 0,82.3 0,201.91 C 254.367,681.827 241.09,690.01 228,698 146.452,747.775 63.685,788.868 0,818.638 L 0,590.643 C 3.609,588.178 7.26,585.654 11,583 45.911,558.23 81.007,503.081 129,473 Z M 267.805,844.011 C 155.818,899.738 64.474,936.244 0,959.734 L 0,846.897 c 69.994,-22.21 165.62,-60.51 267.805,-121.592 0,37.335 0,77.262 0,118.706 z m 0,51.421 c 0,310.512 0,677.983 0,677.983 0,36.182 9.61,70.12 26.414,99.402 C 208.429,1723.721 80.703,1797.061 90,1832 117.638,1935.865 52.448,1961.29 0,1981.562 L 0,992.766 C 32.007,986.602 71.515,976.648 119,961 168.129,944.811 217.578,922.286 267.805,895.432 Z M 166,1802 c 6.707,-7.034 53.332,-12.482 116,-68 10.736,-9.511 22.076,-19.724 33.961,-30.427 36.68,42.752 91.095,69.842 151.844,69.842 l 236.181,0 c -30.85,27.988 -59.925,60.537 -84.986,100.585 -15.277,24.413 -174.669,130.576 -220.635,174 l -348.783,0 c 10.717,-5.853 22.482,-13.378 35.418,-23 36.904,-27.449 40.696,-180.733 81,-223 z m 650.574,-28.585 605.361,0 C 1343.751,1802.558 1281.483,1875.799 1177,1907 c -58.566,17.489 -91.638,-14.363 -150,10 -101.738,42.47 -186.356,94.442 -237.433,131 l -310.55,0 c 49.887,-36.387 117.624,-89.015 174.983,-142 55.097,-50.897 108.612,-100.433 162.574,-132.585 z"
     class="cls-3"
     id="path12"
     inkscape:connector-curvature="0"
     style="fill:#c89846;fill-rule:evenodd" />
  <path
     d="m 1941,151 c -87.491,1.403 -178.405,-13.627 -243,-16 -0.783,-0.029 -1.58,-0.055 -2.378,-0.081 61.684,19.651 109.201,50.009 145.746,89.429 C 1705.25,207.666 1306.996,163.737 1127,221 c -46.885,14.916 -93.244,31.938 -138.986,50.585 l -437.953,0 c 19.033,-9.2 38.345,-17.818 57.939,-25.585 247.941,-98.287 602.546,-118 832,-118 104.18,0 278,-17 278,-17 0,0 85.538,25.219 200,26 42.093,0.287 88.942,-3.343 130,-7.799 l 0,17.315 c -33.532,2.174 -70.06,3.891 -107,4.484 z M 615,98 c -1.754,0.36 -3.494,0.714 -5.227,1.063 C 671.127,94.981 735.166,94.016 801,94 c 141.14,-0.035 290.25,4.254 424.155,8.263 -29.613,0.595 -59.367,1.179 -89.155,1.737 -321.523,6.027 -504.066,77.172 -675.579,167.735 -65.623,2.383 -123.177,36.372 -157.892,87.209 C 278.007,372.566 252.946,386.291 227,400 c -32.135,16.979 -80.119,20.517 -111,39 -6.326,3.786 -12.428,7.721 -18.348,11.748 10.754,-60.786 26.244,-113.786 48.156,-153.352 C 130.799,313.868 114.923,331.997 98,352 73.844,380.551 32.954,358.084 0,391 L 0,364.605 C 16.212,361.258 36.274,355.35 57.539,347.325 77.143,339.927 165.262,212.191 334,142 385.26,120.677 569.775,93.579 626,76 734.26,42.152 813.878,17.211 866.871,0 l 45.113,0 C 840.643,31.436 730.785,74.193 615,98 Z m -355.207,92.639 c 45.634,-27.655 95.902,-47.478 149.897,-61.665 -52.788,8.901 -97.128,23.082 -149.897,61.665 z M 489,56 C 258.911,123.965 185.931,117.144 0,291.487 L 0,287.38 C 40.371,238.727 111.068,159.445 220.212,103.069 269.539,77.59 451.19,35.365 505.773,13.208 516.937,8.677 527.768,4.28 538.307,0 l 121.29,0 C 606.94,18.812 548.398,38.454 489,56 Z m -357.049,67.16 c -8.775,6.007 -17.459,12.226 -26.038,18.644 8.688,-7.123 17.379,-13.439 26.038,-18.644 z m 2.363,1651.48 C 50.124,1637.986 88,1378.419 88,1196 88,1154.629 84.445,1087.482 81.125,1007.27 62.798,1015.449 31.604,1025.053 0,1035.082 L 0,992.766 C 32.007,986.602 71.515,976.647 119,961 c 49.129,-16.189 98.578,-38.714 148.805,-65.568 0,310.512 0,677.983 0,677.983 0,36.182 9.61,70.12 26.414,99.402 -51.017,30.271 -116.863,68.477 -159.905,101.823 z M 257,439 c 4.931,-2.535 9.904,-5.173 14.898,-7.859 -2.682,13.062 -4.093,26.588 -4.093,40.444 0,0 0,82.3 0,201.91 C 254.367,681.827 241.09,690.01 228,698 175.898,729.802 123.307,758.052 75.504,782.077 75.353,704.031 77.616,624.4 84.526,550.599 67.898,566.818 32.521,591.868 0,616.326 l 0,-25.683 c 3.609,-2.466 7.26,-4.99 11,-7.643 34.911,-24.77 70.007,-79.919 118,-110 37.174,-23.3 83.066,-10.897 128,-34 z m 10.805,286.305 c 0,37.335 0,77.262 0,118.706 -72.38,36.018 -136.12,63.996 -189.572,85.63 -0.814,-25.163 -1.513,-51.072 -2,-77.461 C 57.094,859.868 28.607,868.628 0,877.718 l 0,-30.821 c 69.994,-22.21 165.62,-60.51 267.805,-121.592 z m 1698.112,841.714 c -1.552,16.87 -3.54,33.499 -6.013,49.842 -32.713,-12.595 -71.703,-24.319 -116.904,-32.861 -25.181,-4.759 -51.148,-10.622 -77.805,-17.097 l 0,-78.347 c 94.155,20.726 188.735,45.945 282.805,75.864 l 0,23.313 c -24.944,-5.552 -55.049,-12.78 -82.083,-20.714 z m 3.972,-174.846 c 0.892,32.058 1.157,63.97 0.416,95.417 -51.163,-14.781 -121.021,-31.813 -205.11,-48.192 l 0,-142.132 c 58.485,19.811 126.817,59.664 212.783,68.789 26.106,2.771 49.688,9.099 70.022,16.161 l 0,19.901 c -24.207,-2.419 -52.422,-5.721 -78.111,-9.944 z M 1169,244 c 221.672,-69.163 714.969,17.398 742,20 51.381,4.946 101.25,4.989 137,1.06 l 0,8 c -22.035,-1.558 -52.09,-2.284 -84.125,1.053 -29.942,3.12 -58.388,3.411 -83.433,2.225 6.162,10.151 11.86,20.705 17.128,31.644 -38.152,-4.535 -126.639,-14.597 -243.911,-15.809 -26.671,-13.178 -56.701,-20.588 -88.464,-20.588 l -475.577,0 C 1116.426,261.398 1142.931,252.134 1169,244 Z m 774,970 c -50.531,-4.394 -116.264,-26.269 -177.805,-49.713 l 0,-172.454 c 4.237,0.106 8.503,0.167 12.805,0.167 114.875,0 208,-38.504 208,-86 0,-10.122 -4.243,-19.834 -12.011,-28.854 19.531,18.933 31.58,43.949 -6.698,81.52 -3.354,3.293 -6.902,6.264 -10.585,8.907 -0.418,31.105 -0.706,62.606 -0.706,94.427 0,48.633 2.448,100.256 5.349,153.253 -6.048,-0.309 -12.162,-0.715 -18.349,-1.253 z m 15.4,-350.836 C 1922.493,837.368 1855.152,820 1778,820 c -4.302,0 -8.568,0.06 -12.805,0.167 l 0,-200.729 C 1815.549,613.165 1872.832,606 1916,606 c 51.973,0 99.25,9.241 132,14.888 l 0,13.802 c -26.016,-1.032 -59.379,-2.872 -89.766,-6.116 2.582,73.412 1.561,152.16 0.166,234.59 z M 2048,476.443 c -29.493,-1.261 -66.789,-3.534 -98.522,-7.591 -1.767,-0.226 -3.523,-0.457 -5.274,-0.69 4.846,30.685 8.285,62.894 10.683,96.431 C 1940.382,562.94 1925.322,562 1910,562 c -42.144,0 -96.614,7.835 -144.805,18.285 l 0,-108.7 c 0,-9.615 -0.694,-19.067 -2.005,-28.32 52.164,-1.448 112.858,-3.404 157.585,0.902 50.278,4.84 95.303,17.943 127.225,26.717 l 0,5.559 z m -128.981,-76.648 c -47.407,-4.564 -111.441,-0.677 -164.652,6.737 -7.659,-22.277 -19.146,-42.773 -33.668,-60.71 106.284,0.653 181.031,6.901 194.301,8.178 49.495,4.765 97.58,4.977 133,1.475 l 0,12.76 c -30.3,1.868 -70.727,3.658 -105,2.765 -7.17,-0.187 -14.209,-0.447 -21.094,-0.763 3.148,10.052 6.035,20.354 8.701,30.874 -3.84,-0.489 -7.698,-0.942 -11.588,-1.316 z m -153.824,869.173 0,-61.391 c 66.078,24.241 139.79,44.423 197.805,44.423 31.298,0 59.763,-1.2 85,-3.352 l 0,21.874 c -20.556,-0.135 -42.114,-0.702 -61.633,-2.056 -7.539,-0.523 -14.933,-1.121 -22.148,-1.773 1.249,22.464 2.454,45.079 3.491,67.725 -66.282,-12.538 -141.26,-47.482 -202.515,-65.45 z m -218.771,504.447 18.771,0 c 99.008,0 181.199,-71.948 197.176,-166.409 61.255,11.939 145.547,38.869 202.629,64.994 40.84,18.692 64.244,37.131 83,48.05 l 0,20.001 c -27.828,-12.206 -64.724,-29.156 -94.883,-45.676 -2.808,-1.538 -5.576,-3.077 -8.324,-4.615 -14.118,51.975 -35.232,99.553 -66.065,140.526 -55.575,-13.037 -111.89,-9.786 -168.728,-16.286 -62.363,-7.132 -123.579,-27.531 -163.576,-40.585 z M 1181,1953 c 90.243,-14.991 165.069,-122.006 306,-134 49.56,-4.218 117.699,22.328 217,39 61.854,10.385 163.749,13.445 220,30 55.062,16.205 96.281,44.075 124,61.106 l 0,8.679 c -27.06,-14.105 -63.853,-31.571 -96.883,-41.41 -32.404,-9.653 -91.231,-16.197 -134.725,-23.153 -5.289,4.048 -10.751,7.976 -16.392,11.778 -52.309,35.258 -125.201,55.409 -208.118,66.07 -6.647,-9.746 -17.33,-16.07 -29.382,-16.07 -14.444,0 -26.926,9.081 -32.843,22.253 -116.495,8.507 -246.313,2.498 -364.303,-4.669 -42.19,11.231 -162.243,32.505 -203.3,49.362 -24.063,9.88 -49.111,18.832 -70.889,26.054 l -44.744,0 c 43.004,-23.398 113.597,-61.086 152.579,-78 96.725,-41.968 89.848,-1.692 182,-17 z m -527,-47 c 55.097,-50.897 108.612,-100.433 162.574,-132.585 l 605.361,0 C 1343.751,1802.558 1281.483,1875.799 1177,1907 c -58.566,17.489 -91.638,-14.363 -150,10 -32.817,13.699 -63.839,28.388 -92.542,43.229 C 926.733,1960.083 919.229,1960 912,1960 c -109.873,0 -213.134,5.973 -308.786,4.933 -16.945,14.483 -34.359,30.724 -48.48,46.87 -8.148,9.317 -17.391,22.028 -27.033,36.197 l -48.684,0 C 528.904,2011.613 596.641,1958.985 654,1906 Z M 166,1802 c 6.707,-7.034 53.332,-12.482 116,-68 10.736,-9.511 22.076,-19.724 33.96,-30.427 36.681,42.752 91.096,69.842 151.845,69.842 l 236.18,0 C 673.136,1801.402 644.061,1833.952 619,1874 c -8.161,13.042 -57.453,49.416 -108.609,87.091 -124.926,-9.857 -234.711,-41.314 -326.721,-128.55 -3.19,5.048 -6.726,10.513 -10.67,16.459 -42.646,64.293 -15.471,119.18 -31,150 -11.534,22.889 -25.048,38.213 -38.987,49 l -53.431,0 c 10.717,-5.853 22.482,-13.378 35.418,-23 36.904,-27.449 40.696,-180.733 81,-223 z"
     class="cls-4"
     id="path14"
     inkscape:connector-curvature="0"
     style="fill:#dcac5b;fill-rule:evenodd" />
  <path
     d="m 1482,1928 -845,0 c 0,0 -151.33,-1.128 -181,-4 -323.8,-31.345 -335.539,-264.461 -339,-547 l 0,-808 C 117,163.187 358.553,118.5 490,118.5 l 934,0 c 296.313,0 498.412,52.992 498.412,386.403 L 1922,1513 c 0,292.457 -133.543,415 -440,415 z M 1765.195,471.585 c 0,-110.457 -89.543,-200 -200,-200 l -1097.39,0 c -110.457,0 -200,89.543 -200,200 l 0,1101.83 c 0,110.457 89.543,200 200,200 l 1097.39,0 c 110.457,0 200,-89.543 200,-200 l 0,-1101.83 z"
     class="cls-32"
     id="path112"
     inkscape:connector-curvature="0"
     style="fill:#422a14;fill-rule:evenodd" />
  <path
     d="m 1922.388,563.571 c -27.855,10.347 -67.817,23.919 -105.722,32.221 -18.108,3.966 -35.935,5.984 -51.471,6.936 l 0,-93.884 c 21.088,-9.073 46.954,-19.995 73.805,-30.844 27.742,-11.209 56.834,-24.274 80.796,-35.431 1.73,19.603 2.616,40.354 2.616,62.334 l -0.024,58.668 z M 1765.132,467.19 c -0.302,-13.993 -2.027,-27.635 -5.062,-40.777 13.888,-6.82 29.095,-14.382 44.93,-22.413 32.89,-16.681 71.261,-35.123 99.666,-48.589 3.957,14.346 7.258,29.553 9.915,45.625 -25.465,14.997 -61.33,34.748 -96.166,49.248 -18.591,7.738 -37.265,13.156 -53.283,16.906 z m -18.181,-79.148 c -7.835,-17.015 -17.984,-32.745 -30.051,-46.78 17.602,-8.51 37.991,-19.028 59.1,-31.262 28.823,-16.706 58.269,-37.741 81.544,-55.482 11.386,15.611 21.366,32.951 29.879,52.166 C 1863.398,324.147 1824.32,351.06 1786,371 c -13.238,6.889 -26.634,12.514 -39.049,17.042 z m -69.134,-81.746 c -32.078,-21.898 -70.852,-34.711 -112.622,-34.711 l -221.85,0 c -0.104,-18.915 4.386,-47.971 26.151,-80.043 16.396,-24.159 117.531,-47.895 189.101,-68.032 118.105,10.219 213.785,38.426 277.333,105.098 -22.623,15.592 -50.978,33.847 -78.93,48.392 -30.015,15.619 -60.82,24.738 -79.183,29.296 z m -14.621,1441.489 c 12.558,18.648 29.114,39.801 49.491,58.656 21.274,19.684 40.842,40.913 56.302,59.852 C 1699.247,1908.431 1604.428,1928 1482,1928 l -234.421,0 c -2.659,-19.31 -6.003,-54.611 -1.579,-90 2.848,-22.781 8.601,-45.606 14.387,-64.585 l 304.808,0 c 35.61,0 69.04,-9.316 98.001,-25.63 z M 997.082,1928 637,1928 c 0,0 -2.782,-0.021 -7.635,-0.064 6.684,-26.057 19.335,-58.755 41.949,-87.048 26.258,-32.851 31.32,-58.345 32.292,-67.473 l 402.163,0 c -3.578,17.722 -7.95,38.463 -13.045,60.955 -11.548,50.971 -63.785,80.228 -95.642,93.63 z m -136.47,-1656.415 -392.807,0 c -110.208,0 -199.588,89.141 -199.991,199.254 -8.313,-3.327 -16.88,-6.88 -25.607,-10.625 C 202.611,443.224 157.329,436.385 127.893,431.681 176.365,152.604 375.184,118.5 490,118.5 l 459.485,0 c -42.345,40.182 -74.574,95.893 -88.873,153.085 z M 246.603,515.586 c 7.511,4.137 14.593,7.315 21.202,9.755 l 0,278.609 C 253.288,798.562 237.514,792.211 221.207,785.214 185.905,770.067 146.083,762.988 117,758.297 L 117,569 c 0,-34.093 1.712,-65.626 4.913,-94.809 33.135,5.722 84.045,19.006 124.69,41.395 z m 21.202,340.545 0,105.734 C 251.166,955.913 232.562,948.519 213.207,940.214 181.043,926.413 145.128,919.311 117,914.609 l 0,-112.312 c 32.153,6.826 74.08,19.272 108.603,38.289 16.241,8.946 30.506,13.453 42.202,15.545 z m 0,154.747 0,562.537 c 0,62.911 29.056,119.027 74.47,155.689 -12.707,0.221 -26.264,0.183 -40.275,-0.104 -52.671,-1.078 -107.521,15.098 -133.573,20.178 C 122.648,1651.149 118.757,1520.444 117,1377 l 0,-415.017 c 30.734,7.358 68.557,18.6 100.603,33.603 20.489,9.592 37.461,13.711 50.202,15.292 z m 59.058,767.792 c 52.913,2.807 76.77,-14.959 76.77,-14.959 l 0.345,-0.701 c 20.045,6.746 41.508,10.405 63.827,10.405 l 164.635,0 c -11.21,16.663 -22.223,36.574 -29.949,58.783 -12.659,36.389 -31.421,71.192 -47.612,94.836 -40.771,-0.642 -84.37,-1.629 -98.879,-3.034 -135.127,-13.081 -215.899,-61.307 -264.412,-133.594 32.601,-6.48 87.54,-14.267 135.275,-11.736 z m 1386.526,-70.969 c 21.253,-23.442 37.029,-51.942 45.289,-83.487 13.019,2.726 26.876,4.84 41.143,5.843 41.797,2.938 82.843,10.624 110.2,18.569 -14.338,71.979 -41.788,128.841 -83.435,171.971 -23.711,-15.647 -57.825,-41.819 -81.586,-75.597 -11.765,-16.724 -22.658,-28.78 -31.611,-37.299 z m 92.032,-118.064 c -14.111,-4.078 -27.816,-8.692 -40.264,-13.232 0.015,-0.996 0.038,-1.99 0.038,-2.99 l 0,-52.185 c 9.344,0.305 18.964,0.21 28.702,-0.424 50.886,-3.31 101.612,0.496 127.988,6.548 -0.395,25.62 -1.876,49.873 -4.44,72.829 -31.865,1.142 -75.443,0.026 -112.024,-10.546 z M 1794,1480 c -9.848,-1.45 -19.547,-3.169 -28.805,-5.004 l 0,-91.211 c 13.875,-1.701 28.446,-4.335 43.041,-8.294 42.206,-11.447 85.335,-17.74 113.828,-18.864 l -0.047,115.814 c -31.356,6.309 -83.615,14.096 -128.017,7.559 z m -28.805,-137.521 0,-37.912 c 18.749,-4.455 39.187,-11.307 58.798,-21.839 32.748,-17.588 69.914,-28.994 98.115,-34.649 l -0.031,76.718 c -28.52,5.995 -78.256,15.234 -123.981,17.692 -11.329,0.609 -22.435,0.513 -32.901,-0.01 z m 43.471,-90.687 c -15.072,3.301 -29.945,5.249 -43.471,6.36 l 0,-263.352 c 36.573,-1.16 87.202,-8.56 157.027,-25.863 l -0.105,256.508 L 1881,1206 c 0,0 -4.59,30.955 -72.334,45.792 z m -43.471,-373.307 0,-237.135 c 20.004,-4.571 43.067,-9.684 66.798,-14.622 31.063,-6.465 63.987,-14.713 90.378,-21.702 l -0.097,237.97 c -34.588,8.62 -87.782,21.635 -129.608,30.796 -9.323,2.042 -18.569,3.562 -27.471,4.693 z"
     class="cls-33"
     id="path114"
     inkscape:connector-curvature="0"
     style="fill:#6d441d;fill-rule:evenodd" />
  <path
     d="m 1558.597,123.51 c 118.105,10.219 213.785,38.426 277.333,105.098 -22.623,15.592 -50.978,33.847 -78.93,48.392 -17.242,8.972 -34.74,15.796 -49.995,20.846 -60.388,-40.089 -193.349,-61.564 -355.875,-70.469 3.986,-11.2 9.849,-23.284 18.366,-35.835 16.396,-24.159 117.531,-47.895 189.101,-68.032 z m 196.802,1726.779 c 4.802,5.453 9.355,10.816 13.59,16.004 -35.471,21.432 -77.445,37.013 -126.223,47.163 35.555,-15.79 75.627,-35.671 112.633,-63.167 z m 71.187,-29.692 c -6.46,-4.263 -13.704,-9.333 -21.287,-15.098 37.153,-40.804 65.485,-93.864 73.517,-164.514 11.587,2.411 22.149,5.011 31.205,7.641 -14.339,71.979 -41.788,128.841 -83.435,171.971 z m 95.826,-1315.694 -0.024,58.668 c -26.095,9.693 -62.817,22.217 -98.518,30.587 -5.929,-36.374 -12.565,-70.453 -20.007,-101.712 11.289,-4.715 23.112,-9.587 35.137,-14.446 27.742,-11.209 56.834,-24.274 80.796,-35.431 1.73,19.603 2.616,40.354 2.616,62.334 z m -7.831,-103.867 c -25.465,14.997 -61.33,34.748 -96.166,49.248 -7.786,3.24 -15.574,6.052 -23.188,8.527 -4.221,-15.244 -8.673,-29.665 -13.373,-43.175 7.502,-3.739 15.246,-7.629 23.146,-11.636 32.89,-16.681 71.261,-35.123 99.666,-48.589 3.957,14.346 7.258,29.553 9.915,45.625 z m -57.037,-146.518 c 11.386,15.611 21.366,32.951 29.879,52.165 C 1863.397,324.147 1824.32,351.06 1786,371 c -6.075,3.161 -12.18,6.044 -18.211,8.689 -8.589,-19.434 -17.894,-36.179 -27.98,-49.893 11.535,-5.967 23.729,-12.573 36.191,-19.796 28.823,-16.706 58.269,-37.741 81.544,-55.482 z m 23.569,1345.734 c 0.01,-3.712 -0.017,-7.454 -0.113,-11.252 -0.556,-22.043 -1.094,-44.598 -1.629,-67.578 17.102,1.391 31.813,3.476 42.514,5.932 -0.395,25.62 -1.876,49.873 -4.44,72.829 -10.971,0.393 -23.347,0.505 -36.332,0.069 z m -2.712,-120.802 c -0.885,-38.478 -1.791,-77.963 -2.788,-118.087 17.53,-2.644 33.504,-4.225 46.451,-4.736 l -0.048,115.814 c -12.009,2.416 -27.089,5.047 -43.615,7.009 z m -3.49,-145.817 c -0.617,-23.855 -1.271,-47.903 -1.978,-72.066 17.555,-6.074 34.57,-10.559 49.175,-13.488 l -0.031,76.718 c -12.401,2.607 -28.816,5.827 -47.166,8.836 z M 1881,1206 c 0,0 -1.031,6.923 -9.277,15.79 -2.53,-79.894 -5.718,-160.576 -10.082,-239.308 18.388,-3.604 38.524,-8.08 60.581,-13.545 l -0.105,256.508 L 1881,1206 Z m 41.371,-600.974 -0.097,237.97 c -18.934,4.719 -43.446,10.755 -68.614,16.754 -6.27,-82.687 -14.268,-161.331 -24.667,-232.396 0.999,-0.209 1.998,-0.418 3,-0.626 31.063,-6.465 63.987,-14.712 90.378,-21.702 z M 208.941,498.22 C 190.146,575.017 177.839,667.47 170.364,768.712 151.068,763.993 132.504,760.798 117,758.297 L 117,569 c 0,-34.093 1.712,-65.626 4.913,-94.809 23.427,4.046 55.739,11.877 87.028,24.029 z M 117,961.983 c 13.786,3.301 29,7.389 44.478,12.242 -3.974,226.649 8.076,471.787 21.522,674.775 2.259,34.099 12.941,63.988 28.887,90.495 -17.806,3.793 -32.97,7.638 -43.46,9.683 C 122.648,1651.149 118.757,1520.444 117,1377 l 0,-415.017 z m 74.588,828.423 c 14.133,-2.809 32.466,-5.863 52.587,-8.216 56.832,61.987 138.922,102.647 183.471,138.434 -118.233,-16.783 -191.04,-63.138 -236.058,-130.218 z M 117,802.297 c 15.178,3.222 32.539,7.714 50.266,13.541 -2.046,35.181 -3.567,71.245 -4.626,107.933 -16.177,-3.967 -31.847,-6.856 -45.64,-9.162 l 0,-112.312 z M 221.536,452.367 C 187.61,440.958 152.304,435.582 127.893,431.681 176.365,152.604 375.184,118.5 490,118.5 l 459.485,0 c -31.795,30.171 -57.887,69.098 -74.967,110.833 -202.81,9.806 -394.351,28.596 -514.015,47.862 -63.471,10.218 -108.18,75.287 -138.967,175.172 z"
     class="cls-34"
     id="path116"
     inkscape:connector-curvature="0"
     style="fill:#5a391a;fill-rule:evenodd" />
  <path
     d="m 1997.155,1133.068 c -20.072,26.66 -67.18,-16.075 -87.578,12.996 -12.433,17.72 10.764,60.696 -1.184,85.977 -37.533,79.417 -111.871,147.959 -136.102,147.959 -2.572,0 -4.995,-0.346 -7.291,-0.984 l 0,-317.016 -20.156,0 c 12.102,-110.072 27.447,-223.382 27.447,-293.831 0,-174.474 -142.938,-395.976 -49.707,-406.888 95.644,-11.194 191.07,51.44 218.947,171.952 21.971,94.983 138.469,165.531 138.469,246.932 0,91.799 -4.302,248.58 -82.845,352.903 z"
     class="cls-35"
     id="path118"
     inkscape:connector-curvature="0"
     style="opacity:0.6;fill:#000000;fill-rule:evenodd" />
  <path
     d="m 1477,1840 c -32.08,4.799 -65.662,9.247 -100.062,13.342 7.289,33.406 7.342,71.868 -3.877,104.898 -22.645,66.663 -60.872,107.873 -98.733,103.21 -3.605,-0.444 -8.279,1.656 -11.776,3.17 -5.861,2.537 -14.514,13.503 -18.002,11.005 -3.81,-2.73 0.387,-28.789 -2.718,-32.624 -6.753,-8.341 -11.793,-19.15 -15.03,-31.701 -17.077,15.461 -35.725,24.174 -54.258,26.308 -5.016,0.577 -22.734,12.184 -26.002,11.005 -4.708,-1.699 -3.065,-15.933 -7.001,-19.009 -7.508,-5.869 -13.455,-14.167 -17.823,-24.284 -2.877,1.716 -5.779,3.296 -8.699,4.704 -4.212,2.029 -6.838,10.803 -11.481,9.575 -3.349,-0.885 -11.776,-13.418 -15.002,-15.006 -31.542,-15.528 -54.281,-63.371 -58.751,-122.131 C 956.357,1886.135 891.988,1888 842,1888 c -42.803,0 -83.731,-1.13 -122.546,-3.088 -7.114,51.116 -28.448,91.63 -56.99,105.681 -3.227,1.588 -11.653,14.121 -15.002,15.006 -4.643,1.228 -7.269,-7.546 -11.481,-9.575 -2.92,-1.408 -5.822,-2.988 -8.699,-4.704 -4.368,10.117 -10.315,18.415 -17.823,24.284 -3.936,3.076 -2.293,17.31 -7.001,19.009 -3.268,1.179 -20.986,-10.428 -26.002,-11.005 -18.533,-2.134 -37.181,-10.847 -54.258,-26.308 -3.237,12.551 -8.277,23.36 -15.03,31.701 -3.105,3.835 1.092,29.894 -2.718,32.624 -3.488,2.498 -12.141,-8.468 -18.002,-11.005 -3.497,-1.514 -8.171,-3.614 -11.776,-3.17 -37.861,4.663 -76.088,-36.547 -98.733,-103.21 -11.05,-32.53 -11.169,-70.332 -4.207,-103.381 C 332.548,1832.552 307.796,1825.921 300,1824 233.544,1807.626 143.226,1633.43 109.803,1449.229 -0.291,1413.925 -123,1357.15 -123,1315 c 0,-65.722 106.829,-95 190.5,-95 12.473,0 24.59,1.193 36.187,3.425 16.09,-94.422 61.287,-172.197 150.313,-206.425 203.367,-78.189 863.567,346.991 1268,582 163.507,95.011 350.781,126.08 354,133 20.99,45.12 -175.685,74.593 -399,108 z"
     class="cls-35"
     id="path120"
     inkscape:connector-curvature="0"
     style="opacity:0.6;fill:#000000;fill-rule:evenodd" />
  <g
     id="g122">
    <path
       d="m 1409,1220 c 0,0 -24.546,-571.912 -252,-806 -227.454,-234.088 -51.413,-167.857 -3,-144 0,0 -174.117,-305.795 240,-78 0,0 29.933,-287.609 282,165 0,0 49.045,270.273 14,393 -73.716,258.153 -281,470 -281,470 z"
       class="cls-36"
       id="path124"
       inkscape:connector-curvature="0"
       style="fill:#cd2727;fill-rule:evenodd" />
    <path
       d="m 1409,1220 c 0,0 -5.796,-570.704 -232,-806 -229.33,-238.548 -1.683,-115.028 56.646,-67.598 C 1236,352 1068.113,121.014 1167,133 c 195.921,23.747 276.351,146.033 373,275 -26.297,-13.002 -258.185,-573.88 132.877,-52.544 C 1676,357 1725.045,627.273 1690,750 c -73.716,258.153 -281,470 -281,470 z"
       class="cls-37"
       id="path126"
       inkscape:connector-curvature="0"
       style="fill:#991414;fill-rule:evenodd" />
  </g>
  <g
     id="g128">
    <path
       d="m 1577.024,1781.857 c -95.246,12.914 -181.918,18.437 -243.671,16.842 -36.582,6.506 -59.914,5.641 -63.993,-4.101 -0.249,-0.596 -0.399,-1.228 -0.501,-1.879 -18.316,-3.764 -28.945,-9.214 -29.91,-16.326 -1.357,-10.007 16.568,-21.935 48.59,-34.26 37.357,-43.587 126.614,-114.121 236.804,-184.477 155.602,-99.352 293.991,-160.708 309.1,-137.044 11.3,17.697 -49.558,77.938 -146.05,148.748 109.712,-37.268 190.687,-51.967 198.634,-32.99 8.578,20.486 -70.519,74.076 -188.236,130.874 117.323,-7.943 200.857,-1.251 203.647,19.326 3.772,27.822 -141.473,70.483 -324.414,95.287 z"
       class="cls-36"
       id="path130"
       inkscape:connector-curvature="0"
       style="fill:#cd2727;fill-rule:evenodd" />
    <path
       d="m 1861.92,1695.231 c 3.216,23.705 -120.618,60.055 -276.592,81.189 -155.973,21.134 -285.022,19.05 -288.238,-4.656 -0.452,-3.331 1.606,-6.912 5.909,-10.666 0.154,-26.734 95.769,-108.511 223.58,-190.006 136.045,-86.746 257.041,-140.318 270.251,-119.656 10.707,16.745 -52.674,77.111 -149.506,145.572 113.271,-41.736 201.388,-60.317 209.109,-41.93 8.031,19.125 -73.537,71.986 -189.987,125.326 111.359,-9.163 192.926,-3.958 195.474,14.827 z"
       class="cls-37"
       id="path132"
       inkscape:connector-curvature="0"
       style="fill:#991414;fill-rule:evenodd" />
    <path
       d="m 1575.266,1758.994 c -136.605,13.405 -249.032,13.528 -251.111,0.276 -0.652,-4.154 9.62,-9.13 28.236,-14.416 -6.769,0.295 -12.249,0.095 -16.303,-0.616 -36.823,14.729 -61.384,20.552 -65.017,13.987 -7.312,-13.216 72.91,-71.601 179.183,-130.408 C 1556.527,1569.01 1757.687,1473.785 1765,1487 c 6.523,11.788 -143.381,105.867 -251.263,167.79 5.531,-1.745 11.129,-3.482 16.789,-5.206 116.186,-35.397 263.072,-80.032 267.474,-65.584 4.402,14.448 -135.348,82.508 -251.534,117.905 -24.551,7.479 -48.272,14.133 -70.47,19.845 28.269,-3.897 59.219,-7.554 91.738,-10.745 136.605,-13.404 249.031,-13.527 251.111,-0.275 2.08,13.251 -106.974,34.86 -243.579,48.264 z"
       class="cls-38"
       id="path134"
       inkscape:connector-curvature="0"
       style="opacity:0.3;fill:#000000;fill-rule:evenodd" />
  </g>
  <g
     id="g136">
    <path
       d="m 839,436 c 462.042,-16.534 627,666.058 627,1051 0,384.942 -308.884,343 -627,343 C 520.884,1830 98.395,1799.796 111.218,1232.03 121.42,780.347 518.705,447.462 839,436 Z"
       class="cls-39"
       id="path138"
       inkscape:connector-curvature="0"
       style="fill:#d13b3b;fill-rule:evenodd" />
    <path
       d="M 853.318,484.685 C 1315.331,467.353 1466,1102.058 1466,1487 c 0,384.942 -308.884,343 -627,343 -318.116,0 -740.971,-30.212 -727.782,-597.97 10.49,-451.589 423.33,-735.387 742.1,-747.345 z"
       class="cls-36"
       id="path140"
       inkscape:connector-curvature="0"
       style="fill:#cd2727;fill-rule:evenodd" />
    <path
       d="m 752,480 c 459.001,-34 18,218.641 -8,520 -15.761,182.68 -83.499,332 -186.5,332 C 454.499,1332 271,1135.358 271,952 271,867.104 321.711,736.939 419,647 531.836,542.687 696.84,484.086 752,480 Z"
       class="cls-39"
       id="path142"
       inkscape:connector-curvature="0"
       style="fill:#d13b3b;fill-rule:evenodd" />
    <path
       d="m 740.144,521.727 c 78.603,20.545 107.444,83.681 98.2,119.109 -9.243,35.429 -52.453,-12.522 -130.198,-36.108 C 586.065,567.69 511.757,622.428 521,587 c 9.243,-35.429 140.541,-85.819 219.144,-65.273 z"
       class="cls-40"
       id="path144"
       inkscape:connector-curvature="0"
       style="fill:#d84545;fill-rule:evenodd" />
    <path
       d="m 182,1037.5 c -1.068,380.561 247.869,403.773 608,532.5 641.988,229.476 138.22,-59.056 -20,-280 -43.579,-60.855 -48.864,-144.411 -7,-179 77.682,-64.182 424.57,19.946 615.662,5.682 22.706,133.733 31.338,265.974 31.338,374.318 0,384.942 -252.884,339 -571,339 -318.116,0 -740.605,-30.204 -727.782,-597.97 2.776,-122.914 34.223,-237.027 84.977,-338.264 -9.166,46.4 -14.057,94.473 -14.195,143.734 z"
       class="cls-37"
       id="path146"
       inkscape:connector-curvature="0"
       style="fill:#991414;fill-rule:evenodd" />
    <path
       d="M 1285.607,1798.103 C 1167.315,1841.331 1004.409,1830 839,1830 693.348,1830 525.822,1823.657 388.21,1762.295 449.314,1621.589 624.237,1520 830.5,1520 c 223.382,0 410.008,119.151 455.107,278.103 z"
       class="cls-9"
       id="path148"
       inkscape:connector-curvature="0"
       style="fill:#ffffff;fill-rule:evenodd" />
    <path
       d="m 839,1830 c -148.277,0 -319.224,-6.573 -458.201,-71.075 22.728,-111.554 107.992,-192.388 293.856,-208.719 156.002,47.062 311.797,66.359 329.897,48.774 8.18,-7.947 11.2,-18.674 9.97,-31.012 54.75,8.501 105.628,21.268 143.478,42.032 77.408,42.465 115.097,110.712 129.98,187.237 C 1169.5,1841.492 1005.515,1830 839,1830 Z"
       class="cls-41"
       id="path150"
       inkscape:connector-curvature="0"
       style="fill:#e1e1e1;fill-rule:evenodd" />
    <circle
       cx="622.5"
       cy="898.5"
       r="286.5"
       class="cls-42"
       id="circle152"
       style="fill:#8a0000" />
    <circle
       cx="622.5"
       cy="898.49799"
       r="257.84399"
       class="cls-43"
       id="circle154"
       style="fill:#ebebeb" />
    <ellipse
       cx="616"
       cy="860"
       rx="222"
       ry="210"
       class="cls-1"
       id="ellipse156"
       style="fill:#ffffff" />
    <circle
       cx="627"
       cy="893"
       r="170"
       class="cls-44"
       id="circle158"
       style="fill:#0066cc" />
    <circle
       cx="627"
       cy="893"
       r="102"
       class="cls-45"
       id="circle160"
       style="fill:#111111" />
    <path
       d="m 710,980 c -11.874,0 -21.5,-9.626 -21.5,-21.5 0,-11.874 9.626,-21.5 21.5,-21.5 11.874,0 21.5,9.626 21.5,21.5 0,11.874 -9.626,21.5 -21.5,21.5 z M 569,903 c -35.899,0 -65,-29.102 -65,-65 0,-35.899 29.101,-65 65,-65 35.898,0 65,29.101 65,65 0,35.898 -29.102,65 -65,65 z"
       class="cls-9"
       id="path162"
       inkscape:connector-curvature="0"
       style="fill:#ffffff;fill-rule:evenodd" />
  </g>
  <g
     id="g164">
    <path
       d="m 206,228 c 0,0 401.715,-188.035 167,48 0,0 384.764,-59.482 -109.203,258.213 0,0 -63.449,45.752 -89.797,75.787 -137.887,157.182 -221.167,410.372 -1,543 l -22,239 c 0,0 -286.071,-119.911 -406,-360 -99.712,-199.616 -38.683,-879.177 566,-889 47.435,-0.771 -105,85 -105,85 z"
       class="cls-37"
       id="path166"
       inkscape:connector-curvature="0"
       style="fill:#991414;fill-rule:evenodd" />
    <path
       d="m 263.797,534.213 c 0,0 -63.449,45.752 -89.797,75.787 C 39.803,762.975 -42.657,1006.882 155.982,1142.09 52.12,1191.463 -31.122,1153.851 17,799 44.214,598.323 300.577,440.891 437,347 483.728,314.84 454.29,256.273 330,322 247.105,365.836 126.957,457.784 47.216,521.674 191.017,402.526 465.518,169.778 409,175 385.735,177.149 298.798,198.182 194,246 100.878,288.49 -5.323,354.061 -109,417 -168.377,453.046 13.78,337.943 148,247 204.059,209.016 276.706,174.089 280,158 282.359,146.477 166.681,178.392 55,217 23.244,227.978 -8.215,239.716 -36.456,250.464 51.434,186.536 165.464,145.364 311,143 c 47.435,-0.771 -105,85 -105,85 0,0 401.715,-188.035 167,48 0,0 384.764,-59.482 -109.203,258.213 z M 47.216,521.674 C -2.062,562.503 -36,590 -36,590 c 0,0 33.873,-28.792 83.216,-68.326 z"
       class="cls-36"
       id="path168"
       inkscape:connector-curvature="0"
       style="fill:#cd2727;fill-rule:evenodd" />
  </g>
  <path
     d="m 1287,1564 c -63.27,0 -351.445,-121.034 -439,-224 -63.006,-74.096 -64,-135.039 -64,-160 0,-59.647 270.2,166 379,166 108.8,0 197,48.353 197,108 0,59.647 35.8,110 -73,110 z M 879.208,1762.475 C 1026.329,1773.68 1051.789,1560.433 1145,1569 c 16.032,1.473 43.086,71.257 62,61 42.517,-23.056 85.258,-78.53 132,-22 16.984,20.54 6.458,67.58 11,106 6.598,55.818 22,104 22,104 -0.067,1.834 -318.224,18.052 -545,13 -148.632,-3.311 -220.033,-0.685 -273,-10 -54.188,-9.529 -205.409,-89.374 -306,-212 -60.503,-73.756 -73.782,-180.073 -122,-252 -24.787,-36.976 -206.779,-104.31 -232,-132 -56.578,-62.119 -8,-79.063 -8,-96 0,-28.756 152.694,62.502 273,176 97.151,91.654 177.885,190.024 242.844,254.198 14.697,14.521 52.142,-6.349 78.156,4.802 36.567,15.675 78,66 78,66 0,0 21.049,-84.136 73,-52 73.794,45.648 131.051,175.552 248.208,184.475 z"
     class="cls-38"
     id="path170"
     inkscape:connector-curvature="0"
     style="opacity:0.3;fill:#000000;fill-rule:evenodd" />
  <g
     id="g172">
    <path
       d="m 1345,1023 7,-747 c 0,0 -18.512,-179.704 -186,75 0,0 -343.622,456.528 -368,594 0,0 -146.407,250.76 135,431 l 533,225 c 0,0 152.732,89.647 93,-93 l -214,-485 z"
       class="cls-46"
       id="path174"
       inkscape:connector-curvature="0"
       style="fill:#ffc200;fill-rule:evenodd" />
    <path
       d="m 1571,1558 c 17.952,94.528 -136.738,28.839 -311,-61 -107.18,-55.255 -230.191,-117.073 -300,-164 -156.308,-105.073 -118,-246 -118,-246 0,0 411.638,-171.964 504.516,-225.788 L 1345,1023 l 214,485 c 5.379,16.449 9.027,30.678 11.227,42.975 -0.037,1.699 0.197,3.993 0.773,7.025 z M 1311,242 c -29.053,0 -126.179,174.616 -238,344 -125.189,189.634 -265.842,390.047 -291,489 -3.903,15.35 -11.226,36.333 -19.672,60.672 C 748.667,1029.511 798,945 798,945 822.378,807.528 1166,351 1166,351 1333.488,96.296 1352,276 1352,276 l -0.669,71.409 C 1343.272,283.976 1330.662,242 1311,242 Z"
       class="cls-47"
       id="path176"
       inkscape:connector-curvature="0"
       style="fill:#fff200;fill-rule:evenodd" />
    <path
       d="m 873,984 413,-696 c 0,0 95.605,-155.101 24,699 l 198,467 c 0,0 77.616,182.7 -84,81 0,0 -469.612,-234.461 -530,-327 0,0 -43.808,-36.619 -49,-92 -5.307,-56.606 28,-132 28,-132 z"
       class="cls-48"
       id="path178"
       inkscape:connector-curvature="0"
       style="fill:#403309;fill-rule:evenodd" />
    <path
       d="m 921,1129 c 0,0 272,-86 340,-72 0,0 -22,-213 -198,-143 -176,70 -142,215 -142,215 z"
       class="cls-48"
       id="path180"
       inkscape:connector-curvature="0"
       style="fill:#403309;fill-rule:evenodd" />
    <path
       d="m 1424,1535 c 0,0 -469.612,-234.461 -530,-327 0,0 -43.808,-36.619 -49,-92 -5.307,-56.606 28,-132 28,-132 l 413,-696 c 0,0 95.605,-155.101 24,699 l 198,467 c 0,0 77.616,182.7 -84,81 z m -132,-526 c 0,0 -22.728,-461.936 -41,-505 -16.479,-38.839 -361,497.873 -361,589 0,91.127 591,447 613,431 22,-16 -211,-515 -211,-515 z"
       class="cls-49"
       id="path182"
       inkscape:connector-curvature="0"
       style="fill:#8f7218;fill-rule:evenodd" />
    <path
       d="m 921,1123 c 0,0 17.165,-73.975 213,-64 0,0 77.637,-67.457 124,-7 0,0 217.496,393.009 210,411 -7.496,17.991 -92.708,-14.128 -177,-66 -120.639,-74.24 -286.667,-195.316 -349,-246 -17.045,-13.859 -21,-28 -21,-28 z"
       class="cls-50"
       id="path184"
       inkscape:connector-curvature="0"
       style="fill:#6e1f28;fill-rule:evenodd" />
  </g>
  <g
     id="g186">
    <path
       d="m 1385.642,1717.272 c 28.319,10.853 33.749,95.7 0.301,182.501 -33.449,86.802 -82.521,124.441 -110.855,113.629 -28.334,-10.812 -42.964,-85.057 -10.639,-172.279 32.407,-87.445 92.663,-134.784 121.193,-123.851 z"
       class="cls-51"
       id="path188"
       inkscape:connector-curvature="0"
       style="fill:#c19406;fill-rule:evenodd" />
    <path
       d="m 1377.469,1894.042 c -23.165,60.113 -43.731,85.466 -63.6,91.786 0.399,-1.003 0.781,-2.019 1.13,-3.061 7.261,-21.699 0.574,-43.507 -14.936,-48.709 -13.196,-4.425 -28.523,4.599 -37.276,20.752 -6.698,-23.155 -3.629,-59.534 15.682,-111.642 32.408,-87.445 78.643,-136.829 107.173,-125.896 28.319,10.853 25.276,89.968 -8.173,176.77 z"
       class="cls-46"
       id="path190"
       inkscape:connector-curvature="0"
       style="fill:#ffc200;fill-rule:evenodd" />
    <path
       d="m 1373.28,1748.341 c 16.758,5.622 17.625,47.748 1.936,94.091 -15.688,46.343 -41.992,79.355 -58.75,73.733 -16.758,-5.622 -17.624,-47.748 -1.935,-94.091 15.688,-46.343 41.991,-79.354 58.749,-73.733 z"
       class="cls-47"
       id="path192"
       inkscape:connector-curvature="0"
       style="fill:#fff200;fill-rule:evenodd" />
    <path
       d="m 1135.153,1582.091 c 34.347,2.754 67.522,93.865 58.956,199.64 -8.566,105.774 -49.952,162.777 -84.303,160.071 -34.351,-2.705 -74.145,-79.248 -66.939,-185.121 7.225,-106.145 57.682,-177.366 92.286,-174.59 z"
       class="cls-51"
       id="path194"
       inkscape:connector-curvature="0"
       style="fill:#c19406;fill-rule:evenodd" />
    <path
       d="m 1183.033,1778.188 c -7.1,87.67 -26.137,119.658 -52.005,126.5 1.076,-3.467 1.668,-7.172 1.668,-11.027 0,-19.235 -14.506,-34.828 -32.398,-34.828 -11.204,0 -21.078,6.114 -26.896,15.407 -12.086,-24.076 -18.479,-62.841 -14.599,-119.838 7.225,-106.144 41.746,-175.087 76.35,-172.311 34.347,2.754 56.447,90.322 47.88,196.097 z"
       class="cls-46"
       id="path196"
       inkscape:connector-curvature="0"
       style="fill:#ffc200;fill-rule:evenodd" />
    <path
       d="m 1131.662,1620.076 c 20.069,0.754 34.546,46.58 32.337,102.354 -2.21,55.774 -20.269,100.376 -40.337,99.622 -20.069,-0.754 -34.546,-46.579 -32.337,-102.353 2.21,-55.774 20.269,-100.377 40.337,-99.623 z"
       class="cls-47"
       id="path198"
       inkscape:connector-curvature="0"
       style="fill:#fff200;fill-rule:evenodd" />
    <path
       d="m 1303.052,1606.606 c 35.991,13.484 43.809,121.74 2.399,233.001 -41.409,111.262 -103.153,159.96 -139.164,146.527 -36.011,-13.432 -55.365,-108.031 -15.383,-219.815 40.084,-112.07 115.887,-173.299 152.148,-159.713 z"
       class="cls-51"
       id="path200"
       inkscape:connector-curvature="0"
       style="fill:#c19406;fill-rule:evenodd" />
    <path
       d="m 1294.654,1832.401 c -29.089,78.157 -55.188,110.624 -80.626,118.37 0.943,-3.616 1.459,-7.471 1.459,-11.477 0,-20.565 -13.428,-37.236 -29.992,-37.236 -13.294,0 -24.56,10.741 -28.494,25.61 -16.256,-27.234 -17.156,-78.286 11.685,-158.922 40.084,-112.07 98.105,-175.726 134.366,-162.14 35.991,13.484 33.012,114.534 -8.398,225.795 z"
       class="cls-46"
       id="path202"
       inkscape:connector-curvature="0"
       style="fill:#ffc200;fill-rule:evenodd" />
    <path
       d="m 1287.737,1646.435 c 21.289,6.957 22.853,60.73 3.493,120.103 -19.361,59.374 -52.314,101.866 -73.604,94.908 -21.29,-6.958 -22.854,-60.73 -3.493,-120.104 19.36,-59.374 52.314,-101.865 73.604,-94.907 z"
       class="cls-47"
       id="path204"
       inkscape:connector-curvature="0"
       style="fill:#fff200;fill-rule:evenodd" />
    <path
       d="m 1294.878,1991.977 c -3.574,17.54 -36.816,38.017 -36.816,38.017 0,0 -0.721,-12.266 2.853,-29.806 3.574,-17.54 12.075,-29.978 22.165,-33.532 10.09,-3.555 15.372,7.782 11.798,25.321 z m -138.871,15.019 c -0.064,-0.012 -0.053,-14.331 1.714,-31.427 1.933,-18.709 4.783,-40.743 18.004,-46.459 12.016,-5.195 19.499,8.061 16.713,29.608 -5.016,38.782 -36.431,48.278 -36.431,48.278 z m -67.297,-78.861 c -4.815,-20.927 -3.421,-32.028 5.868,-40.87 9.289,-8.843 20.723,0.953 25.538,21.879 4.815,20.927 -11.671,59.847 -11.671,59.847 0,0 -14.92,-19.93 -19.735,-40.856 z"
       class="cls-41"
       id="path206"
       inkscape:connector-curvature="0"
       style="fill:#e1e1e1;fill-rule:evenodd" />
    <path
       d="m 1283.801,1996.768 c -2.934,8.792 -7.692,15.128 -10.626,14.151 -2.935,-0.976 -2.936,-8.895 0,-17.687 2.934,-8.792 7.691,-15.128 10.626,-14.152 2.935,0.977 2.936,8.896 0,17.688 z M 1169.336,1979 c -3.406,-1.135 -3.407,-10.337 0,-20.555 3.405,-10.217 8.925,-17.58 12.331,-16.445 3.406,1.135 3.407,10.337 0,20.555 -3.405,10.217 -8.925,17.58 -12.331,16.445 z m -64.836,-45 c -3.59,0 -6.5,-8.73 -6.5,-19.5 0,-10.77 2.91,-19.5 6.5,-19.5 3.59,0 6.5,8.73 6.5,19.5 0,10.77 -2.91,19.5 -6.5,19.5 z"
       class="cls-9"
       id="path208"
       inkscape:connector-curvature="0"
       style="fill:#ffffff;fill-rule:evenodd" />
  </g>
  <g
     id="g210">
    <path
       d="m 365.034,1693.312 c -28.515,10.324 -35.522,95.055 -3.692,182.463 31.83,87.408 80.194,125.953 108.724,115.669 28.53,-10.283 44.537,-84.243 13.839,-172.051 -30.777,-88.032 -90.142,-136.483 -118.871,-126.081 z"
       class="cls-51"
       id="path212"
       inkscape:connector-curvature="0"
       style="fill:#c19406;fill-rule:evenodd" />
    <path
       d="m 446.57,1911.65 c -15.604,4.913 -22.696,26.593 -15.839,48.423 0.329,1.048 0.693,2.072 1.073,3.081 -19.748,-6.688 -39.84,-32.418 -61.883,-92.952 -31.83,-87.408 -33.402,-166.566 -4.887,-176.89 28.729,-10.402 74.038,39.833 104.815,127.865 18.34,52.458 20.731,88.888 13.605,111.915 -8.452,-16.313 -23.608,-25.621 -36.884,-21.442 z"
       class="cls-46"
       id="path214"
       inkscape:connector-curvature="0"
       style="fill:#ffc200;fill-rule:evenodd" />
    <path
       d="m 376.817,1724.605 c -16.86,5.309 -18.51,47.411 -3.685,94.038 14.825,46.627 40.51,80.122 57.37,74.812 16.859,-5.309 18.509,-47.411 3.684,-94.038 -14.825,-46.627 -40.51,-80.121 -57.369,-74.812 z"
       class="cls-47"
       id="path216"
       inkscape:connector-curvature="0"
       style="fill:#fff200;fill-rule:evenodd" />
    <path
       d="m 617.993,1562.809 c -34.392,2.115 -69.255,92.594 -62.656,198.509 6.598,105.916 46.918,163.678 81.313,161.611 34.395,-2.066 75.605,-77.857 70.368,-183.846 -5.251,-106.26 -54.375,-178.406 -89.025,-176.274 z"
       class="cls-51"
       id="path218"
       inkscape:connector-curvature="0"
       style="fill:#c19406;fill-rule:evenodd" />
    <path
       d="m 674.303,1856.055 c -5.644,-9.399 -15.403,-15.695 -26.604,-15.904 -17.89,-0.332 -32.682,14.988 -33.04,34.219 -0.072,3.855 0.451,7.57 1.463,11.057 -25.737,-7.322 -44.177,-39.658 -49.646,-127.445 -6.599,-105.915 17.125,-193.058 51.517,-195.173 34.65,-2.132 67.883,67.44 73.134,173.7 2.82,57.059 -4.293,95.699 -16.824,119.546 z"
       class="cls-46"
       id="path220"
       inkscape:connector-curvature="0"
       style="fill:#ffc200;fill-rule:evenodd" />
    <path
       d="m 620.777,1600.852 c -20.079,0.381 -35.406,45.929 -34.233,101.735 1.172,55.806 18.399,100.736 38.478,100.355 20.079,-0.381 35.406,-45.929 34.233,-101.734 -1.172,-55.806 -18.399,-100.737 -38.478,-100.356 z"
       class="cls-47"
       id="path222"
       inkscape:connector-curvature="0"
       style="fill:#fff200;fill-rule:evenodd" />
    <path
       d="m 449.667,1584.199 c -36.236,12.813 -46.064,120.905 -6.729,232.917 39.334,112.011 100.163,161.849 136.417,149.088 36.254,-12.761 57.363,-106.984 19.465,-219.492 -37.994,-112.795 -112.645,-175.423 -149.153,-162.513 z"
       class="cls-51"
       id="path224"
       inkscape:connector-curvature="0"
       style="fill:#c19406;fill-rule:evenodd" />
    <path
       d="m 589.726,1907.921 c -3.658,-14.94 -14.722,-25.889 -28.013,-26.136 -16.561,-0.307 -30.297,16.111 -30.679,36.672 -0.075,4.005 0.369,7.869 1.245,11.502 -25.29,-8.217 -50.781,-41.164 -78.412,-119.848 -39.335,-112.011 -40.436,-213.099 -4.2,-225.912 36.508,-12.91 93.335,51.814 131.329,164.609 27.337,81.158 25.489,132.185 8.73,159.113 z"
       class="cls-46"
       id="path226"
       inkscape:connector-curvature="0"
       style="fill:#ffc200;fill-rule:evenodd" />
    <path
       d="m 464.24,1624.305 c -21.416,6.561 -23.979,60.295 -5.725,120.019 18.254,59.723 50.412,102.82 71.827,96.259 21.416,-6.561 23.979,-60.295 5.725,-120.018 -18.254,-59.724 -50.412,-102.82 -71.827,-96.26 z"
       class="cls-47"
       id="path228"
       inkscape:connector-curvature="0"
       style="fill:#fff200;fill-rule:evenodd" />
    <path
       d="m 657.996,1909.656 c -5.203,20.833 -20.49,40.483 -20.49,40.483 0,0 -15.761,-39.221 -10.557,-60.054 5.203,-20.834 16.817,-30.415 25.94,-21.401 9.123,9.014 10.31,20.138 5.107,40.972 z m -104.278,28.65 c -2.385,-21.595 5.343,-34.71 17.261,-29.292 13.112,5.961 15.552,28.043 17.137,46.785 1.449,17.126 1.194,31.443 1.129,31.454 0,0 -31.233,-10.079 -35.527,-48.947 z m -103.041,31.35 c -3.247,-17.603 2.245,-28.84 12.267,-25.098 10.022,3.741 18.29,16.335 21.538,33.938 3.247,17.603 2.299,29.855 2.299,29.855 0,0 -32.857,-21.092 -36.104,-38.695 z"
       class="cls-41"
       id="path230"
       inkscape:connector-curvature="0"
       style="fill:#e1e1e1;fill-rule:evenodd" />
    <path
       d="m 648.961,1895.851 c -0.2,10.768 -3.272,19.442 -6.861,19.376 -3.589,-0.067 -6.337,-8.85 -6.136,-19.618 0.2,-10.767 3.272,-19.442 6.861,-19.376 3.589,0.067 6.336,8.85 6.136,19.618 z m -72.522,63.163 c -3.426,1.071 -8.809,-6.393 -12.023,-16.672 -3.214,-10.279 -3.042,-19.48 0.385,-20.551 3.426,-1.071 8.809,6.393 12.023,16.672 3.213,10.279 3.041,19.48 -0.385,20.551 z m -104.414,29.984 c -2.953,0.922 -7.592,-5.501 -10.361,-14.347 -2.77,-8.845 -2.622,-16.762 0.331,-17.684 2.952,-0.922 7.591,5.502 10.361,14.346 2.77,8.846 2.622,16.763 -0.331,17.685 z"
       class="cls-9"
       id="path232"
       inkscape:connector-curvature="0"
       style="fill:#ffffff;fill-rule:evenodd" />
  </g>
  <g
     id="g234">
    <path
       d="m 1334,431 c 73.177,-0.193 160,871.376 160,1010 0,138.623 -265.822,-67 -339,-67 -73.178,0 -148.065,-274.604 -156,-413 -7.888,-137.582 260.33,-529.803 335,-530 z"
       class="cls-48"
       id="path236"
       inkscape:connector-curvature="0"
       style="fill:#403309;fill-rule:evenodd" />
    <path
       d="m 1396,406 c 0,0 -72,8 -126,122 0,0 -56,76 -86,112 0,0 -174,154 -132,356 0,0 20,126 48,182 0,0 -34,140 50,174 0,0 282,122 330,102 0,0 92,-48 144,-62 0,0 130,-38 158,-82 l 90,-114 c 0,0 -46,-154 76,-106 0,0 172,-296 40,-528 0,0 -112,40 -98,-94 0,0 -46,-88 -114,-112 0,0 -124,-64 -218,-6 0,0 8.736,76.61 -84,88 -44.235,5.433 -78,-32 -78,-32 z"
       class="cls-52"
       id="path238"
       inkscape:connector-curvature="0"
       style="fill:#fff568;fill-rule:evenodd" />
    <path
       d="m 1974.516,1036.293 c -16.854,14.761 -34.595,30.189 -53.005,45.84 -42.633,-7.782 -55.649,18.463 -57.698,47.719 -153.681,123.06 -335.51,232.46 -441.813,114.148 -37.761,-42.027 -192.865,-35.294 -291,-150 C 1036.78,983.869 1089.986,811.45 1079.272,785.699 1120.284,696.399 1184,640 1184,640 c 30,-36 86,-112 86,-112 54,-114 126,-122 126,-122 0,0 33.765,37.433 78,32 92.736,-11.39 84,-88 84,-88 94,-58 218,6 218,6 68,24 114,112 114,112 -14,134 98,94 98,94 97.681,171.681 28.89,378.402 -13.484,474.293 z m 0.581,-363.441 c 3.116,13.929 4.903,30.007 4.903,47.148 0,53.019 -17.013,96 -38,96 -20.987,0 -38,-42.981 -38,-96 0,-53.019 17.013,-96 38,-96 3.403,0 6.699,1.147 9.837,3.266 C 1916.258,579.322 1878.775,560.133 1875,539 1824.025,253.647 1630.358,427.21 1590,371 c -24.85,-34.61 -17.11,48.229 -72,71 -80.394,33.352 -147.216,-38.095 -172,23 -51.113,126 -49,-19.089 -129,180 -22.755,56.629 -249.667,103.97 -63,403 39.506,63.286 163.192,54 242,54 76.216,0 185.681,65.968 249,33 45.496,-23.688 87.016,-128.103 133,-155 87.953,-51.446 138.276,-0.617 196,-161 4.752,-13.204 14.295,-93.545 1.097,-146.148 z"
       class="cls-53"
       id="path240"
       inkscape:connector-curvature="0"
       style="fill:#fefac1;fill-rule:evenodd" />
    <path
       d="m 1080.408,824.023 c -0.929,9.374 -1.408,18.546 -1.408,27.477 0,223.951 23.305,275.5 300,275.5 69.433,0 167.591,71.745 240,59 117.629,-20.704 133.916,-185.892 182.382,-193.733 C 1975.799,964.049 2030.791,882.496 2029,752 2028.461,712.754 2025.087,671.968 2018.406,631.387 2088.034,848.435 1948,1087 1948,1087 c -122,-48 -76,109 -76,109 l -112,138 c -16.893,26.547 -289.231,91.116 -287,112 -48,20 -290,-115 -290,-115 -84,-34 -62,-153 -62,-153 -28,-56 -69,-182 -51.031,-177.062 -12.556,-64.56 -5.245,-124.819 10.439,-176.915 z"
       class="cls-54"
       id="path242"
       inkscape:connector-curvature="0"
       style="fill:#f7d135;fill-rule:evenodd" />
    <path
       d="m 1492,747 c 0,67.931 -44.772,123 -100,123 -55.229,0 -100,-55.069 -100,-123 0,-67.931 44.771,-123 100,-123 55.228,0 100,55.069 100,123 z m 292.113,-12.212 c 27.208,16.387 36.903,50.134 21.656,75.375 -15.248,25.242 -49.665,32.42 -76.873,16.032 -27.209,-16.387 -36.904,-50.134 -21.656,-75.375 15.248,-25.242 49.665,-32.42 76.873,-16.032 z m 55.773,-176.062 c -19.612,32.514 -63.88,41.76 -98.876,20.651 -34.996,-21.109 -47.467,-64.579 -27.854,-97.093 19.612,-32.515 63.88,-41.761 98.876,-20.652 34.996,21.109 47.466,64.579 27.854,97.094 z"
       class="cls-55"
       id="path244"
       inkscape:connector-curvature="0"
       style="fill:#deab49;fill-rule:evenodd" />
    <path
       d="m 1412,712 c 33.917,0 63.44,21.898 78.781,54.227 C 1483.276,825.024 1441.91,870 1392,870 c -26.455,0 -50.506,-12.642 -68.391,-33.274 -1.042,-6.392 -1.609,-12.98 -1.609,-19.726 0,-57.99 40.294,-105 90,-105 z m 346,44 c 23.196,0 42,18.804 42,42 0,11.691 -4.781,22.263 -12.49,29.878 -17.055,9.699 -39.593,9.774 -58.614,-1.683 -1.556,-0.937 -3.047,-1.937 -4.487,-2.983 C 1719.13,816.191 1716,807.461 1716,798 c 0,-23.196 18.804,-42 42,-42 z m 56.587,-173.453 c -21.704,11.488 -49.781,11.184 -73.577,-3.17 -3.229,-1.947 -6.263,-4.088 -9.101,-6.39 C 1729.398,567.163 1728,560.745 1728,554 c 0,-26.51 21.49,-48 48,-48 26.51,0 48,21.49 48,48 0,10.694 -3.501,20.568 -9.413,28.547 z"
       class="cls-56"
       id="path246"
       inkscape:connector-curvature="0"
       style="fill:#f9c560;fill-rule:evenodd" />
    <path
       d="m 1404,1286 c 0,49.706 -48.801,90 -109,90 -60.199,0 -109,-40.294 -109,-90 0,-49.706 48.801,-90 109,-90 60.199,0 109,40.294 109,90 z m 568.488,-252.823 c 0.905,0.544 1.774,1.123 2.658,1.686 C 1959.958,1069.417 1948,1090 1948,1090 c -122,-48 -76,106 -76,106 l -10.852,13.746 c -50.669,-32.739 -68.242,-96.938 -39.046,-145.231 29.829,-49.339 97.159,-63.37 150.386,-31.338 z"
       class="cls-57"
       id="path248"
       inkscape:connector-curvature="0"
       style="fill:#cc9b3d;fill-rule:evenodd" />
    <path
       d="m 1295,1376 c -7.397,0 -14.621,-0.612 -21.604,-1.771 C 1235.56,1366.165 1208,1341.361 1208,1312 c 0,-35.899 41.19,-65 92,-65 50.81,0 92,29.101 92,65 0,8.692 -2.433,16.979 -6.815,24.557 C 1365.572,1360.363 1332.499,1376 1295,1376 Z m 660.493,-299.87 c -4.656,8.984 -7.493,13.87 -7.493,13.87 -122,-48 -76,106 -76,106 l -10.852,13.746 c -11.932,-7.71 -22.002,-17.179 -30.085,-27.76 -5.795,-11.408 -9.063,-24.315 -9.063,-37.986 0,-46.392 37.608,-84 84,-84 18.507,0 35.612,5.99 49.493,16.13 z"
       class="cls-55"
       id="path250"
       inkscape:connector-curvature="0"
       style="fill:#deab49;fill-rule:evenodd" />
  </g>
</svg>
