<?xml version="1.0" encoding="UTF-8" standalone="no"?>
<svg
   xmlns:dc="http://purl.org/dc/elements/1.1/"
   xmlns:cc="http://creativecommons.org/ns#"
   xmlns:rdf="http://www.w3.org/1999/02/22-rdf-syntax-ns#"
   xmlns:svg="http://www.w3.org/2000/svg"
   xmlns="http://www.w3.org/2000/svg"
   xmlns:sodipodi="http://sodipodi.sourceforge.net/DTD/sodipodi-0.dtd"
   xmlns:inkscape="http://www.inkscape.org/namespaces/inkscape"
   preserveAspectRatio="xMidYMid"
   width="2731"
   height="1536"
   viewBox="0 0 2731 1536"
   id="svg2"
   version="1.1"
   inkscape:version="0.91 r"
   sodipodi:docname="MenuBackground.svg">
  <metadata
     id="metadata44">
    <rdf:RDF>
      <cc:Work
         rdf:about="">
        <dc:format>image/svg+xml</dc:format>
        <dc:type
           rdf:resource="http://purl.org/dc/dcmitype/StillImage" />
      </cc:Work>
    </rdf:RDF>
  </metadata>
  <sodipodi:namedview
     pagecolor="#ffffff"
     bordercolor="#666666"
     borderopacity="1"
     objecttolerance="10"
     gridtolerance="10"
     guidetolerance="10"
     inkscape:pageopacity="0"
     inkscape:pageshadow="2"
     inkscape:window-width="722"
     inkscape:window-height="480"
     id="namedview42"
     showgrid="false"
     inkscape:zoom="0.10106188"
     inkscape:cx="1365.5"
     inkscape:cy="768"
     inkscape:window-x="0"
     inkscape:window-y="0"
     inkscape:window-maximized="0"
     inkscape:current-layer="svg2" />
  <defs
     id="defs4">
    <style
       id="style6">
      .cls-1 {
        fill: #9cd3fc;
      }

      .cls-2 {
        fill: #8cc6f2;
      }

      .cls-10, .cls-11, .cls-2, .cls-3, .cls-4, .cls-5, .cls-6, .cls-7, .cls-8, .cls-9 {
        fill-rule: evenodd;
      }

      .cls-3 {
        fill: #fff;
      }

      .cls-4 {
        fill: #dbefff;
      }

      .cls-5 {
        fill: #a186be;
      }

      .cls-6 {
        fill: #8781bd;
      }

      .cls-7 {
        fill: #5e9426;
      }

      .cls-8 {
        fill: #4f7b1d;
      }

      .cls-9 {
        fill: #6da128;
      }

      .cls-10 {
        fill: #85c231;
      }

      .cls-11 {
        fill: #a1e546;
      }
    </style>
  </defs>
  <g
     id="g8">
    <g
       id="g10">
      <rect
         x="-7"
         width="2740"
         height="1536"
         class="cls-1"
         id="rect12"
         y="0"
         style="fill:#9cd3fc" />
      <path
         d="m 95.442,1215.174 512.39,-50.617 c 0,0 -355.054,-82.728 -503.747,-77.777 0,0 -427.462,-118.748 330.893,-196.293 0,0 141.503,-21.08 23.458,-19.753 0,0 -69.743,29.193 -191.374,-46.912 0,0 -27.704,-30.203 54.326,-29.63 0,0 296.251,-21.404 425.962,-53.085 129.711,-31.681 91.366,-103.702 91.366,-103.702 L 458.436,450.988 c 0,0 -115.541,-67.659 64.203,-16.049 l 169.151,18.518 c 0,0 -121.781,-166.624 290.148,-145.677 411.929,20.947 155.569,-79.011 155.569,-79.011 0,0 -50.218,-214.637 255.567,-165.222 2.045,0.33 4.106,0.672 6.184,1.027 312.643,53.322 674.307,-60.981 527.206,16.049 0,0 387.403,-47.737 160.507,82.715 0,0 156.255,118.705 -387.687,444.437 0,0 837.826,-278.462 296.322,30.864 0,0 218.688,-55.507 124.702,41.975 0,0 798.656,-415.406 23.458,102.467 0,0 -910.193,521.288 -50.621,338.267 0,0 786.988,-300.512 369.167,27.16 l 370.403,-172.837 c 0,0 17.255,539.835 17.285,565.424 0.029,25.589 -167.743,546.748 -538.318,546.905 C 1941.107,2088.157 -312,1755.906 -312,1755.906 L 95.442,1215.174 Z"
         class="cls-2"
         id="path14"
         inkscape:connector-curvature="0"
         style="fill:#8cc6f2;fill-rule:evenodd" />
      <path
         d="m 2476.541,290.057 c 142.973,-37.145 -133.569,107.017 -133.569,107.017 -249.64,101.032 -119.707,-3 -119.707,-3 -245.713,76.218 -947.58,246.038 -947.58,246.038 0,0 73.131,-48.489 157.51,-79.012 42.224,-15.275 72.319,0.925 127.268,-24.004 54.949,-24.929 134.828,-67.011 134.828,-67.011 0,0 221.246,-54.753 399.445,-119.018 C 2200.358,312.976 2302.65,251.051 2302.65,251.051 2509.191,170.225 2155.22,131.033 2155.22,131.033 1941.549,148.315 1980.069,104.028 1980.069,104.028 1944.491,36.659 1778.456,62.022 1778.456,62.022 1645.276,66.384 1552.902,34.017 1552.902,34.017 L 1401.693,-78 2439.998,2.012 c 0,0 -204.554,-58.09 -8.82,-7.001 C 2626.912,46.1 2694.138,72.403 2682,127 2669.862,181.597 2476.541,290.057 2476.541,290.057 Z M 1623.467,164.038 c 120.386,96.322 -233.115,150.023 -233.115,150.023 0,0 215.724,-62.898 206.653,-108.017 -9.802,-48.755 -244.455,-80.012 -244.455,-80.012 -165.248,-35.08 -319.811,21.975 -425.907,-9.002 -206.343,-60.245 -434.727,93.015 -434.727,93.015 -175.249,73.396 15.12,125.019 15.12,125.019 119.029,-9.617 83.166,24.004 83.166,24.004 36.251,59.933 64.264,32.005 64.264,32.005 66.396,-17.618 65.524,7.001 65.524,7.001 148.98,97.708 238.155,-2 238.155,-2 31.986,-43.391 78.125,-23.004 78.125,-23.004 150.434,-45.468 -132.309,-38.006 -132.309,-38.006 77.059,29.774 -23.941,27.005 -23.941,27.005 -294.277,-55.24 63.004,-64.01 63.004,-64.01 547.262,26.004 -45.363,154.024 -45.363,154.024 C 399.251,420.385 370.948,292.058 370.948,292.058 364.744,190.196 484.355,187.041 484.355,187.041 c 34.313,-8.693 63.004,-41.006 63.004,-41.006 49.24,-54.624 141.129,-55.009 141.129,-55.009 195.021,-112.094 366.683,-32.005 366.683,-32.005 85.588,22.081 123.488,15.003 123.488,15.003 83.456,-34.313 139.868,-8.002 139.868,-8.002 151.985,-22.618 304.94,98.016 304.94,98.016 z M 383.549,67.023 C 2.417,153.435 202.097,79.024 202.097,79.024 42.039,107.984 -25.977,169.038 -25.977,169.038 L -42.358,89.026 c 0,0 170.454,-66.44 333.921,-102.016 186.564,-40.603 369.203,-51.008 369.203,-51.008 0,0 103.914,44.609 -277.217,131.021 z M 28.206,542.097 c 36.75,-20.137 106.815,-35 107.107,55.008 0,0 28.37,59.655 206.653,46.007 0,0 288.321,-39.768 194.052,-1 0,0 471.698,1.157 85.686,48.008 -386.013,46.851 -573.415,25.955 -677.923,-8.001 -104.508,-33.957 32.762,-152.024 32.762,-152.024 0,0 14.913,32.139 51.663,12.002 z m 92.424,492.555 c 0,0 65.344,0.793 179.235,-10.37 0,0 162.324,-6.889 28.946,40.851 0,0 499.195,36.838 -347.426,55.92 -846.621,19.081 -15.651,-109.08 -15.651,-109.08 0,0 277.72,-91.311 154.896,22.679 z m 1748.552,-75.49 c 148.347,-152.124 264.617,-96.015 264.617,-96.015 106.494,-18.612 148.689,-56.009 148.689,-56.009 83.332,-51.896 154.99,-89.014 154.99,-89.014 C 2538.318,574.942 2784,493.089 2784,493.089 l -46.623,316.049 c 0,0 -237.48,122.617 -492.691,179.028 -255.212,56.412 535.903,-174.583 -79.385,-18.002 -615.288,156.58 -753.528,89.014 -753.528,89.014 409.852,-31.656 457.409,-100.016 457.409,-100.016 z"
         class="cls-3"
         id="path16"
         inkscape:connector-curvature="0"
         style="fill:#ffffff;fill-rule:evenodd" />
      <path
         d="m 2342.972,397.074 c -249.64,101.032 -119.707,-3 -119.707,-3 -245.713,76.218 -947.58,246.038 -947.58,246.038 0,0 88.252,-32.486 172.631,-63.01 42.224,-15.274 78.619,-12.077 133.568,-37.006 54.949,-24.928 112.147,-60.009 112.147,-60.009 8.469,6.546 291.947,-43.22 442.288,-129.02 94.192,-53.756 190.5,-93.161 201.613,-93.015 C 2672.372,178.906 2179.417,131.35 2155.22,131.033 1941.549,148.315 1996.45,76.024 1996.45,76.024 1960.872,8.654 1778.456,62.022 1771.054,43.526 1637.083,45.913 1572.914,10.64 1573.064,11.014 L 1401.693,-78 2282.488,33.017 c 0,0 -120.129,-66.091 75.605,-15.002 195.734,51.089 224.294,96.015 224.294,96.015 l 59.224,41.006 c -48.733,68.447 -165.07,135.021 -165.07,135.021 142.973,-37.145 -133.569,107.017 -133.569,107.017 z M 1614.646,170.039 c 102.248,81.81 -130.979,128.543 -203.582,140.769 56.514,-11.95 207.743,-54.275 186.825,-103.936 -19.724,-46.825 -245.339,-80.84 -245.339,-80.84 -165.248,-35.08 -319.811,21.975 -425.907,-9.002 -206.343,-60.245 -434.727,93.015 -434.727,93.015 -175.249,73.396 -10.081,137.021 -10.081,137.021 119.029,-9.617 108.367,12.002 84.7,15.002 29.328,60.81 87.881,34.172 89.191,34.006 66.396,-17.618 52.923,8.001 52.923,8.001 36.488,23.931 70.218,36.134 100.355,40.927 C 395.804,404.734 370.948,292.058 370.948,292.058 364.744,190.196 484.355,187.041 484.355,187.041 518.668,178.348 558.7,150.036 558.7,150.036 607.94,95.412 684.708,107.029 684.708,107.029 879.729,-5.065 1019.889,72.023 1019.889,72.023 c 85.588,22.081 158.77,14.003 158.77,14.003 83.456,-34.314 139.868,-8.002 139.868,-8.002 151.985,-22.619 296.119,92.015 296.119,92.015 z m -224.294,144.022 c 0,0 7.833,-1.084 20.712,-3.253 -12.315,2.604 -20.156,3.773 -20.712,3.253 z m -429.687,90.014 c 31.986,-43.391 75.605,-22.003 75.605,-22.003 174.315,-48.34 -132.309,-47.008 -132.309,-47.008 77.059,29.774 -23.941,27.005 -23.941,27.005 -151.526,-28.444 -110.034,-44.471 -49.143,-44.007 64.033,0.487 127.967,-11.662 124.748,-11.002 500.327,24.967 -68.738,144.357 -57.964,145.023 -21.535,-1.37 -42.172,-2.924 -61.988,-4.636 77.343,1.812 124.992,-43.372 124.992,-43.372 z m -151.661,40.927 c 8.711,0.849 17.61,1.662 26.669,2.445 -8.535,-0.2 -17.434,-0.977 -26.669,-2.445 z M 375.988,52.02 C -5.143,138.432 202.097,79.024 202.097,79.024 42.039,107.984 -25.977,169.038 -25.977,169.038 L -42.358,89.026 c 7.895,13.613 170.95,-43.69 334.195,-89.454 182.407,-51.137 368.929,-63.57 368.929,-63.57 0,0 96.353,29.606 -284.778,116.018 z M 28.206,542.097 c 36.75,-20.137 53.891,-6.995 54.184,83.013 0,0 69.953,43.652 248.235,30.004 0,0 246.738,-22.766 152.47,16.003 0,0 524.621,-27.848 138.609,19.003 -386.013,46.851 -573.415,25.955 -677.923,-8.001 -104.508,-33.957 32.762,-152.024 32.762,-152.024 0,0 14.913,32.139 51.663,12.002 z m 37.803,523.081 c 0,0 44.879,0.162 158.77,-11.001 0,0 210.243,-28.737 76.864,19.003 0,0 526.363,28.791 -320.258,47.873 -846.621,19.081 -15.651,-109.08 -15.651,-109.08 0,0 223.099,-60.784 100.275,53.205 z m 1805.693,-82.012 c 148.347,-152.125 233.115,-91.015 233.115,-91.015 106.494,-18.612 177.671,-65.01 177.671,-65.01 83.332,-51.896 167.591,-70.011 167.591,-70.011 C 2550.919,613.948 2784,493.089 2784,493.089 l -46.623,316.049 c 0,0 -237.48,122.617 -492.691,179.028 -255.212,56.412 535.903,-174.583 -79.385,-18.002 -615.288,156.58 -745.967,91.014 -745.967,91.014 343.813,2.703 452.368,-78.012 452.368,-78.012 z"
         class="cls-4"
         id="path18"
         inkscape:connector-curvature="0"
         style="fill:#dbefff;fill-rule:evenodd" />
    </g>
    <g
       id="g20">
      <path
         d="m 2086.333,876.544 c 59.631,16.82 118.889,35.842 177.676,57.064 -58.626,200.477 -117.251,400.955 -175.877,601.432 -46.931,-16.942 -94.237,-32.127 -141.842,-45.555 2.017,-29.888 3.856,-59.808 5.547,-89.753 -9.253,41.581 -18.506,83.162 -27.759,124.744 -33.481,-9.193 -67.107,-17.505 -100.85,-24.936 7.381,-41.356 14.763,-82.713 22.145,-124.069 -12.578,-2.772 -25.171,-5.432 -37.779,-7.971 0.346,-2.149 0.691,-4.298 1.036,-6.446 -40.854,-8.226 -81.856,-15.231 -122.965,-21.017 -3.255,28.546 -6.51,57.093 -9.765,85.64 -26.623,-3.747 -53.291,-6.965 -79.992,-9.654 1.354,-16.601 2.709,-33.202 4.063,-49.803 -22.17,-2.157 -44.361,-3.949 -66.566,-5.415 -1.551,28.033 -3.103,56.065 -4.655,84.097 -30.758,-2.101 -61.545,-3.494 -92.342,-4.176 1.042,-58.024 2.083,-116.047 3.125,-174.071 -23.832,-0.528 -47.669,-0.666 -71.504,-0.4 -1.583,-175.28 -3.167,-350.561 -4.75,-525.841 5.881,-0.066 11.763,-0.105 17.644,-0.13 -0.038,-11.146 -0.077,-22.292 -0.116,-33.438 7.444,-0.032 14.888,-0.032 22.333,0 -0.039,11.147 -0.078,22.294 -0.117,33.441 26.493,0.114 52.985,0.628 79.468,1.56 -1.662,58.288 -3.325,116.576 -4.987,174.864 7.788,0.274 15.576,0.597 23.362,0.947 0.229,-6.3 0.458,-12.6 0.687,-18.9 8.273,0.371 16.545,0.784 24.815,1.239 -0.281,6.297 -0.561,12.594 -0.842,18.891 3.674,0.202 7.348,0.404 11.021,0.623 1.936,-48.688 3.871,-94.575 5.807,-134.874 17.922,-21.139 36.195,-42.089 54.817,-62.839 18.427,23.688 36.43,47.572 54.008,71.638 -2.204,26.54 -4.407,55.528 -6.611,86.139 15.251,1.567 30.491,3.286 45.722,5.138 1.102,-11.193 2.204,-22.386 3.305,-33.578 4.854,0.589 9.708,1.193 14.56,1.812 -1.155,11.187 -2.31,22.374 -3.465,33.561 0.894,0.113 1.788,0.221 2.681,0.336 2.456,-23.58 4.911,-47.16 7.367,-70.739 12.654,1.627 25.301,3.349 37.939,5.168 1.349,-11.578 2.699,-23.156 4.049,-34.734 21.3,3.065 42.576,6.4 63.824,10.004 -1.586,11.541 -3.171,23.082 -4.757,34.622 12.284,2.084 24.559,4.259 36.824,6.525 3.049,-20.375 6.098,-40.75 9.148,-61.125 7.57,1.399 15.137,2.831 22.7,4.298 -3.196,20.347 -6.393,40.694 -9.59,61.041 5.521,1.071 11.038,2.168 16.554,3.276 7.095,-44.311 14.206,-88.619 21.291,-132.932 21.372,4.274 42.71,8.821 64.014,13.627 2.36,-12.875 4.721,-25.75 7.081,-38.625 11.632,2.633 23.253,5.344 34.863,8.133 -2.498,12.835 -4.996,25.671 -7.494,38.506 7.311,1.751 14.62,3.523 21.922,5.337 -16.6,82.286 -33.204,164.571 -49.806,246.856 19.122,4.758 38.209,9.74 57.257,14.966 -16.785,75.427 -33.57,150.853 -50.355,226.28 5.01,1.391 10.022,2.772 15.026,4.198 27.035,-118.327 54.07,-236.654 81.105,-354.982 z m -925.562,431.183 c -39.578,4.582 -79.081,10.224 -118.473,16.943 -25.249,-182.794 -74.535,-479.024 -99.779,-661.82 30.682,-20.164 61.867,-39.791 93.544,-58.857 31.364,10.703 62.372,21.956 93.013,33.739 6.845,85.381 18.856,195.133 31.243,306.662 26.726,-2.572 53.477,-4.705 80.246,-6.385 8.899,175.01 17.797,350.02 26.696,525.031 -30.708,1.927 -61.387,4.566 -92.019,7.918 -4.824,-54.41 -9.647,-108.821 -14.471,-163.231 z M 852.917,1409.89 C 806.499,1194.099 760.082,978.306 713.666,762.514 c 13.222,-3.511 26.463,-6.9 39.717,-10.203 -2.196,-10.88 -4.392,-21.76 -6.589,-32.64 23.851,-5.944 47.753,-11.554 71.698,-16.831 1.952,10.935 3.904,21.87 5.856,32.804 23.706,-5.224 47.456,-10.128 71.245,-14.691 33.973,218.635 67.946,437.27 101.918,655.905 -48.424,9.288 -96.647,20.299 -144.594,33.032 z m -123.812,239.112 c -61.704,-211.011 -123.407,-422.023 -185.109,-633.035 55.787,-20.139 112.009,-38.24 168.579,-54.302 49.442,214.961 98.883,429.922 148.324,644.884 -44.226,12.557 -88.18,26.708 -131.794,42.453 z"
         class="cls-5"
         id="path22"
         inkscape:connector-curvature="0"
         style="fill:#a186be;fill-rule:evenodd" />
      <path
         d="m 2116.495,1597.336 c -46.798,-15.207 -93.948,-28.938 -141.381,-41.194 58.417,-225.992 116.835,-451.983 175.252,-677.974 61.28,15.875 122.191,33.657 182.644,53.345 -72.171,221.941 -144.343,443.882 -216.515,665.823 z M 1902.85,1465.148 c -16.773,-3.663 -33.576,-7.139 -50.404,-10.449 -0.772,3.919 -1.544,7.838 -2.317,11.757 -24.745,-4.867 -49.548,-9.337 -74.397,-13.436 -2.755,-0.454 -5.508,-0.915 -8.264,-1.36 -2.708,-0.437 -5.418,-0.859 -8.128,-1.287 -2.758,-0.436 -5.516,-0.878 -8.276,-1.305 -2.708,-0.418 -5.418,-0.821 -8.127,-1.231 -2.763,-0.417 -5.526,-0.841 -8.291,-1.249 -2.706,-0.4 -5.414,-0.784 -8.122,-1.175 -24.956,-3.599 -49.953,-6.827 -74.984,-9.656 10.545,-93.148 21.089,-186.296 31.634,-279.444 25.123,2.839 50.216,6.033 75.273,9.569 6.71,-47.472 13.421,-94.944 20.132,-142.416 51.408,7.255 102.666,15.903 153.72,25.945 -13.892,70.504 -27.783,141.008 -41.674,211.511 18.174,3.575 36.322,7.329 54.437,11.286 -14.071,64.314 -28.142,128.627 -42.212,192.94 z m -447.874,-43.661 c 2.656,-81.744 5.312,-163.488 7.968,-245.232 48.545,1.575 97.058,4.456 145.485,8.644 -7.06,81.482 -14.119,162.965 -21.179,244.447 -44.029,-3.808 -88.137,-6.428 -132.274,-7.859 z m -146.029,-0.466 c -0.161,-5.984 -0.323,-11.969 -0.484,-17.953 -14.819,0.399 -29.635,0.928 -44.447,1.593 -2.418,-53.777 -4.837,-107.554 -7.255,-161.331 15.778,-0.708 31.562,-1.272 47.348,-1.697 -2.045,-75.788 -4.089,-151.575 -6.133,-227.363 51.455,-1.385 102.938,-1.385 154.392,-10e-4 -3.655,135.584 -7.31,271.168 -10.966,406.752 -44.143,-1.188 -88.311,-1.188 -132.455,0 z m -210.839,8.736 c -7.918,0.895 -15.833,1.819 -23.743,2.79 0.244,1.982 0.487,3.965 0.731,5.947 -43.905,5.393 -87.7,11.976 -131.335,19.746 -23.818,-133.529 -47.635,-267.058 -71.453,-400.587 50.863,-9.058 101.911,-16.73 153.087,-23.017 8.772,71.273 17.543,142.546 26.314,213.819 8.507,-1.045 17.018,-2.038 25.532,-3.001 -10.999,-97.139 -21.997,-194.278 -32.996,-291.418 52.613,-5.947 105.348,-10.471 158.147,-13.572 9.493,161.321 18.986,322.643 28.479,483.964 -44.097,2.59 -88.141,6.369 -132.083,11.335 -0.227,-2.002 -0.453,-4.004 -0.68,-6.006 z m -284.731,55.359 C 760.004,1257.882 706.63,1030.649 653.256,803.415 c 35.669,-8.364 71.448,-16.1 107.32,-23.208 45.44,228.949 90.879,457.898 136.319,686.848 -27.916,5.531 -55.76,11.551 -83.518,18.061 z m -179.579,111.993 c -58.6,-180.203 -117.2,-360.405 -175.8,-540.608 61.898,-19.988 124.285,-37.889 187.058,-53.704 46.65,183.639 93.301,367.279 139.951,550.918 -50.743,12.778 -101.173,27.243 -151.209,43.394 z"
         class="cls-6"
         id="path24"
         inkscape:connector-curvature="0"
         style="fill:#8781bd;fill-rule:evenodd" />
    </g>
    <g
       id="g26">
      <path
         d="m 1809.219,1164.014 c -318.107,127.449 -477.848,-83.004 -477.848,-83.004 -86.238,-182.565 74.976,-195.009 74.976,-195.009 117.778,46.488 15.995,107.005 15.995,107.005 -107.024,0.231 -24.992,-69.003 -24.992,-69.003 l -4.999,35.001 c -5.67,50.351 63.355,21.981 56.982,-24.001 -6.372,-45.982 -95.106,-57.655 -121.961,12.001 -13.454,34.897 16.69,164.16 121.961,213.009 104.853,48.655 284.756,16.978 310.902,11.001 112.846,-25.798 220.674,-140.281 386.877,-205.009 161.114,-62.747 261.917,-48.002 261.917,-48.002 88.381,15.414 91.971,52.002 91.971,52.002 -134.419,-172.574 -691.781,194.009 -691.781,194.009 z M 1960.046,928.01 c 0,0 -100.785,14.753 -261.869,-48.031 -166.173,-64.766 -273.981,-179.316 -386.807,-205.129 -11.821,-2.705 -55.079,-10.667 -108.617,-14.078 -68.67,18.058 -119.809,54.774 -119.269,102.133 0,0 -0.285,50.342 67.966,48.031 0,0 62.846,-3.908 56.972,-51.032 0,0 -6.121,-40.307 -34.983,-27.018 -20.211,9.307 -3.998,38.024 -3.998,38.024 0,0 -26.675,-2.065 -11.994,-31.019 0,0 26.245,-41.193 53.973,7.004 0,0 11.1,24.529 -6.996,46.029 0,0 -99.508,75.946 -130.935,-32.02 0,0 -17.756,-36.258 71.964,-84.053 0,0 14.391,-8.056 38.314,-17.062 -60.955,-2.437 -131.304,1.949 -183.241,26.068 -105.252,48.878 -135.391,178.217 -121.939,213.134 26.85,69.697 115.567,58.017 121.939,12.008 6.371,-46.009 -62.642,-74.395 -56.972,-24.015 l 4.998,35.022 c 0,0 -82.017,-69.275 24.987,-69.044 0,0 101.765,60.553 -15.992,107.068 0,0 -161.184,-12.451 -74.962,-195.123 0,0 115.899,-152.807 346.844,-119.25 27.452,-6.713 59.8,-11.424 94.177,-9.942 -73.308,-24.017 -157.391,-51.245 -254.115,-81.942 -352.792,-111.965 -382.808,218.138 -382.808,218.138 0,0 -32.921,-400.972 487.756,-197.125 54.717,21.423 106.059,41.933 154.196,61.194 25.58,1.55 52.194,6.593 78.687,16.856 0,0 13.108,8.062 32.965,21.358 282.717,93.789 359.091,122.474 406.614,110.076 -2.384,-30.704 -48.774,-45.38 -48.774,-45.38 -23.195,-3.867 -28.986,18.012 -28.986,18.012 6.321,-60.936 72.964,1 72.964,1 5.65,8.8 8.481,17.187 9.302,25.041 5.456,-1.787 10.585,-4.142 15.685,-7.029 149.855,-84.851 86.957,-135.086 86.957,-135.086 63.155,16.666 -34.343,120.139 -79.96,138.088 -7.086,2.788 -14.578,4.993 -22.488,6.643 1.78,36.173 -38.482,60.399 -38.482,60.399 -25.52,11.38 -54.286,12.924 -82.125,9.467 35.861,2.532 66.415,-4.901 86.123,-21.475 22.196,-18.665 29.994,-34.464 29.877,-47.507 -80.652,14.367 -203.322,-26.264 -380.841,-95.771 8.051,5.378 15.294,11.086 22.057,17.06 -9.107,-6.67 -17.901,-12.921 -26.144,-18.662 -26.102,-10.236 -53.379,-21.085 -81.875,-32.468 -39.757,-8.543 -82.09,-10.113 -121.963,-5.883 32.003,6.566 66.038,16.669 102.118,31.135 0,0 557.259,366.798 691.654,194.123 0,0 -3.589,36.609 -91.954,52.033 z m -229.052,-72.585 c -41.65,-2.941 -90.459,-19.327 -137.765,-50.493 -50.556,-33.307 -72.331,-68.324 -105.019,-97.2 40.778,29.866 87.5,67.837 116.014,103.204 0,0 60.781,36.295 126.77,44.489 z"
         class="cls-4"
         id="path28"
         inkscape:connector-curvature="0"
         style="fill:#dbefff;fill-rule:evenodd" />
      <path
         d="m 2203.196,584.028 c -35.11,5.059 -41.992,-18.001 -41.992,-18.001 l 17.997,-1 c 28.596,7.375 23.995,19.001 23.995,19.001 z m -87.13,573 -9.998,-6.001 c 0,0 2.905,-18.808 54.989,-24.001 0,0 -4.129,28.84 -44.991,30.002 z m -61,-948 -9.998,-6.001 c 0,0 2.905,-18.808 54.989,-24.001 0,0 -4.128,28.84 -44.991,30.002 z m -145.037,530.993 c 0,0 -12.673,-13.187 -25.995,-19.002 -14.148,-6.175 -28.994,-5 -28.994,-5 0,0 38.063,-26.666 69.985,2 0,0 15.588,27.338 43.992,28.002 0,0 -15.051,12.95 -58.988,-6 z m -183.963,103.007 -9.998,-6.001 c 0,0 2.905,-18.808 54.989,-24.001 0,0 -4.128,28.84 -44.991,30.002 z M 1532.105,715.019 c -24.638,42.997 -63.987,16.001 -63.987,16.001 0,0 14.539,2.581 27.994,-3 6.95,-2.883 11.999,-14.301 17.997,-16.001 7.445,-2.11 13.997,2 13.997,2 1.563,-14.051 14.997,-18.001 14.997,-18.001 l 2.999,4 c -10.641,-3.552 -13.997,15.001 -13.997,15.001 z M 1276.706,914.07 c -8.918,-1.815 -17.94,-1.849 -17.94,-1.849 -44.77,9.221 -26.893,38.022 -26.893,38.022 5.13,18.568 2.52,26.952 2.52,26.952 -42.441,-17.261 -27.715,-41.129 -27.715,-41.129 24.531,-56.91 92.843,-18.569 92.843,-18.569 l -3.89,2.225 c 0,0 -9.428,-3.72 -18.925,-5.652 z M 1117.189,660.015 c -71.097,54.205 0,88.006 0,88.006 40.297,0.372 47.991,-42.003 47.991,-42.003 4.454,90.446 -84.983,46.003 -84.983,46.003 -61.58,-85.784 45.99,-104.007 45.99,-104.007 36.089,-10.627 32.994,-33.002 32.994,-33.002 l 2.999,-1 c 0,0 8.881,-12.795 3.999,11.001 -4.881,23.796 -48.99,35.002 -48.99,35.002 z m -31.993,190.013 c -35.11,5.059 -41.992,-18.001 -41.992,-18.001 l 17.997,-1 c 28.596,7.375 23.995,19.001 23.995,19.001 z m -74.985,-223.015 c -36.535,47.136 -80.984,26.002 -80.984,26.002 -35.029,-12.459 -40.991,-51.004 -40.991,-51.004 0,0 8.378,17.473 26.994,20.001 21.647,2.941 53.989,-9 53.989,-9 29.633,-14.676 45.991,4 45.991,4 14.72,-19.158 13.997,-17.001 13.997,-17.001 -2.891,30.159 -18.996,27.002 -18.996,27.002 z M 818.25,894.031 c -94.05,-33.14 -39.992,-147.01 -39.992,-147.01 l 3.999,6 c 0,0 -4.938,15.545 -6.998,31.003 -1.935,14.514 -1,29.002 -1,29.002 19.711,70.859 63.987,39.002 63.987,39.002 29.246,-10.271 42.991,-7 42.991,-7 -23.055,70.025 -62.987,49.003 -62.987,49.003 z M 680.278,520.006 c -13.071,4.715 -14.997,22.001 -14.997,22.001 -9.612,-43.091 38.992,-69.005 38.992,-69.005 l -5.999,17.002 c -1.114,18.007 -17.996,30.002 -17.996,30.002 z m -114.899,668.402 c -10.619,-8.962 -26.552,-1.987 -26.552,-1.987 32.511,-29.87 79.255,-0.735 79.255,-0.735 l -17.722,3.306 c -16.153,8.038 -34.981,-0.584 -34.981,-0.584 z m 0.825,-1027.381 17.997,-1 c 28.596,7.375 23.995,19.001 23.995,19.001 -35.11,5.059 -41.992,-18.001 -41.992,-18.001 z"
         class="cls-7"
         id="path30"
         inkscape:connector-curvature="0"
         style="fill:#5e9426;fill-rule:evenodd" />
      <path
         d="m 600.36,1180.992 c -16.153,8.039 -34.981,-0.584 -34.981,-0.584 -2.98,-2.515 -6.377,-3.774 -9.724,-4.286 18.664,-6.789 38.502,-1.286 50.681,3.755 l -5.976,1.115 z m -29.523,-1020.223 13.364,-0.742 c 13.055,3.367 19.18,7.618 21.993,11.246 -19.806,2.319 -30.194,-4.536 -35.357,-10.504 z m 109.441,351.237 c -13.071,4.715 -14.997,22.001 -14.997,22.001 -0.557,-2.496 -0.899,-4.927 -1.086,-7.306 2.303,-27.4 27.124,-45.614 36.502,-51.563 l -2.423,6.866 c -1.114,18.007 -17.996,30.002 -17.996,30.002 z m 157.968,340.022 c 21.777,-7.648 34.954,-7.787 40.266,-7.36 -23.335,60.789 -60.262,41.363 -60.262,41.363 -41.93,-14.775 -54.411,-45.594 -55.38,-75.216 1.119,-33.729 15.388,-63.794 15.388,-63.794 l 2.375,3.564 c -1.628,5.895 -4.074,15.682 -5.374,25.438 -1.253,9.396 -1.303,18.775 -1.182,24.226 -0.162,7.438 0.182,12.777 0.182,12.777 19.711,70.859 63.987,39.002 63.987,39.002 z m 171.965,-233.015 c -36.535,47.136 -80.984,26.002 -80.984,26.002 -20.794,-7.396 -31.345,-23.985 -36.487,-36.246 4.261,5.211 11.631,11.768 22.49,13.243 21.647,2.941 53.989,-9 53.989,-9 29.633,-14.676 45.991,4 45.991,4 7.265,-9.455 10.765,-13.714 12.45,-15.607 -4.951,20.045 -17.449,17.608 -17.449,17.608 z m 37.626,212.756 13.364,-0.742 c 13.055,3.367 19.18,7.618 21.993,11.246 -19.806,2.319 -30.194,-4.536 -35.357,-10.504 z m 119.358,-220.441 c -0.234,1.611 -0.565,3.49 -1.016,5.685 -4.881,23.796 -48.99,35.002 -48.99,35.002 -26.158,19.943 -33.056,37.12 -31.34,50.872 -3.52,28.554 31.34,45.134 31.34,45.134 40.297,0.372 47.991,-42.003 47.991,-42.003 0.038,0.777 0.052,1.519 0.077,2.276 -2.708,76.634 -85.06,35.727 -85.06,35.727 -12.304,-17.139 -17.841,-31.574 -18.847,-43.713 3.642,-41.916 64.837,-52.294 64.837,-52.294 36.089,-10.627 32.994,-33.002 32.994,-33.002 l 2.999,-1 c 0,0 3.711,-5.34 5.015,-2.684 z m 61.537,322.227 c -1.725,8.824 3.141,16.688 3.141,16.688 1.839,6.657 2.674,11.983 3,16.105 -0.196,1.905 -0.48,2.847 -0.48,2.847 -21.384,-8.697 -28.249,-19.068 -29.803,-27.222 0.693,-3.638 2.088,-5.907 2.088,-5.907 10.95,-25.404 30.623,-31.822 49.05,-31.148 -26.049,6.297 -28.593,19.72 -26.996,28.637 z m 303.373,-226.536 c -1.239,2.162 -2.517,4.139 -3.823,5.96 0.736,-4.613 2.748,-8.089 5.088,-10.635 -0.889,2.614 -1.265,4.675 -1.265,4.675 z m -17.996,5 c 6.362,-1.804 12.058,0.929 13.584,1.764 -12.816,17.259 -28.41,19.074 -40.43,16.83 2.894,-0.553 5.894,-1.368 8.849,-2.593 6.95,-2.883 11.999,-14.301 17.997,-16.001 z m 205.383,119.063 c 5.097,-5.789 17.706,-14.204 48.56,-17.723 -4.525,8.615 -15.581,20.918 -41.986,21.668 l -6.574,-3.945 z m 190.537,-99.061 c 0,0 -12.673,-13.187 -25.995,-19.002 -5.02,-2.191 -10.116,-3.445 -14.617,-4.167 13.993,-5.159 35.962,-8.475 55.608,9.167 0,0 9.523,16.7 27.245,24.312 -9.323,0.166 -23.017,-2.019 -42.241,-10.31 z m 138.463,-534.939 c 5.097,-5.789 17.706,-14.204 48.56,-17.723 -4.525,8.615 -15.581,20.918 -41.986,21.669 l -6.574,-3.946 z m 61,948 c 5.097,-5.789 17.706,-14.204 48.56,-17.723 -4.525,8.615 -15.581,20.918 -41.986,21.669 l -6.574,-3.946 z m 56.345,-579.313 13.364,-0.742 c 13.055,3.367 19.18,7.618 21.993,11.246 -19.806,2.319 -30.194,-4.536 -35.357,-10.504 z"
         class="cls-8"
         id="path32"
         inkscape:connector-curvature="0"
         style="fill:#4f7b1d;fill-rule:evenodd" />
    </g>
    <g
       id="g34">
      <path
         d="m 0,1410.588 213.359,-32.41 c 0,0 7.731,-9.863 26.67,-18.818 32.805,-15.512 84.414,-27.69 37.338,14.636 0,0 138.261,-31.642 88.011,2.091 0,0 360.749,-44.344 757.426,-50.182 384.564,-5.66 805.431,27.182 805.431,27.182 0,0 13.464,-51.274 90.678,0 0,0 39.588,-34.13 226.694,29.273 0,0 69.591,-4.419 128.016,1.046 13.721,1.283 -26.67,4.181 -26.67,4.181 0,0 124.621,15.631 160.02,17.773 45.196,2.736 101.345,-1.045 101.345,-1.045 0,0 -1.086,4.052 -5.334,6.273 -3.717,1.943 -10.668,2.091 -10.668,2.091 L 2731,1434.633 2731,1696 0,1696 0,1410.588 Z"
         class="cls-9"
         id="path36"
         inkscape:connector-curvature="0"
         style="fill:#6da128;fill-rule:evenodd" />
      <path
         d="m 2731,1474.361 c -47.747,1.464 -40.005,-23 -40.005,-23 -13.21,0.522 -29.337,-10.455 -29.337,-10.455 -81.668,20.319 -48.006,-7.318 -48.006,-7.318 -84.657,3.967 -10.668,-28.228 -10.668,-28.228 -29.944,8.302 -114.68,13.591 -114.68,13.591 73.49,8.868 -16.002,29.273 -16.002,29.273 17.831,-0.933 10.668,15.682 10.668,15.682 80.482,4.245 -32.005,37.637 -32.005,37.637 -16.901,7.849 5.334,5.228 5.334,5.228 157.244,-44.276 106.68,3.136 106.68,3.136 98.327,1.507 26.67,24.046 26.67,24.046 56.401,41.098 -56.006,17.773 -56.006,17.773 -9.789,1.729 -24.003,-1.046 -24.003,-1.046 -56.836,24.423 -56.008,-11.5 -56.008,-11.5 -87.654,30.57 -42.671,-15.682 -42.671,-15.682 -10.283,4.384 -26.67,1.045 -26.67,1.045 -27.842,31.479 -90.678,11.5 -90.678,11.5 -19.376,-2.817 -10.668,2.092 -10.668,2.092 53.33,2.331 13.335,23 13.335,23 138.782,21.966 -48.006,28.227 -48.006,28.227 -72.346,30.338 -77.342,-12.545 -77.342,-12.545 -47.524,34.955 -69.342,0 -69.342,0 -46.465,20.82 -56.007,-2.091 -56.007,-2.091 -22.628,3.248 -18.669,-15.682 -18.669,-15.682 -36.146,39.395 -98.679,13.591 -98.679,13.591 -19.781,7.552 -50.673,-4.182 -50.673,-4.182 -16.366,12.12 -48.006,5.227 -48.006,5.227 -36.04,49.32 -136.016,9.41 -136.016,9.41 -22.672,20.362 -80.01,9.409 -80.01,9.409 -54.603,37.175 -112.014,-3.137 -112.014,-3.137 2.515,12.837 -26.669,7.319 -26.669,7.319 -28.449,26.886 -61.341,9.409 -61.341,9.409 -15.955,58.844 -80.01,15.682 -80.01,15.682 -48.745,19.668 -66.675,-4.182 -66.675,-4.182 -21.84,1.015 -18.669,-11.5 -18.669,-11.5 -110.05,19.804 -82.677,-11.5 -82.677,-11.5 -28.746,1.236 -32.004,-19.864 -32.004,-19.864 -17.823,9.979 -61.34,4.182 -61.34,4.182 -57.702,37.046 -74.676,-5.228 -74.676,-5.228 -67.129,22.06 -61.341,-8.363 -61.341,-8.363 -55.494,18.407 -66.675,-4.182 -66.675,-4.182 -21.72,5.811 -29.337,-4.182 -29.337,-4.182 -27.018,37.64 -74.676,15.682 -74.676,15.682 -69.927,25.052 -52.572,-18.818 -56.006,-18.818 -63.262,9.262 -26.67,-26.137 -26.67,-26.137 -8.371,-1.393 0,-8.364 0,-8.364 -138.868,10.773 -16.002,-25.091 -16.002,-25.091 -18.363,-2.539 -16.002,-16.728 -16.002,-16.728 -19.77,9.341 -48.006,0 -48.006,0 -92.673,29.534 -42.672,-15.682 -42.672,-15.682 -22.877,5.101 -34.671,0 -34.671,0 -19.772,20.583 -82.676,9.41 -82.676,9.41 -32.05,10.134 -37.339,-10.455 -37.339,-10.455 -43.63,6.075 -24.002,-15.682 -24.002,-15.682 -45.312,0.826 -26.67,-18.818 -26.67,-18.818 -11.885,0.18 -21.336,-7.319 -21.336,-7.319 -57.26,17.094 -80.01,-3.136 -80.01,-3.136 -84.04,24.39 -64.008,-12.546 -64.008,-12.546 -20.126,23.288 -74.676,17.773 -74.676,17.773 -85.358,47.119 -66.674,-2.091 -66.674,-2.091 C 29.904,1425.612 0,1426.27 0,1426.27 l 0,-15.682 213.359,-32.41 c 0,0 7.731,-9.863 26.67,-18.818 32.805,-15.512 84.414,-27.69 37.338,14.636 0,0 138.261,-31.642 88.011,2.091 0,0 122.213,-15.018 302.554,-28.725 -4.44,-11.935 -4.357,-21.114 1.113,-23.036 5.89,-2.069 16.378,4.851 26.414,16.542 13.096,-11.029 25.757,-17.065 31.301,-14.157 3.53,1.85 3.515,6.987 0.651,13.834 18.994,-10.43 36.518,-15.255 41.42,-10.88 2.342,2.091 1.431,5.956 -2,10.758 108.162,-6.948 230.252,-12.668 355.973,-14.518 4.64,-0.068 9.287,-0.13 13.938,-0.187 -3.218,-2.379 -4.716,-4.659 -4.016,-6.621 1.705,-4.772 15.91,-6.305 34.679,-4.4 -1.37,-2.581 -1.503,-4.722 -0.136,-6.191 5.049,-5.431 28.441,0.285 52.246,12.767 2.502,1.312 4.903,2.647 7.202,3.991 48.661,0.084 97.243,0.676 144.85,1.631 16.329,-17.106 34.886,-27.866 41.936,-24.169 4.885,2.561 2.988,11.411 -3.877,22.393 18.685,-10.129 35.791,-14.758 40.624,-10.444 2.851,2.544 0.889,7.715 -4.579,14.008 59.595,1.672 116.791,3.822 169.64,6.157 -5.993,-7.588 -8.032,-13.744 -4.585,-16.331 5.584,-4.191 23.64,2.418 42.081,14.964 -3.035,-10.002 -2.426,-17.434 2.433,-19.141 7.042,-2.474 20.659,7.904 32.215,23.923 143.611,7.25 240.78,14.832 240.78,14.832 0,0 13.229,-50.372 88.652,-1.33 -3.848,-11.149 -3.536,-19.6 1.688,-21.435 5.62,-1.975 15.429,4.237 25.036,14.97 10.902,-1.499 26.108,-2.081 46.913,-0.162 -2.779,-4.904 -3.207,-8.731 -0.675,-10.631 5.725,-4.297 24.561,2.756 43.48,15.924 -1.426,-7.41 -0.306,-12.699 3.695,-14.105 6.912,-2.428 20.158,7.525 31.573,23.041 22.195,5.593 47.505,13.022 76.325,22.77 -10.332,-18.151 -12.862,-34.201 -5.419,-36.816 7.646,-2.686 23.04,9.775 35.134,28.157 10.144,-9.861 20.054,-15.331 25.39,-13.174 4.91,1.985 4.771,9.952 0.528,20.394 22.393,-0.122 48.697,0.436 73.068,2.716 13.721,1.283 -26.67,4.181 -26.67,4.181 0,0 124.621,15.631 160.019,17.773 45.197,2.736 101.346,-1.045 101.346,-1.045 0,0 -1.086,4.052 -5.334,6.273 -3.717,1.943 -10.668,2.091 -10.668,2.091 l 138.684,21.954 0,39.728 z m -2357.621,27.182 c 0.81,-0.635 18.576,5.525 -10.668,14.637 -11.724,3.653 -26.67,2.091 -26.67,2.091 -13.447,-17.57 37.338,-16.728 37.338,-16.728 z m 8.001,20.909 c 11.088,10.425 -32.004,16.728 -32.004,16.728 -42.55,-7.425 24.003,-17.773 24.003,-17.773 l 8.001,1.045 z m 50.672,48.092 c -0.095,-0.023 -130.856,12.981 21.336,-24.046 0,0 69.398,-0.827 -5.333,31.364 -11.501,4.954 -16.003,-7.318 -16.003,-7.318 z m -16.002,109.774 c 0,0 -0.364,-4.677 5.335,-5.227 0,0 -20.895,-17.765 32.003,-14.637 0,0 20.918,-4.947 29.337,-4.182 0,0 41.843,-19.949 66.675,4.182 0,0 41.589,-4.168 40.005,7.318 0,0 103.097,-17.37 66.675,14.637 0,0 55.022,3.85 21.336,13.591 l -328.04,0 c 0,0 15.264,-16.601 66.674,-15.682 z m 698.753,-31.364 c 0,0 68.69,-7.42 -10.669,14.636 0,0 -17.001,1.7 -21.335,0 -3.598,-1.41 5.333,-6.272 5.333,-6.272 0,0 -55.974,-1.76 -26.669,-19.864 25.461,-15.73 53.34,11.5 53.34,11.5 z m 690.75,-14.637 c 0,0 14.721,-7.304 26.67,-4.181 12.053,3.149 21.336,16.727 21.336,16.727 -27.866,31.711 -53.34,0 -53.34,0 -42.732,23.305 -50.672,4.182 -50.672,4.182 31.476,-30.862 56.006,-16.728 56.006,-16.728 z m 297.6,-2.777 c 7.679,2.242 4.992,8.751 -6.002,14.541 -10.995,5.789 -26.133,8.666 -33.813,6.424 -7.68,-2.241 -4.993,-8.751 6.002,-14.54 10.994,-5.789 26.133,-8.666 33.813,-6.425 z m 29.995,6.496 c 5.489,1.666 3.569,6.503 -4.29,10.805 -7.859,4.303 -18.679,6.44 -24.168,4.775 -5.49,-1.666 -3.569,-6.503 4.29,-10.805 7.858,-4.303 18.679,-6.44 24.168,-4.775 z m 277.745,-41.508 c 4.292,-1.773 10.738,-3.42 18.83,-4.639 19.331,-2.911 40.564,-2.283 47.425,1.404 6.86,3.687 -3.25,9.035 -22.581,11.947 -11.968,1.802 -24.656,2.244 -34.22,1.448 2.189,5.711 -0.574,10.94 -7.714,12.945 -9.464,2.657 -23.021,-1.352 -30.28,-8.955 -7.26,-7.603 -5.473,-15.92 3.991,-18.578 7.34,-2.061 17.132,-0.099 24.549,4.428 z m 220.94,11.401 c 6.861,3.687 -3.249,9.036 -22.581,11.947 -19.331,2.911 -40.564,2.283 -47.425,-1.404 -6.86,-3.686 3.25,-9.035 22.581,-11.946 19.332,-2.912 40.565,-2.283 47.425,1.403 z m 54.026,-67.462 c 13.632,6.112 19.44,14.142 12.974,17.937 -6.465,3.794 -22.757,1.916 -36.389,-4.195 -13.631,-6.111 -19.44,-14.142 -12.974,-17.936 6.466,-3.795 22.758,-1.917 36.389,4.194 z"
         class="cls-10"
         id="path38"
         inkscape:connector-curvature="0"
         style="fill:#85c231;fill-rule:evenodd" />
      <path
         d="m 2496.305,1522.452 -10.668,-4.181 c 0,0 -32.131,-17.878 42.672,-19.864 0,0 24.611,2.141 -5.334,11.5 0,0 77.783,13.511 -26.67,12.545 z m -104.517,-77.601 c -6.015,-1.123 -6.487,-5.669 -1.056,-10.153 5.432,-4.484 14.71,-7.209 20.725,-6.085 6.014,1.124 6.487,5.669 1.055,10.154 -5.431,4.484 -14.71,7.208 -20.724,6.084 z m -46.798,-9.951 c -9.099,-1.863 -7.753,-6.954 3.008,-11.372 10.76,-4.418 26.859,-6.49 35.958,-4.627 9.1,1.862 7.753,6.954 -3.007,11.372 -10.76,4.418 -26.86,6.489 -35.959,4.627 z m -46.997,-6.341 c -4.008,-2.087 0.934,-6.203 11.039,-9.195 10.104,-2.992 21.545,-3.726 25.553,-1.64 4.008,2.087 -0.935,6.203 -11.039,9.195 -10.105,2.992 -21.545,3.726 -25.553,1.64 z m -68.388,45.802 c 0,0 -35.661,-3.405 -29.336,-8.364 5.637,-4.419 53.339,-10.454 53.339,-10.454 0,0 59.47,-12.381 26.67,5.227 0,0 12.68,23.865 -50.673,13.591 z m -98.678,-51.228 c -15.499,11.947 -26.67,2.091 -26.67,2.091 -17.225,7.018 -32.004,0 -32.004,0 -7.017,1.001 -26.67,-1.045 -26.67,-1.045 -34.326,-20.353 24.003,-10.455 24.003,-10.455 0,0 8.988,-14.035 29.337,-7.318 12.152,4.011 16.002,12.545 16.002,12.545 44.609,-17.056 42.672,-1.045 42.672,-1.045 -20.168,17.249 -26.67,5.227 -26.67,5.227 z m -315.401,122.569 c -4.449,-1.756 -1.162,-5.868 7.342,-9.185 8.504,-3.317 19.004,-4.582 23.453,-2.826 4.449,1.756 1.162,5.869 -7.342,9.186 -8.504,3.316 -19.004,4.582 -23.453,2.825 z m -25.647,-1.233 c -7.569,-1.413 -8.163,-7.131 -1.328,-12.771 6.835,-5.64 18.513,-9.067 26.082,-7.654 7.569,1.413 8.164,7.131 1.329,12.772 -6.836,5.64 -18.513,9.066 -26.083,7.653 z m -27.693,-81.359 c -4.449,-1.756 -1.162,-5.868 7.342,-9.185 8.504,-3.317 19.004,-4.582 23.453,-2.826 4.449,1.756 1.162,5.869 -7.342,9.186 -8.504,3.317 -19.004,4.582 -23.453,2.825 z m -87.814,18.664 c -5.607,-1.872 -3.958,-6.24 3.682,-9.757 7.64,-3.516 18.379,-4.85 23.986,-2.978 5.606,1.872 3.958,6.24 -3.682,9.757 -7.64,3.516 -18.379,4.85 -23.986,2.978 z m -100.638,112.746 c -10.035,-2.093 -9.964,-9.851 0.159,-17.329 10.123,-7.478 26.463,-11.843 36.498,-9.751 10.035,2.092 9.964,9.85 -0.159,17.328 -10.122,7.478 -26.463,11.844 -36.498,9.752 z m -8.205,-39.649 c -8.831,0 -15.991,-3.747 -15.991,-8.37 0,-4.622 7.16,-8.37 15.991,-8.37 8.832,0 15.992,3.748 15.992,8.37 0,4.623 -7.16,8.37 -15.992,8.37 z m -12.367,45.199 c -11.056,1.034 -24.097,-4.802 -29.127,-13.035 -5.03,-8.232 -0.145,-15.744 10.911,-16.778 11.056,-1.033 24.097,4.803 29.127,13.035 5.03,8.233 0.145,15.745 -10.911,16.778 z m -170.319,8.111 c -1.702,0 -3.363,-0.085 -4.971,-0.243 -4.996,3.868 -14.631,6.489 -25.702,6.489 -16.205,0 -29.342,-5.614 -29.342,-12.539 0,-6.925 13.137,-12.539 29.342,-12.539 2.851,0 5.604,0.177 8.21,0.501 4.226,-4.009 12.696,-6.747 22.463,-6.747 13.989,0 25.329,5.614 25.329,12.539 0,6.925 -11.34,12.539 -25.329,12.539 z m -113.355,-226.866 c 0,0 -32.498,6.772 -48.006,5.227 -11.797,-1.176 -8.545,-10.245 -8.044,-10.463 0.027,0.01 0.043,0.01 0.043,0.01 -0.01,-0.015 -0.025,-0.016 -0.043,-0.01 -1.643,-0.335 -51.134,-10.558 16.045,-13.583 0,0 27.935,-17.114 56.007,-3.136 0,0 53.686,-6.042 32.004,7.318 0,0 13.768,15.913 -48.006,14.637 z m -24.003,55.409 c 0,0 83.134,-11.833 0,10.455 0,0 -14.105,11.848 -21.336,4.182 0,0 -13.969,5.92 -29.337,2.091 0,0 -14.958,3.645 -29.337,4.182 -13.602,0.507 -26.669,-2.091 -26.669,-2.091 0,0 0.617,9.329 -29.337,2.091 0,0 -60.19,-15.85 -2.667,-14.637 0,0 22.711,-18.052 48.005,-3.136 0,0 15.554,-5.439 26.67,-2.091 0,0 20.914,-20.644 64.008,-1.046 z m -242.696,-26.136 c 0,0 -27.145,9.931 -37.338,0 0,0 -25.681,2.185 -34.671,-1.046 -6.655,-2.391 2.667,-10.455 2.667,-10.455 0,0 -34.066,-19.584 32.004,-8.363 0,0 39.071,-17.003 45.339,5.227 0,0 50,-12.893 37.338,2.091 0,0 69.25,10.622 -45.339,12.546 z m -83.922,142.743 c -8.504,3.317 -19.005,4.582 -23.454,2.826 -4.448,-1.756 -1.161,-5.869 7.343,-9.186 8.503,-3.317 19.004,-4.582 23.453,-2.825 4.449,1.756 1.161,5.868 -7.342,9.185 z m -119.303,-66.862 c -5.192,-2.048 -1.356,-6.842 8.568,-10.709 9.925,-3.867 22.179,-5.342 27.371,-3.295 5.192,2.048 1.355,6.842 -8.569,10.709 -9.924,3.867 -22.178,5.342 -27.37,3.295 z m 12.428,55.668 c 10.853,1.056 15.501,8.465 10.381,16.548 -5.12,8.083 -18.068,13.78 -28.921,12.724 -10.852,-1.057 -15.5,-8.466 -10.38,-16.549 5.119,-8.083 18.067,-13.78 28.92,-12.723 z m -89.77,-95.396 c -5.192,-2.047 -1.356,-6.842 8.568,-10.709 9.924,-3.867 22.178,-5.342 27.37,-3.295 5.192,2.048 1.356,6.843 -8.568,10.71 -9.924,3.867 -22.179,5.342 -27.37,3.294 z m 4.323,88.86 c 3.411,1.351 0.891,4.514 -5.63,7.066 -6.521,2.551 -14.573,3.524 -17.985,2.174 -3.411,-1.351 -0.891,-4.515 5.63,-7.066 6.521,-2.552 14.573,-3.525 17.985,-2.174 z m -52.329,-85.724 c -5.192,-2.047 -1.356,-6.842 8.568,-10.709 9.924,-3.867 22.178,-5.342 27.37,-3.294 5.192,2.047 1.356,6.842 -8.568,10.709 -9.924,3.867 -22.178,5.342 -27.37,3.294 z m -29.337,-76.319 c -5.192,-2.047 -1.356,-6.842 8.568,-10.709 9.924,-3.867 22.178,-5.342 27.37,-3.294 5.192,2.047 1.356,6.842 -8.568,10.709 -9.924,3.867 -22.178,5.342 -27.37,3.294 z m -28.804,19.257 c -31.042,0.636 -24.003,-4.182 -24.003,-4.182 4.773,-6.911 26.67,-5.227 26.67,-5.227 l 8.001,0 c 45.168,5.812 -10.668,9.409 -10.668,9.409 z m -74.622,2.034 c -6.141,-2.432 -1.603,-8.126 10.134,-12.718 11.738,-4.593 26.231,-6.345 32.372,-3.913 6.141,2.431 1.604,8.126 -10.134,12.718 -11.738,4.593 -26.231,6.345 -32.372,3.913 z m -34.725,-4.125 c -31.042,0.637 -24.003,-4.182 -24.003,-4.182 4.773,-6.911 26.67,-5.227 26.67,-5.227 l 8.001,0 c 45.168,5.812 -10.668,9.409 -10.668,9.409 z m -1.932,37.832 c 5.192,2.047 1.355,6.842 -8.569,10.709 -9.924,3.867 -22.178,5.342 -27.37,3.294 -0.288,-0.114 -0.539,-0.239 -0.773,-0.369 -3.165,1.747 -6.432,3.316 -9.194,4.393 -9.925,3.867 -22.179,5.342 -27.371,3.294 -5.192,-2.047 -1.355,-6.842 8.569,-10.709 9.924,-3.867 34.778,-10.764 39.97,-8.716 0.204,0.08 0.363,0.177 0.501,0.281 9.243,-3.015 19.58,-4.014 24.237,-2.177 z m -111.136,2.745 c -3.327,-2.099 2.201,-5.823 12.349,-8.317 10.147,-2.494 21.07,-2.815 24.397,-0.716 3.328,2.099 -2.201,5.823 -12.348,8.317 -10.148,2.495 -21.071,2.815 -24.398,0.716 z m 130.86,8.901 c 7.833,3.107 2.045,10.383 -12.927,16.251 -14.972,5.869 -33.459,8.107 -41.292,5 -7.834,-3.107 -2.046,-10.383 12.926,-16.252 14.972,-5.868 33.46,-8.106 41.293,-4.999 z m 156.297,62.582 c 5.192,2.047 1.356,6.842 -8.568,10.709 -9.924,3.867 -22.178,5.342 -27.37,3.294 -5.192,-2.047 -1.356,-6.842 8.568,-10.709 9.924,-3.867 22.178,-5.342 27.37,-3.294 z m 325.965,-35.733 c 13.988,0 25.328,3.042 25.328,6.793 0,3.751 -11.34,6.793 -25.328,6.793 -13.989,0 -25.329,-3.042 -25.329,-6.793 0,-3.751 11.34,-6.793 25.329,-6.793 z m 52.776,101.14 c 4.449,1.756 1.162,5.869 -7.342,9.186 -8.504,3.317 -19.004,4.582 -23.453,2.826 -4.449,-1.756 -1.162,-5.869 7.342,-9.186 8.504,-3.317 19.004,-4.582 23.453,-2.826 z m 103.23,-19.598 c 14.723,0 26.659,4.678 26.659,10.447 0,5.769 -11.936,10.447 -26.659,10.447 -14.724,0 -26.66,-4.678 -26.66,-10.447 0,-5.769 11.936,-10.447 26.66,-10.447 z m 67.458,-12.811 c 4.449,1.756 1.161,5.869 -7.342,9.185 -8.504,3.317 -19.004,4.582 -23.453,2.826 -4.449,-1.756 -1.162,-5.869 7.342,-9.185 8.503,-3.317 19.004,-4.582 23.453,-2.826 z m 12.1,35.84 c 10.035,2.092 9.964,9.85 -0.159,17.328 -10.122,7.478 -26.463,11.844 -36.498,9.751 -10.035,-2.092 -9.963,-9.85 0.159,-17.328 10.123,-7.478 26.464,-11.844 36.498,-9.751 z m -10.891,-97.011 c -4.449,-1.757 -1.162,-5.869 7.342,-9.186 8.503,-3.317 19.004,-4.582 23.453,-2.826 4.449,1.756 1.161,5.869 -7.342,9.186 -8.504,3.317 -19.005,4.582 -23.453,2.826 z m 62.799,104.035 c 4.448,1.756 1.161,5.869 -7.343,9.186 -8.503,3.316 -19.004,4.582 -23.453,2.825 -4.449,-1.756 -1.162,-5.868 7.342,-9.185 8.504,-3.317 19.005,-4.582 23.454,-2.826 z"
         class="cls-11"
         id="path40"
         inkscape:connector-curvature="0"
         style="fill:#a1e546;fill-rule:evenodd" />
    </g>
  </g>
</svg>
